G04 EAGLE Gerber RS-274X export*
G75*
%MOMM*%
%FSLAX34Y34*%
%LPD*%
%INBottom Copper*%
%IPPOS*%
%AMOC8*
5,1,8,0,0,1.08239X$1,22.5*%
G01*
%ADD10R,1.524000X1.524000*%
%ADD11P,1.649562X8X292.500000*%
%ADD12R,1.676400X1.676400*%
%ADD13C,1.676400*%
%ADD14C,4.016000*%
%ADD15C,1.778000*%
%ADD16C,3.500000*%
%ADD17R,1.288000X1.288000*%
%ADD18C,1.288000*%
%ADD19C,3.220000*%
%ADD20C,4.445000*%
%ADD21C,1.016000*%
%ADD22C,0.609600*%
%ADD23C,0.654800*%
%ADD24C,0.254000*%


D10*
X98800Y588600D03*
D11*
X124200Y588600D03*
X98800Y563200D03*
X124200Y563200D03*
X98800Y537800D03*
X124200Y537800D03*
X98800Y512400D03*
X124200Y512400D03*
X98800Y487000D03*
X124200Y487000D03*
X98800Y461600D03*
X124200Y461600D03*
X98800Y436200D03*
X124200Y436200D03*
X98800Y410800D03*
X124200Y410800D03*
X98800Y385400D03*
X124200Y385400D03*
X98800Y360000D03*
X124200Y360000D03*
X98800Y334600D03*
X124200Y334600D03*
X98800Y309200D03*
X124200Y309200D03*
X98800Y283800D03*
X124200Y283800D03*
X98800Y258400D03*
X124200Y258400D03*
X98800Y233000D03*
X124200Y233000D03*
X98800Y207600D03*
X124200Y207600D03*
X98800Y182200D03*
X124200Y182200D03*
X98800Y156800D03*
X124200Y156800D03*
D10*
X352800Y588600D03*
D11*
X378200Y588600D03*
X352800Y563200D03*
X378200Y563200D03*
X352800Y537800D03*
X378200Y537800D03*
X352800Y512400D03*
X378200Y512400D03*
X352800Y487000D03*
X378200Y487000D03*
X352800Y461600D03*
X378200Y461600D03*
X352800Y436200D03*
X378200Y436200D03*
X352800Y410800D03*
X378200Y410800D03*
X352800Y385400D03*
X378200Y385400D03*
X352800Y360000D03*
X378200Y360000D03*
X352800Y334600D03*
X378200Y334600D03*
X352800Y309200D03*
X378200Y309200D03*
X352800Y283800D03*
X378200Y283800D03*
X352800Y258400D03*
X378200Y258400D03*
X352800Y233000D03*
X378200Y233000D03*
X352800Y207600D03*
X378200Y207600D03*
X352800Y182200D03*
X378200Y182200D03*
X352800Y156800D03*
X378200Y156800D03*
D12*
X927100Y76200D03*
D13*
X927100Y533400D03*
X927100Y508000D03*
X927100Y482600D03*
X927100Y457200D03*
X927100Y431800D03*
X927100Y406400D03*
X927100Y381000D03*
X927100Y355600D03*
X927100Y330200D03*
X927100Y304800D03*
X927100Y279400D03*
X927100Y254000D03*
X927100Y228600D03*
X927100Y203200D03*
X927100Y177800D03*
X927100Y152400D03*
X927100Y127000D03*
X927100Y101600D03*
X927100Y558800D03*
D12*
X165100Y76200D03*
D13*
X165100Y127000D03*
X165100Y152400D03*
X165100Y177800D03*
X165100Y203200D03*
X165100Y228600D03*
X165100Y254000D03*
X165100Y279400D03*
X165100Y304800D03*
X165100Y330200D03*
X165100Y355600D03*
X165100Y381000D03*
X165100Y406400D03*
X165100Y431800D03*
X165100Y457200D03*
X165100Y482600D03*
X165100Y508000D03*
X165100Y533400D03*
X165100Y101600D03*
X165100Y558800D03*
D14*
X165100Y31750D03*
X165100Y603250D03*
X927100Y31750D03*
X927100Y603250D03*
D15*
X723900Y381000D03*
X723900Y406400D03*
X723900Y431800D03*
X723900Y457200D03*
X723900Y482600D03*
X723900Y508000D03*
X571500Y508000D03*
X571500Y482600D03*
X571500Y381000D03*
X571500Y406400D03*
D16*
X584200Y342900D03*
X584200Y546100D03*
X723900Y342900D03*
X723900Y546100D03*
D17*
X635000Y127000D03*
D18*
X660000Y127000D03*
X680000Y127000D03*
X705000Y127000D03*
D19*
X604300Y99900D03*
X735700Y99900D03*
D20*
X38100Y25400D03*
X38100Y609600D03*
X977900Y609600D03*
X977900Y25400D03*
D21*
X76200Y622300D03*
X88900Y63500D03*
X977900Y76200D03*
D22*
X317500Y304800D03*
D23*
X809577Y469900D03*
X809577Y406400D03*
D22*
X317500Y330200D03*
D23*
X711200Y114300D03*
X698500Y152400D03*
D24*
X165100Y177800D02*
X135630Y207270D01*
X135630Y212335D01*
X126395Y221570D01*
X119466Y221570D01*
X110230Y230806D01*
X110230Y237735D01*
X100995Y246970D01*
X94066Y246970D01*
X76200Y264836D01*
X110230Y498430D02*
X124200Y512400D01*
X110230Y498430D02*
X94066Y498430D01*
X76200Y480565D01*
X76200Y264836D01*
X135630Y232670D02*
X165100Y203200D01*
X135630Y232670D02*
X135630Y237735D01*
X126395Y246970D01*
X119466Y246970D01*
X110230Y256206D01*
X110230Y263135D01*
X100995Y272370D01*
X94066Y272370D01*
X87968Y397917D02*
X87968Y405468D01*
X87968Y397917D02*
X82290Y392239D01*
X82290Y284146D01*
X87968Y405468D02*
X87370Y406066D01*
X87370Y440935D02*
X94066Y447630D01*
X103535Y447630D01*
X104090Y447074D01*
X111726Y447074D01*
X87370Y440935D02*
X87370Y406066D01*
X111726Y447074D02*
X112770Y448119D01*
X124200Y477765D02*
X124200Y487000D01*
X112770Y466335D02*
X112770Y448119D01*
X112770Y466335D02*
X124200Y477765D01*
X82290Y284146D02*
X94066Y272370D01*
X135630Y258070D02*
X165100Y228600D01*
X135630Y258070D02*
X135630Y263135D01*
X119466Y272370D02*
X112770Y279066D01*
X94066Y297770D02*
X87370Y304466D01*
X87370Y390135D02*
X94066Y396830D01*
X124200Y452365D02*
X124200Y461600D01*
X124200Y452365D02*
X112770Y440935D01*
X112770Y285995D02*
X112770Y279066D01*
X112770Y285995D02*
X100995Y297770D01*
X94066Y297770D01*
X94066Y396830D02*
X100995Y396830D01*
X112770Y408606D01*
X126395Y272370D02*
X135630Y263135D01*
X126395Y272370D02*
X119466Y272370D01*
X87370Y304466D02*
X87370Y390135D01*
X112770Y408606D02*
X112770Y440935D01*
X139700Y522300D02*
X124200Y537800D01*
X139700Y522300D02*
X139700Y406400D01*
X139700Y279400D02*
X165100Y254000D01*
X112770Y390135D02*
X119466Y396830D01*
X112770Y304466D02*
X119466Y297770D01*
X126395Y297770D01*
X139700Y284465D01*
X139700Y279400D01*
X130130Y396830D02*
X139700Y406400D01*
X130130Y396830D02*
X119466Y396830D01*
X112770Y390135D02*
X112770Y304466D01*
X124200Y563200D02*
X135300Y563200D01*
X147320Y402989D02*
X142240Y397909D01*
X142240Y396240D01*
X139700Y393700D01*
X139700Y304800D02*
X165100Y279400D01*
X147320Y551180D02*
X135300Y563200D01*
X147320Y551180D02*
X147320Y402989D01*
X139700Y393700D02*
X139700Y304800D01*
X141300Y571500D02*
X124200Y588600D01*
X141300Y571500D02*
X152400Y571500D01*
X152400Y400884D02*
X147320Y395804D01*
X147320Y322580D01*
X165100Y304800D01*
X152400Y400884D02*
X152400Y571500D01*
X593077Y567530D02*
X605630Y554977D01*
X593077Y567530D02*
X575323Y567530D01*
X571500Y464639D02*
X571500Y406400D01*
X541020Y533227D02*
X575323Y567530D01*
X541020Y533227D02*
X541020Y419100D01*
X571500Y464639D02*
X605630Y498769D01*
X605630Y554977D01*
X541020Y419100D02*
X386065Y419100D01*
X382935Y422230D01*
X174670Y422230D02*
X165100Y431800D01*
X174670Y422230D02*
X382935Y422230D01*
X160050Y343408D02*
X152908Y350550D01*
X563880Y373380D02*
X571500Y381000D01*
X563880Y373380D02*
X563880Y353496D01*
X152908Y393192D02*
X152400Y393700D01*
X327828Y343408D02*
X348066Y323170D01*
X327828Y343408D02*
X160050Y343408D01*
X152908Y350550D02*
X152908Y393192D01*
X533554Y323170D02*
X563880Y353496D01*
X533554Y323170D02*
X348066Y323170D01*
X165100Y406400D02*
X152400Y393700D01*
X558800Y495300D02*
X571500Y508000D01*
X558800Y495300D02*
X558800Y355600D01*
X389965Y355600D01*
X341036Y355600D02*
X165100Y355600D01*
X382935Y348570D02*
X389965Y355600D01*
X348066Y348570D02*
X341036Y355600D01*
X348066Y348570D02*
X382935Y348570D01*
X584200Y502739D02*
X584200Y513261D01*
X576761Y520700D01*
X566239Y520700D01*
X546100Y500561D01*
X546100Y368300D01*
X571500Y482600D02*
X571500Y490039D01*
X584200Y502739D01*
X546100Y368300D02*
X386065Y368300D01*
X382935Y371430D01*
X348066Y371430D02*
X344936Y368300D01*
X165100Y368300D01*
X348066Y371430D02*
X382935Y371430D01*
X165100Y368300D02*
X165100Y381000D01*
M02*
