G04 EAGLE Gerber RS-274X export*
G75*
%MOMM*%
%FSLAX34Y34*%
%LPD*%
%INTop Copper*%
%IPPOS*%
%AMOC8*
5,1,8,0,0,1.08239X$1,22.5*%
G01*
%ADD10R,1.524000X1.524000*%
%ADD11P,1.649562X8X292.500000*%
%ADD12R,1.676400X1.676400*%
%ADD13C,1.676400*%
%ADD14C,4.016000*%
%ADD15C,1.778000*%
%ADD16C,3.500000*%
%ADD17R,0.949959X1.031241*%
%ADD18R,1.288000X1.288000*%
%ADD19C,1.288000*%
%ADD20C,3.220000*%
%ADD21C,4.445000*%
%ADD22C,1.016000*%
%ADD23C,0.254000*%
%ADD24C,0.609600*%
%ADD25C,0.654800*%

G36*
X1013454Y620957D02*
X1013454Y620957D01*
X1013456Y621000D01*
X1013434Y621114D01*
X1013419Y621229D01*
X1013403Y621269D01*
X1013395Y621313D01*
X1013368Y621369D01*
X1013454Y622356D01*
X1013454Y622377D01*
X1013459Y622466D01*
X1013459Y623715D01*
X1013464Y623732D01*
X1013470Y623832D01*
X1013473Y623852D01*
X1013472Y623865D01*
X1013474Y623893D01*
X1013474Y626055D01*
X1013463Y626140D01*
X1013462Y626225D01*
X1013435Y626360D01*
X1013434Y626370D01*
X1013432Y626374D01*
X1013431Y626383D01*
X1011666Y632970D01*
X1011612Y633101D01*
X1011563Y633232D01*
X1011550Y633254D01*
X1011545Y633265D01*
X1011534Y633281D01*
X1011479Y633370D01*
X1007568Y638956D01*
X1007473Y639060D01*
X1007382Y639167D01*
X1007362Y639183D01*
X1007354Y639192D01*
X1007338Y639203D01*
X1007256Y639268D01*
X1001670Y643179D01*
X1001545Y643245D01*
X1001423Y643314D01*
X1001399Y643322D01*
X1001389Y643328D01*
X1001369Y643332D01*
X1001270Y643366D01*
X994683Y645131D01*
X994598Y645142D01*
X994515Y645164D01*
X994379Y645172D01*
X994368Y645174D01*
X994364Y645173D01*
X994355Y645174D01*
X992193Y645174D01*
X992094Y645161D01*
X992025Y645159D01*
X990766Y645159D01*
X990745Y645157D01*
X990656Y645154D01*
X989682Y645069D01*
X989682Y645070D01*
X989570Y645098D01*
X989460Y645135D01*
X989416Y645138D01*
X989374Y645149D01*
X989213Y645159D01*
X26787Y645159D01*
X26743Y645154D01*
X26700Y645156D01*
X26586Y645134D01*
X26471Y645119D01*
X26431Y645103D01*
X26387Y645095D01*
X26331Y645068D01*
X25344Y645154D01*
X25323Y645154D01*
X25234Y645159D01*
X23985Y645159D01*
X23968Y645164D01*
X23868Y645170D01*
X23848Y645173D01*
X23835Y645172D01*
X23807Y645174D01*
X21645Y645174D01*
X21560Y645163D01*
X21475Y645162D01*
X21340Y645135D01*
X21330Y645134D01*
X21326Y645132D01*
X21317Y645131D01*
X14730Y643366D01*
X14599Y643312D01*
X14468Y643263D01*
X14446Y643250D01*
X14435Y643245D01*
X14419Y643234D01*
X14330Y643179D01*
X8744Y639268D01*
X8640Y639173D01*
X8533Y639082D01*
X8517Y639062D01*
X8508Y639054D01*
X8497Y639038D01*
X8432Y638956D01*
X4521Y633370D01*
X4455Y633245D01*
X4386Y633123D01*
X4378Y633099D01*
X4372Y633089D01*
X4368Y633069D01*
X4334Y632970D01*
X2569Y626383D01*
X2558Y626298D01*
X2536Y626215D01*
X2528Y626079D01*
X2526Y626068D01*
X2527Y626064D01*
X2526Y626055D01*
X2526Y623893D01*
X2539Y623794D01*
X2541Y623725D01*
X2541Y622466D01*
X2543Y622445D01*
X2546Y622356D01*
X2631Y621382D01*
X2630Y621382D01*
X2602Y621270D01*
X2565Y621160D01*
X2562Y621116D01*
X2551Y621074D01*
X2541Y620913D01*
X2541Y14087D01*
X2546Y14043D01*
X2544Y14000D01*
X2566Y13886D01*
X2581Y13771D01*
X2597Y13731D01*
X2605Y13687D01*
X2632Y13631D01*
X2546Y12644D01*
X2546Y12623D01*
X2541Y12534D01*
X2541Y11285D01*
X2536Y11268D01*
X2530Y11168D01*
X2527Y11148D01*
X2528Y11135D01*
X2526Y11107D01*
X2526Y8945D01*
X2537Y8860D01*
X2538Y8775D01*
X2565Y8640D01*
X2566Y8630D01*
X2568Y8626D01*
X2569Y8617D01*
X4334Y2030D01*
X4388Y1899D01*
X4437Y1768D01*
X4450Y1746D01*
X4455Y1735D01*
X4466Y1719D01*
X4521Y1630D01*
X8432Y-3956D01*
X8527Y-4060D01*
X8618Y-4167D01*
X8638Y-4183D01*
X8646Y-4192D01*
X8662Y-4203D01*
X8744Y-4268D01*
X14330Y-8179D01*
X14455Y-8245D01*
X14577Y-8314D01*
X14601Y-8322D01*
X14611Y-8328D01*
X14631Y-8332D01*
X14730Y-8366D01*
X21317Y-10131D01*
X21402Y-10142D01*
X21485Y-10164D01*
X21621Y-10172D01*
X21632Y-10174D01*
X21636Y-10173D01*
X21645Y-10174D01*
X23807Y-10174D01*
X23906Y-10161D01*
X23970Y-10159D01*
X25234Y-10159D01*
X25255Y-10157D01*
X25344Y-10154D01*
X26318Y-10069D01*
X26318Y-10070D01*
X26430Y-10098D01*
X26540Y-10135D01*
X26584Y-10138D01*
X26626Y-10149D01*
X26787Y-10159D01*
X989213Y-10159D01*
X989257Y-10154D01*
X989300Y-10156D01*
X989414Y-10134D01*
X989529Y-10119D01*
X989569Y-10103D01*
X989613Y-10095D01*
X989669Y-10068D01*
X990656Y-10154D01*
X990677Y-10154D01*
X990766Y-10159D01*
X992015Y-10159D01*
X992032Y-10164D01*
X992131Y-10170D01*
X992151Y-10173D01*
X992164Y-10172D01*
X992193Y-10174D01*
X994355Y-10174D01*
X994440Y-10163D01*
X994525Y-10162D01*
X994660Y-10135D01*
X994670Y-10134D01*
X994674Y-10132D01*
X994683Y-10131D01*
X1001270Y-8366D01*
X1001401Y-8312D01*
X1001532Y-8263D01*
X1001554Y-8250D01*
X1001565Y-8245D01*
X1001581Y-8234D01*
X1001670Y-8179D01*
X1007256Y-4268D01*
X1007360Y-4173D01*
X1007467Y-4082D01*
X1007483Y-4062D01*
X1007492Y-4054D01*
X1007503Y-4038D01*
X1007568Y-3956D01*
X1011479Y1630D01*
X1011545Y1754D01*
X1011614Y1877D01*
X1011622Y1901D01*
X1011628Y1911D01*
X1011632Y1931D01*
X1011666Y2030D01*
X1013431Y8617D01*
X1013442Y8702D01*
X1013464Y8784D01*
X1013472Y8921D01*
X1013474Y8932D01*
X1013473Y8936D01*
X1013474Y8945D01*
X1013474Y11107D01*
X1013461Y11206D01*
X1013459Y11275D01*
X1013459Y12534D01*
X1013457Y12555D01*
X1013454Y12644D01*
X1013369Y13618D01*
X1013370Y13618D01*
X1013398Y13730D01*
X1013435Y13840D01*
X1013438Y13884D01*
X1013449Y13926D01*
X1013459Y14087D01*
X1013459Y620913D01*
X1013454Y620957D01*
G37*
%LPC*%
G36*
X76200Y570231D02*
X76200Y570231D01*
X76318Y570246D01*
X76437Y570253D01*
X76475Y570266D01*
X76516Y570271D01*
X76626Y570314D01*
X76739Y570351D01*
X76774Y570373D01*
X76811Y570388D01*
X76907Y570458D01*
X77008Y570521D01*
X77036Y570551D01*
X77069Y570574D01*
X77145Y570666D01*
X77226Y570753D01*
X77246Y570788D01*
X77271Y570819D01*
X77322Y570927D01*
X77380Y571031D01*
X77390Y571071D01*
X77407Y571107D01*
X77429Y571224D01*
X77459Y571339D01*
X77463Y571400D01*
X77467Y571420D01*
X77465Y571440D01*
X77469Y571500D01*
X77469Y609922D01*
X77455Y610034D01*
X77449Y610146D01*
X77447Y610152D01*
X77447Y610159D01*
X77434Y610198D01*
X77429Y610238D01*
X77388Y610343D01*
X77355Y610450D01*
X77351Y610455D01*
X77349Y610462D01*
X77327Y610496D01*
X77312Y610534D01*
X77246Y610625D01*
X77187Y610720D01*
X77182Y610725D01*
X77179Y610730D01*
X77149Y610758D01*
X77126Y610791D01*
X77039Y610863D01*
X76958Y610940D01*
X76952Y610944D01*
X76947Y610948D01*
X76912Y610968D01*
X76881Y610994D01*
X76779Y611042D01*
X76681Y611097D01*
X76672Y611100D01*
X76669Y611102D01*
X76658Y611105D01*
X76612Y611120D01*
X76593Y611129D01*
X76575Y611133D01*
X76528Y611148D01*
X70668Y612719D01*
X66619Y616768D01*
X65136Y622300D01*
X66619Y627832D01*
X70668Y631881D01*
X76528Y633452D01*
X76632Y633494D01*
X76739Y633529D01*
X76774Y633550D01*
X76811Y633565D01*
X76817Y633569D01*
X76823Y633572D01*
X76913Y633639D01*
X77008Y633699D01*
X77036Y633728D01*
X77039Y633731D01*
X938531Y633731D01*
X938531Y623848D01*
X938534Y623818D01*
X938532Y623789D01*
X938554Y623661D01*
X938571Y623532D01*
X938581Y623505D01*
X938587Y623476D01*
X938640Y623357D01*
X938688Y623237D01*
X938705Y623213D01*
X938717Y623186D01*
X938798Y623084D01*
X938874Y622979D01*
X938897Y622960D01*
X938916Y622937D01*
X939019Y622859D01*
X939119Y622776D01*
X939146Y622764D01*
X939170Y622746D01*
X939314Y622675D01*
X939914Y622427D01*
X946277Y616064D01*
X949721Y607750D01*
X949721Y598750D01*
X946277Y590436D01*
X939914Y584073D01*
X939314Y583825D01*
X939289Y583810D01*
X939261Y583801D01*
X939151Y583732D01*
X939038Y583667D01*
X939017Y583647D01*
X938992Y583631D01*
X938903Y583536D01*
X938810Y583446D01*
X938794Y583421D01*
X938774Y583399D01*
X938711Y583286D01*
X938643Y583175D01*
X938635Y583147D01*
X938620Y583121D01*
X938588Y582995D01*
X938550Y582871D01*
X938548Y582841D01*
X938541Y582813D01*
X938531Y582652D01*
X938531Y571500D01*
X938546Y571382D01*
X938553Y571263D01*
X938566Y571225D01*
X938571Y571184D01*
X938614Y571074D01*
X938651Y570961D01*
X938673Y570926D01*
X938688Y570889D01*
X938758Y570793D01*
X938821Y570692D01*
X938851Y570664D01*
X938874Y570631D01*
X938966Y570556D01*
X939053Y570474D01*
X939088Y570454D01*
X939119Y570429D01*
X939227Y570378D01*
X939331Y570320D01*
X939371Y570310D01*
X939407Y570293D01*
X939524Y570271D01*
X939639Y570241D01*
X939700Y570237D01*
X939720Y570233D01*
X939740Y570235D01*
X939800Y570231D01*
X1002031Y570231D01*
X1002031Y64769D01*
X939800Y64769D01*
X939682Y64754D01*
X939563Y64747D01*
X939525Y64734D01*
X939484Y64729D01*
X939374Y64686D01*
X939261Y64649D01*
X939226Y64627D01*
X939189Y64612D01*
X939093Y64543D01*
X938992Y64479D01*
X938964Y64449D01*
X938931Y64426D01*
X938856Y64334D01*
X938774Y64247D01*
X938754Y64212D01*
X938729Y64181D01*
X938678Y64073D01*
X938620Y63969D01*
X938610Y63929D01*
X938593Y63893D01*
X938571Y63776D01*
X938541Y63661D01*
X938537Y63601D01*
X938533Y63581D01*
X938535Y63560D01*
X938531Y63500D01*
X938531Y52348D01*
X938534Y52318D01*
X938532Y52289D01*
X938554Y52161D01*
X938571Y52032D01*
X938581Y52005D01*
X938587Y51976D01*
X938640Y51857D01*
X938688Y51737D01*
X938705Y51713D01*
X938717Y51686D01*
X938798Y51584D01*
X938874Y51479D01*
X938897Y51460D01*
X938916Y51437D01*
X939019Y51359D01*
X939119Y51276D01*
X939146Y51264D01*
X939170Y51246D01*
X939314Y51175D01*
X939914Y50927D01*
X946277Y44564D01*
X949721Y36250D01*
X949721Y27250D01*
X946277Y18936D01*
X939914Y12573D01*
X939314Y12325D01*
X939289Y12310D01*
X939261Y12301D01*
X939151Y12232D01*
X939038Y12167D01*
X939017Y12147D01*
X938992Y12131D01*
X938903Y12036D01*
X938810Y11946D01*
X938794Y11921D01*
X938774Y11899D01*
X938711Y11786D01*
X938643Y11675D01*
X938635Y11647D01*
X938620Y11621D01*
X938588Y11495D01*
X938550Y11371D01*
X938548Y11341D01*
X938541Y11313D01*
X938531Y11152D01*
X938531Y1269D01*
X77469Y1269D01*
X77469Y63500D01*
X77454Y63618D01*
X77447Y63737D01*
X77434Y63775D01*
X77429Y63816D01*
X77386Y63926D01*
X77349Y64039D01*
X77327Y64074D01*
X77312Y64111D01*
X77243Y64207D01*
X77179Y64308D01*
X77149Y64336D01*
X77126Y64369D01*
X77034Y64445D01*
X76947Y64526D01*
X76912Y64546D01*
X76881Y64571D01*
X76773Y64622D01*
X76669Y64680D01*
X76629Y64690D01*
X76593Y64707D01*
X76476Y64729D01*
X76361Y64759D01*
X76301Y64763D01*
X76281Y64767D01*
X76260Y64765D01*
X76200Y64769D01*
X13969Y64769D01*
X13969Y570231D01*
X76200Y570231D01*
G37*
%LPD*%
%LPC*%
G36*
X980439Y612139D02*
X980439Y612139D01*
X980439Y634236D01*
X982055Y634054D01*
X984767Y633435D01*
X987392Y632517D01*
X989899Y631310D01*
X992254Y629830D01*
X994429Y628095D01*
X996395Y626129D01*
X998130Y623954D01*
X999610Y621599D01*
X1000817Y619092D01*
X1001735Y616467D01*
X1002354Y613755D01*
X1002536Y612139D01*
X980439Y612139D01*
G37*
%LPD*%
%LPC*%
G36*
X40639Y612139D02*
X40639Y612139D01*
X40639Y634236D01*
X42255Y634054D01*
X44967Y633435D01*
X47592Y632517D01*
X50099Y631310D01*
X52454Y629830D01*
X54629Y628095D01*
X56595Y626129D01*
X58330Y623954D01*
X59810Y621599D01*
X61017Y619092D01*
X61935Y616467D01*
X62554Y613755D01*
X62736Y612139D01*
X40639Y612139D01*
G37*
%LPD*%
%LPC*%
G36*
X980439Y27939D02*
X980439Y27939D01*
X980439Y50036D01*
X982055Y49854D01*
X984767Y49235D01*
X987392Y48317D01*
X989899Y47110D01*
X992254Y45630D01*
X994429Y43895D01*
X996395Y41929D01*
X998130Y39754D01*
X999610Y37399D01*
X1000817Y34892D01*
X1001735Y32267D01*
X1002354Y29555D01*
X1002536Y27939D01*
X980439Y27939D01*
G37*
%LPD*%
%LPC*%
G36*
X40639Y27939D02*
X40639Y27939D01*
X40639Y50036D01*
X42255Y49854D01*
X44967Y49235D01*
X47592Y48317D01*
X50099Y47110D01*
X52454Y45630D01*
X54629Y43895D01*
X56595Y41929D01*
X58330Y39754D01*
X59810Y37399D01*
X61017Y34892D01*
X61935Y32267D01*
X62554Y29555D01*
X62736Y27939D01*
X40639Y27939D01*
G37*
%LPD*%
%LPC*%
G36*
X953264Y612139D02*
X953264Y612139D01*
X953446Y613755D01*
X954065Y616467D01*
X954983Y619092D01*
X956190Y621599D01*
X957670Y623954D01*
X959405Y626129D01*
X961371Y628095D01*
X963546Y629830D01*
X965901Y631310D01*
X968408Y632517D01*
X971033Y633435D01*
X973745Y634054D01*
X975361Y634236D01*
X975361Y612139D01*
X953264Y612139D01*
G37*
%LPD*%
%LPC*%
G36*
X13464Y612139D02*
X13464Y612139D01*
X13646Y613755D01*
X14265Y616467D01*
X15183Y619092D01*
X16390Y621599D01*
X17870Y623954D01*
X19605Y626129D01*
X21571Y628095D01*
X23746Y629830D01*
X26101Y631310D01*
X28608Y632517D01*
X31233Y633435D01*
X33945Y634054D01*
X35561Y634236D01*
X35561Y612139D01*
X13464Y612139D01*
G37*
%LPD*%
%LPC*%
G36*
X980439Y607061D02*
X980439Y607061D01*
X1002536Y607061D01*
X1002354Y605445D01*
X1001735Y602733D01*
X1000817Y600108D01*
X999610Y597601D01*
X998130Y595246D01*
X996395Y593071D01*
X994429Y591105D01*
X992254Y589370D01*
X989899Y587890D01*
X987392Y586683D01*
X984767Y585765D01*
X982055Y585146D01*
X980439Y584964D01*
X980439Y607061D01*
G37*
%LPD*%
%LPC*%
G36*
X40639Y607061D02*
X40639Y607061D01*
X62736Y607061D01*
X62554Y605445D01*
X61935Y602733D01*
X61017Y600108D01*
X59810Y597601D01*
X58330Y595246D01*
X56595Y593071D01*
X54629Y591105D01*
X52454Y589370D01*
X50099Y587890D01*
X47592Y586683D01*
X44967Y585765D01*
X42255Y585146D01*
X40639Y584964D01*
X40639Y607061D01*
G37*
%LPD*%
%LPC*%
G36*
X953264Y27939D02*
X953264Y27939D01*
X953446Y29555D01*
X954065Y32267D01*
X954983Y34892D01*
X956190Y37399D01*
X957670Y39754D01*
X959405Y41929D01*
X961371Y43895D01*
X963546Y45630D01*
X965901Y47110D01*
X968408Y48317D01*
X971033Y49235D01*
X973745Y49854D01*
X975361Y50036D01*
X975361Y27939D01*
X953264Y27939D01*
G37*
%LPD*%
%LPC*%
G36*
X13464Y27939D02*
X13464Y27939D01*
X13646Y29555D01*
X14265Y32267D01*
X15183Y34892D01*
X16390Y37399D01*
X17870Y39754D01*
X19605Y41929D01*
X21571Y43895D01*
X23746Y45630D01*
X26101Y47110D01*
X28608Y48317D01*
X31233Y49235D01*
X33945Y49854D01*
X35561Y50036D01*
X35561Y27939D01*
X13464Y27939D01*
G37*
%LPD*%
%LPC*%
G36*
X980439Y22861D02*
X980439Y22861D01*
X1002536Y22861D01*
X1002354Y21245D01*
X1001735Y18533D01*
X1000817Y15908D01*
X999610Y13401D01*
X998130Y11046D01*
X996395Y8871D01*
X994429Y6905D01*
X992254Y5170D01*
X989899Y3690D01*
X987392Y2483D01*
X984767Y1565D01*
X982055Y946D01*
X980439Y764D01*
X980439Y22861D01*
G37*
%LPD*%
%LPC*%
G36*
X40639Y22861D02*
X40639Y22861D01*
X62736Y22861D01*
X62554Y21245D01*
X61935Y18533D01*
X61017Y15908D01*
X59810Y13401D01*
X58330Y11046D01*
X56595Y8871D01*
X54629Y6905D01*
X52454Y5170D01*
X50099Y3690D01*
X47592Y2483D01*
X44967Y1565D01*
X42255Y946D01*
X40639Y764D01*
X40639Y22861D01*
G37*
%LPD*%
%LPC*%
G36*
X973745Y585146D02*
X973745Y585146D01*
X971033Y585765D01*
X968408Y586683D01*
X965901Y587890D01*
X963546Y589370D01*
X961371Y591105D01*
X959405Y593071D01*
X957670Y595246D01*
X956190Y597601D01*
X954983Y600108D01*
X954065Y602733D01*
X953446Y605445D01*
X953264Y607061D01*
X975361Y607061D01*
X975361Y584964D01*
X973745Y585146D01*
G37*
%LPD*%
%LPC*%
G36*
X33945Y585146D02*
X33945Y585146D01*
X31233Y585765D01*
X28608Y586683D01*
X26101Y587890D01*
X23746Y589370D01*
X21571Y591105D01*
X19605Y593071D01*
X17870Y595246D01*
X16390Y597601D01*
X15183Y600108D01*
X14265Y602733D01*
X13646Y605445D01*
X13464Y607061D01*
X35561Y607061D01*
X35561Y584964D01*
X33945Y585146D01*
G37*
%LPD*%
%LPC*%
G36*
X33945Y946D02*
X33945Y946D01*
X31233Y1565D01*
X28608Y2483D01*
X26101Y3690D01*
X23746Y5170D01*
X21571Y6905D01*
X19605Y8871D01*
X17870Y11046D01*
X16390Y13401D01*
X15183Y15908D01*
X14265Y18533D01*
X13646Y21245D01*
X13464Y22861D01*
X35561Y22861D01*
X35561Y764D01*
X33945Y946D01*
G37*
%LPD*%
%LPC*%
G36*
X973745Y946D02*
X973745Y946D01*
X971033Y1565D01*
X968408Y2483D01*
X965901Y3690D01*
X963546Y5170D01*
X961371Y6905D01*
X959405Y8871D01*
X957670Y11046D01*
X956190Y13401D01*
X954983Y15908D01*
X954065Y18533D01*
X953446Y21245D01*
X953264Y22861D01*
X975361Y22861D01*
X975361Y764D01*
X973745Y946D01*
G37*
%LPD*%
%LPC*%
G36*
X38099Y609599D02*
X38099Y609599D01*
X38099Y609601D01*
X38101Y609601D01*
X38101Y609599D01*
X38099Y609599D01*
G37*
%LPD*%
%LPC*%
G36*
X977899Y609599D02*
X977899Y609599D01*
X977899Y609601D01*
X977901Y609601D01*
X977901Y609599D01*
X977899Y609599D01*
G37*
%LPD*%
%LPC*%
G36*
X38099Y25399D02*
X38099Y25399D01*
X38099Y25401D01*
X38101Y25401D01*
X38101Y25399D01*
X38099Y25399D01*
G37*
%LPD*%
%LPC*%
G36*
X977899Y25399D02*
X977899Y25399D01*
X977899Y25401D01*
X977901Y25401D01*
X977901Y25399D01*
X977899Y25399D01*
G37*
%LPD*%
D10*
X98800Y588600D03*
D11*
X124200Y588600D03*
X98800Y563200D03*
X124200Y563200D03*
X98800Y537800D03*
X124200Y537800D03*
X98800Y512400D03*
X124200Y512400D03*
X98800Y487000D03*
X124200Y487000D03*
X98800Y461600D03*
X124200Y461600D03*
X98800Y436200D03*
X124200Y436200D03*
X98800Y410800D03*
X124200Y410800D03*
X98800Y385400D03*
X124200Y385400D03*
X98800Y360000D03*
X124200Y360000D03*
X98800Y334600D03*
X124200Y334600D03*
X98800Y309200D03*
X124200Y309200D03*
X98800Y283800D03*
X124200Y283800D03*
X98800Y258400D03*
X124200Y258400D03*
X98800Y233000D03*
X124200Y233000D03*
X98800Y207600D03*
X124200Y207600D03*
X98800Y182200D03*
X124200Y182200D03*
X98800Y156800D03*
X124200Y156800D03*
D10*
X352800Y588600D03*
D11*
X378200Y588600D03*
X352800Y563200D03*
X378200Y563200D03*
X352800Y537800D03*
X378200Y537800D03*
X352800Y512400D03*
X378200Y512400D03*
X352800Y487000D03*
X378200Y487000D03*
X352800Y461600D03*
X378200Y461600D03*
X352800Y436200D03*
X378200Y436200D03*
X352800Y410800D03*
X378200Y410800D03*
X352800Y385400D03*
X378200Y385400D03*
X352800Y360000D03*
X378200Y360000D03*
X352800Y334600D03*
X378200Y334600D03*
X352800Y309200D03*
X378200Y309200D03*
X352800Y283800D03*
X378200Y283800D03*
X352800Y258400D03*
X378200Y258400D03*
X352800Y233000D03*
X378200Y233000D03*
X352800Y207600D03*
X378200Y207600D03*
X352800Y182200D03*
X378200Y182200D03*
X352800Y156800D03*
X378200Y156800D03*
D12*
X927100Y76200D03*
D13*
X927100Y533400D03*
X927100Y508000D03*
X927100Y482600D03*
X927100Y457200D03*
X927100Y431800D03*
X927100Y406400D03*
X927100Y381000D03*
X927100Y355600D03*
X927100Y330200D03*
X927100Y304800D03*
X927100Y279400D03*
X927100Y254000D03*
X927100Y228600D03*
X927100Y203200D03*
X927100Y177800D03*
X927100Y152400D03*
X927100Y127000D03*
X927100Y101600D03*
X927100Y558800D03*
D12*
X165100Y76200D03*
D13*
X165100Y127000D03*
X165100Y152400D03*
X165100Y177800D03*
X165100Y203200D03*
X165100Y228600D03*
X165100Y254000D03*
X165100Y279400D03*
X165100Y304800D03*
X165100Y330200D03*
X165100Y355600D03*
X165100Y381000D03*
X165100Y406400D03*
X165100Y431800D03*
X165100Y457200D03*
X165100Y482600D03*
X165100Y508000D03*
X165100Y533400D03*
X165100Y101600D03*
X165100Y558800D03*
D14*
X165100Y31750D03*
X165100Y603250D03*
X927100Y31750D03*
X927100Y603250D03*
D15*
X723900Y381000D03*
X723900Y406400D03*
X723900Y431800D03*
X723900Y457200D03*
X723900Y482600D03*
X723900Y508000D03*
X571500Y508000D03*
X571500Y482600D03*
X571500Y381000D03*
X571500Y406400D03*
D16*
X584200Y342900D03*
X584200Y546100D03*
X723900Y342900D03*
X723900Y546100D03*
D17*
X792099Y393700D03*
X808101Y393700D03*
X792099Y482600D03*
X808101Y482600D03*
D18*
X635000Y127000D03*
D19*
X660000Y127000D03*
X680000Y127000D03*
X705000Y127000D03*
D20*
X604300Y99900D03*
X735700Y99900D03*
D21*
X38100Y25400D03*
X38100Y609600D03*
X977900Y609600D03*
X977900Y25400D03*
D22*
X977900Y76200D03*
X76200Y622300D03*
X88900Y63500D03*
D17*
X703199Y165100D03*
X719201Y165100D03*
D23*
X352800Y309200D02*
X321900Y309200D01*
X317500Y304800D01*
D24*
X317500Y304800D03*
D23*
X808101Y474599D02*
X808101Y482600D01*
X808101Y474599D02*
X811581Y471119D01*
X811581Y469900D01*
X809577Y469900D01*
D25*
X809577Y469900D03*
D23*
X811581Y397180D02*
X808101Y393700D01*
X811581Y397180D02*
X811581Y406400D01*
X809577Y406400D01*
D25*
X809577Y406400D03*
D23*
X352800Y334600D02*
X321900Y334600D01*
X317500Y330200D01*
D24*
X317500Y330200D03*
D23*
X98800Y410800D02*
X98800Y436200D01*
X705000Y127000D02*
X705000Y120500D01*
X711200Y114300D01*
D25*
X711200Y114300D03*
D23*
X698500Y160401D02*
X703199Y165100D01*
X698500Y160401D02*
X698500Y152400D01*
D25*
X698500Y152400D03*
D23*
X98800Y512400D02*
X98800Y537800D01*
X87370Y202866D02*
X88900Y201336D01*
X87370Y500970D02*
X98800Y512400D01*
X87370Y500970D02*
X87370Y202866D01*
X87370Y186935D02*
X87370Y177466D01*
X94066Y170770D01*
X87370Y186935D02*
X88900Y188465D01*
X182342Y127000D02*
X635000Y127000D01*
X182342Y127000D02*
X170150Y139192D01*
X100995Y170770D02*
X94066Y170770D01*
X100995Y170770D02*
X112770Y158995D01*
X112770Y152066D01*
X125644Y139192D01*
X170150Y139192D01*
X88900Y188465D02*
X88900Y201336D01*
X110230Y542535D02*
X103535Y549230D01*
X94066Y549230D01*
X202692Y114808D02*
X215900Y101600D01*
X110230Y507666D02*
X110230Y542535D01*
X94066Y549230D02*
X82290Y537455D01*
X82290Y157146D01*
X124628Y114808D01*
X202692Y114808D01*
X98800Y487000D02*
X98800Y496236D01*
X110230Y507666D01*
X596053Y119810D02*
X612547Y119810D01*
X577843Y101600D02*
X215900Y101600D01*
X577843Y101600D02*
X596053Y119810D01*
X612547Y119810D02*
X615607Y116750D01*
X650150Y116750D01*
X660400Y127000D01*
X660000Y127000D01*
X110230Y440935D02*
X103535Y447630D01*
X674496Y127000D02*
X680000Y127000D01*
X175428Y368808D02*
X160050Y368808D01*
X103535Y447630D02*
X102020Y447630D01*
X92450Y457200D01*
X175428Y368808D02*
X348066Y196170D01*
X364230Y180006D02*
X373466Y170770D01*
X364230Y180006D02*
X364230Y186935D01*
X354995Y196170D01*
X348066Y196170D01*
X160050Y368808D02*
X135630Y393228D01*
X135630Y415535D01*
X126395Y424770D01*
X119466Y424770D01*
X110230Y434006D01*
X110230Y440935D01*
X630726Y170770D02*
X674496Y127000D01*
X630726Y170770D02*
X373466Y170770D01*
X92450Y457200D02*
X96850Y461600D01*
X98800Y461600D01*
X723900Y482600D02*
X792099Y482600D01*
X382935Y473030D02*
X373466Y473030D01*
X362036Y461600D02*
X352800Y461600D01*
X362036Y461600D02*
X373466Y473030D01*
X382935Y473030D02*
X386065Y469900D01*
X711200Y469900D01*
X723900Y482600D01*
X787400Y457200D02*
X792099Y452501D01*
X792099Y393700D01*
X787400Y457200D02*
X723900Y457200D01*
X382935Y498430D02*
X373466Y498430D01*
X362036Y487000D02*
X352800Y487000D01*
X362036Y487000D02*
X373466Y498430D01*
X382935Y498430D02*
X386065Y495300D01*
X810695Y495300D01*
X816661Y489334D01*
X816661Y386966D02*
X814429Y384734D01*
X801773Y384734D01*
X792807Y393700D02*
X792099Y393700D01*
X792807Y393700D02*
X801773Y384734D01*
X816661Y386966D02*
X816661Y489334D01*
X816048Y165100D02*
X719201Y165100D01*
X816048Y165100D02*
X925508Y55640D01*
X936996Y55640D01*
X967236Y25400D02*
X977900Y25400D01*
X967236Y25400D02*
X936996Y55640D01*
M02*
