M48
;GenerationSoftware,Autodesk,EAGLE,9.6.2*%
;CreationDate,2023-12-12T20:53:05Z*%
FMAT,2
ICI,OFF
METRIC,TZ,000.000
T9C0.305
T8C0.350
T7C0.889
T6C0.920
T5C1.000
T4C2.300
T3C2.500
T2C3.000
T1C3.175
%
G90
M71
T1
X97790Y2540
X3810Y2540
X3810Y60960
X97790Y60960
T2
X16510Y60325
X16510Y3175
X92710Y3175
X92710Y60325
T3
X58420Y34290
X58420Y54610
X72390Y34290
X72390Y54610
T4
X60430Y9990
X73570Y9990
T5
X92710Y30480
X92710Y27940
X92710Y25400
X92710Y20320
X92710Y17780
X92710Y15240
X92710Y12700
X92710Y10160
X92710Y55880
X16510Y7620
X16510Y12700
X16510Y15240
X16510Y17780
X16510Y20320
X16510Y25400
X16510Y27940
X16510Y30480
X16510Y33020
X16510Y35560
X16510Y40640
X16510Y22860
X16510Y45720
X16510Y48260
X16510Y50800
X16510Y53340
X16510Y10160
X16510Y55880
X92710Y7620
X16510Y43180
X92710Y43180
X92710Y45720
X72390Y38100
X72390Y40640
X72390Y43180
X72390Y45720
X72390Y48260
X57150Y50800
X57150Y48260
X57150Y38100
X57150Y40640
X92710Y48260
X92710Y50800
X92710Y53340
X16510Y38100
X72390Y50800
X92710Y22860
X92710Y40640
X92710Y38100
X92710Y35560
X92710Y33020
T6
X70500Y12700
X63500Y12700
X68000Y12700
X66000Y12700
T7
X35280Y25840
X37820Y25840
X35280Y23300
X37820Y23300
X35280Y20760
X9880Y20760
X35280Y18220
X37820Y18220
X35280Y15680
X37820Y15680
X9880Y43620
X9880Y58860
X12420Y58860
X9880Y56320
X12420Y56320
X9880Y53780
X12420Y53780
X37820Y20760
X9880Y51240
X12420Y51240
X9880Y48700
X12420Y48700
X9880Y46160
X12420Y46160
X12420Y43620
X9880Y41080
X12420Y41080
X9880Y38540
X12420Y38540
X9880Y36000
X12420Y36000
X9880Y33460
X12420Y33460
X9880Y30920
X12420Y30920
X9880Y28380
X12420Y28380
X9880Y25840
X12420Y25840
X9880Y23300
X12420Y23300
X12420Y20760
X9880Y18220
X12420Y18220
X9880Y15680
X12420Y15680
X35280Y58860
X37820Y58860
X35280Y56320
X37820Y56320
X35280Y53780
X37820Y53780
X35280Y51240
X37820Y43620
X37820Y51240
X35280Y48700
X37820Y48700
X35280Y46160
X37820Y46160
X35280Y43620
X35280Y41080
X37820Y41080
X35280Y38540
X37820Y38540
X35280Y36000
X37820Y36000
X35280Y33460
X37820Y33460
X35280Y30920
X37820Y30920
X35280Y28380
X37820Y28380
T8
X71120Y11430
X80958Y40640
X80958Y46990
X69850Y15240
T9
X31750Y33020
X31750Y30480
M30