G04 EAGLE Gerber RS-274X export*
G75*
%MOMM*%
%FSLAX34Y34*%
%LPD*%
%IN*%
%IPPOS*%
%AMOC8*
5,1,8,0,0,1.08239X$1,22.5*%
G01*
%ADD10C,0.254000*%


D10*
X0Y12700D02*
X-89Y10657D01*
X0Y8613D01*
X267Y6585D01*
X710Y4588D01*
X1325Y2638D01*
X2107Y748D01*
X3052Y-1066D01*
X4151Y-2791D01*
X5396Y-4414D01*
X6778Y-5922D01*
X8286Y-7304D01*
X9909Y-8549D01*
X11634Y-9648D01*
X13448Y-10593D01*
X15338Y-11375D01*
X17288Y-11990D01*
X19285Y-12433D01*
X21313Y-12700D01*
X23357Y-12789D01*
X25400Y-12700D01*
X990600Y-12700D01*
X992643Y-12789D01*
X994687Y-12700D01*
X996715Y-12433D01*
X998712Y-11990D01*
X1000662Y-11375D01*
X1002552Y-10593D01*
X1004366Y-9648D01*
X1006091Y-8549D01*
X1007714Y-7304D01*
X1009222Y-5922D01*
X1010604Y-4414D01*
X1011849Y-2791D01*
X1012948Y-1066D01*
X1013893Y748D01*
X1014675Y2638D01*
X1015290Y4588D01*
X1015733Y6585D01*
X1016000Y8613D01*
X1016089Y10657D01*
X1016000Y12700D01*
X1016000Y622300D01*
X1016089Y624343D01*
X1016000Y626387D01*
X1015733Y628415D01*
X1015290Y630412D01*
X1014675Y632362D01*
X1013893Y634252D01*
X1012948Y636066D01*
X1011849Y637791D01*
X1010604Y639414D01*
X1009222Y640922D01*
X1007714Y642304D01*
X1006091Y643549D01*
X1004366Y644648D01*
X1002552Y645593D01*
X1000662Y646375D01*
X998712Y646990D01*
X996715Y647433D01*
X994687Y647700D01*
X992643Y647789D01*
X990600Y647700D01*
X25400Y647700D01*
X23357Y647789D01*
X21313Y647700D01*
X19285Y647433D01*
X17288Y646990D01*
X15338Y646375D01*
X13448Y645593D01*
X11634Y644648D01*
X9909Y643549D01*
X8286Y642304D01*
X6778Y640922D01*
X5396Y639414D01*
X4151Y637791D01*
X3052Y636066D01*
X2107Y634252D01*
X1325Y632362D01*
X710Y630412D01*
X267Y628415D01*
X0Y626387D01*
X-89Y624343D01*
X0Y622300D01*
X0Y12700D01*
M02*
