G04 EAGLE Gerber RS-274X export*
G75*
%MOMM*%
%FSLAX34Y34*%
%LPD*%
%INSilkscreen Bottom*%
%IPPOS*%
%AMOC8*
5,1,8,0,0,1.08239X$1,22.5*%
G01*
%ADD10C,0.203200*%
%ADD11C,0.200000*%
%ADD12C,0.254000*%
%ADD13C,0.152400*%


D10*
X806004Y604774D02*
X800755Y589026D01*
X795506Y604774D01*
X789665Y596025D02*
X789665Y592526D01*
X789666Y596025D02*
X789664Y596143D01*
X789658Y596261D01*
X789648Y596379D01*
X789634Y596496D01*
X789616Y596613D01*
X789594Y596730D01*
X789569Y596845D01*
X789539Y596959D01*
X789505Y597073D01*
X789468Y597185D01*
X789427Y597296D01*
X789382Y597405D01*
X789334Y597513D01*
X789282Y597619D01*
X789226Y597724D01*
X789167Y597826D01*
X789105Y597926D01*
X789039Y598024D01*
X788970Y598120D01*
X788897Y598214D01*
X788822Y598305D01*
X788743Y598393D01*
X788662Y598479D01*
X788577Y598562D01*
X788490Y598642D01*
X788401Y598719D01*
X788308Y598793D01*
X788214Y598863D01*
X788117Y598931D01*
X788017Y598995D01*
X787916Y599056D01*
X787813Y599113D01*
X787707Y599167D01*
X787600Y599218D01*
X787492Y599264D01*
X787382Y599307D01*
X787270Y599346D01*
X787157Y599382D01*
X787043Y599413D01*
X786928Y599441D01*
X786813Y599465D01*
X786696Y599485D01*
X786579Y599501D01*
X786461Y599513D01*
X786343Y599521D01*
X786225Y599525D01*
X786107Y599525D01*
X785989Y599521D01*
X785871Y599513D01*
X785753Y599501D01*
X785636Y599485D01*
X785519Y599465D01*
X785404Y599441D01*
X785289Y599413D01*
X785175Y599382D01*
X785062Y599346D01*
X784950Y599307D01*
X784840Y599264D01*
X784732Y599218D01*
X784625Y599167D01*
X784519Y599113D01*
X784416Y599056D01*
X784315Y598995D01*
X784215Y598931D01*
X784118Y598863D01*
X784024Y598793D01*
X783931Y598719D01*
X783842Y598642D01*
X783755Y598562D01*
X783670Y598479D01*
X783589Y598393D01*
X783510Y598305D01*
X783435Y598214D01*
X783362Y598120D01*
X783293Y598024D01*
X783227Y597926D01*
X783165Y597826D01*
X783106Y597724D01*
X783050Y597619D01*
X782998Y597513D01*
X782950Y597405D01*
X782905Y597296D01*
X782864Y597185D01*
X782827Y597073D01*
X782793Y596959D01*
X782763Y596845D01*
X782738Y596730D01*
X782716Y596613D01*
X782698Y596496D01*
X782684Y596379D01*
X782674Y596261D01*
X782668Y596143D01*
X782666Y596025D01*
X782666Y592526D01*
X782668Y592408D01*
X782674Y592290D01*
X782684Y592172D01*
X782698Y592055D01*
X782716Y591938D01*
X782738Y591821D01*
X782763Y591706D01*
X782793Y591592D01*
X782827Y591478D01*
X782864Y591366D01*
X782905Y591255D01*
X782950Y591146D01*
X782998Y591038D01*
X783050Y590932D01*
X783106Y590827D01*
X783165Y590725D01*
X783227Y590625D01*
X783293Y590527D01*
X783362Y590431D01*
X783435Y590337D01*
X783510Y590246D01*
X783589Y590158D01*
X783670Y590072D01*
X783755Y589989D01*
X783842Y589909D01*
X783931Y589832D01*
X784024Y589758D01*
X784118Y589688D01*
X784215Y589620D01*
X784315Y589556D01*
X784416Y589495D01*
X784519Y589438D01*
X784625Y589384D01*
X784732Y589333D01*
X784840Y589287D01*
X784950Y589244D01*
X785062Y589205D01*
X785175Y589169D01*
X785289Y589138D01*
X785404Y589110D01*
X785519Y589086D01*
X785636Y589066D01*
X785753Y589050D01*
X785871Y589038D01*
X785989Y589030D01*
X786107Y589026D01*
X786225Y589026D01*
X786343Y589030D01*
X786461Y589038D01*
X786579Y589050D01*
X786696Y589066D01*
X786813Y589086D01*
X786928Y589110D01*
X787043Y589138D01*
X787157Y589169D01*
X787270Y589205D01*
X787382Y589244D01*
X787492Y589287D01*
X787600Y589333D01*
X787707Y589384D01*
X787813Y589438D01*
X787916Y589495D01*
X788017Y589556D01*
X788117Y589620D01*
X788214Y589688D01*
X788308Y589758D01*
X788401Y589832D01*
X788490Y589909D01*
X788577Y589989D01*
X788662Y590072D01*
X788743Y590158D01*
X788822Y590246D01*
X788897Y590337D01*
X788970Y590431D01*
X789039Y590527D01*
X789105Y590625D01*
X789167Y590725D01*
X789226Y590827D01*
X789282Y590932D01*
X789334Y591038D01*
X789382Y591146D01*
X789427Y591255D01*
X789468Y591366D01*
X789505Y591478D01*
X789539Y591592D01*
X789569Y591706D01*
X789594Y591821D01*
X789616Y591938D01*
X789634Y592055D01*
X789648Y592172D01*
X789658Y592290D01*
X789664Y592408D01*
X789666Y592526D01*
X773473Y589026D02*
X769973Y589026D01*
X773473Y589026D02*
X773574Y589028D01*
X773674Y589034D01*
X773774Y589043D01*
X773874Y589057D01*
X773973Y589074D01*
X774071Y589095D01*
X774169Y589120D01*
X774265Y589148D01*
X774360Y589181D01*
X774454Y589216D01*
X774547Y589256D01*
X774638Y589299D01*
X774727Y589345D01*
X774814Y589395D01*
X774900Y589448D01*
X774983Y589504D01*
X775064Y589563D01*
X775143Y589626D01*
X775219Y589691D01*
X775293Y589760D01*
X775364Y589831D01*
X775433Y589905D01*
X775498Y589981D01*
X775561Y590060D01*
X775620Y590141D01*
X775676Y590224D01*
X775729Y590310D01*
X775779Y590397D01*
X775825Y590486D01*
X775868Y590577D01*
X775908Y590670D01*
X775944Y590764D01*
X775976Y590859D01*
X776004Y590955D01*
X776029Y591053D01*
X776050Y591151D01*
X776067Y591250D01*
X776081Y591350D01*
X776090Y591450D01*
X776096Y591550D01*
X776098Y591651D01*
X776097Y591651D02*
X776097Y596900D01*
X776098Y596900D02*
X776096Y597001D01*
X776090Y597101D01*
X776081Y597201D01*
X776067Y597301D01*
X776050Y597400D01*
X776029Y597498D01*
X776004Y597596D01*
X775976Y597692D01*
X775943Y597787D01*
X775908Y597881D01*
X775868Y597974D01*
X775825Y598065D01*
X775779Y598154D01*
X775729Y598241D01*
X775676Y598327D01*
X775620Y598410D01*
X775561Y598491D01*
X775498Y598570D01*
X775433Y598646D01*
X775364Y598720D01*
X775293Y598791D01*
X775219Y598860D01*
X775143Y598925D01*
X775064Y598988D01*
X774983Y599047D01*
X774900Y599103D01*
X774814Y599156D01*
X774727Y599206D01*
X774638Y599252D01*
X774547Y599295D01*
X774454Y599335D01*
X774360Y599370D01*
X774265Y599403D01*
X774169Y599431D01*
X774071Y599456D01*
X773973Y599477D01*
X773874Y599494D01*
X773774Y599508D01*
X773674Y599517D01*
X773574Y599523D01*
X773473Y599525D01*
X769973Y599525D01*
X761160Y595150D02*
X757223Y595150D01*
X761160Y595150D02*
X761269Y595148D01*
X761378Y595142D01*
X761487Y595132D01*
X761596Y595119D01*
X761704Y595101D01*
X761811Y595080D01*
X761917Y595055D01*
X762023Y595026D01*
X762127Y594993D01*
X762230Y594957D01*
X762332Y594917D01*
X762432Y594873D01*
X762531Y594826D01*
X762627Y594775D01*
X762722Y594721D01*
X762815Y594664D01*
X762906Y594603D01*
X762995Y594539D01*
X763081Y594472D01*
X763165Y594402D01*
X763247Y594329D01*
X763325Y594253D01*
X763401Y594175D01*
X763474Y594093D01*
X763544Y594009D01*
X763611Y593923D01*
X763675Y593834D01*
X763736Y593743D01*
X763793Y593650D01*
X763847Y593555D01*
X763898Y593459D01*
X763945Y593360D01*
X763989Y593260D01*
X764029Y593158D01*
X764065Y593055D01*
X764098Y592951D01*
X764127Y592845D01*
X764152Y592739D01*
X764173Y592632D01*
X764191Y592524D01*
X764204Y592415D01*
X764214Y592306D01*
X764220Y592197D01*
X764222Y592088D01*
X764220Y591979D01*
X764214Y591870D01*
X764204Y591761D01*
X764191Y591652D01*
X764173Y591544D01*
X764152Y591437D01*
X764127Y591331D01*
X764098Y591225D01*
X764065Y591121D01*
X764029Y591018D01*
X763989Y590916D01*
X763945Y590816D01*
X763898Y590717D01*
X763847Y590621D01*
X763793Y590526D01*
X763736Y590433D01*
X763675Y590342D01*
X763611Y590253D01*
X763544Y590167D01*
X763474Y590083D01*
X763401Y590001D01*
X763325Y589923D01*
X763247Y589847D01*
X763165Y589774D01*
X763081Y589704D01*
X762995Y589637D01*
X762906Y589573D01*
X762815Y589512D01*
X762722Y589455D01*
X762627Y589401D01*
X762531Y589350D01*
X762432Y589303D01*
X762332Y589259D01*
X762230Y589219D01*
X762127Y589183D01*
X762023Y589150D01*
X761917Y589121D01*
X761811Y589096D01*
X761704Y589075D01*
X761596Y589057D01*
X761487Y589044D01*
X761378Y589034D01*
X761269Y589028D01*
X761160Y589026D01*
X757223Y589026D01*
X757223Y596900D01*
X757225Y597001D01*
X757231Y597101D01*
X757240Y597201D01*
X757254Y597301D01*
X757271Y597400D01*
X757292Y597498D01*
X757317Y597596D01*
X757345Y597692D01*
X757378Y597787D01*
X757413Y597881D01*
X757453Y597974D01*
X757496Y598065D01*
X757542Y598154D01*
X757592Y598241D01*
X757645Y598327D01*
X757701Y598410D01*
X757760Y598491D01*
X757823Y598570D01*
X757888Y598646D01*
X757957Y598720D01*
X758028Y598791D01*
X758102Y598860D01*
X758178Y598925D01*
X758257Y598988D01*
X758338Y599047D01*
X758421Y599103D01*
X758507Y599156D01*
X758594Y599206D01*
X758683Y599252D01*
X758774Y599295D01*
X758867Y599335D01*
X758961Y599371D01*
X759056Y599403D01*
X759152Y599431D01*
X759250Y599456D01*
X759348Y599477D01*
X759447Y599494D01*
X759547Y599508D01*
X759647Y599517D01*
X759747Y599523D01*
X759848Y599525D01*
X763348Y599525D01*
X749887Y604774D02*
X749887Y591651D01*
X749885Y591550D01*
X749879Y591450D01*
X749870Y591350D01*
X749856Y591250D01*
X749839Y591151D01*
X749818Y591053D01*
X749793Y590955D01*
X749765Y590859D01*
X749732Y590764D01*
X749697Y590670D01*
X749657Y590577D01*
X749614Y590486D01*
X749568Y590397D01*
X749518Y590310D01*
X749465Y590224D01*
X749409Y590141D01*
X749350Y590060D01*
X749287Y589981D01*
X749222Y589905D01*
X749153Y589831D01*
X749082Y589760D01*
X749008Y589691D01*
X748932Y589626D01*
X748853Y589563D01*
X748772Y589504D01*
X748689Y589448D01*
X748603Y589395D01*
X748516Y589345D01*
X748427Y589299D01*
X748336Y589256D01*
X748243Y589216D01*
X748149Y589181D01*
X748054Y589148D01*
X747958Y589120D01*
X747860Y589095D01*
X747762Y589074D01*
X747663Y589057D01*
X747563Y589043D01*
X747463Y589034D01*
X747363Y589028D01*
X747262Y589026D01*
X737188Y589026D02*
X742437Y604774D01*
X731939Y604774D02*
X737188Y589026D01*
X726246Y589026D02*
X726246Y599525D01*
X726684Y603899D02*
X726684Y604774D01*
X725809Y604774D01*
X725809Y603899D01*
X726684Y603899D01*
X718534Y595150D02*
X714159Y593400D01*
X718533Y595150D02*
X718620Y595187D01*
X718705Y595227D01*
X718788Y595271D01*
X718869Y595318D01*
X718948Y595368D01*
X719025Y595422D01*
X719100Y595479D01*
X719173Y595539D01*
X719242Y595602D01*
X719310Y595667D01*
X719374Y595736D01*
X719436Y595807D01*
X719494Y595880D01*
X719549Y595956D01*
X719602Y596034D01*
X719651Y596114D01*
X719696Y596196D01*
X719738Y596280D01*
X719777Y596366D01*
X719812Y596453D01*
X719844Y596542D01*
X719871Y596631D01*
X719895Y596722D01*
X719916Y596814D01*
X719932Y596907D01*
X719944Y597000D01*
X719953Y597093D01*
X719958Y597187D01*
X719959Y597281D01*
X719956Y597375D01*
X719949Y597469D01*
X719938Y597562D01*
X719924Y597655D01*
X719905Y597747D01*
X719883Y597838D01*
X719857Y597928D01*
X719827Y598017D01*
X719794Y598105D01*
X719757Y598192D01*
X719717Y598276D01*
X719673Y598359D01*
X719625Y598440D01*
X719574Y598520D01*
X719520Y598596D01*
X719463Y598671D01*
X719403Y598743D01*
X719340Y598813D01*
X719274Y598880D01*
X719206Y598944D01*
X719134Y599005D01*
X719061Y599064D01*
X718985Y599119D01*
X718907Y599171D01*
X718826Y599219D01*
X718744Y599265D01*
X718660Y599307D01*
X718574Y599345D01*
X718487Y599380D01*
X718398Y599411D01*
X718308Y599438D01*
X718217Y599462D01*
X718126Y599482D01*
X718033Y599498D01*
X717940Y599510D01*
X717846Y599519D01*
X717753Y599523D01*
X717659Y599524D01*
X717659Y599525D02*
X717420Y599519D01*
X717182Y599507D01*
X716943Y599489D01*
X716706Y599465D01*
X716468Y599436D01*
X716232Y599401D01*
X715997Y599361D01*
X715762Y599315D01*
X715529Y599263D01*
X715297Y599205D01*
X715067Y599142D01*
X714838Y599074D01*
X714611Y599000D01*
X714385Y598920D01*
X714162Y598836D01*
X713941Y598746D01*
X713722Y598650D01*
X714160Y593400D02*
X714073Y593363D01*
X713988Y593323D01*
X713905Y593279D01*
X713824Y593232D01*
X713745Y593182D01*
X713668Y593128D01*
X713593Y593071D01*
X713520Y593011D01*
X713451Y592948D01*
X713383Y592883D01*
X713319Y592814D01*
X713257Y592743D01*
X713199Y592670D01*
X713144Y592594D01*
X713091Y592516D01*
X713042Y592436D01*
X712997Y592354D01*
X712955Y592270D01*
X712916Y592184D01*
X712881Y592097D01*
X712849Y592008D01*
X712822Y591919D01*
X712798Y591828D01*
X712777Y591736D01*
X712761Y591643D01*
X712749Y591550D01*
X712740Y591457D01*
X712735Y591363D01*
X712734Y591269D01*
X712737Y591175D01*
X712744Y591081D01*
X712755Y590988D01*
X712769Y590895D01*
X712788Y590803D01*
X712810Y590712D01*
X712836Y590622D01*
X712866Y590533D01*
X712899Y590445D01*
X712936Y590358D01*
X712976Y590274D01*
X713020Y590191D01*
X713068Y590110D01*
X713119Y590030D01*
X713173Y589954D01*
X713230Y589879D01*
X713290Y589807D01*
X713353Y589737D01*
X713419Y589670D01*
X713487Y589606D01*
X713559Y589545D01*
X713632Y589486D01*
X713708Y589431D01*
X713786Y589379D01*
X713867Y589331D01*
X713949Y589285D01*
X714033Y589243D01*
X714119Y589205D01*
X714206Y589170D01*
X714295Y589139D01*
X714385Y589112D01*
X714476Y589088D01*
X714567Y589068D01*
X714660Y589052D01*
X714753Y589040D01*
X714847Y589031D01*
X714940Y589027D01*
X715034Y589026D01*
X715385Y589035D01*
X715736Y589052D01*
X716086Y589078D01*
X716435Y589112D01*
X716783Y589154D01*
X717130Y589205D01*
X717476Y589263D01*
X717821Y589330D01*
X718164Y589405D01*
X718505Y589488D01*
X718844Y589579D01*
X719180Y589678D01*
X719515Y589785D01*
X719846Y589900D01*
X706447Y589026D02*
X706447Y599525D01*
X706884Y603899D02*
X706884Y604774D01*
X706009Y604774D01*
X706009Y603899D01*
X706884Y603899D01*
X700046Y596025D02*
X700046Y592526D01*
X700047Y596025D02*
X700045Y596143D01*
X700039Y596261D01*
X700029Y596379D01*
X700015Y596496D01*
X699997Y596613D01*
X699975Y596730D01*
X699950Y596845D01*
X699920Y596959D01*
X699886Y597073D01*
X699849Y597185D01*
X699808Y597296D01*
X699763Y597405D01*
X699715Y597513D01*
X699663Y597619D01*
X699607Y597724D01*
X699548Y597826D01*
X699486Y597926D01*
X699420Y598024D01*
X699351Y598120D01*
X699278Y598214D01*
X699203Y598305D01*
X699124Y598393D01*
X699043Y598479D01*
X698958Y598562D01*
X698871Y598642D01*
X698782Y598719D01*
X698689Y598793D01*
X698595Y598863D01*
X698498Y598931D01*
X698398Y598995D01*
X698297Y599056D01*
X698194Y599113D01*
X698088Y599167D01*
X697981Y599218D01*
X697873Y599264D01*
X697763Y599307D01*
X697651Y599346D01*
X697538Y599382D01*
X697424Y599413D01*
X697309Y599441D01*
X697194Y599465D01*
X697077Y599485D01*
X696960Y599501D01*
X696842Y599513D01*
X696724Y599521D01*
X696606Y599525D01*
X696488Y599525D01*
X696370Y599521D01*
X696252Y599513D01*
X696134Y599501D01*
X696017Y599485D01*
X695900Y599465D01*
X695785Y599441D01*
X695670Y599413D01*
X695556Y599382D01*
X695443Y599346D01*
X695331Y599307D01*
X695221Y599264D01*
X695113Y599218D01*
X695006Y599167D01*
X694900Y599113D01*
X694797Y599056D01*
X694696Y598995D01*
X694596Y598931D01*
X694499Y598863D01*
X694405Y598793D01*
X694312Y598719D01*
X694223Y598642D01*
X694136Y598562D01*
X694051Y598479D01*
X693970Y598393D01*
X693891Y598305D01*
X693816Y598214D01*
X693743Y598120D01*
X693674Y598024D01*
X693608Y597926D01*
X693546Y597826D01*
X693487Y597724D01*
X693431Y597619D01*
X693379Y597513D01*
X693331Y597405D01*
X693286Y597296D01*
X693245Y597185D01*
X693208Y597073D01*
X693174Y596959D01*
X693144Y596845D01*
X693119Y596730D01*
X693097Y596613D01*
X693079Y596496D01*
X693065Y596379D01*
X693055Y596261D01*
X693049Y596143D01*
X693047Y596025D01*
X693047Y592526D01*
X693049Y592408D01*
X693055Y592290D01*
X693065Y592172D01*
X693079Y592055D01*
X693097Y591938D01*
X693119Y591821D01*
X693144Y591706D01*
X693174Y591592D01*
X693208Y591478D01*
X693245Y591366D01*
X693286Y591255D01*
X693331Y591146D01*
X693379Y591038D01*
X693431Y590932D01*
X693487Y590827D01*
X693546Y590725D01*
X693608Y590625D01*
X693674Y590527D01*
X693743Y590431D01*
X693816Y590337D01*
X693891Y590246D01*
X693970Y590158D01*
X694051Y590072D01*
X694136Y589989D01*
X694223Y589909D01*
X694312Y589832D01*
X694405Y589758D01*
X694499Y589688D01*
X694596Y589620D01*
X694696Y589556D01*
X694797Y589495D01*
X694900Y589438D01*
X695006Y589384D01*
X695113Y589333D01*
X695221Y589287D01*
X695331Y589244D01*
X695443Y589205D01*
X695556Y589169D01*
X695670Y589138D01*
X695785Y589110D01*
X695900Y589086D01*
X696017Y589066D01*
X696134Y589050D01*
X696252Y589038D01*
X696370Y589030D01*
X696488Y589026D01*
X696606Y589026D01*
X696724Y589030D01*
X696842Y589038D01*
X696960Y589050D01*
X697077Y589066D01*
X697194Y589086D01*
X697309Y589110D01*
X697424Y589138D01*
X697538Y589169D01*
X697651Y589205D01*
X697763Y589244D01*
X697873Y589287D01*
X697981Y589333D01*
X698088Y589384D01*
X698194Y589438D01*
X698297Y589495D01*
X698398Y589556D01*
X698498Y589620D01*
X698595Y589688D01*
X698689Y589758D01*
X698782Y589832D01*
X698871Y589909D01*
X698958Y589989D01*
X699043Y590072D01*
X699124Y590158D01*
X699203Y590246D01*
X699278Y590337D01*
X699351Y590431D01*
X699420Y590527D01*
X699486Y590625D01*
X699548Y590725D01*
X699607Y590827D01*
X699663Y590932D01*
X699715Y591038D01*
X699763Y591146D01*
X699808Y591255D01*
X699849Y591366D01*
X699886Y591478D01*
X699920Y591592D01*
X699950Y591706D01*
X699975Y591821D01*
X699997Y591938D01*
X700015Y592055D01*
X700029Y592172D01*
X700039Y592290D01*
X700045Y592408D01*
X700047Y592526D01*
X685978Y589026D02*
X685978Y599525D01*
X681604Y599525D01*
X681503Y599523D01*
X681403Y599517D01*
X681303Y599508D01*
X681203Y599494D01*
X681104Y599477D01*
X681006Y599456D01*
X680908Y599431D01*
X680812Y599403D01*
X680717Y599370D01*
X680623Y599335D01*
X680530Y599295D01*
X680439Y599252D01*
X680350Y599206D01*
X680263Y599156D01*
X680177Y599103D01*
X680094Y599047D01*
X680013Y598988D01*
X679934Y598925D01*
X679858Y598860D01*
X679784Y598791D01*
X679713Y598720D01*
X679644Y598646D01*
X679579Y598570D01*
X679516Y598491D01*
X679457Y598410D01*
X679401Y598327D01*
X679348Y598241D01*
X679298Y598154D01*
X679252Y598065D01*
X679209Y597974D01*
X679169Y597881D01*
X679134Y597787D01*
X679101Y597692D01*
X679073Y597596D01*
X679048Y597498D01*
X679027Y597400D01*
X679010Y597301D01*
X678996Y597201D01*
X678987Y597101D01*
X678981Y597001D01*
X678979Y596900D01*
X678979Y589026D01*
X662775Y589026D02*
X662775Y604774D01*
X658401Y604774D01*
X658270Y604772D01*
X658139Y604766D01*
X658009Y604756D01*
X657879Y604743D01*
X657749Y604725D01*
X657620Y604704D01*
X657492Y604678D01*
X657364Y604649D01*
X657237Y604616D01*
X657112Y604580D01*
X656987Y604539D01*
X656864Y604495D01*
X656742Y604447D01*
X656622Y604396D01*
X656503Y604341D01*
X656386Y604282D01*
X656271Y604220D01*
X656158Y604155D01*
X656046Y604086D01*
X655937Y604014D01*
X655830Y603939D01*
X655725Y603860D01*
X655623Y603779D01*
X655523Y603694D01*
X655426Y603606D01*
X655331Y603516D01*
X655239Y603423D01*
X655150Y603327D01*
X655064Y603228D01*
X654981Y603127D01*
X654901Y603024D01*
X654824Y602918D01*
X654751Y602810D01*
X654680Y602699D01*
X654613Y602587D01*
X654549Y602473D01*
X654489Y602357D01*
X654432Y602239D01*
X654379Y602119D01*
X654329Y601998D01*
X654283Y601875D01*
X654241Y601752D01*
X654203Y601627D01*
X654168Y601500D01*
X654137Y601373D01*
X654109Y601245D01*
X654086Y601117D01*
X654067Y600987D01*
X654051Y600857D01*
X654039Y600727D01*
X654031Y600596D01*
X654027Y600465D01*
X654027Y600335D01*
X654031Y600204D01*
X654039Y600073D01*
X654051Y599943D01*
X654067Y599813D01*
X654086Y599683D01*
X654109Y599555D01*
X654137Y599427D01*
X654168Y599300D01*
X654203Y599173D01*
X654241Y599048D01*
X654283Y598925D01*
X654329Y598802D01*
X654379Y598681D01*
X654432Y598561D01*
X654489Y598443D01*
X654549Y598327D01*
X654613Y598213D01*
X654680Y598101D01*
X654751Y597990D01*
X654824Y597882D01*
X654901Y597776D01*
X654981Y597673D01*
X655064Y597572D01*
X655150Y597473D01*
X655239Y597377D01*
X655331Y597284D01*
X655426Y597194D01*
X655523Y597106D01*
X655623Y597021D01*
X655725Y596940D01*
X655830Y596861D01*
X655937Y596786D01*
X656046Y596714D01*
X656158Y596645D01*
X656271Y596580D01*
X656386Y596518D01*
X656503Y596459D01*
X656622Y596404D01*
X656742Y596353D01*
X656864Y596305D01*
X656987Y596261D01*
X657112Y596220D01*
X657237Y596184D01*
X657364Y596151D01*
X657492Y596122D01*
X657620Y596096D01*
X657749Y596075D01*
X657879Y596057D01*
X658009Y596044D01*
X658139Y596034D01*
X658270Y596028D01*
X658401Y596026D01*
X658401Y596025D02*
X662775Y596025D01*
X657526Y596025D02*
X654026Y589026D01*
X644797Y589026D02*
X640422Y589026D01*
X644797Y589026D02*
X644898Y589028D01*
X644998Y589034D01*
X645098Y589043D01*
X645198Y589057D01*
X645297Y589074D01*
X645395Y589095D01*
X645493Y589120D01*
X645589Y589148D01*
X645684Y589181D01*
X645778Y589216D01*
X645871Y589256D01*
X645962Y589299D01*
X646051Y589345D01*
X646138Y589395D01*
X646224Y589448D01*
X646307Y589504D01*
X646388Y589563D01*
X646467Y589626D01*
X646543Y589691D01*
X646617Y589760D01*
X646688Y589831D01*
X646757Y589905D01*
X646822Y589981D01*
X646885Y590060D01*
X646944Y590141D01*
X647000Y590224D01*
X647053Y590310D01*
X647103Y590397D01*
X647149Y590486D01*
X647192Y590577D01*
X647232Y590670D01*
X647268Y590764D01*
X647300Y590859D01*
X647328Y590955D01*
X647353Y591053D01*
X647374Y591151D01*
X647391Y591250D01*
X647405Y591350D01*
X647414Y591450D01*
X647420Y591550D01*
X647422Y591651D01*
X647421Y591651D02*
X647421Y596025D01*
X647422Y596025D02*
X647420Y596143D01*
X647414Y596261D01*
X647404Y596379D01*
X647390Y596496D01*
X647372Y596613D01*
X647350Y596730D01*
X647325Y596845D01*
X647295Y596959D01*
X647261Y597073D01*
X647224Y597185D01*
X647183Y597296D01*
X647138Y597405D01*
X647090Y597513D01*
X647038Y597619D01*
X646982Y597724D01*
X646923Y597826D01*
X646861Y597926D01*
X646795Y598024D01*
X646726Y598120D01*
X646653Y598214D01*
X646578Y598305D01*
X646499Y598393D01*
X646418Y598479D01*
X646333Y598562D01*
X646246Y598642D01*
X646157Y598719D01*
X646064Y598793D01*
X645970Y598863D01*
X645873Y598931D01*
X645773Y598995D01*
X645672Y599056D01*
X645569Y599113D01*
X645463Y599167D01*
X645356Y599218D01*
X645248Y599264D01*
X645138Y599307D01*
X645026Y599346D01*
X644913Y599382D01*
X644799Y599413D01*
X644684Y599441D01*
X644569Y599465D01*
X644452Y599485D01*
X644335Y599501D01*
X644217Y599513D01*
X644099Y599521D01*
X643981Y599525D01*
X643863Y599525D01*
X643745Y599521D01*
X643627Y599513D01*
X643509Y599501D01*
X643392Y599485D01*
X643275Y599465D01*
X643160Y599441D01*
X643045Y599413D01*
X642931Y599382D01*
X642818Y599346D01*
X642706Y599307D01*
X642596Y599264D01*
X642488Y599218D01*
X642381Y599167D01*
X642275Y599113D01*
X642172Y599056D01*
X642071Y598995D01*
X641971Y598931D01*
X641874Y598863D01*
X641780Y598793D01*
X641687Y598719D01*
X641598Y598642D01*
X641511Y598562D01*
X641426Y598479D01*
X641345Y598393D01*
X641266Y598305D01*
X641191Y598214D01*
X641118Y598120D01*
X641049Y598024D01*
X640983Y597926D01*
X640921Y597826D01*
X640862Y597724D01*
X640806Y597619D01*
X640754Y597513D01*
X640706Y597405D01*
X640661Y597296D01*
X640620Y597185D01*
X640583Y597073D01*
X640549Y596959D01*
X640519Y596845D01*
X640494Y596730D01*
X640472Y596613D01*
X640454Y596496D01*
X640440Y596379D01*
X640430Y596261D01*
X640424Y596143D01*
X640422Y596025D01*
X640422Y594275D01*
X647421Y594275D01*
X634395Y599525D02*
X630896Y589026D01*
X627396Y599525D01*
X612865Y601274D02*
X608491Y604774D01*
X608491Y589026D01*
X612865Y589026D02*
X604117Y589026D01*
X597987Y589026D02*
X597987Y589901D01*
X597112Y589901D01*
X597112Y589026D01*
X597987Y589026D01*
X590982Y596900D02*
X590978Y597210D01*
X590967Y597519D01*
X590949Y597829D01*
X590923Y598137D01*
X590890Y598445D01*
X590849Y598753D01*
X590801Y599059D01*
X590746Y599364D01*
X590684Y599667D01*
X590614Y599969D01*
X590537Y600269D01*
X590453Y600567D01*
X590362Y600863D01*
X590264Y601157D01*
X590159Y601449D01*
X590047Y601738D01*
X589928Y602024D01*
X589802Y602307D01*
X589670Y602587D01*
X589669Y602587D02*
X589631Y602692D01*
X589589Y602795D01*
X589544Y602897D01*
X589496Y602998D01*
X589444Y603096D01*
X589388Y603193D01*
X589330Y603288D01*
X589268Y603381D01*
X589203Y603471D01*
X589134Y603559D01*
X589063Y603645D01*
X588989Y603729D01*
X588912Y603809D01*
X588833Y603888D01*
X588750Y603963D01*
X588665Y604035D01*
X588578Y604105D01*
X588488Y604171D01*
X588397Y604234D01*
X588303Y604294D01*
X588207Y604351D01*
X588109Y604405D01*
X588009Y604455D01*
X587908Y604501D01*
X587805Y604544D01*
X587700Y604584D01*
X587595Y604620D01*
X587488Y604652D01*
X587380Y604680D01*
X587271Y604705D01*
X587162Y604726D01*
X587052Y604743D01*
X586941Y604757D01*
X586830Y604766D01*
X586719Y604772D01*
X586607Y604774D01*
X586495Y604772D01*
X586384Y604766D01*
X586273Y604757D01*
X586162Y604743D01*
X586052Y604726D01*
X585943Y604705D01*
X585834Y604680D01*
X585726Y604652D01*
X585619Y604620D01*
X585514Y604584D01*
X585409Y604544D01*
X585306Y604501D01*
X585205Y604455D01*
X585105Y604405D01*
X585007Y604351D01*
X584911Y604294D01*
X584817Y604234D01*
X584726Y604171D01*
X584636Y604105D01*
X584549Y604035D01*
X584464Y603963D01*
X584381Y603888D01*
X584302Y603809D01*
X584225Y603729D01*
X584151Y603645D01*
X584080Y603559D01*
X584011Y603471D01*
X583946Y603381D01*
X583884Y603288D01*
X583826Y603193D01*
X583770Y603096D01*
X583718Y602998D01*
X583670Y602897D01*
X583625Y602795D01*
X583583Y602692D01*
X583545Y602587D01*
X583413Y602307D01*
X583287Y602023D01*
X583168Y601737D01*
X583056Y601448D01*
X582951Y601157D01*
X582853Y600863D01*
X582762Y600567D01*
X582678Y600269D01*
X582601Y599969D01*
X582531Y599667D01*
X582469Y599363D01*
X582414Y599059D01*
X582366Y598753D01*
X582325Y598445D01*
X582292Y598137D01*
X582266Y597829D01*
X582248Y597519D01*
X582237Y597210D01*
X582233Y596900D01*
X590982Y596900D02*
X590978Y596590D01*
X590967Y596281D01*
X590949Y595971D01*
X590923Y595663D01*
X590890Y595355D01*
X590849Y595047D01*
X590801Y594741D01*
X590746Y594436D01*
X590684Y594133D01*
X590614Y593831D01*
X590537Y593531D01*
X590453Y593233D01*
X590362Y592937D01*
X590264Y592643D01*
X590159Y592351D01*
X590047Y592062D01*
X589928Y591776D01*
X589802Y591493D01*
X589670Y591213D01*
X589669Y591213D02*
X589631Y591108D01*
X589589Y591005D01*
X589544Y590903D01*
X589496Y590802D01*
X589444Y590704D01*
X589388Y590607D01*
X589330Y590512D01*
X589268Y590419D01*
X589203Y590329D01*
X589134Y590241D01*
X589063Y590155D01*
X588989Y590071D01*
X588912Y589991D01*
X588833Y589912D01*
X588750Y589837D01*
X588665Y589765D01*
X588578Y589695D01*
X588488Y589629D01*
X588397Y589566D01*
X588303Y589506D01*
X588207Y589449D01*
X588109Y589395D01*
X588009Y589345D01*
X587908Y589299D01*
X587805Y589256D01*
X587700Y589216D01*
X587595Y589180D01*
X587488Y589148D01*
X587380Y589120D01*
X587271Y589095D01*
X587162Y589074D01*
X587052Y589057D01*
X586941Y589043D01*
X586830Y589034D01*
X586719Y589028D01*
X586607Y589026D01*
X583544Y591213D02*
X583412Y591493D01*
X583286Y591776D01*
X583167Y592062D01*
X583055Y592351D01*
X582950Y592643D01*
X582852Y592937D01*
X582761Y593233D01*
X582677Y593531D01*
X582600Y593831D01*
X582530Y594133D01*
X582468Y594436D01*
X582413Y594741D01*
X582365Y595047D01*
X582324Y595355D01*
X582291Y595663D01*
X582265Y595971D01*
X582247Y596281D01*
X582236Y596590D01*
X582232Y596900D01*
X583545Y591213D02*
X583583Y591108D01*
X583625Y591005D01*
X583670Y590903D01*
X583718Y590802D01*
X583770Y590704D01*
X583826Y590607D01*
X583884Y590512D01*
X583946Y590419D01*
X584011Y590329D01*
X584080Y590241D01*
X584151Y590155D01*
X584225Y590071D01*
X584302Y589991D01*
X584381Y589912D01*
X584464Y589837D01*
X584549Y589765D01*
X584636Y589695D01*
X584726Y589629D01*
X584817Y589566D01*
X584911Y589506D01*
X585007Y589449D01*
X585105Y589395D01*
X585205Y589345D01*
X585306Y589299D01*
X585409Y589256D01*
X585514Y589216D01*
X585619Y589180D01*
X585726Y589148D01*
X585834Y589120D01*
X585943Y589095D01*
X586052Y589074D01*
X586162Y589057D01*
X586273Y589043D01*
X586384Y589034D01*
X586495Y589028D01*
X586607Y589026D01*
X590107Y592526D02*
X583108Y601274D01*
X566239Y604774D02*
X566239Y589026D01*
X566239Y604774D02*
X561865Y604774D01*
X561734Y604772D01*
X561603Y604766D01*
X561473Y604756D01*
X561343Y604743D01*
X561213Y604725D01*
X561084Y604704D01*
X560956Y604678D01*
X560828Y604649D01*
X560701Y604616D01*
X560576Y604580D01*
X560451Y604539D01*
X560328Y604495D01*
X560206Y604447D01*
X560086Y604396D01*
X559967Y604341D01*
X559850Y604282D01*
X559735Y604220D01*
X559622Y604155D01*
X559510Y604086D01*
X559401Y604014D01*
X559294Y603939D01*
X559189Y603860D01*
X559087Y603779D01*
X558987Y603694D01*
X558890Y603606D01*
X558795Y603516D01*
X558703Y603423D01*
X558614Y603327D01*
X558528Y603228D01*
X558445Y603127D01*
X558365Y603024D01*
X558288Y602918D01*
X558215Y602810D01*
X558144Y602699D01*
X558077Y602587D01*
X558013Y602473D01*
X557953Y602357D01*
X557896Y602239D01*
X557843Y602119D01*
X557793Y601998D01*
X557747Y601875D01*
X557705Y601752D01*
X557667Y601627D01*
X557632Y601500D01*
X557601Y601373D01*
X557573Y601245D01*
X557550Y601117D01*
X557531Y600987D01*
X557515Y600857D01*
X557503Y600727D01*
X557495Y600596D01*
X557491Y600465D01*
X557491Y600335D01*
X557495Y600204D01*
X557503Y600073D01*
X557515Y599943D01*
X557531Y599813D01*
X557550Y599683D01*
X557573Y599555D01*
X557601Y599427D01*
X557632Y599300D01*
X557667Y599173D01*
X557705Y599048D01*
X557747Y598925D01*
X557793Y598802D01*
X557843Y598681D01*
X557896Y598561D01*
X557953Y598443D01*
X558013Y598327D01*
X558077Y598213D01*
X558144Y598101D01*
X558215Y597990D01*
X558288Y597882D01*
X558365Y597776D01*
X558445Y597673D01*
X558528Y597572D01*
X558614Y597473D01*
X558703Y597377D01*
X558795Y597284D01*
X558890Y597194D01*
X558987Y597106D01*
X559087Y597021D01*
X559189Y596940D01*
X559294Y596861D01*
X559401Y596786D01*
X559510Y596714D01*
X559622Y596645D01*
X559735Y596580D01*
X559850Y596518D01*
X559967Y596459D01*
X560086Y596404D01*
X560206Y596353D01*
X560328Y596305D01*
X560451Y596261D01*
X560576Y596220D01*
X560701Y596184D01*
X560828Y596151D01*
X560956Y596122D01*
X561084Y596096D01*
X561213Y596075D01*
X561343Y596057D01*
X561473Y596044D01*
X561603Y596034D01*
X561734Y596028D01*
X561865Y596026D01*
X561865Y596025D02*
X566239Y596025D01*
X550694Y589026D02*
X550694Y604774D01*
X545445Y596025D01*
X540196Y604774D01*
X540196Y589026D01*
D11*
X143100Y31750D02*
X143107Y32290D01*
X143126Y32829D01*
X143160Y33368D01*
X143206Y33906D01*
X143265Y34443D01*
X143338Y34978D01*
X143424Y35511D01*
X143523Y36042D01*
X143635Y36570D01*
X143759Y37096D01*
X143897Y37618D01*
X144047Y38136D01*
X144210Y38651D01*
X144386Y39162D01*
X144574Y39668D01*
X144775Y40169D01*
X144987Y40665D01*
X145212Y41156D01*
X145449Y41641D01*
X145698Y42121D01*
X145958Y42594D01*
X146230Y43060D01*
X146513Y43520D01*
X146808Y43973D01*
X147113Y44418D01*
X147429Y44855D01*
X147756Y45285D01*
X148094Y45707D01*
X148441Y46120D01*
X148799Y46524D01*
X149167Y46920D01*
X149544Y47306D01*
X149930Y47683D01*
X150326Y48051D01*
X150730Y48409D01*
X151143Y48756D01*
X151565Y49094D01*
X151995Y49421D01*
X152432Y49737D01*
X152877Y50042D01*
X153330Y50337D01*
X153790Y50620D01*
X154256Y50892D01*
X154729Y51152D01*
X155209Y51401D01*
X155694Y51638D01*
X156185Y51863D01*
X156681Y52075D01*
X157182Y52276D01*
X157688Y52464D01*
X158199Y52640D01*
X158714Y52803D01*
X159232Y52953D01*
X159754Y53091D01*
X160280Y53215D01*
X160808Y53327D01*
X161339Y53426D01*
X161872Y53512D01*
X162407Y53585D01*
X162944Y53644D01*
X163482Y53690D01*
X164021Y53724D01*
X164560Y53743D01*
X165100Y53750D01*
X165640Y53743D01*
X166179Y53724D01*
X166718Y53690D01*
X167256Y53644D01*
X167793Y53585D01*
X168328Y53512D01*
X168861Y53426D01*
X169392Y53327D01*
X169920Y53215D01*
X170446Y53091D01*
X170968Y52953D01*
X171486Y52803D01*
X172001Y52640D01*
X172512Y52464D01*
X173018Y52276D01*
X173519Y52075D01*
X174015Y51863D01*
X174506Y51638D01*
X174991Y51401D01*
X175471Y51152D01*
X175944Y50892D01*
X176410Y50620D01*
X176870Y50337D01*
X177323Y50042D01*
X177768Y49737D01*
X178205Y49421D01*
X178635Y49094D01*
X179057Y48756D01*
X179470Y48409D01*
X179874Y48051D01*
X180270Y47683D01*
X180656Y47306D01*
X181033Y46920D01*
X181401Y46524D01*
X181759Y46120D01*
X182106Y45707D01*
X182444Y45285D01*
X182771Y44855D01*
X183087Y44418D01*
X183392Y43973D01*
X183687Y43520D01*
X183970Y43060D01*
X184242Y42594D01*
X184502Y42121D01*
X184751Y41641D01*
X184988Y41156D01*
X185213Y40665D01*
X185425Y40169D01*
X185626Y39668D01*
X185814Y39162D01*
X185990Y38651D01*
X186153Y38136D01*
X186303Y37618D01*
X186441Y37096D01*
X186565Y36570D01*
X186677Y36042D01*
X186776Y35511D01*
X186862Y34978D01*
X186935Y34443D01*
X186994Y33906D01*
X187040Y33368D01*
X187074Y32829D01*
X187093Y32290D01*
X187100Y31750D01*
X187093Y31210D01*
X187074Y30671D01*
X187040Y30132D01*
X186994Y29594D01*
X186935Y29057D01*
X186862Y28522D01*
X186776Y27989D01*
X186677Y27458D01*
X186565Y26930D01*
X186441Y26404D01*
X186303Y25882D01*
X186153Y25364D01*
X185990Y24849D01*
X185814Y24338D01*
X185626Y23832D01*
X185425Y23331D01*
X185213Y22835D01*
X184988Y22344D01*
X184751Y21859D01*
X184502Y21379D01*
X184242Y20906D01*
X183970Y20440D01*
X183687Y19980D01*
X183392Y19527D01*
X183087Y19082D01*
X182771Y18645D01*
X182444Y18215D01*
X182106Y17793D01*
X181759Y17380D01*
X181401Y16976D01*
X181033Y16580D01*
X180656Y16194D01*
X180270Y15817D01*
X179874Y15449D01*
X179470Y15091D01*
X179057Y14744D01*
X178635Y14406D01*
X178205Y14079D01*
X177768Y13763D01*
X177323Y13458D01*
X176870Y13163D01*
X176410Y12880D01*
X175944Y12608D01*
X175471Y12348D01*
X174991Y12099D01*
X174506Y11862D01*
X174015Y11637D01*
X173519Y11425D01*
X173018Y11224D01*
X172512Y11036D01*
X172001Y10860D01*
X171486Y10697D01*
X170968Y10547D01*
X170446Y10409D01*
X169920Y10285D01*
X169392Y10173D01*
X168861Y10074D01*
X168328Y9988D01*
X167793Y9915D01*
X167256Y9856D01*
X166718Y9810D01*
X166179Y9776D01*
X165640Y9757D01*
X165100Y9750D01*
X164560Y9757D01*
X164021Y9776D01*
X163482Y9810D01*
X162944Y9856D01*
X162407Y9915D01*
X161872Y9988D01*
X161339Y10074D01*
X160808Y10173D01*
X160280Y10285D01*
X159754Y10409D01*
X159232Y10547D01*
X158714Y10697D01*
X158199Y10860D01*
X157688Y11036D01*
X157182Y11224D01*
X156681Y11425D01*
X156185Y11637D01*
X155694Y11862D01*
X155209Y12099D01*
X154729Y12348D01*
X154256Y12608D01*
X153790Y12880D01*
X153330Y13163D01*
X152877Y13458D01*
X152432Y13763D01*
X151995Y14079D01*
X151565Y14406D01*
X151143Y14744D01*
X150730Y15091D01*
X150326Y15449D01*
X149930Y15817D01*
X149544Y16194D01*
X149167Y16580D01*
X148799Y16976D01*
X148441Y17380D01*
X148094Y17793D01*
X147756Y18215D01*
X147429Y18645D01*
X147113Y19082D01*
X146808Y19527D01*
X146513Y19980D01*
X146230Y20440D01*
X145958Y20906D01*
X145698Y21379D01*
X145449Y21859D01*
X145212Y22344D01*
X144987Y22835D01*
X144775Y23331D01*
X144574Y23832D01*
X144386Y24338D01*
X144210Y24849D01*
X144047Y25364D01*
X143897Y25882D01*
X143759Y26404D01*
X143635Y26930D01*
X143523Y27458D01*
X143424Y27989D01*
X143338Y28522D01*
X143265Y29057D01*
X143206Y29594D01*
X143160Y30132D01*
X143126Y30671D01*
X143107Y31210D01*
X143100Y31750D01*
X143100Y603250D02*
X143107Y603790D01*
X143126Y604329D01*
X143160Y604868D01*
X143206Y605406D01*
X143265Y605943D01*
X143338Y606478D01*
X143424Y607011D01*
X143523Y607542D01*
X143635Y608070D01*
X143759Y608596D01*
X143897Y609118D01*
X144047Y609636D01*
X144210Y610151D01*
X144386Y610662D01*
X144574Y611168D01*
X144775Y611669D01*
X144987Y612165D01*
X145212Y612656D01*
X145449Y613141D01*
X145698Y613621D01*
X145958Y614094D01*
X146230Y614560D01*
X146513Y615020D01*
X146808Y615473D01*
X147113Y615918D01*
X147429Y616355D01*
X147756Y616785D01*
X148094Y617207D01*
X148441Y617620D01*
X148799Y618024D01*
X149167Y618420D01*
X149544Y618806D01*
X149930Y619183D01*
X150326Y619551D01*
X150730Y619909D01*
X151143Y620256D01*
X151565Y620594D01*
X151995Y620921D01*
X152432Y621237D01*
X152877Y621542D01*
X153330Y621837D01*
X153790Y622120D01*
X154256Y622392D01*
X154729Y622652D01*
X155209Y622901D01*
X155694Y623138D01*
X156185Y623363D01*
X156681Y623575D01*
X157182Y623776D01*
X157688Y623964D01*
X158199Y624140D01*
X158714Y624303D01*
X159232Y624453D01*
X159754Y624591D01*
X160280Y624715D01*
X160808Y624827D01*
X161339Y624926D01*
X161872Y625012D01*
X162407Y625085D01*
X162944Y625144D01*
X163482Y625190D01*
X164021Y625224D01*
X164560Y625243D01*
X165100Y625250D01*
X165640Y625243D01*
X166179Y625224D01*
X166718Y625190D01*
X167256Y625144D01*
X167793Y625085D01*
X168328Y625012D01*
X168861Y624926D01*
X169392Y624827D01*
X169920Y624715D01*
X170446Y624591D01*
X170968Y624453D01*
X171486Y624303D01*
X172001Y624140D01*
X172512Y623964D01*
X173018Y623776D01*
X173519Y623575D01*
X174015Y623363D01*
X174506Y623138D01*
X174991Y622901D01*
X175471Y622652D01*
X175944Y622392D01*
X176410Y622120D01*
X176870Y621837D01*
X177323Y621542D01*
X177768Y621237D01*
X178205Y620921D01*
X178635Y620594D01*
X179057Y620256D01*
X179470Y619909D01*
X179874Y619551D01*
X180270Y619183D01*
X180656Y618806D01*
X181033Y618420D01*
X181401Y618024D01*
X181759Y617620D01*
X182106Y617207D01*
X182444Y616785D01*
X182771Y616355D01*
X183087Y615918D01*
X183392Y615473D01*
X183687Y615020D01*
X183970Y614560D01*
X184242Y614094D01*
X184502Y613621D01*
X184751Y613141D01*
X184988Y612656D01*
X185213Y612165D01*
X185425Y611669D01*
X185626Y611168D01*
X185814Y610662D01*
X185990Y610151D01*
X186153Y609636D01*
X186303Y609118D01*
X186441Y608596D01*
X186565Y608070D01*
X186677Y607542D01*
X186776Y607011D01*
X186862Y606478D01*
X186935Y605943D01*
X186994Y605406D01*
X187040Y604868D01*
X187074Y604329D01*
X187093Y603790D01*
X187100Y603250D01*
X187093Y602710D01*
X187074Y602171D01*
X187040Y601632D01*
X186994Y601094D01*
X186935Y600557D01*
X186862Y600022D01*
X186776Y599489D01*
X186677Y598958D01*
X186565Y598430D01*
X186441Y597904D01*
X186303Y597382D01*
X186153Y596864D01*
X185990Y596349D01*
X185814Y595838D01*
X185626Y595332D01*
X185425Y594831D01*
X185213Y594335D01*
X184988Y593844D01*
X184751Y593359D01*
X184502Y592879D01*
X184242Y592406D01*
X183970Y591940D01*
X183687Y591480D01*
X183392Y591027D01*
X183087Y590582D01*
X182771Y590145D01*
X182444Y589715D01*
X182106Y589293D01*
X181759Y588880D01*
X181401Y588476D01*
X181033Y588080D01*
X180656Y587694D01*
X180270Y587317D01*
X179874Y586949D01*
X179470Y586591D01*
X179057Y586244D01*
X178635Y585906D01*
X178205Y585579D01*
X177768Y585263D01*
X177323Y584958D01*
X176870Y584663D01*
X176410Y584380D01*
X175944Y584108D01*
X175471Y583848D01*
X174991Y583599D01*
X174506Y583362D01*
X174015Y583137D01*
X173519Y582925D01*
X173018Y582724D01*
X172512Y582536D01*
X172001Y582360D01*
X171486Y582197D01*
X170968Y582047D01*
X170446Y581909D01*
X169920Y581785D01*
X169392Y581673D01*
X168861Y581574D01*
X168328Y581488D01*
X167793Y581415D01*
X167256Y581356D01*
X166718Y581310D01*
X166179Y581276D01*
X165640Y581257D01*
X165100Y581250D01*
X164560Y581257D01*
X164021Y581276D01*
X163482Y581310D01*
X162944Y581356D01*
X162407Y581415D01*
X161872Y581488D01*
X161339Y581574D01*
X160808Y581673D01*
X160280Y581785D01*
X159754Y581909D01*
X159232Y582047D01*
X158714Y582197D01*
X158199Y582360D01*
X157688Y582536D01*
X157182Y582724D01*
X156681Y582925D01*
X156185Y583137D01*
X155694Y583362D01*
X155209Y583599D01*
X154729Y583848D01*
X154256Y584108D01*
X153790Y584380D01*
X153330Y584663D01*
X152877Y584958D01*
X152432Y585263D01*
X151995Y585579D01*
X151565Y585906D01*
X151143Y586244D01*
X150730Y586591D01*
X150326Y586949D01*
X149930Y587317D01*
X149544Y587694D01*
X149167Y588080D01*
X148799Y588476D01*
X148441Y588880D01*
X148094Y589293D01*
X147756Y589715D01*
X147429Y590145D01*
X147113Y590582D01*
X146808Y591027D01*
X146513Y591480D01*
X146230Y591940D01*
X145958Y592406D01*
X145698Y592879D01*
X145449Y593359D01*
X145212Y593844D01*
X144987Y594335D01*
X144775Y594831D01*
X144574Y595332D01*
X144386Y595838D01*
X144210Y596349D01*
X144047Y596864D01*
X143897Y597382D01*
X143759Y597904D01*
X143635Y598430D01*
X143523Y598958D01*
X143424Y599489D01*
X143338Y600022D01*
X143265Y600557D01*
X143206Y601094D01*
X143160Y601632D01*
X143126Y602171D01*
X143107Y602710D01*
X143100Y603250D01*
X905100Y31750D02*
X905107Y32290D01*
X905126Y32829D01*
X905160Y33368D01*
X905206Y33906D01*
X905265Y34443D01*
X905338Y34978D01*
X905424Y35511D01*
X905523Y36042D01*
X905635Y36570D01*
X905759Y37096D01*
X905897Y37618D01*
X906047Y38136D01*
X906210Y38651D01*
X906386Y39162D01*
X906574Y39668D01*
X906775Y40169D01*
X906987Y40665D01*
X907212Y41156D01*
X907449Y41641D01*
X907698Y42121D01*
X907958Y42594D01*
X908230Y43060D01*
X908513Y43520D01*
X908808Y43973D01*
X909113Y44418D01*
X909429Y44855D01*
X909756Y45285D01*
X910094Y45707D01*
X910441Y46120D01*
X910799Y46524D01*
X911167Y46920D01*
X911544Y47306D01*
X911930Y47683D01*
X912326Y48051D01*
X912730Y48409D01*
X913143Y48756D01*
X913565Y49094D01*
X913995Y49421D01*
X914432Y49737D01*
X914877Y50042D01*
X915330Y50337D01*
X915790Y50620D01*
X916256Y50892D01*
X916729Y51152D01*
X917209Y51401D01*
X917694Y51638D01*
X918185Y51863D01*
X918681Y52075D01*
X919182Y52276D01*
X919688Y52464D01*
X920199Y52640D01*
X920714Y52803D01*
X921232Y52953D01*
X921754Y53091D01*
X922280Y53215D01*
X922808Y53327D01*
X923339Y53426D01*
X923872Y53512D01*
X924407Y53585D01*
X924944Y53644D01*
X925482Y53690D01*
X926021Y53724D01*
X926560Y53743D01*
X927100Y53750D01*
X927640Y53743D01*
X928179Y53724D01*
X928718Y53690D01*
X929256Y53644D01*
X929793Y53585D01*
X930328Y53512D01*
X930861Y53426D01*
X931392Y53327D01*
X931920Y53215D01*
X932446Y53091D01*
X932968Y52953D01*
X933486Y52803D01*
X934001Y52640D01*
X934512Y52464D01*
X935018Y52276D01*
X935519Y52075D01*
X936015Y51863D01*
X936506Y51638D01*
X936991Y51401D01*
X937471Y51152D01*
X937944Y50892D01*
X938410Y50620D01*
X938870Y50337D01*
X939323Y50042D01*
X939768Y49737D01*
X940205Y49421D01*
X940635Y49094D01*
X941057Y48756D01*
X941470Y48409D01*
X941874Y48051D01*
X942270Y47683D01*
X942656Y47306D01*
X943033Y46920D01*
X943401Y46524D01*
X943759Y46120D01*
X944106Y45707D01*
X944444Y45285D01*
X944771Y44855D01*
X945087Y44418D01*
X945392Y43973D01*
X945687Y43520D01*
X945970Y43060D01*
X946242Y42594D01*
X946502Y42121D01*
X946751Y41641D01*
X946988Y41156D01*
X947213Y40665D01*
X947425Y40169D01*
X947626Y39668D01*
X947814Y39162D01*
X947990Y38651D01*
X948153Y38136D01*
X948303Y37618D01*
X948441Y37096D01*
X948565Y36570D01*
X948677Y36042D01*
X948776Y35511D01*
X948862Y34978D01*
X948935Y34443D01*
X948994Y33906D01*
X949040Y33368D01*
X949074Y32829D01*
X949093Y32290D01*
X949100Y31750D01*
X949093Y31210D01*
X949074Y30671D01*
X949040Y30132D01*
X948994Y29594D01*
X948935Y29057D01*
X948862Y28522D01*
X948776Y27989D01*
X948677Y27458D01*
X948565Y26930D01*
X948441Y26404D01*
X948303Y25882D01*
X948153Y25364D01*
X947990Y24849D01*
X947814Y24338D01*
X947626Y23832D01*
X947425Y23331D01*
X947213Y22835D01*
X946988Y22344D01*
X946751Y21859D01*
X946502Y21379D01*
X946242Y20906D01*
X945970Y20440D01*
X945687Y19980D01*
X945392Y19527D01*
X945087Y19082D01*
X944771Y18645D01*
X944444Y18215D01*
X944106Y17793D01*
X943759Y17380D01*
X943401Y16976D01*
X943033Y16580D01*
X942656Y16194D01*
X942270Y15817D01*
X941874Y15449D01*
X941470Y15091D01*
X941057Y14744D01*
X940635Y14406D01*
X940205Y14079D01*
X939768Y13763D01*
X939323Y13458D01*
X938870Y13163D01*
X938410Y12880D01*
X937944Y12608D01*
X937471Y12348D01*
X936991Y12099D01*
X936506Y11862D01*
X936015Y11637D01*
X935519Y11425D01*
X935018Y11224D01*
X934512Y11036D01*
X934001Y10860D01*
X933486Y10697D01*
X932968Y10547D01*
X932446Y10409D01*
X931920Y10285D01*
X931392Y10173D01*
X930861Y10074D01*
X930328Y9988D01*
X929793Y9915D01*
X929256Y9856D01*
X928718Y9810D01*
X928179Y9776D01*
X927640Y9757D01*
X927100Y9750D01*
X926560Y9757D01*
X926021Y9776D01*
X925482Y9810D01*
X924944Y9856D01*
X924407Y9915D01*
X923872Y9988D01*
X923339Y10074D01*
X922808Y10173D01*
X922280Y10285D01*
X921754Y10409D01*
X921232Y10547D01*
X920714Y10697D01*
X920199Y10860D01*
X919688Y11036D01*
X919182Y11224D01*
X918681Y11425D01*
X918185Y11637D01*
X917694Y11862D01*
X917209Y12099D01*
X916729Y12348D01*
X916256Y12608D01*
X915790Y12880D01*
X915330Y13163D01*
X914877Y13458D01*
X914432Y13763D01*
X913995Y14079D01*
X913565Y14406D01*
X913143Y14744D01*
X912730Y15091D01*
X912326Y15449D01*
X911930Y15817D01*
X911544Y16194D01*
X911167Y16580D01*
X910799Y16976D01*
X910441Y17380D01*
X910094Y17793D01*
X909756Y18215D01*
X909429Y18645D01*
X909113Y19082D01*
X908808Y19527D01*
X908513Y19980D01*
X908230Y20440D01*
X907958Y20906D01*
X907698Y21379D01*
X907449Y21859D01*
X907212Y22344D01*
X906987Y22835D01*
X906775Y23331D01*
X906574Y23832D01*
X906386Y24338D01*
X906210Y24849D01*
X906047Y25364D01*
X905897Y25882D01*
X905759Y26404D01*
X905635Y26930D01*
X905523Y27458D01*
X905424Y27989D01*
X905338Y28522D01*
X905265Y29057D01*
X905206Y29594D01*
X905160Y30132D01*
X905126Y30671D01*
X905107Y31210D01*
X905100Y31750D01*
X905100Y603250D02*
X905107Y603790D01*
X905126Y604329D01*
X905160Y604868D01*
X905206Y605406D01*
X905265Y605943D01*
X905338Y606478D01*
X905424Y607011D01*
X905523Y607542D01*
X905635Y608070D01*
X905759Y608596D01*
X905897Y609118D01*
X906047Y609636D01*
X906210Y610151D01*
X906386Y610662D01*
X906574Y611168D01*
X906775Y611669D01*
X906987Y612165D01*
X907212Y612656D01*
X907449Y613141D01*
X907698Y613621D01*
X907958Y614094D01*
X908230Y614560D01*
X908513Y615020D01*
X908808Y615473D01*
X909113Y615918D01*
X909429Y616355D01*
X909756Y616785D01*
X910094Y617207D01*
X910441Y617620D01*
X910799Y618024D01*
X911167Y618420D01*
X911544Y618806D01*
X911930Y619183D01*
X912326Y619551D01*
X912730Y619909D01*
X913143Y620256D01*
X913565Y620594D01*
X913995Y620921D01*
X914432Y621237D01*
X914877Y621542D01*
X915330Y621837D01*
X915790Y622120D01*
X916256Y622392D01*
X916729Y622652D01*
X917209Y622901D01*
X917694Y623138D01*
X918185Y623363D01*
X918681Y623575D01*
X919182Y623776D01*
X919688Y623964D01*
X920199Y624140D01*
X920714Y624303D01*
X921232Y624453D01*
X921754Y624591D01*
X922280Y624715D01*
X922808Y624827D01*
X923339Y624926D01*
X923872Y625012D01*
X924407Y625085D01*
X924944Y625144D01*
X925482Y625190D01*
X926021Y625224D01*
X926560Y625243D01*
X927100Y625250D01*
X927640Y625243D01*
X928179Y625224D01*
X928718Y625190D01*
X929256Y625144D01*
X929793Y625085D01*
X930328Y625012D01*
X930861Y624926D01*
X931392Y624827D01*
X931920Y624715D01*
X932446Y624591D01*
X932968Y624453D01*
X933486Y624303D01*
X934001Y624140D01*
X934512Y623964D01*
X935018Y623776D01*
X935519Y623575D01*
X936015Y623363D01*
X936506Y623138D01*
X936991Y622901D01*
X937471Y622652D01*
X937944Y622392D01*
X938410Y622120D01*
X938870Y621837D01*
X939323Y621542D01*
X939768Y621237D01*
X940205Y620921D01*
X940635Y620594D01*
X941057Y620256D01*
X941470Y619909D01*
X941874Y619551D01*
X942270Y619183D01*
X942656Y618806D01*
X943033Y618420D01*
X943401Y618024D01*
X943759Y617620D01*
X944106Y617207D01*
X944444Y616785D01*
X944771Y616355D01*
X945087Y615918D01*
X945392Y615473D01*
X945687Y615020D01*
X945970Y614560D01*
X946242Y614094D01*
X946502Y613621D01*
X946751Y613141D01*
X946988Y612656D01*
X947213Y612165D01*
X947425Y611669D01*
X947626Y611168D01*
X947814Y610662D01*
X947990Y610151D01*
X948153Y609636D01*
X948303Y609118D01*
X948441Y608596D01*
X948565Y608070D01*
X948677Y607542D01*
X948776Y607011D01*
X948862Y606478D01*
X948935Y605943D01*
X948994Y605406D01*
X949040Y604868D01*
X949074Y604329D01*
X949093Y603790D01*
X949100Y603250D01*
X949093Y602710D01*
X949074Y602171D01*
X949040Y601632D01*
X948994Y601094D01*
X948935Y600557D01*
X948862Y600022D01*
X948776Y599489D01*
X948677Y598958D01*
X948565Y598430D01*
X948441Y597904D01*
X948303Y597382D01*
X948153Y596864D01*
X947990Y596349D01*
X947814Y595838D01*
X947626Y595332D01*
X947425Y594831D01*
X947213Y594335D01*
X946988Y593844D01*
X946751Y593359D01*
X946502Y592879D01*
X946242Y592406D01*
X945970Y591940D01*
X945687Y591480D01*
X945392Y591027D01*
X945087Y590582D01*
X944771Y590145D01*
X944444Y589715D01*
X944106Y589293D01*
X943759Y588880D01*
X943401Y588476D01*
X943033Y588080D01*
X942656Y587694D01*
X942270Y587317D01*
X941874Y586949D01*
X941470Y586591D01*
X941057Y586244D01*
X940635Y585906D01*
X940205Y585579D01*
X939768Y585263D01*
X939323Y584958D01*
X938870Y584663D01*
X938410Y584380D01*
X937944Y584108D01*
X937471Y583848D01*
X936991Y583599D01*
X936506Y583362D01*
X936015Y583137D01*
X935519Y582925D01*
X935018Y582724D01*
X934512Y582536D01*
X934001Y582360D01*
X933486Y582197D01*
X932968Y582047D01*
X932446Y581909D01*
X931920Y581785D01*
X931392Y581673D01*
X930861Y581574D01*
X930328Y581488D01*
X929793Y581415D01*
X929256Y581356D01*
X928718Y581310D01*
X928179Y581276D01*
X927640Y581257D01*
X927100Y581250D01*
X926560Y581257D01*
X926021Y581276D01*
X925482Y581310D01*
X924944Y581356D01*
X924407Y581415D01*
X923872Y581488D01*
X923339Y581574D01*
X922808Y581673D01*
X922280Y581785D01*
X921754Y581909D01*
X921232Y582047D01*
X920714Y582197D01*
X920199Y582360D01*
X919688Y582536D01*
X919182Y582724D01*
X918681Y582925D01*
X918185Y583137D01*
X917694Y583362D01*
X917209Y583599D01*
X916729Y583848D01*
X916256Y584108D01*
X915790Y584380D01*
X915330Y584663D01*
X914877Y584958D01*
X914432Y585263D01*
X913995Y585579D01*
X913565Y585906D01*
X913143Y586244D01*
X912730Y586591D01*
X912326Y586949D01*
X911930Y587317D01*
X911544Y587694D01*
X911167Y588080D01*
X910799Y588476D01*
X910441Y588880D01*
X910094Y589293D01*
X909756Y589715D01*
X909429Y590145D01*
X909113Y590582D01*
X908808Y591027D01*
X908513Y591480D01*
X908230Y591940D01*
X907958Y592406D01*
X907698Y592879D01*
X907449Y593359D01*
X907212Y593844D01*
X906987Y594335D01*
X906775Y594831D01*
X906574Y595332D01*
X906386Y595838D01*
X906210Y596349D01*
X906047Y596864D01*
X905897Y597382D01*
X905759Y597904D01*
X905635Y598430D01*
X905523Y598958D01*
X905424Y599489D01*
X905338Y600022D01*
X905265Y600557D01*
X905206Y601094D01*
X905160Y601632D01*
X905126Y602171D01*
X905107Y602710D01*
X905100Y603250D01*
D12*
X165100Y5080D02*
X164486Y5087D01*
X163873Y5110D01*
X163260Y5147D01*
X162649Y5199D01*
X162038Y5265D01*
X161430Y5347D01*
X160824Y5443D01*
X160220Y5553D01*
X159619Y5678D01*
X159021Y5818D01*
X158427Y5972D01*
X157837Y6141D01*
X157251Y6323D01*
X156670Y6520D01*
X156093Y6731D01*
X155522Y6955D01*
X154956Y7193D01*
X154396Y7445D01*
X153843Y7711D01*
X153296Y7989D01*
X152756Y8281D01*
X152223Y8586D01*
X151698Y8904D01*
X151180Y9234D01*
X150671Y9576D01*
X150170Y9931D01*
X149678Y10298D01*
X149195Y10676D01*
X148721Y11066D01*
X148257Y11468D01*
X147802Y11880D01*
X147358Y12304D01*
X146924Y12738D01*
X146500Y13182D01*
X146088Y13637D01*
X145686Y14101D01*
X145296Y14575D01*
X144918Y15058D01*
X144551Y15550D01*
X144196Y16051D01*
X143854Y16560D01*
X143524Y17078D01*
X143206Y17603D01*
X142901Y18136D01*
X142609Y18676D01*
X142331Y19223D01*
X142065Y19776D01*
X141813Y20336D01*
X141575Y20902D01*
X141351Y21473D01*
X141140Y22050D01*
X140943Y22631D01*
X140761Y23217D01*
X140592Y23807D01*
X140438Y24401D01*
X140298Y24999D01*
X140173Y25600D01*
X140063Y26204D01*
X139967Y26810D01*
X139885Y27418D01*
X139819Y28029D01*
X139767Y28640D01*
X139730Y29253D01*
X139707Y29866D01*
X139700Y30480D01*
X139700Y604520D01*
X139707Y605134D01*
X139730Y605747D01*
X139767Y606360D01*
X139819Y606971D01*
X139885Y607582D01*
X139967Y608190D01*
X140063Y608796D01*
X140173Y609400D01*
X140298Y610001D01*
X140438Y610599D01*
X140592Y611193D01*
X140761Y611783D01*
X140943Y612369D01*
X141140Y612950D01*
X141351Y613527D01*
X141575Y614098D01*
X141813Y614664D01*
X142065Y615224D01*
X142331Y615777D01*
X142609Y616324D01*
X142901Y616864D01*
X143206Y617397D01*
X143524Y617922D01*
X143854Y618440D01*
X144196Y618949D01*
X144551Y619450D01*
X144918Y619942D01*
X145296Y620425D01*
X145686Y620899D01*
X146088Y621363D01*
X146500Y621818D01*
X146924Y622262D01*
X147358Y622696D01*
X147802Y623120D01*
X148257Y623532D01*
X148721Y623934D01*
X149195Y624324D01*
X149678Y624702D01*
X150170Y625069D01*
X150671Y625424D01*
X151180Y625766D01*
X151698Y626096D01*
X152223Y626414D01*
X152756Y626719D01*
X153296Y627011D01*
X153843Y627289D01*
X154396Y627555D01*
X154956Y627807D01*
X155522Y628045D01*
X156093Y628269D01*
X156670Y628480D01*
X157251Y628677D01*
X157837Y628859D01*
X158427Y629028D01*
X159021Y629182D01*
X159619Y629322D01*
X160220Y629447D01*
X160824Y629557D01*
X161430Y629653D01*
X162038Y629735D01*
X162649Y629801D01*
X163260Y629853D01*
X163873Y629890D01*
X164486Y629913D01*
X165100Y629920D01*
X165714Y629913D01*
X166327Y629890D01*
X166940Y629853D01*
X167551Y629801D01*
X168162Y629735D01*
X168770Y629653D01*
X169376Y629557D01*
X169980Y629447D01*
X170581Y629322D01*
X171179Y629182D01*
X171773Y629028D01*
X172363Y628859D01*
X172949Y628677D01*
X173530Y628480D01*
X174107Y628269D01*
X174678Y628045D01*
X175244Y627807D01*
X175804Y627555D01*
X176357Y627289D01*
X176904Y627011D01*
X177444Y626719D01*
X177977Y626414D01*
X178502Y626096D01*
X179020Y625766D01*
X179529Y625424D01*
X180030Y625069D01*
X180522Y624702D01*
X181005Y624324D01*
X181479Y623934D01*
X181943Y623532D01*
X182398Y623120D01*
X182842Y622696D01*
X183276Y622262D01*
X183700Y621818D01*
X184112Y621363D01*
X184514Y620899D01*
X184904Y620425D01*
X185282Y619942D01*
X185649Y619450D01*
X186004Y618949D01*
X186346Y618440D01*
X186676Y617922D01*
X186994Y617397D01*
X187299Y616864D01*
X187591Y616324D01*
X187869Y615777D01*
X188135Y615224D01*
X188387Y614664D01*
X188625Y614098D01*
X188849Y613527D01*
X189060Y612950D01*
X189257Y612369D01*
X189439Y611783D01*
X189608Y611193D01*
X189762Y610599D01*
X189902Y610001D01*
X190027Y609400D01*
X190137Y608796D01*
X190233Y608190D01*
X190315Y607582D01*
X190381Y606971D01*
X190433Y606360D01*
X190470Y605747D01*
X190493Y605134D01*
X190500Y604520D01*
X190500Y571500D01*
X901700Y571500D01*
X901700Y604520D01*
X901707Y605134D01*
X901730Y605747D01*
X901767Y606360D01*
X901819Y606971D01*
X901885Y607582D01*
X901967Y608190D01*
X902063Y608796D01*
X902173Y609400D01*
X902298Y610001D01*
X902438Y610599D01*
X902592Y611193D01*
X902761Y611783D01*
X902943Y612369D01*
X903140Y612950D01*
X903351Y613527D01*
X903575Y614098D01*
X903813Y614664D01*
X904065Y615224D01*
X904331Y615777D01*
X904609Y616324D01*
X904901Y616864D01*
X905206Y617397D01*
X905524Y617922D01*
X905854Y618440D01*
X906196Y618949D01*
X906551Y619450D01*
X906918Y619942D01*
X907296Y620425D01*
X907686Y620899D01*
X908088Y621363D01*
X908500Y621818D01*
X908924Y622262D01*
X909358Y622696D01*
X909802Y623120D01*
X910257Y623532D01*
X910721Y623934D01*
X911195Y624324D01*
X911678Y624702D01*
X912170Y625069D01*
X912671Y625424D01*
X913180Y625766D01*
X913698Y626096D01*
X914223Y626414D01*
X914756Y626719D01*
X915296Y627011D01*
X915843Y627289D01*
X916396Y627555D01*
X916956Y627807D01*
X917522Y628045D01*
X918093Y628269D01*
X918670Y628480D01*
X919251Y628677D01*
X919837Y628859D01*
X920427Y629028D01*
X921021Y629182D01*
X921619Y629322D01*
X922220Y629447D01*
X922824Y629557D01*
X923430Y629653D01*
X924038Y629735D01*
X924649Y629801D01*
X925260Y629853D01*
X925873Y629890D01*
X926486Y629913D01*
X927100Y629920D01*
X927714Y629913D01*
X928327Y629890D01*
X928940Y629853D01*
X929551Y629801D01*
X930162Y629735D01*
X930770Y629653D01*
X931376Y629557D01*
X931980Y629447D01*
X932581Y629322D01*
X933179Y629182D01*
X933773Y629028D01*
X934363Y628859D01*
X934949Y628677D01*
X935530Y628480D01*
X936107Y628269D01*
X936678Y628045D01*
X937244Y627807D01*
X937804Y627555D01*
X938357Y627289D01*
X938904Y627011D01*
X939444Y626719D01*
X939977Y626414D01*
X940502Y626096D01*
X941020Y625766D01*
X941529Y625424D01*
X942030Y625069D01*
X942522Y624702D01*
X943005Y624324D01*
X943479Y623934D01*
X943943Y623532D01*
X944398Y623120D01*
X944842Y622696D01*
X945276Y622262D01*
X945700Y621818D01*
X946112Y621363D01*
X946514Y620899D01*
X946904Y620425D01*
X947282Y619942D01*
X947649Y619450D01*
X948004Y618949D01*
X948346Y618440D01*
X948676Y617922D01*
X948994Y617397D01*
X949299Y616864D01*
X949591Y616324D01*
X949869Y615777D01*
X950135Y615224D01*
X950387Y614664D01*
X950625Y614098D01*
X950849Y613527D01*
X951060Y612950D01*
X951257Y612369D01*
X951439Y611783D01*
X951608Y611193D01*
X951762Y610599D01*
X951902Y610001D01*
X952027Y609400D01*
X952137Y608796D01*
X952233Y608190D01*
X952315Y607582D01*
X952381Y606971D01*
X952433Y606360D01*
X952470Y605747D01*
X952493Y605134D01*
X952500Y604520D01*
X952500Y30480D01*
X952493Y29866D01*
X952470Y29253D01*
X952433Y28640D01*
X952381Y28029D01*
X952315Y27418D01*
X952233Y26810D01*
X952137Y26204D01*
X952027Y25600D01*
X951902Y24999D01*
X951762Y24401D01*
X951608Y23807D01*
X951439Y23217D01*
X951257Y22631D01*
X951060Y22050D01*
X950849Y21473D01*
X950625Y20902D01*
X950387Y20336D01*
X950135Y19776D01*
X949869Y19223D01*
X949591Y18676D01*
X949299Y18136D01*
X948994Y17603D01*
X948676Y17078D01*
X948346Y16560D01*
X948004Y16051D01*
X947649Y15550D01*
X947282Y15058D01*
X946904Y14575D01*
X946514Y14101D01*
X946112Y13637D01*
X945700Y13182D01*
X945276Y12738D01*
X944842Y12304D01*
X944398Y11880D01*
X943943Y11468D01*
X943479Y11066D01*
X943005Y10676D01*
X942522Y10298D01*
X942030Y9931D01*
X941529Y9576D01*
X941020Y9234D01*
X940502Y8904D01*
X939977Y8586D01*
X939444Y8281D01*
X938904Y7989D01*
X938357Y7711D01*
X937804Y7445D01*
X937244Y7193D01*
X936678Y6955D01*
X936107Y6731D01*
X935530Y6520D01*
X934949Y6323D01*
X934363Y6141D01*
X933773Y5972D01*
X933179Y5818D01*
X932581Y5678D01*
X931980Y5553D01*
X931376Y5443D01*
X930770Y5347D01*
X930162Y5265D01*
X929551Y5199D01*
X928940Y5147D01*
X928327Y5110D01*
X927714Y5087D01*
X927100Y5080D01*
X926486Y5087D01*
X925873Y5110D01*
X925260Y5147D01*
X924649Y5199D01*
X924038Y5265D01*
X923430Y5347D01*
X922824Y5443D01*
X922220Y5553D01*
X921619Y5678D01*
X921021Y5818D01*
X920427Y5972D01*
X919837Y6141D01*
X919251Y6323D01*
X918670Y6520D01*
X918093Y6731D01*
X917522Y6955D01*
X916956Y7193D01*
X916396Y7445D01*
X915843Y7711D01*
X915296Y7989D01*
X914756Y8281D01*
X914223Y8586D01*
X913698Y8904D01*
X913180Y9234D01*
X912671Y9576D01*
X912170Y9931D01*
X911678Y10298D01*
X911195Y10676D01*
X910721Y11066D01*
X910257Y11468D01*
X909802Y11880D01*
X909358Y12304D01*
X908924Y12738D01*
X908500Y13182D01*
X908088Y13637D01*
X907686Y14101D01*
X907296Y14575D01*
X906918Y15058D01*
X906551Y15550D01*
X906196Y16051D01*
X905854Y16560D01*
X905524Y17078D01*
X905206Y17603D01*
X904901Y18136D01*
X904609Y18676D01*
X904331Y19223D01*
X904065Y19776D01*
X903813Y20336D01*
X903575Y20902D01*
X903351Y21473D01*
X903140Y22050D01*
X902943Y22631D01*
X902761Y23217D01*
X902592Y23807D01*
X902438Y24401D01*
X902298Y24999D01*
X902173Y25600D01*
X902063Y26204D01*
X901967Y26810D01*
X901885Y27418D01*
X901819Y28029D01*
X901767Y28640D01*
X901730Y29253D01*
X901707Y29866D01*
X901700Y30480D01*
X901700Y63500D01*
X190500Y63500D01*
X190500Y30480D01*
X190493Y29866D01*
X190470Y29253D01*
X190433Y28640D01*
X190381Y28029D01*
X190315Y27418D01*
X190233Y26810D01*
X190137Y26204D01*
X190027Y25600D01*
X189902Y24999D01*
X189762Y24401D01*
X189608Y23807D01*
X189439Y23217D01*
X189257Y22631D01*
X189060Y22050D01*
X188849Y21473D01*
X188625Y20902D01*
X188387Y20336D01*
X188135Y19776D01*
X187869Y19223D01*
X187591Y18676D01*
X187299Y18136D01*
X186994Y17603D01*
X186676Y17078D01*
X186346Y16560D01*
X186004Y16051D01*
X185649Y15550D01*
X185282Y15058D01*
X184904Y14575D01*
X184514Y14101D01*
X184112Y13637D01*
X183700Y13182D01*
X183276Y12738D01*
X182842Y12304D01*
X182398Y11880D01*
X181943Y11468D01*
X181479Y11066D01*
X181005Y10676D01*
X180522Y10298D01*
X180030Y9931D01*
X179529Y9576D01*
X179020Y9234D01*
X178502Y8904D01*
X177977Y8586D01*
X177444Y8281D01*
X176904Y7989D01*
X176357Y7711D01*
X175804Y7445D01*
X175244Y7193D01*
X174678Y6955D01*
X174107Y6731D01*
X173530Y6520D01*
X172949Y6323D01*
X172363Y6141D01*
X171773Y5972D01*
X171179Y5818D01*
X170581Y5678D01*
X169980Y5553D01*
X169376Y5443D01*
X168770Y5347D01*
X168162Y5265D01*
X167551Y5199D01*
X166940Y5147D01*
X166327Y5110D01*
X165714Y5087D01*
X165100Y5080D01*
X335280Y167640D02*
X388620Y167640D01*
X335280Y167640D02*
X335280Y467360D01*
X388620Y467360D01*
X388620Y167640D01*
D13*
X673862Y165862D02*
X685038Y169587D01*
X673862Y173313D01*
X676656Y172381D02*
X676656Y166793D01*
X673862Y182665D02*
X685038Y182665D01*
X673862Y182665D02*
X673862Y179561D01*
X673864Y179477D01*
X673869Y179394D01*
X673879Y179311D01*
X673892Y179228D01*
X673909Y179146D01*
X673929Y179065D01*
X673953Y178985D01*
X673981Y178906D01*
X674012Y178829D01*
X674046Y178753D01*
X674084Y178678D01*
X674126Y178605D01*
X674170Y178535D01*
X674218Y178466D01*
X674268Y178399D01*
X674322Y178335D01*
X674378Y178274D01*
X674438Y178214D01*
X674499Y178158D01*
X674563Y178104D01*
X674630Y178054D01*
X674699Y178006D01*
X674769Y177962D01*
X674842Y177920D01*
X674917Y177882D01*
X674993Y177848D01*
X675070Y177817D01*
X675149Y177789D01*
X675229Y177765D01*
X675310Y177745D01*
X675392Y177728D01*
X675475Y177715D01*
X675558Y177705D01*
X675641Y177700D01*
X675725Y177698D01*
X679450Y177698D01*
X679534Y177700D01*
X679617Y177706D01*
X679700Y177715D01*
X679783Y177728D01*
X679865Y177745D01*
X679946Y177765D01*
X680026Y177789D01*
X680105Y177817D01*
X680182Y177848D01*
X680258Y177882D01*
X680333Y177920D01*
X680406Y177962D01*
X680476Y178006D01*
X680545Y178054D01*
X680612Y178104D01*
X680676Y178158D01*
X680737Y178214D01*
X680797Y178274D01*
X680853Y178335D01*
X680907Y178399D01*
X680957Y178466D01*
X681005Y178535D01*
X681049Y178605D01*
X681091Y178678D01*
X681129Y178753D01*
X681163Y178829D01*
X681194Y178906D01*
X681222Y178985D01*
X681246Y179065D01*
X681266Y179146D01*
X681283Y179228D01*
X681296Y179311D01*
X681306Y179394D01*
X681311Y179477D01*
X681313Y179561D01*
X681313Y182665D01*
X678208Y190158D02*
X678208Y192952D01*
X678208Y190158D02*
X678206Y190066D01*
X678200Y189974D01*
X678190Y189882D01*
X678177Y189791D01*
X678159Y189700D01*
X678138Y189610D01*
X678113Y189522D01*
X678084Y189434D01*
X678051Y189348D01*
X678015Y189263D01*
X677975Y189180D01*
X677932Y189098D01*
X677885Y189019D01*
X677835Y188941D01*
X677782Y188866D01*
X677726Y188793D01*
X677666Y188722D01*
X677604Y188654D01*
X677539Y188589D01*
X677471Y188527D01*
X677400Y188467D01*
X677327Y188411D01*
X677252Y188358D01*
X677174Y188308D01*
X677095Y188261D01*
X677013Y188218D01*
X676930Y188178D01*
X676845Y188142D01*
X676759Y188109D01*
X676671Y188080D01*
X676583Y188055D01*
X676493Y188034D01*
X676402Y188016D01*
X676311Y188003D01*
X676219Y187993D01*
X676127Y187987D01*
X676035Y187985D01*
X675943Y187987D01*
X675851Y187993D01*
X675759Y188003D01*
X675668Y188016D01*
X675577Y188034D01*
X675487Y188055D01*
X675399Y188080D01*
X675311Y188109D01*
X675225Y188142D01*
X675140Y188178D01*
X675057Y188218D01*
X674975Y188261D01*
X674896Y188308D01*
X674818Y188358D01*
X674743Y188411D01*
X674670Y188467D01*
X674599Y188527D01*
X674531Y188589D01*
X674466Y188654D01*
X674404Y188722D01*
X674344Y188793D01*
X674288Y188866D01*
X674235Y188941D01*
X674185Y189019D01*
X674138Y189098D01*
X674095Y189180D01*
X674055Y189263D01*
X674019Y189348D01*
X673986Y189434D01*
X673957Y189522D01*
X673932Y189610D01*
X673911Y189700D01*
X673893Y189791D01*
X673880Y189882D01*
X673870Y189974D01*
X673864Y190066D01*
X673862Y190158D01*
X673862Y192952D01*
X679450Y192952D01*
X679450Y192953D02*
X679534Y192951D01*
X679617Y192946D01*
X679700Y192936D01*
X679783Y192923D01*
X679865Y192906D01*
X679946Y192886D01*
X680026Y192862D01*
X680105Y192834D01*
X680182Y192803D01*
X680258Y192769D01*
X680333Y192731D01*
X680406Y192689D01*
X680476Y192645D01*
X680545Y192597D01*
X680612Y192547D01*
X680676Y192493D01*
X680737Y192437D01*
X680797Y192377D01*
X680853Y192316D01*
X680907Y192252D01*
X680957Y192185D01*
X681005Y192116D01*
X681049Y192046D01*
X681091Y191973D01*
X681129Y191898D01*
X681163Y191822D01*
X681194Y191745D01*
X681222Y191666D01*
X681246Y191586D01*
X681266Y191505D01*
X681283Y191423D01*
X681296Y191340D01*
X681306Y191257D01*
X681311Y191174D01*
X681313Y191090D01*
X681313Y188606D01*
X683175Y198938D02*
X673862Y198938D01*
X683175Y198938D02*
X683259Y198940D01*
X683342Y198945D01*
X683425Y198955D01*
X683508Y198968D01*
X683590Y198985D01*
X683671Y199005D01*
X683751Y199029D01*
X683830Y199057D01*
X683907Y199088D01*
X683983Y199122D01*
X684058Y199160D01*
X684131Y199202D01*
X684201Y199246D01*
X684270Y199294D01*
X684337Y199344D01*
X684401Y199398D01*
X684462Y199454D01*
X684522Y199514D01*
X684578Y199575D01*
X684632Y199639D01*
X684682Y199706D01*
X684730Y199775D01*
X684774Y199845D01*
X684816Y199918D01*
X684854Y199993D01*
X684888Y200069D01*
X684919Y200146D01*
X684947Y200225D01*
X684971Y200305D01*
X684991Y200386D01*
X685008Y200468D01*
X685021Y200551D01*
X685031Y200634D01*
X685036Y200717D01*
X685038Y200801D01*
X685038Y201422D01*
X681313Y201422D02*
X681313Y197697D01*
X681313Y205287D02*
X673862Y205287D01*
X681313Y205287D02*
X681313Y209012D01*
X680071Y209012D01*
X681313Y213205D02*
X675725Y213205D01*
X675725Y213204D02*
X675641Y213206D01*
X675558Y213211D01*
X675475Y213221D01*
X675392Y213234D01*
X675310Y213251D01*
X675229Y213271D01*
X675149Y213295D01*
X675070Y213323D01*
X674993Y213354D01*
X674917Y213388D01*
X674842Y213426D01*
X674769Y213468D01*
X674699Y213512D01*
X674630Y213560D01*
X674563Y213610D01*
X674499Y213664D01*
X674438Y213720D01*
X674378Y213780D01*
X674322Y213841D01*
X674268Y213905D01*
X674218Y213972D01*
X674170Y214041D01*
X674126Y214111D01*
X674084Y214184D01*
X674046Y214259D01*
X674012Y214335D01*
X673981Y214412D01*
X673953Y214491D01*
X673929Y214571D01*
X673909Y214652D01*
X673892Y214734D01*
X673879Y214817D01*
X673869Y214900D01*
X673864Y214983D01*
X673862Y215067D01*
X673862Y218172D01*
X681313Y218172D01*
X681313Y223308D02*
X673862Y223308D01*
X684417Y222998D02*
X685038Y222998D01*
X685038Y223619D01*
X684417Y223619D01*
X684417Y222998D01*
X681313Y227045D02*
X681313Y230770D01*
X685038Y228287D02*
X675725Y228287D01*
X675725Y228286D02*
X675641Y228288D01*
X675558Y228293D01*
X675475Y228303D01*
X675392Y228316D01*
X675310Y228333D01*
X675229Y228353D01*
X675149Y228377D01*
X675070Y228405D01*
X674993Y228436D01*
X674917Y228470D01*
X674842Y228508D01*
X674769Y228550D01*
X674699Y228594D01*
X674630Y228642D01*
X674563Y228692D01*
X674499Y228746D01*
X674438Y228802D01*
X674378Y228862D01*
X674322Y228923D01*
X674268Y228987D01*
X674218Y229054D01*
X674170Y229123D01*
X674126Y229193D01*
X674084Y229266D01*
X674046Y229341D01*
X674012Y229417D01*
X673981Y229494D01*
X673953Y229573D01*
X673929Y229653D01*
X673909Y229734D01*
X673892Y229816D01*
X673879Y229899D01*
X673869Y229982D01*
X673864Y230065D01*
X673862Y230149D01*
X673862Y230770D01*
X685038Y244955D02*
X685036Y245059D01*
X685030Y245164D01*
X685020Y245268D01*
X685007Y245371D01*
X684989Y245474D01*
X684968Y245577D01*
X684943Y245678D01*
X684914Y245779D01*
X684881Y245878D01*
X684845Y245976D01*
X684805Y246072D01*
X684761Y246167D01*
X684714Y246261D01*
X684664Y246352D01*
X684610Y246441D01*
X684553Y246529D01*
X684492Y246614D01*
X684428Y246697D01*
X684362Y246777D01*
X684292Y246855D01*
X684220Y246931D01*
X684144Y247003D01*
X684066Y247073D01*
X683986Y247139D01*
X683903Y247203D01*
X683818Y247264D01*
X683730Y247321D01*
X683641Y247375D01*
X683550Y247425D01*
X683456Y247472D01*
X683361Y247516D01*
X683265Y247556D01*
X683167Y247592D01*
X683068Y247625D01*
X682967Y247654D01*
X682866Y247679D01*
X682763Y247700D01*
X682660Y247718D01*
X682557Y247731D01*
X682453Y247741D01*
X682348Y247747D01*
X682244Y247749D01*
X685039Y244955D02*
X685037Y244836D01*
X685031Y244718D01*
X685021Y244599D01*
X685008Y244481D01*
X684990Y244364D01*
X684968Y244247D01*
X684943Y244131D01*
X684914Y244016D01*
X684881Y243901D01*
X684844Y243788D01*
X684804Y243677D01*
X684760Y243566D01*
X684712Y243458D01*
X684661Y243351D01*
X684606Y243245D01*
X684547Y243142D01*
X684486Y243040D01*
X684421Y242941D01*
X684352Y242843D01*
X684281Y242749D01*
X684206Y242656D01*
X684129Y242566D01*
X684048Y242479D01*
X683965Y242394D01*
X683879Y242312D01*
X683790Y242233D01*
X683699Y242157D01*
X683605Y242084D01*
X683509Y242015D01*
X683410Y241948D01*
X683310Y241885D01*
X683207Y241825D01*
X683103Y241768D01*
X682996Y241716D01*
X682888Y241666D01*
X682779Y241620D01*
X682667Y241578D01*
X682555Y241540D01*
X680071Y246818D02*
X680145Y246893D01*
X680222Y246965D01*
X680301Y247035D01*
X680383Y247102D01*
X680467Y247166D01*
X680553Y247227D01*
X680641Y247285D01*
X680732Y247340D01*
X680824Y247392D01*
X680918Y247440D01*
X681013Y247485D01*
X681111Y247527D01*
X681209Y247565D01*
X681309Y247600D01*
X681410Y247631D01*
X681512Y247658D01*
X681615Y247682D01*
X681718Y247703D01*
X681823Y247719D01*
X681928Y247732D01*
X682033Y247742D01*
X682138Y247747D01*
X682244Y247749D01*
X680071Y246817D02*
X673862Y241540D01*
X673862Y247749D01*
X673862Y252335D02*
X674483Y252335D01*
X674483Y252956D01*
X673862Y252956D01*
X673862Y252335D01*
X676966Y257542D02*
X677077Y257544D01*
X677187Y257550D01*
X677298Y257560D01*
X677408Y257574D01*
X677517Y257591D01*
X677626Y257613D01*
X677734Y257638D01*
X677840Y257668D01*
X677946Y257701D01*
X678051Y257738D01*
X678154Y257778D01*
X678255Y257823D01*
X678355Y257870D01*
X678454Y257922D01*
X678550Y257977D01*
X678644Y258035D01*
X678736Y258096D01*
X678826Y258161D01*
X678914Y258229D01*
X678999Y258300D01*
X679081Y258374D01*
X679161Y258451D01*
X679238Y258531D01*
X679312Y258613D01*
X679383Y258698D01*
X679451Y258786D01*
X679516Y258876D01*
X679577Y258968D01*
X679635Y259062D01*
X679690Y259158D01*
X679742Y259257D01*
X679789Y259357D01*
X679834Y259458D01*
X679874Y259561D01*
X679911Y259666D01*
X679944Y259772D01*
X679974Y259878D01*
X679999Y259986D01*
X680021Y260095D01*
X680038Y260204D01*
X680052Y260314D01*
X680062Y260425D01*
X680068Y260535D01*
X680070Y260646D01*
X680068Y260757D01*
X680062Y260867D01*
X680052Y260978D01*
X680038Y261088D01*
X680021Y261197D01*
X679999Y261306D01*
X679974Y261414D01*
X679944Y261520D01*
X679911Y261626D01*
X679874Y261731D01*
X679834Y261834D01*
X679789Y261935D01*
X679742Y262035D01*
X679690Y262134D01*
X679635Y262230D01*
X679577Y262324D01*
X679516Y262416D01*
X679451Y262506D01*
X679383Y262594D01*
X679312Y262679D01*
X679238Y262761D01*
X679161Y262841D01*
X679081Y262918D01*
X678999Y262992D01*
X678914Y263063D01*
X678826Y263131D01*
X678736Y263196D01*
X678644Y263257D01*
X678550Y263315D01*
X678454Y263370D01*
X678355Y263422D01*
X678255Y263469D01*
X678154Y263514D01*
X678051Y263554D01*
X677946Y263591D01*
X677840Y263624D01*
X677734Y263654D01*
X677626Y263679D01*
X677517Y263701D01*
X677408Y263718D01*
X677298Y263732D01*
X677187Y263742D01*
X677077Y263748D01*
X676966Y263750D01*
X676855Y263748D01*
X676745Y263742D01*
X676634Y263732D01*
X676524Y263718D01*
X676415Y263701D01*
X676306Y263679D01*
X676198Y263654D01*
X676092Y263624D01*
X675986Y263591D01*
X675881Y263554D01*
X675778Y263514D01*
X675677Y263469D01*
X675577Y263422D01*
X675478Y263370D01*
X675382Y263315D01*
X675288Y263257D01*
X675196Y263196D01*
X675106Y263131D01*
X675018Y263063D01*
X674933Y262992D01*
X674851Y262918D01*
X674771Y262841D01*
X674694Y262761D01*
X674620Y262679D01*
X674549Y262594D01*
X674481Y262506D01*
X674416Y262416D01*
X674355Y262324D01*
X674297Y262230D01*
X674242Y262134D01*
X674190Y262035D01*
X674143Y261935D01*
X674098Y261834D01*
X674058Y261731D01*
X674021Y261626D01*
X673988Y261520D01*
X673958Y261414D01*
X673933Y261306D01*
X673911Y261197D01*
X673894Y261088D01*
X673880Y260978D01*
X673870Y260867D01*
X673864Y260757D01*
X673862Y260646D01*
X673864Y260535D01*
X673870Y260425D01*
X673880Y260314D01*
X673894Y260204D01*
X673911Y260095D01*
X673933Y259986D01*
X673958Y259878D01*
X673988Y259772D01*
X674021Y259666D01*
X674058Y259561D01*
X674098Y259458D01*
X674143Y259357D01*
X674190Y259257D01*
X674242Y259158D01*
X674297Y259062D01*
X674355Y258968D01*
X674416Y258876D01*
X674481Y258786D01*
X674549Y258698D01*
X674620Y258613D01*
X674694Y258531D01*
X674771Y258451D01*
X674851Y258374D01*
X674933Y258300D01*
X675018Y258229D01*
X675106Y258161D01*
X675196Y258096D01*
X675288Y258035D01*
X675382Y257977D01*
X675478Y257922D01*
X675577Y257870D01*
X675677Y257823D01*
X675778Y257778D01*
X675881Y257738D01*
X675986Y257701D01*
X676092Y257668D01*
X676198Y257638D01*
X676306Y257613D01*
X676415Y257591D01*
X676524Y257574D01*
X676634Y257560D01*
X676745Y257550D01*
X676855Y257544D01*
X676966Y257542D01*
X682554Y258162D02*
X682653Y258164D01*
X682751Y258170D01*
X682850Y258180D01*
X682947Y258193D01*
X683045Y258211D01*
X683141Y258232D01*
X683237Y258258D01*
X683331Y258287D01*
X683424Y258319D01*
X683516Y258356D01*
X683606Y258396D01*
X683695Y258440D01*
X683782Y258487D01*
X683867Y258537D01*
X683949Y258591D01*
X684030Y258648D01*
X684108Y258708D01*
X684184Y258772D01*
X684257Y258838D01*
X684328Y258907D01*
X684396Y258979D01*
X684460Y259054D01*
X684522Y259131D01*
X684581Y259210D01*
X684636Y259292D01*
X684689Y259376D01*
X684737Y259461D01*
X684783Y259549D01*
X684825Y259639D01*
X684863Y259730D01*
X684897Y259822D01*
X684928Y259916D01*
X684955Y260011D01*
X684979Y260107D01*
X684998Y260204D01*
X685014Y260301D01*
X685026Y260399D01*
X685034Y260498D01*
X685038Y260597D01*
X685038Y260695D01*
X685034Y260794D01*
X685026Y260893D01*
X685014Y260991D01*
X684998Y261088D01*
X684979Y261185D01*
X684955Y261281D01*
X684928Y261376D01*
X684897Y261470D01*
X684863Y261562D01*
X684825Y261653D01*
X684783Y261743D01*
X684737Y261831D01*
X684689Y261916D01*
X684636Y262000D01*
X684581Y262082D01*
X684522Y262161D01*
X684460Y262238D01*
X684396Y262313D01*
X684328Y262385D01*
X684257Y262454D01*
X684184Y262520D01*
X684108Y262584D01*
X684030Y262644D01*
X683949Y262701D01*
X683867Y262755D01*
X683782Y262805D01*
X683695Y262852D01*
X683606Y262896D01*
X683516Y262936D01*
X683424Y262973D01*
X683331Y263005D01*
X683237Y263034D01*
X683141Y263060D01*
X683045Y263081D01*
X682947Y263099D01*
X682850Y263112D01*
X682751Y263122D01*
X682653Y263128D01*
X682554Y263130D01*
X682455Y263128D01*
X682357Y263122D01*
X682258Y263112D01*
X682161Y263099D01*
X682063Y263081D01*
X681967Y263060D01*
X681871Y263034D01*
X681777Y263005D01*
X681684Y262973D01*
X681592Y262936D01*
X681502Y262896D01*
X681413Y262852D01*
X681326Y262805D01*
X681241Y262755D01*
X681159Y262701D01*
X681078Y262644D01*
X681000Y262584D01*
X680924Y262520D01*
X680851Y262454D01*
X680780Y262385D01*
X680712Y262313D01*
X680648Y262238D01*
X680586Y262161D01*
X680527Y262082D01*
X680472Y262000D01*
X680419Y261916D01*
X680371Y261831D01*
X680325Y261743D01*
X680283Y261653D01*
X680245Y261562D01*
X680211Y261470D01*
X680180Y261376D01*
X680153Y261281D01*
X680129Y261185D01*
X680110Y261088D01*
X680094Y260991D01*
X680082Y260893D01*
X680074Y260794D01*
X680070Y260695D01*
X680070Y260597D01*
X680074Y260498D01*
X680082Y260399D01*
X680094Y260301D01*
X680110Y260204D01*
X680129Y260107D01*
X680153Y260011D01*
X680180Y259916D01*
X680211Y259822D01*
X680245Y259730D01*
X680283Y259639D01*
X680325Y259549D01*
X680371Y259461D01*
X680419Y259376D01*
X680472Y259292D01*
X680527Y259210D01*
X680586Y259131D01*
X680648Y259054D01*
X680712Y258979D01*
X680780Y258907D01*
X680851Y258838D01*
X680924Y258772D01*
X681000Y258708D01*
X681078Y258648D01*
X681159Y258591D01*
X681241Y258537D01*
X681326Y258487D01*
X681413Y258440D01*
X681502Y258396D01*
X681592Y258356D01*
X681684Y258319D01*
X681777Y258287D01*
X681871Y258258D01*
X681967Y258232D01*
X682063Y258211D01*
X682161Y258193D01*
X682258Y258180D01*
X682357Y258170D01*
X682455Y258164D01*
X682554Y258162D01*
X685038Y268238D02*
X687522Y268238D01*
X687522Y271342D02*
X685038Y271342D01*
X685038Y282399D02*
X673862Y282399D01*
X685038Y282399D02*
X685038Y285503D01*
X685036Y285614D01*
X685030Y285724D01*
X685020Y285835D01*
X685006Y285945D01*
X684989Y286054D01*
X684967Y286163D01*
X684942Y286271D01*
X684912Y286377D01*
X684879Y286483D01*
X684842Y286588D01*
X684802Y286691D01*
X684757Y286792D01*
X684710Y286892D01*
X684658Y286991D01*
X684603Y287087D01*
X684545Y287181D01*
X684484Y287273D01*
X684419Y287363D01*
X684351Y287451D01*
X684280Y287536D01*
X684206Y287618D01*
X684129Y287698D01*
X684049Y287775D01*
X683967Y287849D01*
X683882Y287920D01*
X683794Y287988D01*
X683704Y288053D01*
X683612Y288114D01*
X683518Y288172D01*
X683422Y288227D01*
X683323Y288279D01*
X683223Y288326D01*
X683122Y288371D01*
X683019Y288411D01*
X682914Y288448D01*
X682808Y288481D01*
X682702Y288511D01*
X682594Y288536D01*
X682485Y288558D01*
X682376Y288575D01*
X682266Y288589D01*
X682155Y288599D01*
X682045Y288605D01*
X681934Y288607D01*
X681823Y288605D01*
X681713Y288599D01*
X681602Y288589D01*
X681492Y288575D01*
X681383Y288558D01*
X681274Y288536D01*
X681166Y288511D01*
X681060Y288481D01*
X680954Y288448D01*
X680849Y288411D01*
X680746Y288371D01*
X680645Y288326D01*
X680545Y288279D01*
X680446Y288227D01*
X680350Y288172D01*
X680256Y288114D01*
X680164Y288053D01*
X680074Y287988D01*
X679986Y287920D01*
X679901Y287849D01*
X679819Y287775D01*
X679739Y287698D01*
X679662Y287618D01*
X679588Y287536D01*
X679517Y287451D01*
X679449Y287363D01*
X679384Y287273D01*
X679323Y287181D01*
X679265Y287087D01*
X679210Y286991D01*
X679158Y286892D01*
X679111Y286792D01*
X679066Y286691D01*
X679026Y286588D01*
X678989Y286483D01*
X678956Y286377D01*
X678926Y286271D01*
X678901Y286163D01*
X678879Y286054D01*
X678862Y285945D01*
X678848Y285835D01*
X678838Y285724D01*
X678832Y285614D01*
X678830Y285503D01*
X678829Y285503D02*
X678829Y282399D01*
X678829Y286124D02*
X673862Y288608D01*
X673862Y295458D02*
X673862Y298563D01*
X673862Y295458D02*
X673864Y295374D01*
X673869Y295291D01*
X673879Y295208D01*
X673892Y295125D01*
X673909Y295043D01*
X673929Y294962D01*
X673953Y294882D01*
X673981Y294803D01*
X674012Y294726D01*
X674046Y294650D01*
X674084Y294575D01*
X674126Y294502D01*
X674170Y294432D01*
X674218Y294363D01*
X674268Y294296D01*
X674322Y294232D01*
X674378Y294171D01*
X674438Y294111D01*
X674499Y294055D01*
X674563Y294001D01*
X674630Y293951D01*
X674699Y293903D01*
X674769Y293859D01*
X674842Y293817D01*
X674917Y293779D01*
X674993Y293745D01*
X675070Y293714D01*
X675149Y293686D01*
X675229Y293662D01*
X675310Y293642D01*
X675392Y293625D01*
X675475Y293612D01*
X675558Y293602D01*
X675641Y293597D01*
X675725Y293595D01*
X678829Y293595D01*
X678928Y293597D01*
X679026Y293603D01*
X679125Y293613D01*
X679222Y293626D01*
X679320Y293644D01*
X679416Y293665D01*
X679512Y293691D01*
X679606Y293720D01*
X679699Y293752D01*
X679791Y293789D01*
X679881Y293829D01*
X679970Y293873D01*
X680057Y293920D01*
X680142Y293970D01*
X680224Y294024D01*
X680305Y294081D01*
X680383Y294141D01*
X680459Y294205D01*
X680532Y294271D01*
X680603Y294340D01*
X680671Y294412D01*
X680735Y294487D01*
X680797Y294564D01*
X680856Y294643D01*
X680911Y294725D01*
X680964Y294809D01*
X681012Y294894D01*
X681058Y294982D01*
X681100Y295072D01*
X681138Y295163D01*
X681172Y295255D01*
X681203Y295349D01*
X681230Y295444D01*
X681254Y295540D01*
X681273Y295637D01*
X681289Y295734D01*
X681301Y295832D01*
X681309Y295931D01*
X681313Y296030D01*
X681313Y296128D01*
X681309Y296227D01*
X681301Y296326D01*
X681289Y296424D01*
X681273Y296521D01*
X681254Y296618D01*
X681230Y296714D01*
X681203Y296809D01*
X681172Y296903D01*
X681138Y296995D01*
X681100Y297086D01*
X681058Y297176D01*
X681012Y297264D01*
X680964Y297349D01*
X680911Y297433D01*
X680856Y297515D01*
X680797Y297594D01*
X680735Y297671D01*
X680671Y297746D01*
X680603Y297818D01*
X680532Y297887D01*
X680459Y297953D01*
X680383Y298017D01*
X680305Y298077D01*
X680224Y298134D01*
X680142Y298188D01*
X680057Y298238D01*
X679970Y298285D01*
X679881Y298329D01*
X679791Y298369D01*
X679699Y298406D01*
X679606Y298438D01*
X679512Y298467D01*
X679416Y298493D01*
X679320Y298514D01*
X679222Y298532D01*
X679125Y298545D01*
X679026Y298555D01*
X678928Y298561D01*
X678829Y298563D01*
X677587Y298563D01*
X677587Y293595D01*
X678208Y304433D02*
X676966Y307537D01*
X678208Y304433D02*
X678239Y304361D01*
X678273Y304291D01*
X678311Y304222D01*
X678352Y304155D01*
X678396Y304090D01*
X678444Y304028D01*
X678494Y303968D01*
X678547Y303910D01*
X678603Y303855D01*
X678662Y303803D01*
X678723Y303754D01*
X678786Y303708D01*
X678851Y303665D01*
X678919Y303625D01*
X678988Y303588D01*
X679059Y303555D01*
X679132Y303526D01*
X679206Y303500D01*
X679281Y303477D01*
X679357Y303459D01*
X679434Y303444D01*
X679512Y303432D01*
X679590Y303425D01*
X679668Y303421D01*
X679746Y303422D01*
X679825Y303426D01*
X679903Y303433D01*
X679980Y303445D01*
X680057Y303460D01*
X680133Y303480D01*
X680208Y303502D01*
X680282Y303529D01*
X680354Y303559D01*
X680425Y303592D01*
X680494Y303629D01*
X680562Y303669D01*
X680627Y303713D01*
X680690Y303759D01*
X680751Y303809D01*
X680809Y303861D01*
X680865Y303916D01*
X680918Y303974D01*
X680968Y304035D01*
X681015Y304097D01*
X681058Y304162D01*
X681099Y304229D01*
X681137Y304298D01*
X681170Y304369D01*
X681201Y304441D01*
X681228Y304515D01*
X681251Y304589D01*
X681271Y304665D01*
X681287Y304742D01*
X681299Y304819D01*
X681307Y304897D01*
X681312Y304976D01*
X681313Y305054D01*
X681312Y305054D02*
X681308Y305223D01*
X681299Y305393D01*
X681287Y305562D01*
X681270Y305730D01*
X681249Y305899D01*
X681225Y306066D01*
X681196Y306233D01*
X681163Y306400D01*
X681126Y306565D01*
X681085Y306730D01*
X681041Y306893D01*
X680992Y307056D01*
X680940Y307217D01*
X680883Y307377D01*
X680823Y307535D01*
X680759Y307692D01*
X680691Y307848D01*
X676967Y307537D02*
X676936Y307609D01*
X676902Y307679D01*
X676864Y307748D01*
X676823Y307815D01*
X676779Y307880D01*
X676731Y307942D01*
X676681Y308002D01*
X676628Y308060D01*
X676572Y308115D01*
X676513Y308167D01*
X676452Y308216D01*
X676389Y308262D01*
X676324Y308305D01*
X676256Y308345D01*
X676187Y308382D01*
X676116Y308415D01*
X676043Y308444D01*
X675969Y308470D01*
X675894Y308493D01*
X675818Y308511D01*
X675741Y308526D01*
X675663Y308538D01*
X675585Y308545D01*
X675507Y308549D01*
X675429Y308548D01*
X675350Y308544D01*
X675272Y308537D01*
X675195Y308525D01*
X675118Y308510D01*
X675042Y308490D01*
X674967Y308468D01*
X674893Y308441D01*
X674821Y308411D01*
X674750Y308378D01*
X674681Y308341D01*
X674613Y308301D01*
X674548Y308257D01*
X674485Y308211D01*
X674424Y308161D01*
X674366Y308109D01*
X674310Y308054D01*
X674257Y307996D01*
X674207Y307935D01*
X674160Y307873D01*
X674117Y307808D01*
X674076Y307741D01*
X674038Y307672D01*
X674005Y307601D01*
X673974Y307529D01*
X673947Y307455D01*
X673924Y307381D01*
X673904Y307305D01*
X673888Y307228D01*
X673876Y307151D01*
X673868Y307073D01*
X673863Y306994D01*
X673862Y306916D01*
X673869Y306667D01*
X673881Y306419D01*
X673899Y306170D01*
X673923Y305922D01*
X673953Y305675D01*
X673989Y305429D01*
X674031Y305183D01*
X674078Y304939D01*
X674132Y304695D01*
X674190Y304453D01*
X674255Y304213D01*
X674325Y303974D01*
X674401Y303737D01*
X674483Y303502D01*
X673862Y313224D02*
X681313Y313224D01*
X684417Y312914D02*
X685038Y312914D01*
X685038Y313534D01*
X684417Y313534D01*
X684417Y312914D01*
X678208Y318911D02*
X676966Y322015D01*
X678208Y318911D02*
X678239Y318839D01*
X678273Y318769D01*
X678311Y318700D01*
X678352Y318633D01*
X678396Y318568D01*
X678444Y318506D01*
X678494Y318446D01*
X678547Y318388D01*
X678603Y318333D01*
X678662Y318281D01*
X678723Y318232D01*
X678786Y318186D01*
X678851Y318143D01*
X678919Y318103D01*
X678988Y318066D01*
X679059Y318033D01*
X679132Y318004D01*
X679206Y317978D01*
X679281Y317955D01*
X679357Y317937D01*
X679434Y317922D01*
X679512Y317910D01*
X679590Y317903D01*
X679668Y317899D01*
X679746Y317900D01*
X679825Y317904D01*
X679903Y317911D01*
X679980Y317923D01*
X680057Y317938D01*
X680133Y317958D01*
X680208Y317980D01*
X680282Y318007D01*
X680354Y318037D01*
X680425Y318070D01*
X680494Y318107D01*
X680562Y318147D01*
X680627Y318191D01*
X680690Y318237D01*
X680751Y318287D01*
X680809Y318339D01*
X680865Y318394D01*
X680918Y318452D01*
X680968Y318513D01*
X681015Y318575D01*
X681058Y318640D01*
X681099Y318707D01*
X681137Y318776D01*
X681170Y318847D01*
X681201Y318919D01*
X681228Y318993D01*
X681251Y319067D01*
X681271Y319143D01*
X681287Y319220D01*
X681299Y319297D01*
X681307Y319375D01*
X681312Y319454D01*
X681313Y319532D01*
X681312Y319532D02*
X681308Y319701D01*
X681299Y319871D01*
X681287Y320040D01*
X681270Y320208D01*
X681249Y320377D01*
X681225Y320544D01*
X681196Y320711D01*
X681163Y320878D01*
X681126Y321043D01*
X681085Y321208D01*
X681041Y321371D01*
X680992Y321534D01*
X680940Y321695D01*
X680883Y321855D01*
X680823Y322013D01*
X680759Y322170D01*
X680691Y322326D01*
X676967Y322015D02*
X676936Y322087D01*
X676902Y322157D01*
X676864Y322226D01*
X676823Y322293D01*
X676779Y322358D01*
X676731Y322420D01*
X676681Y322480D01*
X676628Y322538D01*
X676572Y322593D01*
X676513Y322645D01*
X676452Y322694D01*
X676389Y322740D01*
X676324Y322783D01*
X676256Y322823D01*
X676187Y322860D01*
X676116Y322893D01*
X676043Y322922D01*
X675969Y322948D01*
X675894Y322971D01*
X675818Y322989D01*
X675741Y323004D01*
X675663Y323016D01*
X675585Y323023D01*
X675507Y323027D01*
X675429Y323026D01*
X675350Y323022D01*
X675272Y323015D01*
X675195Y323003D01*
X675118Y322988D01*
X675042Y322968D01*
X674967Y322946D01*
X674893Y322919D01*
X674821Y322889D01*
X674750Y322856D01*
X674681Y322819D01*
X674613Y322779D01*
X674548Y322735D01*
X674485Y322689D01*
X674424Y322639D01*
X674366Y322587D01*
X674310Y322532D01*
X674257Y322474D01*
X674207Y322413D01*
X674160Y322351D01*
X674117Y322286D01*
X674076Y322219D01*
X674038Y322150D01*
X674005Y322079D01*
X673974Y322007D01*
X673947Y321933D01*
X673924Y321859D01*
X673904Y321783D01*
X673888Y321706D01*
X673876Y321629D01*
X673868Y321551D01*
X673863Y321472D01*
X673862Y321394D01*
X673869Y321145D01*
X673881Y320897D01*
X673899Y320648D01*
X673923Y320400D01*
X673953Y320153D01*
X673989Y319907D01*
X674031Y319661D01*
X674078Y319417D01*
X674132Y319173D01*
X674190Y318931D01*
X674255Y318691D01*
X674325Y318452D01*
X674401Y318215D01*
X674483Y317980D01*
X681313Y326867D02*
X681313Y330592D01*
X685038Y328109D02*
X675725Y328109D01*
X675725Y328108D02*
X675641Y328110D01*
X675558Y328115D01*
X675475Y328125D01*
X675392Y328138D01*
X675310Y328155D01*
X675229Y328175D01*
X675149Y328199D01*
X675070Y328227D01*
X674993Y328258D01*
X674917Y328292D01*
X674842Y328330D01*
X674769Y328372D01*
X674699Y328416D01*
X674630Y328464D01*
X674563Y328514D01*
X674499Y328568D01*
X674438Y328624D01*
X674378Y328684D01*
X674322Y328745D01*
X674268Y328809D01*
X674218Y328876D01*
X674170Y328945D01*
X674126Y329015D01*
X674084Y329088D01*
X674046Y329163D01*
X674012Y329239D01*
X673981Y329316D01*
X673953Y329395D01*
X673929Y329475D01*
X673909Y329556D01*
X673892Y329638D01*
X673879Y329721D01*
X673869Y329804D01*
X673864Y329887D01*
X673862Y329971D01*
X673862Y330592D01*
X673862Y334941D02*
X681313Y334941D01*
X684417Y334631D02*
X685038Y334631D01*
X685038Y335251D01*
X684417Y335251D01*
X684417Y334631D01*
X681313Y339315D02*
X673862Y341799D01*
X681313Y344283D01*
X673862Y350703D02*
X673862Y353807D01*
X673862Y350703D02*
X673864Y350619D01*
X673869Y350536D01*
X673879Y350453D01*
X673892Y350370D01*
X673909Y350288D01*
X673929Y350207D01*
X673953Y350127D01*
X673981Y350048D01*
X674012Y349971D01*
X674046Y349895D01*
X674084Y349820D01*
X674126Y349747D01*
X674170Y349677D01*
X674218Y349608D01*
X674268Y349541D01*
X674322Y349477D01*
X674378Y349416D01*
X674438Y349356D01*
X674499Y349300D01*
X674563Y349246D01*
X674630Y349196D01*
X674699Y349148D01*
X674769Y349104D01*
X674842Y349062D01*
X674917Y349024D01*
X674993Y348990D01*
X675070Y348959D01*
X675149Y348931D01*
X675229Y348907D01*
X675310Y348887D01*
X675392Y348870D01*
X675475Y348857D01*
X675558Y348847D01*
X675641Y348842D01*
X675725Y348840D01*
X678829Y348840D01*
X678928Y348842D01*
X679026Y348848D01*
X679125Y348858D01*
X679222Y348871D01*
X679320Y348889D01*
X679416Y348910D01*
X679512Y348936D01*
X679606Y348965D01*
X679699Y348997D01*
X679791Y349034D01*
X679881Y349074D01*
X679970Y349118D01*
X680057Y349165D01*
X680142Y349215D01*
X680224Y349269D01*
X680305Y349326D01*
X680383Y349386D01*
X680459Y349450D01*
X680532Y349516D01*
X680603Y349585D01*
X680671Y349657D01*
X680735Y349732D01*
X680797Y349809D01*
X680856Y349888D01*
X680911Y349970D01*
X680964Y350054D01*
X681012Y350139D01*
X681058Y350227D01*
X681100Y350317D01*
X681138Y350408D01*
X681172Y350500D01*
X681203Y350594D01*
X681230Y350689D01*
X681254Y350785D01*
X681273Y350882D01*
X681289Y350979D01*
X681301Y351077D01*
X681309Y351176D01*
X681313Y351275D01*
X681313Y351373D01*
X681309Y351472D01*
X681301Y351571D01*
X681289Y351669D01*
X681273Y351766D01*
X681254Y351863D01*
X681230Y351959D01*
X681203Y352054D01*
X681172Y352148D01*
X681138Y352240D01*
X681100Y352331D01*
X681058Y352421D01*
X681012Y352509D01*
X680964Y352594D01*
X680911Y352678D01*
X680856Y352760D01*
X680797Y352839D01*
X680735Y352916D01*
X680671Y352991D01*
X680603Y353063D01*
X680532Y353132D01*
X680459Y353198D01*
X680383Y353262D01*
X680305Y353322D01*
X680224Y353379D01*
X680142Y353433D01*
X680057Y353483D01*
X679970Y353530D01*
X679881Y353574D01*
X679791Y353614D01*
X679699Y353651D01*
X679606Y353683D01*
X679512Y353712D01*
X679416Y353738D01*
X679320Y353759D01*
X679222Y353777D01*
X679125Y353790D01*
X679026Y353800D01*
X678928Y353806D01*
X678829Y353808D01*
X678829Y353807D02*
X677587Y353807D01*
X677587Y348840D01*
X673862Y365364D02*
X685038Y365364D01*
X685038Y368469D01*
X685036Y368580D01*
X685030Y368690D01*
X685020Y368801D01*
X685006Y368911D01*
X684989Y369020D01*
X684967Y369129D01*
X684942Y369237D01*
X684912Y369343D01*
X684879Y369449D01*
X684842Y369554D01*
X684802Y369657D01*
X684757Y369758D01*
X684710Y369858D01*
X684658Y369957D01*
X684603Y370053D01*
X684545Y370147D01*
X684484Y370239D01*
X684419Y370329D01*
X684351Y370417D01*
X684280Y370502D01*
X684206Y370584D01*
X684129Y370664D01*
X684049Y370741D01*
X683967Y370815D01*
X683882Y370886D01*
X683794Y370954D01*
X683704Y371019D01*
X683612Y371080D01*
X683518Y371138D01*
X683422Y371193D01*
X683323Y371245D01*
X683223Y371292D01*
X683122Y371337D01*
X683019Y371377D01*
X682914Y371414D01*
X682808Y371447D01*
X682702Y371477D01*
X682594Y371502D01*
X682485Y371524D01*
X682376Y371541D01*
X682266Y371555D01*
X682155Y371565D01*
X682045Y371571D01*
X681934Y371573D01*
X676966Y371573D01*
X676855Y371571D01*
X676745Y371565D01*
X676634Y371555D01*
X676524Y371541D01*
X676415Y371524D01*
X676306Y371502D01*
X676198Y371477D01*
X676092Y371447D01*
X675986Y371414D01*
X675881Y371377D01*
X675778Y371337D01*
X675677Y371292D01*
X675577Y371245D01*
X675478Y371193D01*
X675382Y371138D01*
X675288Y371080D01*
X675196Y371019D01*
X675106Y370954D01*
X675018Y370886D01*
X674933Y370815D01*
X674851Y370741D01*
X674771Y370664D01*
X674694Y370584D01*
X674620Y370502D01*
X674549Y370417D01*
X674481Y370329D01*
X674416Y370239D01*
X674355Y370147D01*
X674297Y370053D01*
X674242Y369957D01*
X674190Y369858D01*
X674143Y369758D01*
X674098Y369657D01*
X674058Y369554D01*
X674021Y369449D01*
X673988Y369343D01*
X673958Y369237D01*
X673933Y369129D01*
X673911Y369020D01*
X673894Y368911D01*
X673880Y368801D01*
X673870Y368690D01*
X673864Y368580D01*
X673862Y368469D01*
X673862Y365364D01*
X673862Y376851D02*
X681313Y376851D01*
X684417Y376540D02*
X685038Y376540D01*
X685038Y377161D01*
X684417Y377161D01*
X684417Y376540D01*
X678208Y382538D02*
X676966Y385642D01*
X678208Y382538D02*
X678239Y382466D01*
X678273Y382396D01*
X678311Y382327D01*
X678352Y382260D01*
X678396Y382195D01*
X678444Y382133D01*
X678494Y382073D01*
X678547Y382015D01*
X678603Y381960D01*
X678662Y381908D01*
X678723Y381859D01*
X678786Y381813D01*
X678851Y381770D01*
X678919Y381730D01*
X678988Y381693D01*
X679059Y381660D01*
X679132Y381631D01*
X679206Y381605D01*
X679281Y381582D01*
X679357Y381564D01*
X679434Y381549D01*
X679512Y381537D01*
X679590Y381530D01*
X679668Y381526D01*
X679746Y381527D01*
X679825Y381531D01*
X679903Y381538D01*
X679980Y381550D01*
X680057Y381565D01*
X680133Y381585D01*
X680208Y381607D01*
X680282Y381634D01*
X680354Y381664D01*
X680425Y381697D01*
X680494Y381734D01*
X680562Y381774D01*
X680627Y381818D01*
X680690Y381864D01*
X680751Y381914D01*
X680809Y381966D01*
X680865Y382021D01*
X680918Y382079D01*
X680968Y382140D01*
X681015Y382202D01*
X681058Y382267D01*
X681099Y382334D01*
X681137Y382403D01*
X681170Y382474D01*
X681201Y382546D01*
X681228Y382620D01*
X681251Y382694D01*
X681271Y382770D01*
X681287Y382847D01*
X681299Y382924D01*
X681307Y383002D01*
X681312Y383081D01*
X681313Y383159D01*
X681312Y383159D02*
X681308Y383328D01*
X681299Y383498D01*
X681287Y383667D01*
X681270Y383835D01*
X681249Y384004D01*
X681225Y384171D01*
X681196Y384338D01*
X681163Y384505D01*
X681126Y384670D01*
X681085Y384835D01*
X681041Y384998D01*
X680992Y385161D01*
X680940Y385322D01*
X680883Y385482D01*
X680823Y385640D01*
X680759Y385797D01*
X680691Y385953D01*
X676967Y385642D02*
X676936Y385714D01*
X676902Y385784D01*
X676864Y385853D01*
X676823Y385920D01*
X676779Y385985D01*
X676731Y386047D01*
X676681Y386107D01*
X676628Y386165D01*
X676572Y386220D01*
X676513Y386272D01*
X676452Y386321D01*
X676389Y386367D01*
X676324Y386410D01*
X676256Y386450D01*
X676187Y386487D01*
X676116Y386520D01*
X676043Y386549D01*
X675969Y386575D01*
X675894Y386598D01*
X675818Y386616D01*
X675741Y386631D01*
X675663Y386643D01*
X675585Y386650D01*
X675507Y386654D01*
X675429Y386653D01*
X675350Y386649D01*
X675272Y386642D01*
X675195Y386630D01*
X675118Y386615D01*
X675042Y386595D01*
X674967Y386573D01*
X674893Y386546D01*
X674821Y386516D01*
X674750Y386483D01*
X674681Y386446D01*
X674613Y386406D01*
X674548Y386362D01*
X674485Y386316D01*
X674424Y386266D01*
X674366Y386214D01*
X674310Y386159D01*
X674257Y386101D01*
X674207Y386040D01*
X674160Y385978D01*
X674117Y385913D01*
X674076Y385846D01*
X674038Y385777D01*
X674005Y385706D01*
X673974Y385634D01*
X673947Y385560D01*
X673924Y385486D01*
X673904Y385410D01*
X673888Y385333D01*
X673876Y385256D01*
X673868Y385178D01*
X673863Y385099D01*
X673862Y385021D01*
X673869Y384772D01*
X673881Y384524D01*
X673899Y384275D01*
X673923Y384027D01*
X673953Y383780D01*
X673989Y383534D01*
X674031Y383288D01*
X674078Y383044D01*
X674132Y382800D01*
X674190Y382558D01*
X674255Y382318D01*
X674325Y382079D01*
X674401Y381842D01*
X674483Y381607D01*
X670137Y391967D02*
X681313Y391967D01*
X681313Y395071D01*
X681311Y395155D01*
X681306Y395238D01*
X681296Y395321D01*
X681283Y395404D01*
X681266Y395486D01*
X681246Y395567D01*
X681222Y395647D01*
X681194Y395726D01*
X681163Y395803D01*
X681129Y395879D01*
X681091Y395954D01*
X681049Y396027D01*
X681005Y396097D01*
X680957Y396166D01*
X680907Y396233D01*
X680853Y396297D01*
X680797Y396358D01*
X680737Y396418D01*
X680676Y396474D01*
X680612Y396528D01*
X680545Y396578D01*
X680476Y396626D01*
X680406Y396670D01*
X680333Y396712D01*
X680258Y396750D01*
X680182Y396784D01*
X680105Y396815D01*
X680026Y396843D01*
X679946Y396867D01*
X679865Y396887D01*
X679783Y396904D01*
X679700Y396917D01*
X679617Y396927D01*
X679534Y396932D01*
X679450Y396934D01*
X675725Y396934D01*
X675639Y396932D01*
X675553Y396926D01*
X675468Y396916D01*
X675383Y396902D01*
X675298Y396885D01*
X675215Y396863D01*
X675133Y396837D01*
X675052Y396808D01*
X674973Y396775D01*
X674895Y396739D01*
X674818Y396699D01*
X674744Y396655D01*
X674672Y396608D01*
X674602Y396558D01*
X674535Y396504D01*
X674470Y396448D01*
X674408Y396388D01*
X674348Y396326D01*
X674292Y396261D01*
X674238Y396194D01*
X674188Y396124D01*
X674141Y396052D01*
X674097Y395978D01*
X674057Y395901D01*
X674021Y395824D01*
X673988Y395744D01*
X673959Y395663D01*
X673933Y395581D01*
X673911Y395498D01*
X673894Y395413D01*
X673880Y395328D01*
X673870Y395243D01*
X673864Y395157D01*
X673862Y395071D01*
X673862Y391967D01*
X675725Y401891D02*
X685038Y401891D01*
X675725Y401891D02*
X675641Y401893D01*
X675558Y401898D01*
X675475Y401908D01*
X675392Y401921D01*
X675310Y401938D01*
X675229Y401958D01*
X675149Y401982D01*
X675070Y402010D01*
X674993Y402041D01*
X674917Y402075D01*
X674842Y402113D01*
X674769Y402155D01*
X674699Y402199D01*
X674630Y402247D01*
X674563Y402297D01*
X674499Y402351D01*
X674438Y402407D01*
X674378Y402467D01*
X674322Y402528D01*
X674268Y402592D01*
X674218Y402659D01*
X674170Y402728D01*
X674126Y402798D01*
X674084Y402871D01*
X674046Y402946D01*
X674012Y403022D01*
X673981Y403099D01*
X673953Y403178D01*
X673929Y403258D01*
X673909Y403339D01*
X673892Y403421D01*
X673879Y403504D01*
X673869Y403587D01*
X673864Y403670D01*
X673862Y403754D01*
X678208Y409995D02*
X678208Y412789D01*
X678208Y409995D02*
X678206Y409903D01*
X678200Y409811D01*
X678190Y409719D01*
X678177Y409628D01*
X678159Y409537D01*
X678138Y409447D01*
X678113Y409359D01*
X678084Y409271D01*
X678051Y409185D01*
X678015Y409100D01*
X677975Y409017D01*
X677932Y408935D01*
X677885Y408856D01*
X677835Y408778D01*
X677782Y408703D01*
X677726Y408630D01*
X677666Y408559D01*
X677604Y408491D01*
X677539Y408426D01*
X677471Y408364D01*
X677400Y408304D01*
X677327Y408248D01*
X677252Y408195D01*
X677174Y408145D01*
X677095Y408098D01*
X677013Y408055D01*
X676930Y408015D01*
X676845Y407979D01*
X676759Y407946D01*
X676671Y407917D01*
X676583Y407892D01*
X676493Y407871D01*
X676402Y407853D01*
X676311Y407840D01*
X676219Y407830D01*
X676127Y407824D01*
X676035Y407822D01*
X675943Y407824D01*
X675851Y407830D01*
X675759Y407840D01*
X675668Y407853D01*
X675577Y407871D01*
X675487Y407892D01*
X675399Y407917D01*
X675311Y407946D01*
X675225Y407979D01*
X675140Y408015D01*
X675057Y408055D01*
X674975Y408098D01*
X674896Y408145D01*
X674818Y408195D01*
X674743Y408248D01*
X674670Y408304D01*
X674599Y408364D01*
X674531Y408426D01*
X674466Y408491D01*
X674404Y408559D01*
X674344Y408630D01*
X674288Y408703D01*
X674235Y408778D01*
X674185Y408856D01*
X674138Y408935D01*
X674095Y409017D01*
X674055Y409100D01*
X674019Y409185D01*
X673986Y409271D01*
X673957Y409359D01*
X673932Y409447D01*
X673911Y409537D01*
X673893Y409628D01*
X673880Y409719D01*
X673870Y409811D01*
X673864Y409903D01*
X673862Y409995D01*
X673862Y412789D01*
X679450Y412789D01*
X679534Y412787D01*
X679617Y412782D01*
X679700Y412772D01*
X679783Y412759D01*
X679865Y412742D01*
X679946Y412722D01*
X680026Y412698D01*
X680105Y412670D01*
X680182Y412639D01*
X680258Y412605D01*
X680333Y412567D01*
X680406Y412525D01*
X680476Y412481D01*
X680545Y412433D01*
X680612Y412383D01*
X680676Y412329D01*
X680737Y412273D01*
X680797Y412213D01*
X680853Y412152D01*
X680907Y412088D01*
X680957Y412021D01*
X681005Y411952D01*
X681049Y411882D01*
X681091Y411809D01*
X681129Y411734D01*
X681163Y411658D01*
X681194Y411581D01*
X681222Y411502D01*
X681246Y411422D01*
X681266Y411341D01*
X681283Y411259D01*
X681296Y411176D01*
X681306Y411093D01*
X681311Y411010D01*
X681313Y410926D01*
X681313Y408443D01*
X670137Y417801D02*
X670137Y419043D01*
X681313Y422768D01*
X681313Y417801D02*
X673862Y420285D01*
X838962Y258487D02*
X838964Y258585D01*
X838970Y258682D01*
X838979Y258779D01*
X838993Y258876D01*
X839010Y258972D01*
X839031Y259067D01*
X839055Y259161D01*
X839084Y259255D01*
X839116Y259347D01*
X839151Y259438D01*
X839190Y259527D01*
X839233Y259615D01*
X839279Y259701D01*
X839328Y259785D01*
X839381Y259867D01*
X839436Y259947D01*
X839495Y260025D01*
X839557Y260100D01*
X839622Y260173D01*
X839690Y260243D01*
X839760Y260311D01*
X839833Y260376D01*
X839908Y260438D01*
X839986Y260497D01*
X840066Y260552D01*
X840148Y260605D01*
X840232Y260654D01*
X840318Y260700D01*
X840406Y260743D01*
X840495Y260782D01*
X840586Y260817D01*
X840678Y260849D01*
X840772Y260878D01*
X840866Y260902D01*
X840961Y260923D01*
X841057Y260940D01*
X841154Y260954D01*
X841251Y260963D01*
X841348Y260969D01*
X841446Y260971D01*
X838962Y258487D02*
X838964Y258344D01*
X838970Y258201D01*
X838979Y258059D01*
X838993Y257917D01*
X839011Y257775D01*
X839032Y257634D01*
X839057Y257493D01*
X839086Y257353D01*
X839119Y257214D01*
X839155Y257076D01*
X839196Y256939D01*
X839240Y256803D01*
X839287Y256669D01*
X839339Y256535D01*
X839393Y256404D01*
X839452Y256273D01*
X839514Y256145D01*
X839579Y256018D01*
X839648Y255893D01*
X839721Y255769D01*
X839796Y255648D01*
X839875Y255529D01*
X839957Y255412D01*
X840043Y255298D01*
X840131Y255186D01*
X840222Y255076D01*
X840317Y254969D01*
X840414Y254864D01*
X840514Y254762D01*
X847654Y255072D02*
X847752Y255074D01*
X847849Y255080D01*
X847946Y255089D01*
X848043Y255103D01*
X848139Y255120D01*
X848234Y255141D01*
X848328Y255165D01*
X848422Y255194D01*
X848514Y255226D01*
X848605Y255261D01*
X848694Y255300D01*
X848782Y255343D01*
X848868Y255389D01*
X848952Y255438D01*
X849034Y255491D01*
X849114Y255546D01*
X849192Y255605D01*
X849267Y255667D01*
X849340Y255732D01*
X849410Y255800D01*
X849478Y255870D01*
X849543Y255943D01*
X849605Y256018D01*
X849664Y256096D01*
X849719Y256176D01*
X849772Y256258D01*
X849821Y256342D01*
X849867Y256428D01*
X849910Y256516D01*
X849949Y256605D01*
X849984Y256696D01*
X850016Y256788D01*
X850045Y256882D01*
X850069Y256976D01*
X850090Y257071D01*
X850107Y257167D01*
X850121Y257264D01*
X850130Y257361D01*
X850136Y257458D01*
X850138Y257556D01*
X850136Y257686D01*
X850131Y257816D01*
X850122Y257946D01*
X850109Y258076D01*
X850093Y258205D01*
X850073Y258334D01*
X850049Y258462D01*
X850022Y258590D01*
X849991Y258716D01*
X849957Y258842D01*
X849919Y258967D01*
X849878Y259090D01*
X849833Y259213D01*
X849785Y259334D01*
X849734Y259454D01*
X849679Y259572D01*
X849621Y259688D01*
X849560Y259803D01*
X849495Y259917D01*
X849428Y260028D01*
X849357Y260137D01*
X849283Y260245D01*
X849207Y260350D01*
X845481Y256315D02*
X845532Y256232D01*
X845586Y256151D01*
X845643Y256073D01*
X845703Y255997D01*
X845766Y255923D01*
X845832Y255852D01*
X845900Y255783D01*
X845971Y255717D01*
X846044Y255653D01*
X846120Y255593D01*
X846198Y255536D01*
X846279Y255481D01*
X846361Y255430D01*
X846445Y255382D01*
X846531Y255337D01*
X846619Y255295D01*
X846708Y255257D01*
X846798Y255223D01*
X846890Y255191D01*
X846983Y255164D01*
X847077Y255140D01*
X847172Y255119D01*
X847268Y255103D01*
X847364Y255090D01*
X847460Y255080D01*
X847557Y255075D01*
X847654Y255073D01*
X843619Y259728D02*
X843568Y259811D01*
X843514Y259892D01*
X843457Y259970D01*
X843397Y260046D01*
X843334Y260120D01*
X843268Y260191D01*
X843200Y260260D01*
X843129Y260326D01*
X843056Y260390D01*
X842980Y260450D01*
X842902Y260507D01*
X842821Y260562D01*
X842739Y260613D01*
X842655Y260661D01*
X842569Y260706D01*
X842481Y260748D01*
X842392Y260786D01*
X842302Y260820D01*
X842210Y260852D01*
X842117Y260879D01*
X842023Y260903D01*
X841928Y260924D01*
X841832Y260940D01*
X841736Y260953D01*
X841640Y260963D01*
X841543Y260968D01*
X841446Y260970D01*
X843619Y259729D02*
X845481Y256314D01*
X850138Y266192D02*
X838962Y266192D01*
X850138Y266192D02*
X850138Y269296D01*
X850136Y269407D01*
X850130Y269517D01*
X850120Y269628D01*
X850106Y269738D01*
X850089Y269847D01*
X850067Y269956D01*
X850042Y270064D01*
X850012Y270170D01*
X849979Y270276D01*
X849942Y270381D01*
X849902Y270484D01*
X849857Y270585D01*
X849810Y270685D01*
X849758Y270784D01*
X849703Y270880D01*
X849645Y270974D01*
X849584Y271066D01*
X849519Y271156D01*
X849451Y271244D01*
X849380Y271329D01*
X849306Y271411D01*
X849229Y271491D01*
X849149Y271568D01*
X849067Y271642D01*
X848982Y271713D01*
X848894Y271781D01*
X848804Y271846D01*
X848712Y271907D01*
X848618Y271965D01*
X848522Y272020D01*
X848423Y272072D01*
X848323Y272119D01*
X848222Y272164D01*
X848119Y272204D01*
X848014Y272241D01*
X847908Y272274D01*
X847802Y272304D01*
X847694Y272329D01*
X847585Y272351D01*
X847476Y272368D01*
X847366Y272382D01*
X847255Y272392D01*
X847145Y272398D01*
X847034Y272400D01*
X847034Y272401D02*
X842066Y272401D01*
X842066Y272400D02*
X841955Y272398D01*
X841845Y272392D01*
X841734Y272382D01*
X841624Y272368D01*
X841515Y272351D01*
X841406Y272329D01*
X841298Y272304D01*
X841192Y272274D01*
X841086Y272241D01*
X840981Y272204D01*
X840878Y272164D01*
X840777Y272119D01*
X840677Y272072D01*
X840578Y272020D01*
X840482Y271965D01*
X840388Y271907D01*
X840296Y271846D01*
X840206Y271781D01*
X840118Y271713D01*
X840033Y271642D01*
X839951Y271568D01*
X839871Y271491D01*
X839794Y271411D01*
X839720Y271329D01*
X839649Y271244D01*
X839581Y271156D01*
X839516Y271066D01*
X839455Y270974D01*
X839397Y270880D01*
X839342Y270784D01*
X839290Y270685D01*
X839243Y270585D01*
X839198Y270484D01*
X839158Y270381D01*
X839121Y270276D01*
X839088Y270170D01*
X839058Y270064D01*
X839033Y269956D01*
X839011Y269847D01*
X838994Y269738D01*
X838980Y269628D01*
X838970Y269517D01*
X838964Y269407D01*
X838962Y269296D01*
X838962Y266192D01*
X838962Y286541D02*
X838962Y289025D01*
X838962Y286541D02*
X838964Y286443D01*
X838970Y286346D01*
X838979Y286249D01*
X838993Y286152D01*
X839010Y286056D01*
X839031Y285961D01*
X839055Y285867D01*
X839084Y285773D01*
X839116Y285681D01*
X839151Y285590D01*
X839190Y285501D01*
X839233Y285413D01*
X839279Y285327D01*
X839328Y285243D01*
X839381Y285161D01*
X839436Y285081D01*
X839495Y285003D01*
X839557Y284928D01*
X839622Y284855D01*
X839690Y284785D01*
X839760Y284717D01*
X839833Y284652D01*
X839908Y284590D01*
X839986Y284531D01*
X840066Y284476D01*
X840148Y284423D01*
X840232Y284374D01*
X840318Y284328D01*
X840406Y284285D01*
X840495Y284246D01*
X840586Y284211D01*
X840678Y284179D01*
X840772Y284150D01*
X840866Y284126D01*
X840961Y284105D01*
X841057Y284088D01*
X841154Y284074D01*
X841251Y284065D01*
X841348Y284059D01*
X841446Y284057D01*
X847654Y284057D01*
X847752Y284059D01*
X847849Y284065D01*
X847946Y284074D01*
X848043Y284088D01*
X848139Y284105D01*
X848234Y284126D01*
X848328Y284150D01*
X848422Y284179D01*
X848514Y284211D01*
X848605Y284246D01*
X848694Y284285D01*
X848782Y284328D01*
X848868Y284374D01*
X848952Y284423D01*
X849034Y284476D01*
X849114Y284531D01*
X849192Y284590D01*
X849267Y284652D01*
X849340Y284717D01*
X849410Y284785D01*
X849478Y284855D01*
X849543Y284928D01*
X849605Y285003D01*
X849664Y285081D01*
X849719Y285161D01*
X849772Y285243D01*
X849821Y285327D01*
X849867Y285413D01*
X849910Y285501D01*
X849949Y285590D01*
X849984Y285681D01*
X850016Y285773D01*
X850045Y285867D01*
X850069Y285961D01*
X850090Y286056D01*
X850107Y286152D01*
X850121Y286249D01*
X850130Y286346D01*
X850136Y286443D01*
X850138Y286541D01*
X850138Y289025D01*
X843308Y295582D02*
X843308Y298376D01*
X843308Y295582D02*
X843306Y295490D01*
X843300Y295398D01*
X843290Y295306D01*
X843277Y295215D01*
X843259Y295124D01*
X843238Y295034D01*
X843213Y294946D01*
X843184Y294858D01*
X843151Y294772D01*
X843115Y294687D01*
X843075Y294604D01*
X843032Y294522D01*
X842985Y294443D01*
X842935Y294365D01*
X842882Y294290D01*
X842826Y294217D01*
X842766Y294146D01*
X842704Y294078D01*
X842639Y294013D01*
X842571Y293951D01*
X842500Y293891D01*
X842427Y293835D01*
X842352Y293782D01*
X842274Y293732D01*
X842195Y293685D01*
X842113Y293642D01*
X842030Y293602D01*
X841945Y293566D01*
X841859Y293533D01*
X841771Y293504D01*
X841683Y293479D01*
X841593Y293458D01*
X841502Y293440D01*
X841411Y293427D01*
X841319Y293417D01*
X841227Y293411D01*
X841135Y293409D01*
X841043Y293411D01*
X840951Y293417D01*
X840859Y293427D01*
X840768Y293440D01*
X840677Y293458D01*
X840587Y293479D01*
X840499Y293504D01*
X840411Y293533D01*
X840325Y293566D01*
X840240Y293602D01*
X840157Y293642D01*
X840075Y293685D01*
X839996Y293732D01*
X839918Y293782D01*
X839843Y293835D01*
X839770Y293891D01*
X839699Y293951D01*
X839631Y294013D01*
X839566Y294078D01*
X839504Y294146D01*
X839444Y294217D01*
X839388Y294290D01*
X839335Y294365D01*
X839285Y294443D01*
X839238Y294522D01*
X839195Y294604D01*
X839155Y294687D01*
X839119Y294772D01*
X839086Y294858D01*
X839057Y294946D01*
X839032Y295034D01*
X839011Y295124D01*
X838993Y295215D01*
X838980Y295306D01*
X838970Y295398D01*
X838964Y295490D01*
X838962Y295582D01*
X838962Y298376D01*
X844550Y298376D01*
X844550Y298377D02*
X844634Y298375D01*
X844717Y298370D01*
X844800Y298360D01*
X844883Y298347D01*
X844965Y298330D01*
X845046Y298310D01*
X845126Y298286D01*
X845205Y298258D01*
X845282Y298227D01*
X845358Y298193D01*
X845433Y298155D01*
X845506Y298113D01*
X845576Y298069D01*
X845645Y298021D01*
X845712Y297971D01*
X845776Y297917D01*
X845837Y297861D01*
X845897Y297801D01*
X845953Y297740D01*
X846007Y297676D01*
X846057Y297609D01*
X846105Y297540D01*
X846149Y297470D01*
X846191Y297397D01*
X846229Y297322D01*
X846263Y297246D01*
X846294Y297169D01*
X846322Y297090D01*
X846346Y297010D01*
X846366Y296929D01*
X846383Y296847D01*
X846396Y296764D01*
X846406Y296681D01*
X846411Y296598D01*
X846413Y296514D01*
X846413Y294030D01*
X846413Y304234D02*
X838962Y304234D01*
X846413Y304234D02*
X846413Y307959D01*
X845171Y307959D01*
X850138Y316664D02*
X838962Y316664D01*
X838962Y313560D01*
X838964Y313476D01*
X838969Y313393D01*
X838979Y313310D01*
X838992Y313227D01*
X839009Y313145D01*
X839029Y313064D01*
X839053Y312984D01*
X839081Y312905D01*
X839112Y312828D01*
X839146Y312752D01*
X839184Y312677D01*
X839226Y312604D01*
X839270Y312534D01*
X839318Y312465D01*
X839368Y312398D01*
X839422Y312334D01*
X839478Y312273D01*
X839538Y312213D01*
X839599Y312157D01*
X839663Y312103D01*
X839730Y312053D01*
X839799Y312005D01*
X839869Y311961D01*
X839942Y311919D01*
X840017Y311881D01*
X840093Y311847D01*
X840170Y311816D01*
X840249Y311788D01*
X840329Y311764D01*
X840410Y311744D01*
X840492Y311727D01*
X840575Y311714D01*
X840658Y311704D01*
X840741Y311699D01*
X840825Y311697D01*
X844550Y311697D01*
X844634Y311699D01*
X844717Y311705D01*
X844800Y311714D01*
X844883Y311727D01*
X844965Y311744D01*
X845046Y311764D01*
X845126Y311788D01*
X845205Y311816D01*
X845282Y311847D01*
X845358Y311881D01*
X845433Y311919D01*
X845506Y311961D01*
X845576Y312005D01*
X845645Y312053D01*
X845712Y312103D01*
X845776Y312157D01*
X845837Y312213D01*
X845897Y312273D01*
X845953Y312334D01*
X846007Y312398D01*
X846057Y312465D01*
X846105Y312534D01*
X846149Y312604D01*
X846191Y312677D01*
X846229Y312752D01*
X846263Y312828D01*
X846294Y312905D01*
X846322Y312984D01*
X846346Y313064D01*
X846366Y313145D01*
X846383Y313227D01*
X846396Y313310D01*
X846406Y313393D01*
X846411Y313476D01*
X846413Y313560D01*
X846413Y316664D01*
X838962Y331639D02*
X838964Y331737D01*
X838970Y331834D01*
X838979Y331931D01*
X838993Y332028D01*
X839010Y332124D01*
X839031Y332219D01*
X839055Y332313D01*
X839084Y332407D01*
X839116Y332499D01*
X839151Y332590D01*
X839190Y332679D01*
X839233Y332767D01*
X839279Y332853D01*
X839328Y332937D01*
X839381Y333019D01*
X839436Y333099D01*
X839495Y333177D01*
X839557Y333252D01*
X839622Y333325D01*
X839690Y333395D01*
X839760Y333463D01*
X839833Y333528D01*
X839908Y333590D01*
X839986Y333649D01*
X840066Y333704D01*
X840148Y333757D01*
X840232Y333806D01*
X840318Y333852D01*
X840406Y333895D01*
X840495Y333934D01*
X840586Y333969D01*
X840678Y334001D01*
X840772Y334030D01*
X840866Y334054D01*
X840961Y334075D01*
X841057Y334092D01*
X841154Y334106D01*
X841251Y334115D01*
X841348Y334121D01*
X841446Y334123D01*
X838962Y331639D02*
X838964Y331496D01*
X838970Y331353D01*
X838979Y331211D01*
X838993Y331069D01*
X839011Y330927D01*
X839032Y330786D01*
X839057Y330645D01*
X839086Y330505D01*
X839119Y330366D01*
X839155Y330228D01*
X839196Y330091D01*
X839240Y329955D01*
X839287Y329821D01*
X839339Y329687D01*
X839393Y329556D01*
X839452Y329425D01*
X839514Y329297D01*
X839579Y329170D01*
X839648Y329045D01*
X839721Y328921D01*
X839796Y328800D01*
X839875Y328681D01*
X839957Y328564D01*
X840043Y328450D01*
X840131Y328338D01*
X840222Y328228D01*
X840317Y328121D01*
X840414Y328016D01*
X840514Y327914D01*
X847654Y328224D02*
X847752Y328226D01*
X847849Y328232D01*
X847946Y328241D01*
X848043Y328255D01*
X848139Y328272D01*
X848234Y328293D01*
X848328Y328317D01*
X848422Y328346D01*
X848514Y328378D01*
X848605Y328413D01*
X848694Y328452D01*
X848782Y328495D01*
X848868Y328541D01*
X848952Y328590D01*
X849034Y328643D01*
X849114Y328698D01*
X849192Y328757D01*
X849267Y328819D01*
X849340Y328884D01*
X849410Y328952D01*
X849478Y329022D01*
X849543Y329095D01*
X849605Y329170D01*
X849664Y329248D01*
X849719Y329328D01*
X849772Y329410D01*
X849821Y329494D01*
X849867Y329580D01*
X849910Y329668D01*
X849949Y329757D01*
X849984Y329848D01*
X850016Y329940D01*
X850045Y330034D01*
X850069Y330128D01*
X850090Y330223D01*
X850107Y330319D01*
X850121Y330416D01*
X850130Y330513D01*
X850136Y330610D01*
X850138Y330708D01*
X850136Y330838D01*
X850131Y330968D01*
X850122Y331098D01*
X850109Y331228D01*
X850093Y331357D01*
X850073Y331486D01*
X850049Y331614D01*
X850022Y331742D01*
X849991Y331868D01*
X849957Y331994D01*
X849919Y332119D01*
X849878Y332242D01*
X849833Y332365D01*
X849785Y332486D01*
X849734Y332606D01*
X849679Y332724D01*
X849621Y332840D01*
X849560Y332955D01*
X849495Y333069D01*
X849428Y333180D01*
X849357Y333289D01*
X849283Y333397D01*
X849207Y333502D01*
X845481Y329467D02*
X845532Y329384D01*
X845586Y329303D01*
X845643Y329225D01*
X845703Y329149D01*
X845766Y329075D01*
X845832Y329004D01*
X845900Y328935D01*
X845971Y328869D01*
X846044Y328805D01*
X846120Y328745D01*
X846198Y328688D01*
X846279Y328633D01*
X846361Y328582D01*
X846445Y328534D01*
X846531Y328489D01*
X846619Y328447D01*
X846708Y328409D01*
X846798Y328375D01*
X846890Y328343D01*
X846983Y328316D01*
X847077Y328292D01*
X847172Y328271D01*
X847268Y328255D01*
X847364Y328242D01*
X847460Y328232D01*
X847557Y328227D01*
X847654Y328225D01*
X843619Y332880D02*
X843568Y332963D01*
X843514Y333044D01*
X843457Y333122D01*
X843397Y333198D01*
X843334Y333272D01*
X843268Y333343D01*
X843200Y333412D01*
X843129Y333478D01*
X843056Y333542D01*
X842980Y333602D01*
X842902Y333659D01*
X842821Y333714D01*
X842739Y333765D01*
X842655Y333813D01*
X842569Y333858D01*
X842481Y333900D01*
X842392Y333938D01*
X842302Y333972D01*
X842210Y334004D01*
X842117Y334031D01*
X842023Y334055D01*
X841928Y334076D01*
X841832Y334092D01*
X841736Y334105D01*
X841640Y334115D01*
X841543Y334120D01*
X841446Y334122D01*
X843619Y332881D02*
X845481Y329466D01*
X846413Y338638D02*
X838962Y338638D01*
X849517Y338328D02*
X850138Y338328D01*
X850138Y338949D01*
X849517Y338949D01*
X849517Y338328D01*
X850138Y348287D02*
X838962Y348287D01*
X838962Y345183D01*
X838964Y345099D01*
X838969Y345016D01*
X838979Y344933D01*
X838992Y344850D01*
X839009Y344768D01*
X839029Y344687D01*
X839053Y344607D01*
X839081Y344528D01*
X839112Y344451D01*
X839146Y344375D01*
X839184Y344300D01*
X839226Y344227D01*
X839270Y344157D01*
X839318Y344088D01*
X839368Y344021D01*
X839422Y343957D01*
X839478Y343896D01*
X839538Y343836D01*
X839599Y343780D01*
X839663Y343726D01*
X839730Y343676D01*
X839799Y343628D01*
X839869Y343584D01*
X839942Y343542D01*
X840017Y343504D01*
X840093Y343470D01*
X840170Y343439D01*
X840249Y343411D01*
X840329Y343387D01*
X840410Y343367D01*
X840492Y343350D01*
X840575Y343337D01*
X840658Y343327D01*
X840741Y343322D01*
X840825Y343320D01*
X844550Y343320D01*
X844634Y343322D01*
X844717Y343328D01*
X844800Y343337D01*
X844883Y343350D01*
X844965Y343367D01*
X845046Y343387D01*
X845126Y343411D01*
X845205Y343439D01*
X845282Y343470D01*
X845358Y343504D01*
X845433Y343542D01*
X845506Y343584D01*
X845576Y343628D01*
X845645Y343676D01*
X845712Y343726D01*
X845776Y343780D01*
X845837Y343836D01*
X845897Y343896D01*
X845953Y343957D01*
X846007Y344021D01*
X846057Y344088D01*
X846105Y344157D01*
X846149Y344227D01*
X846191Y344300D01*
X846229Y344375D01*
X846263Y344451D01*
X846294Y344528D01*
X846322Y344607D01*
X846346Y344687D01*
X846366Y344768D01*
X846383Y344850D01*
X846396Y344933D01*
X846406Y345016D01*
X846411Y345099D01*
X846413Y345183D01*
X846413Y348287D01*
X838962Y355543D02*
X838962Y358648D01*
X838962Y355543D02*
X838964Y355459D01*
X838969Y355376D01*
X838979Y355293D01*
X838992Y355210D01*
X839009Y355128D01*
X839029Y355047D01*
X839053Y354967D01*
X839081Y354888D01*
X839112Y354811D01*
X839146Y354735D01*
X839184Y354660D01*
X839226Y354587D01*
X839270Y354517D01*
X839318Y354448D01*
X839368Y354381D01*
X839422Y354317D01*
X839478Y354256D01*
X839538Y354196D01*
X839599Y354140D01*
X839663Y354086D01*
X839730Y354036D01*
X839799Y353988D01*
X839869Y353944D01*
X839942Y353902D01*
X840017Y353864D01*
X840093Y353830D01*
X840170Y353799D01*
X840249Y353771D01*
X840329Y353747D01*
X840410Y353727D01*
X840492Y353710D01*
X840575Y353697D01*
X840658Y353687D01*
X840741Y353682D01*
X840825Y353680D01*
X840825Y353681D02*
X843929Y353681D01*
X843929Y353680D02*
X844028Y353682D01*
X844126Y353688D01*
X844225Y353698D01*
X844322Y353711D01*
X844420Y353729D01*
X844516Y353750D01*
X844612Y353776D01*
X844706Y353805D01*
X844799Y353837D01*
X844891Y353874D01*
X844981Y353914D01*
X845070Y353958D01*
X845157Y354005D01*
X845242Y354055D01*
X845324Y354109D01*
X845405Y354166D01*
X845483Y354226D01*
X845559Y354290D01*
X845632Y354356D01*
X845703Y354425D01*
X845771Y354497D01*
X845835Y354572D01*
X845897Y354649D01*
X845956Y354728D01*
X846011Y354810D01*
X846064Y354894D01*
X846112Y354979D01*
X846158Y355067D01*
X846200Y355157D01*
X846238Y355248D01*
X846272Y355340D01*
X846303Y355434D01*
X846330Y355529D01*
X846354Y355625D01*
X846373Y355722D01*
X846389Y355819D01*
X846401Y355917D01*
X846409Y356016D01*
X846413Y356115D01*
X846413Y356213D01*
X846409Y356312D01*
X846401Y356411D01*
X846389Y356509D01*
X846373Y356606D01*
X846354Y356703D01*
X846330Y356799D01*
X846303Y356894D01*
X846272Y356988D01*
X846238Y357080D01*
X846200Y357171D01*
X846158Y357261D01*
X846112Y357349D01*
X846064Y357434D01*
X846011Y357518D01*
X845956Y357600D01*
X845897Y357679D01*
X845835Y357756D01*
X845771Y357831D01*
X845703Y357903D01*
X845632Y357972D01*
X845559Y358038D01*
X845483Y358102D01*
X845405Y358162D01*
X845324Y358219D01*
X845242Y358273D01*
X845157Y358323D01*
X845070Y358370D01*
X844981Y358414D01*
X844891Y358454D01*
X844799Y358491D01*
X844706Y358523D01*
X844612Y358552D01*
X844516Y358578D01*
X844420Y358599D01*
X844322Y358617D01*
X844225Y358630D01*
X844126Y358640D01*
X844028Y358646D01*
X843929Y358648D01*
X842687Y358648D01*
X842687Y353681D01*
D10*
X970590Y1016D02*
X981964Y1016D01*
X970590Y1016D02*
X970459Y1018D01*
X970328Y1024D01*
X970198Y1034D01*
X970068Y1047D01*
X969938Y1065D01*
X969809Y1086D01*
X969681Y1112D01*
X969553Y1141D01*
X969426Y1174D01*
X969301Y1210D01*
X969176Y1251D01*
X969053Y1295D01*
X968931Y1343D01*
X968811Y1394D01*
X968692Y1449D01*
X968575Y1508D01*
X968460Y1570D01*
X968347Y1635D01*
X968235Y1704D01*
X968126Y1776D01*
X968019Y1851D01*
X967914Y1930D01*
X967812Y2011D01*
X967712Y2096D01*
X967615Y2184D01*
X967520Y2274D01*
X967428Y2367D01*
X967339Y2463D01*
X967253Y2562D01*
X967170Y2663D01*
X967090Y2766D01*
X967013Y2872D01*
X966940Y2980D01*
X966869Y3091D01*
X966802Y3203D01*
X966738Y3317D01*
X966678Y3433D01*
X966621Y3551D01*
X966568Y3671D01*
X966518Y3792D01*
X966472Y3915D01*
X966430Y4038D01*
X966392Y4163D01*
X966357Y4290D01*
X966326Y4417D01*
X966298Y4545D01*
X966275Y4673D01*
X966256Y4803D01*
X966240Y4933D01*
X966228Y5063D01*
X966220Y5194D01*
X966216Y5325D01*
X966216Y5455D01*
X966220Y5586D01*
X966228Y5717D01*
X966240Y5847D01*
X966256Y5977D01*
X966275Y6107D01*
X966298Y6235D01*
X966326Y6363D01*
X966357Y6490D01*
X966392Y6617D01*
X966430Y6742D01*
X966472Y6865D01*
X966518Y6988D01*
X966568Y7109D01*
X966621Y7229D01*
X966678Y7347D01*
X966738Y7463D01*
X966802Y7577D01*
X966869Y7689D01*
X966940Y7800D01*
X967013Y7908D01*
X967090Y8014D01*
X967170Y8117D01*
X967253Y8218D01*
X967339Y8317D01*
X967428Y8413D01*
X967520Y8506D01*
X967615Y8596D01*
X967712Y8684D01*
X967812Y8769D01*
X967914Y8850D01*
X968019Y8929D01*
X968126Y9004D01*
X968235Y9076D01*
X968347Y9145D01*
X968460Y9210D01*
X968575Y9272D01*
X968692Y9331D01*
X968811Y9386D01*
X968931Y9437D01*
X969053Y9485D01*
X969176Y9529D01*
X969301Y9570D01*
X969426Y9606D01*
X969553Y9639D01*
X969681Y9668D01*
X969809Y9694D01*
X969938Y9715D01*
X970068Y9733D01*
X970198Y9746D01*
X970328Y9756D01*
X970459Y9762D01*
X970590Y9764D01*
X970590Y9765D02*
X981964Y9765D01*
X981964Y20501D02*
X966216Y20501D01*
X974090Y20501D02*
X975402Y18313D01*
X975402Y18314D02*
X975456Y18229D01*
X975512Y18146D01*
X975572Y18065D01*
X975635Y17986D01*
X975700Y17911D01*
X975769Y17837D01*
X975840Y17767D01*
X975914Y17699D01*
X975991Y17634D01*
X976070Y17572D01*
X976151Y17513D01*
X976234Y17457D01*
X976320Y17405D01*
X976408Y17356D01*
X976497Y17310D01*
X976588Y17267D01*
X976680Y17229D01*
X976775Y17194D01*
X976870Y17162D01*
X976966Y17134D01*
X977064Y17110D01*
X977162Y17090D01*
X977261Y17073D01*
X977361Y17060D01*
X977461Y17051D01*
X977561Y17046D01*
X977661Y17045D01*
X977762Y17048D01*
X977862Y17054D01*
X977962Y17064D01*
X978061Y17079D01*
X978160Y17097D01*
X978258Y17118D01*
X978355Y17144D01*
X978451Y17173D01*
X978546Y17206D01*
X978639Y17242D01*
X978731Y17282D01*
X978822Y17326D01*
X978910Y17373D01*
X978997Y17423D01*
X979082Y17477D01*
X979165Y17534D01*
X979245Y17594D01*
X979323Y17657D01*
X979399Y17723D01*
X979472Y17792D01*
X979542Y17864D01*
X979610Y17938D01*
X979675Y18015D01*
X979736Y18094D01*
X979795Y18175D01*
X979850Y18259D01*
X979902Y18345D01*
X979951Y18433D01*
X979996Y18522D01*
X980038Y18614D01*
X980077Y18706D01*
X980111Y18800D01*
X980142Y18896D01*
X980170Y18992D01*
X980194Y19090D01*
X980213Y19188D01*
X980214Y19188D02*
X980242Y19353D01*
X980266Y19517D01*
X980286Y19683D01*
X980302Y19849D01*
X980314Y20015D01*
X980322Y20181D01*
X980326Y20348D01*
X980327Y20514D01*
X980323Y20681D01*
X980315Y20847D01*
X980303Y21013D01*
X980287Y21179D01*
X980267Y21345D01*
X980243Y21510D01*
X980215Y21674D01*
X980183Y21837D01*
X980148Y22000D01*
X980108Y22162D01*
X980065Y22323D01*
X980017Y22483D01*
X979966Y22641D01*
X979911Y22798D01*
X979853Y22954D01*
X979790Y23109D01*
X979724Y23262D01*
X979654Y23413D01*
X979581Y23562D01*
X979504Y23710D01*
X979423Y23856D01*
X979339Y24000D01*
X974090Y20501D02*
X972778Y22688D01*
X972778Y22687D02*
X972724Y22772D01*
X972668Y22855D01*
X972608Y22936D01*
X972545Y23015D01*
X972480Y23090D01*
X972411Y23164D01*
X972340Y23234D01*
X972266Y23302D01*
X972189Y23367D01*
X972110Y23429D01*
X972029Y23488D01*
X971946Y23544D01*
X971860Y23596D01*
X971773Y23645D01*
X971683Y23691D01*
X971592Y23734D01*
X971500Y23772D01*
X971405Y23807D01*
X971310Y23839D01*
X971214Y23867D01*
X971116Y23891D01*
X971018Y23911D01*
X970919Y23928D01*
X970819Y23941D01*
X970719Y23950D01*
X970619Y23955D01*
X970519Y23956D01*
X970418Y23953D01*
X970318Y23947D01*
X970218Y23937D01*
X970119Y23922D01*
X970020Y23904D01*
X969922Y23883D01*
X969825Y23857D01*
X969729Y23828D01*
X969634Y23795D01*
X969541Y23759D01*
X969449Y23719D01*
X969358Y23675D01*
X969270Y23628D01*
X969183Y23578D01*
X969098Y23524D01*
X969015Y23467D01*
X968935Y23407D01*
X968857Y23344D01*
X968781Y23278D01*
X968708Y23209D01*
X968638Y23138D01*
X968570Y23063D01*
X968506Y22986D01*
X968444Y22907D01*
X968385Y22826D01*
X968330Y22742D01*
X968278Y22656D01*
X968229Y22568D01*
X968184Y22479D01*
X968142Y22388D01*
X968104Y22295D01*
X968069Y22201D01*
X968038Y22105D01*
X968010Y22009D01*
X967986Y21911D01*
X967967Y21813D01*
X967966Y21813D02*
X967938Y21649D01*
X967914Y21484D01*
X967894Y21318D01*
X967878Y21152D01*
X967866Y20986D01*
X967858Y20820D01*
X967854Y20653D01*
X967853Y20487D01*
X967857Y20320D01*
X967865Y20154D01*
X967877Y19988D01*
X967893Y19822D01*
X967913Y19656D01*
X967937Y19491D01*
X967965Y19327D01*
X967997Y19164D01*
X968032Y19001D01*
X968072Y18839D01*
X968115Y18678D01*
X968163Y18518D01*
X968214Y18360D01*
X968269Y18203D01*
X968327Y18047D01*
X968390Y17892D01*
X968456Y17739D01*
X968526Y17588D01*
X968599Y17438D01*
X968676Y17291D01*
X968757Y17145D01*
X968841Y17001D01*
X981964Y35527D02*
X981962Y35651D01*
X981956Y35774D01*
X981947Y35898D01*
X981933Y36020D01*
X981916Y36143D01*
X981894Y36265D01*
X981869Y36386D01*
X981840Y36506D01*
X981808Y36625D01*
X981771Y36744D01*
X981731Y36861D01*
X981688Y36976D01*
X981640Y37091D01*
X981589Y37203D01*
X981535Y37314D01*
X981477Y37424D01*
X981416Y37531D01*
X981351Y37637D01*
X981283Y37740D01*
X981212Y37841D01*
X981138Y37940D01*
X981061Y38037D01*
X980980Y38131D01*
X980897Y38222D01*
X980811Y38311D01*
X980722Y38397D01*
X980631Y38480D01*
X980537Y38561D01*
X980440Y38638D01*
X980341Y38712D01*
X980240Y38783D01*
X980137Y38851D01*
X980031Y38916D01*
X979924Y38977D01*
X979814Y39035D01*
X979703Y39089D01*
X979591Y39140D01*
X979476Y39188D01*
X979361Y39231D01*
X979244Y39271D01*
X979125Y39308D01*
X979006Y39340D01*
X978886Y39369D01*
X978765Y39394D01*
X978643Y39416D01*
X978520Y39433D01*
X978398Y39447D01*
X978274Y39456D01*
X978151Y39462D01*
X978027Y39464D01*
X981964Y35527D02*
X981962Y35386D01*
X981956Y35244D01*
X981946Y35103D01*
X981932Y34963D01*
X981915Y34823D01*
X981893Y34683D01*
X981868Y34544D01*
X981838Y34406D01*
X981805Y34268D01*
X981768Y34132D01*
X981727Y33996D01*
X981682Y33862D01*
X981634Y33730D01*
X981582Y33598D01*
X981526Y33468D01*
X981467Y33340D01*
X981404Y33213D01*
X981337Y33089D01*
X981268Y32966D01*
X981194Y32845D01*
X981118Y32726D01*
X981038Y32609D01*
X980955Y32495D01*
X980868Y32383D01*
X980779Y32274D01*
X980687Y32167D01*
X980591Y32062D01*
X980493Y31961D01*
X980392Y31862D01*
X980288Y31766D01*
X980182Y31673D01*
X980073Y31583D01*
X979961Y31496D01*
X979847Y31412D01*
X979731Y31332D01*
X979613Y31254D01*
X979492Y31180D01*
X979370Y31110D01*
X979246Y31043D01*
X979119Y30979D01*
X978991Y30919D01*
X978862Y30862D01*
X978731Y30810D01*
X978598Y30760D01*
X978464Y30715D01*
X974965Y38153D02*
X975053Y38243D01*
X975145Y38331D01*
X975239Y38416D01*
X975336Y38498D01*
X975435Y38577D01*
X975536Y38654D01*
X975640Y38727D01*
X975745Y38797D01*
X975853Y38864D01*
X975963Y38927D01*
X976075Y38987D01*
X976188Y39044D01*
X976303Y39098D01*
X976420Y39148D01*
X976538Y39194D01*
X976657Y39237D01*
X976778Y39276D01*
X976899Y39312D01*
X977022Y39344D01*
X977146Y39372D01*
X977270Y39397D01*
X977395Y39418D01*
X977521Y39435D01*
X977647Y39448D01*
X977773Y39457D01*
X977900Y39463D01*
X978027Y39465D01*
X974965Y38152D02*
X966216Y30715D01*
X966216Y39464D01*
M02*
