G04 EAGLE Gerber RS-274X export*
G75*
%MOMM*%
%FSLAX34Y34*%
%LPD*%
%INSilkscreen Top*%
%IPPOS*%
%AMOC8*
5,1,8,0,0,1.08239X$1,22.5*%
G01*
%ADD10R,0.508000X0.508000*%
%ADD11C,0.254000*%
%ADD12C,0.152400*%
%ADD13C,0.101600*%
%ADD14C,0.203200*%
%ADD15C,0.127000*%
%ADD16C,0.076200*%
%ADD17C,0.300000*%


D10*
X98800Y588600D03*
X124200Y588600D03*
X124200Y563200D03*
X98800Y563200D03*
X124200Y537800D03*
X98800Y537800D03*
X124200Y512400D03*
X124200Y487000D03*
X124200Y461600D03*
X98800Y512400D03*
X98800Y487000D03*
X98800Y461600D03*
X124200Y436200D03*
X98800Y436200D03*
X124200Y410800D03*
X98800Y410800D03*
X124200Y385400D03*
X98800Y385400D03*
X124200Y360000D03*
X98800Y360000D03*
X124200Y334600D03*
X98800Y334600D03*
X124200Y309200D03*
X98800Y309200D03*
X124200Y283800D03*
X98800Y283800D03*
X124200Y258400D03*
X98800Y258400D03*
X124200Y233000D03*
X98800Y233000D03*
X124200Y207600D03*
X98800Y207600D03*
X124200Y182200D03*
X98800Y182200D03*
X124200Y156800D03*
X98800Y156800D03*
X352800Y588600D03*
X378200Y588600D03*
X378200Y563200D03*
X352800Y563200D03*
X378200Y537800D03*
X352800Y537800D03*
X378200Y512400D03*
X378200Y487000D03*
X378200Y461600D03*
X352800Y512400D03*
X352800Y487000D03*
X352800Y461600D03*
X378200Y436200D03*
X352800Y436200D03*
X378200Y410800D03*
X352800Y410800D03*
X378200Y385400D03*
X352800Y385400D03*
X378200Y360000D03*
X352800Y360000D03*
X378200Y334600D03*
X352800Y334600D03*
X378200Y309200D03*
X352800Y309200D03*
X378200Y283800D03*
X352800Y283800D03*
X378200Y258400D03*
X352800Y258400D03*
X378200Y233000D03*
X352800Y233000D03*
X378200Y207600D03*
X352800Y207600D03*
X378200Y182200D03*
X352800Y182200D03*
X378200Y156800D03*
X352800Y156800D03*
D11*
X413500Y547700D02*
X413471Y550116D01*
X413383Y552531D01*
X413237Y554943D01*
X413033Y557351D01*
X412771Y559754D01*
X412451Y562149D01*
X412073Y564536D01*
X411637Y566913D01*
X411144Y569278D01*
X410594Y571632D01*
X409988Y573971D01*
X409325Y576295D01*
X408606Y578602D01*
X407831Y580891D01*
X407002Y583160D01*
X406117Y585409D01*
X405179Y587636D01*
X404187Y589840D01*
X403143Y592019D01*
X402046Y594172D01*
X400897Y596298D01*
X399697Y598396D01*
X398447Y600464D01*
X397147Y602501D01*
X395798Y604506D01*
X394402Y606479D01*
X392958Y608416D01*
X391467Y610319D01*
X389932Y612184D01*
X388351Y614012D01*
X386727Y615802D01*
X385060Y617551D01*
X383351Y619260D01*
X381602Y620927D01*
X379812Y622551D01*
X377984Y624132D01*
X376119Y625667D01*
X374216Y627158D01*
X372279Y628602D01*
X370306Y629998D01*
X368301Y631347D01*
X366264Y632647D01*
X364196Y633897D01*
X362098Y635097D01*
X359972Y636246D01*
X357819Y637343D01*
X355640Y638387D01*
X353436Y639379D01*
X351209Y640317D01*
X348960Y641202D01*
X346691Y642031D01*
X344402Y642806D01*
X342095Y643525D01*
X339771Y644188D01*
X337432Y644794D01*
X335078Y645344D01*
X332713Y645837D01*
X330336Y646273D01*
X327949Y646651D01*
X325554Y646971D01*
X323151Y647233D01*
X320743Y647437D01*
X318331Y647583D01*
X315916Y647671D01*
X313500Y647700D01*
X163500Y647700D02*
X161084Y647671D01*
X158669Y647583D01*
X156257Y647437D01*
X153849Y647233D01*
X151446Y646971D01*
X149051Y646651D01*
X146664Y646273D01*
X144287Y645837D01*
X141922Y645344D01*
X139568Y644794D01*
X137229Y644188D01*
X134905Y643525D01*
X132598Y642806D01*
X130309Y642031D01*
X128040Y641202D01*
X125791Y640317D01*
X123564Y639379D01*
X121360Y638387D01*
X119181Y637343D01*
X117028Y636246D01*
X114902Y635097D01*
X112804Y633897D01*
X110736Y632647D01*
X108699Y631347D01*
X106694Y629998D01*
X104721Y628602D01*
X102784Y627158D01*
X100881Y625667D01*
X99016Y624132D01*
X97188Y622551D01*
X95398Y620927D01*
X93649Y619260D01*
X91940Y617551D01*
X90273Y615802D01*
X88649Y614012D01*
X87068Y612184D01*
X85533Y610319D01*
X84042Y608416D01*
X82598Y606479D01*
X81202Y604506D01*
X79853Y602501D01*
X78553Y600464D01*
X77303Y598396D01*
X76103Y596298D01*
X74954Y594172D01*
X73857Y592019D01*
X72813Y589840D01*
X71821Y587636D01*
X70883Y585409D01*
X69998Y583160D01*
X69169Y580891D01*
X68394Y578602D01*
X67675Y576295D01*
X67012Y573971D01*
X66406Y571632D01*
X65856Y569278D01*
X65363Y566913D01*
X64927Y564536D01*
X64549Y562149D01*
X64229Y559754D01*
X63967Y557351D01*
X63763Y554943D01*
X63617Y552531D01*
X63529Y550116D01*
X63500Y547700D01*
X63500Y197700D02*
X63529Y195284D01*
X63617Y192869D01*
X63763Y190457D01*
X63967Y188049D01*
X64229Y185646D01*
X64549Y183251D01*
X64927Y180864D01*
X65363Y178487D01*
X65856Y176122D01*
X66406Y173768D01*
X67012Y171429D01*
X67675Y169105D01*
X68394Y166798D01*
X69169Y164509D01*
X69998Y162240D01*
X70883Y159991D01*
X71821Y157764D01*
X72813Y155560D01*
X73857Y153381D01*
X74954Y151228D01*
X76103Y149102D01*
X77303Y147004D01*
X78553Y144936D01*
X79853Y142899D01*
X81202Y140894D01*
X82598Y138921D01*
X84042Y136984D01*
X85533Y135081D01*
X87068Y133216D01*
X88649Y131388D01*
X90273Y129598D01*
X91940Y127849D01*
X93649Y126140D01*
X95398Y124473D01*
X97188Y122849D01*
X99016Y121268D01*
X100881Y119733D01*
X102784Y118242D01*
X104721Y116798D01*
X106694Y115402D01*
X108699Y114053D01*
X110736Y112753D01*
X112804Y111503D01*
X114902Y110303D01*
X117028Y109154D01*
X119181Y108057D01*
X121360Y107013D01*
X123564Y106021D01*
X125791Y105083D01*
X128040Y104198D01*
X130309Y103369D01*
X132598Y102594D01*
X134905Y101875D01*
X137229Y101212D01*
X139568Y100606D01*
X141922Y100056D01*
X144287Y99563D01*
X146664Y99127D01*
X149051Y98749D01*
X151446Y98429D01*
X153849Y98167D01*
X156257Y97963D01*
X158669Y97817D01*
X161084Y97729D01*
X163500Y97700D01*
X313500Y97700D02*
X315916Y97729D01*
X318331Y97817D01*
X320743Y97963D01*
X323151Y98167D01*
X325554Y98429D01*
X327949Y98749D01*
X330336Y99127D01*
X332713Y99563D01*
X335078Y100056D01*
X337432Y100606D01*
X339771Y101212D01*
X342095Y101875D01*
X344402Y102594D01*
X346691Y103369D01*
X348960Y104198D01*
X351209Y105083D01*
X353436Y106021D01*
X355640Y107013D01*
X357819Y108057D01*
X359972Y109154D01*
X362098Y110303D01*
X364196Y111503D01*
X366264Y112753D01*
X368301Y114053D01*
X370306Y115402D01*
X372279Y116798D01*
X374216Y118242D01*
X376119Y119733D01*
X377984Y121268D01*
X379812Y122849D01*
X381602Y124473D01*
X383351Y126140D01*
X385060Y127849D01*
X386727Y129598D01*
X388351Y131388D01*
X389932Y133216D01*
X391467Y135081D01*
X392958Y136984D01*
X394402Y138921D01*
X395798Y140894D01*
X397147Y142899D01*
X398447Y144936D01*
X399697Y147004D01*
X400897Y149102D01*
X402046Y151228D01*
X403143Y153381D01*
X404187Y155560D01*
X405179Y157764D01*
X406117Y159991D01*
X407002Y162240D01*
X407831Y164509D01*
X408606Y166798D01*
X409325Y169105D01*
X409988Y171429D01*
X410594Y173768D01*
X411144Y176122D01*
X411637Y178487D01*
X412073Y180864D01*
X412451Y183251D01*
X412771Y185646D01*
X413033Y188049D01*
X413237Y190457D01*
X413383Y192869D01*
X413471Y195284D01*
X413500Y197700D01*
D12*
X246888Y313606D02*
X235712Y313606D01*
X235712Y316710D01*
X235714Y316821D01*
X235720Y316931D01*
X235730Y317042D01*
X235744Y317152D01*
X235761Y317261D01*
X235783Y317370D01*
X235808Y317478D01*
X235838Y317584D01*
X235871Y317690D01*
X235908Y317795D01*
X235948Y317898D01*
X235993Y317999D01*
X236040Y318099D01*
X236092Y318198D01*
X236147Y318294D01*
X236205Y318388D01*
X236266Y318480D01*
X236331Y318570D01*
X236399Y318658D01*
X236470Y318743D01*
X236544Y318825D01*
X236621Y318905D01*
X236701Y318982D01*
X236783Y319056D01*
X236868Y319127D01*
X236956Y319195D01*
X237046Y319260D01*
X237138Y319321D01*
X237232Y319379D01*
X237328Y319434D01*
X237427Y319486D01*
X237527Y319533D01*
X237628Y319578D01*
X237731Y319618D01*
X237836Y319655D01*
X237942Y319688D01*
X238048Y319718D01*
X238156Y319743D01*
X238265Y319765D01*
X238374Y319782D01*
X238484Y319796D01*
X238595Y319806D01*
X238705Y319812D01*
X238816Y319814D01*
X238927Y319812D01*
X239037Y319806D01*
X239148Y319796D01*
X239258Y319782D01*
X239367Y319765D01*
X239476Y319743D01*
X239584Y319718D01*
X239690Y319688D01*
X239796Y319655D01*
X239901Y319618D01*
X240004Y319578D01*
X240105Y319533D01*
X240205Y319486D01*
X240304Y319434D01*
X240400Y319379D01*
X240494Y319321D01*
X240586Y319260D01*
X240676Y319195D01*
X240764Y319127D01*
X240849Y319056D01*
X240931Y318982D01*
X241011Y318905D01*
X241088Y318825D01*
X241162Y318743D01*
X241233Y318658D01*
X241301Y318570D01*
X241366Y318480D01*
X241427Y318388D01*
X241485Y318294D01*
X241540Y318198D01*
X241592Y318099D01*
X241639Y317999D01*
X241684Y317898D01*
X241724Y317795D01*
X241761Y317690D01*
X241794Y317584D01*
X241824Y317478D01*
X241849Y317370D01*
X241871Y317261D01*
X241888Y317152D01*
X241902Y317042D01*
X241912Y316931D01*
X241918Y316821D01*
X241920Y316710D01*
X241921Y316710D02*
X241921Y313606D01*
X241921Y324302D02*
X244404Y324302D01*
X241921Y324301D02*
X241822Y324303D01*
X241724Y324309D01*
X241625Y324319D01*
X241528Y324332D01*
X241430Y324350D01*
X241334Y324371D01*
X241238Y324397D01*
X241144Y324426D01*
X241051Y324458D01*
X240959Y324495D01*
X240869Y324535D01*
X240780Y324579D01*
X240693Y324626D01*
X240608Y324676D01*
X240526Y324730D01*
X240445Y324787D01*
X240367Y324847D01*
X240291Y324911D01*
X240218Y324977D01*
X240147Y325046D01*
X240079Y325118D01*
X240015Y325193D01*
X239953Y325270D01*
X239894Y325349D01*
X239839Y325431D01*
X239786Y325515D01*
X239738Y325600D01*
X239692Y325688D01*
X239650Y325778D01*
X239612Y325869D01*
X239578Y325961D01*
X239547Y326055D01*
X239520Y326150D01*
X239496Y326246D01*
X239477Y326343D01*
X239461Y326440D01*
X239449Y326538D01*
X239441Y326637D01*
X239437Y326736D01*
X239437Y326834D01*
X239441Y326933D01*
X239449Y327032D01*
X239461Y327130D01*
X239477Y327227D01*
X239496Y327324D01*
X239520Y327420D01*
X239547Y327515D01*
X239578Y327609D01*
X239612Y327701D01*
X239650Y327792D01*
X239692Y327882D01*
X239738Y327970D01*
X239786Y328055D01*
X239839Y328139D01*
X239894Y328221D01*
X239953Y328300D01*
X240015Y328377D01*
X240079Y328452D01*
X240147Y328524D01*
X240218Y328593D01*
X240291Y328659D01*
X240367Y328723D01*
X240445Y328783D01*
X240526Y328840D01*
X240608Y328894D01*
X240693Y328944D01*
X240780Y328991D01*
X240869Y329035D01*
X240959Y329075D01*
X241051Y329112D01*
X241144Y329144D01*
X241238Y329173D01*
X241334Y329199D01*
X241430Y329220D01*
X241528Y329238D01*
X241625Y329251D01*
X241724Y329261D01*
X241822Y329267D01*
X241921Y329269D01*
X244404Y329269D01*
X244503Y329267D01*
X244601Y329261D01*
X244700Y329251D01*
X244797Y329238D01*
X244895Y329220D01*
X244991Y329199D01*
X245087Y329173D01*
X245181Y329144D01*
X245274Y329112D01*
X245366Y329075D01*
X245456Y329035D01*
X245545Y328991D01*
X245632Y328944D01*
X245717Y328894D01*
X245799Y328840D01*
X245880Y328783D01*
X245958Y328723D01*
X246034Y328659D01*
X246107Y328593D01*
X246178Y328524D01*
X246246Y328452D01*
X246310Y328377D01*
X246372Y328300D01*
X246431Y328221D01*
X246486Y328139D01*
X246539Y328055D01*
X246587Y327970D01*
X246633Y327882D01*
X246675Y327792D01*
X246713Y327701D01*
X246747Y327609D01*
X246778Y327515D01*
X246805Y327420D01*
X246829Y327324D01*
X246848Y327227D01*
X246864Y327130D01*
X246876Y327032D01*
X246884Y326933D01*
X246888Y326834D01*
X246888Y326736D01*
X246884Y326637D01*
X246876Y326538D01*
X246864Y326440D01*
X246848Y326343D01*
X246829Y326246D01*
X246805Y326150D01*
X246778Y326055D01*
X246747Y325961D01*
X246713Y325869D01*
X246675Y325778D01*
X246633Y325688D01*
X246587Y325600D01*
X246539Y325515D01*
X246486Y325431D01*
X246431Y325349D01*
X246372Y325270D01*
X246310Y325193D01*
X246246Y325118D01*
X246178Y325046D01*
X246107Y324977D01*
X246034Y324911D01*
X245958Y324847D01*
X245880Y324787D01*
X245799Y324730D01*
X245717Y324676D01*
X245632Y324626D01*
X245545Y324579D01*
X245456Y324535D01*
X245366Y324495D01*
X245274Y324458D01*
X245181Y324426D01*
X245087Y324397D01*
X244991Y324371D01*
X244895Y324350D01*
X244797Y324332D01*
X244700Y324319D01*
X244601Y324309D01*
X244503Y324303D01*
X244404Y324301D01*
X246888Y336087D02*
X246888Y338570D01*
X246888Y336087D02*
X246886Y336001D01*
X246880Y335915D01*
X246870Y335830D01*
X246856Y335745D01*
X246839Y335660D01*
X246817Y335577D01*
X246791Y335495D01*
X246762Y335414D01*
X246729Y335335D01*
X246693Y335257D01*
X246653Y335180D01*
X246609Y335106D01*
X246562Y335034D01*
X246512Y334964D01*
X246458Y334897D01*
X246402Y334832D01*
X246342Y334770D01*
X246280Y334710D01*
X246215Y334654D01*
X246148Y334600D01*
X246078Y334550D01*
X246006Y334503D01*
X245932Y334459D01*
X245855Y334419D01*
X245778Y334383D01*
X245698Y334350D01*
X245617Y334321D01*
X245535Y334295D01*
X245452Y334273D01*
X245367Y334256D01*
X245282Y334242D01*
X245197Y334232D01*
X245111Y334226D01*
X245025Y334224D01*
X241300Y334224D01*
X241216Y334226D01*
X241133Y334231D01*
X241050Y334241D01*
X240967Y334254D01*
X240885Y334271D01*
X240804Y334291D01*
X240724Y334315D01*
X240645Y334343D01*
X240568Y334374D01*
X240492Y334408D01*
X240417Y334446D01*
X240344Y334488D01*
X240274Y334532D01*
X240205Y334580D01*
X240138Y334630D01*
X240074Y334684D01*
X240013Y334740D01*
X239953Y334800D01*
X239897Y334861D01*
X239843Y334925D01*
X239793Y334992D01*
X239745Y335061D01*
X239701Y335131D01*
X239659Y335204D01*
X239621Y335279D01*
X239587Y335355D01*
X239556Y335432D01*
X239528Y335511D01*
X239504Y335591D01*
X239484Y335672D01*
X239467Y335754D01*
X239454Y335837D01*
X239444Y335920D01*
X239439Y336003D01*
X239437Y336087D01*
X239437Y338570D01*
X235712Y343521D02*
X246888Y343521D01*
X243163Y343521D02*
X239437Y348488D01*
X241610Y345694D02*
X246888Y348488D01*
X246888Y354739D02*
X246888Y357844D01*
X246888Y354739D02*
X246886Y354653D01*
X246880Y354567D01*
X246870Y354482D01*
X246856Y354397D01*
X246839Y354312D01*
X246817Y354229D01*
X246791Y354147D01*
X246762Y354066D01*
X246729Y353987D01*
X246693Y353909D01*
X246653Y353832D01*
X246609Y353758D01*
X246562Y353686D01*
X246512Y353616D01*
X246458Y353549D01*
X246402Y353484D01*
X246342Y353422D01*
X246280Y353362D01*
X246215Y353306D01*
X246148Y353252D01*
X246078Y353202D01*
X246006Y353155D01*
X245932Y353111D01*
X245855Y353071D01*
X245778Y353035D01*
X245698Y353002D01*
X245617Y352973D01*
X245535Y352947D01*
X245452Y352925D01*
X245367Y352908D01*
X245282Y352894D01*
X245197Y352884D01*
X245111Y352878D01*
X245025Y352876D01*
X245025Y352877D02*
X241921Y352877D01*
X241921Y352876D02*
X241822Y352878D01*
X241724Y352884D01*
X241625Y352894D01*
X241528Y352907D01*
X241430Y352925D01*
X241334Y352946D01*
X241238Y352972D01*
X241144Y353001D01*
X241051Y353033D01*
X240959Y353070D01*
X240869Y353110D01*
X240780Y353154D01*
X240693Y353201D01*
X240608Y353251D01*
X240526Y353305D01*
X240445Y353362D01*
X240367Y353422D01*
X240291Y353486D01*
X240218Y353552D01*
X240147Y353621D01*
X240079Y353693D01*
X240015Y353768D01*
X239953Y353845D01*
X239894Y353924D01*
X239839Y354006D01*
X239786Y354090D01*
X239738Y354175D01*
X239692Y354263D01*
X239650Y354353D01*
X239612Y354444D01*
X239578Y354536D01*
X239547Y354630D01*
X239520Y354725D01*
X239496Y354821D01*
X239477Y354918D01*
X239461Y355015D01*
X239449Y355113D01*
X239441Y355212D01*
X239437Y355311D01*
X239437Y355409D01*
X239441Y355508D01*
X239449Y355607D01*
X239461Y355705D01*
X239477Y355802D01*
X239496Y355899D01*
X239520Y355995D01*
X239547Y356090D01*
X239578Y356184D01*
X239612Y356276D01*
X239650Y356367D01*
X239692Y356457D01*
X239738Y356545D01*
X239786Y356630D01*
X239839Y356714D01*
X239894Y356796D01*
X239953Y356875D01*
X240015Y356952D01*
X240079Y357027D01*
X240147Y357099D01*
X240218Y357168D01*
X240291Y357234D01*
X240367Y357298D01*
X240445Y357358D01*
X240526Y357415D01*
X240608Y357469D01*
X240693Y357519D01*
X240780Y357566D01*
X240869Y357610D01*
X240959Y357650D01*
X241051Y357687D01*
X241144Y357719D01*
X241238Y357748D01*
X241334Y357774D01*
X241430Y357795D01*
X241528Y357813D01*
X241625Y357826D01*
X241724Y357836D01*
X241822Y357842D01*
X241921Y357844D01*
X243163Y357844D01*
X243163Y352877D01*
X239437Y361764D02*
X239437Y365489D01*
X235712Y363006D02*
X245025Y363006D01*
X245025Y363005D02*
X245109Y363007D01*
X245192Y363013D01*
X245275Y363022D01*
X245358Y363035D01*
X245440Y363052D01*
X245521Y363072D01*
X245601Y363096D01*
X245680Y363124D01*
X245757Y363155D01*
X245833Y363189D01*
X245908Y363227D01*
X245981Y363269D01*
X246051Y363313D01*
X246120Y363361D01*
X246187Y363411D01*
X246251Y363465D01*
X246312Y363521D01*
X246372Y363581D01*
X246428Y363642D01*
X246482Y363706D01*
X246532Y363773D01*
X246580Y363842D01*
X246624Y363912D01*
X246666Y363985D01*
X246704Y364060D01*
X246738Y364136D01*
X246769Y364213D01*
X246797Y364292D01*
X246821Y364372D01*
X246841Y364453D01*
X246858Y364535D01*
X246871Y364618D01*
X246881Y364701D01*
X246886Y364784D01*
X246888Y364868D01*
X246888Y365489D01*
X240679Y370755D02*
X240679Y373860D01*
X240680Y373860D02*
X240682Y373971D01*
X240688Y374081D01*
X240698Y374192D01*
X240712Y374302D01*
X240729Y374411D01*
X240751Y374520D01*
X240776Y374628D01*
X240806Y374734D01*
X240839Y374840D01*
X240876Y374945D01*
X240916Y375048D01*
X240961Y375149D01*
X241008Y375249D01*
X241060Y375348D01*
X241115Y375444D01*
X241173Y375538D01*
X241234Y375630D01*
X241299Y375720D01*
X241367Y375808D01*
X241438Y375893D01*
X241512Y375975D01*
X241589Y376055D01*
X241669Y376132D01*
X241751Y376206D01*
X241836Y376277D01*
X241924Y376345D01*
X242014Y376410D01*
X242106Y376471D01*
X242200Y376529D01*
X242296Y376584D01*
X242395Y376636D01*
X242495Y376683D01*
X242596Y376728D01*
X242699Y376768D01*
X242804Y376805D01*
X242910Y376838D01*
X243016Y376868D01*
X243124Y376893D01*
X243233Y376915D01*
X243342Y376932D01*
X243452Y376946D01*
X243563Y376956D01*
X243673Y376962D01*
X243784Y376964D01*
X243895Y376962D01*
X244005Y376956D01*
X244116Y376946D01*
X244226Y376932D01*
X244335Y376915D01*
X244444Y376893D01*
X244552Y376868D01*
X244658Y376838D01*
X244764Y376805D01*
X244869Y376768D01*
X244972Y376728D01*
X245073Y376683D01*
X245173Y376636D01*
X245272Y376584D01*
X245368Y376529D01*
X245462Y376471D01*
X245554Y376410D01*
X245644Y376345D01*
X245732Y376277D01*
X245817Y376206D01*
X245899Y376132D01*
X245979Y376055D01*
X246056Y375975D01*
X246130Y375893D01*
X246201Y375808D01*
X246269Y375720D01*
X246334Y375630D01*
X246395Y375538D01*
X246453Y375444D01*
X246508Y375348D01*
X246560Y375249D01*
X246607Y375149D01*
X246652Y375048D01*
X246692Y374945D01*
X246729Y374840D01*
X246762Y374734D01*
X246792Y374628D01*
X246817Y374520D01*
X246839Y374411D01*
X246856Y374302D01*
X246870Y374192D01*
X246880Y374081D01*
X246886Y373971D01*
X246888Y373860D01*
X246888Y370755D01*
X235712Y370755D01*
X235712Y373860D01*
X235714Y373959D01*
X235720Y374057D01*
X235730Y374156D01*
X235743Y374253D01*
X235761Y374351D01*
X235782Y374447D01*
X235808Y374543D01*
X235837Y374637D01*
X235869Y374730D01*
X235906Y374822D01*
X235946Y374912D01*
X235990Y375001D01*
X236037Y375088D01*
X236087Y375173D01*
X236141Y375255D01*
X236198Y375336D01*
X236258Y375414D01*
X236322Y375490D01*
X236388Y375563D01*
X236457Y375634D01*
X236529Y375702D01*
X236604Y375766D01*
X236681Y375828D01*
X236760Y375887D01*
X236842Y375942D01*
X236926Y375995D01*
X237011Y376043D01*
X237099Y376089D01*
X237189Y376131D01*
X237280Y376169D01*
X237372Y376203D01*
X237466Y376234D01*
X237561Y376261D01*
X237657Y376285D01*
X237754Y376304D01*
X237851Y376320D01*
X237949Y376332D01*
X238048Y376340D01*
X238147Y376344D01*
X238245Y376344D01*
X238344Y376340D01*
X238443Y376332D01*
X238541Y376320D01*
X238638Y376304D01*
X238735Y376285D01*
X238831Y376261D01*
X238926Y376234D01*
X239020Y376203D01*
X239112Y376169D01*
X239203Y376131D01*
X239293Y376089D01*
X239381Y376043D01*
X239466Y375995D01*
X239550Y375942D01*
X239632Y375887D01*
X239711Y375828D01*
X239788Y375766D01*
X239863Y375702D01*
X239935Y375634D01*
X240004Y375563D01*
X240070Y375490D01*
X240134Y375414D01*
X240194Y375336D01*
X240251Y375255D01*
X240305Y375173D01*
X240355Y375088D01*
X240402Y375001D01*
X240446Y374912D01*
X240486Y374822D01*
X240523Y374730D01*
X240555Y374637D01*
X240584Y374543D01*
X240610Y374447D01*
X240631Y374351D01*
X240649Y374253D01*
X240662Y374156D01*
X240672Y374057D01*
X240678Y373959D01*
X240680Y373860D01*
X246888Y383314D02*
X246888Y386419D01*
X246888Y383314D02*
X246886Y383228D01*
X246880Y383142D01*
X246870Y383057D01*
X246856Y382972D01*
X246839Y382887D01*
X246817Y382804D01*
X246791Y382722D01*
X246762Y382641D01*
X246729Y382562D01*
X246693Y382484D01*
X246653Y382407D01*
X246609Y382333D01*
X246562Y382261D01*
X246512Y382191D01*
X246458Y382124D01*
X246402Y382059D01*
X246342Y381997D01*
X246280Y381937D01*
X246215Y381881D01*
X246148Y381827D01*
X246078Y381777D01*
X246006Y381730D01*
X245932Y381686D01*
X245855Y381646D01*
X245778Y381610D01*
X245698Y381577D01*
X245617Y381548D01*
X245535Y381522D01*
X245452Y381500D01*
X245367Y381483D01*
X245282Y381469D01*
X245197Y381459D01*
X245111Y381453D01*
X245025Y381451D01*
X245025Y381452D02*
X241921Y381452D01*
X241921Y381451D02*
X241822Y381453D01*
X241724Y381459D01*
X241625Y381469D01*
X241528Y381482D01*
X241430Y381500D01*
X241334Y381521D01*
X241238Y381547D01*
X241144Y381576D01*
X241051Y381608D01*
X240959Y381645D01*
X240869Y381685D01*
X240780Y381729D01*
X240693Y381776D01*
X240608Y381826D01*
X240526Y381880D01*
X240445Y381937D01*
X240367Y381997D01*
X240291Y382061D01*
X240218Y382127D01*
X240147Y382196D01*
X240079Y382268D01*
X240015Y382343D01*
X239953Y382420D01*
X239894Y382499D01*
X239839Y382581D01*
X239786Y382665D01*
X239738Y382750D01*
X239692Y382838D01*
X239650Y382928D01*
X239612Y383019D01*
X239578Y383111D01*
X239547Y383205D01*
X239520Y383300D01*
X239496Y383396D01*
X239477Y383493D01*
X239461Y383590D01*
X239449Y383688D01*
X239441Y383787D01*
X239437Y383886D01*
X239437Y383984D01*
X239441Y384083D01*
X239449Y384182D01*
X239461Y384280D01*
X239477Y384377D01*
X239496Y384474D01*
X239520Y384570D01*
X239547Y384665D01*
X239578Y384759D01*
X239612Y384851D01*
X239650Y384942D01*
X239692Y385032D01*
X239738Y385120D01*
X239786Y385205D01*
X239839Y385289D01*
X239894Y385371D01*
X239953Y385450D01*
X240015Y385527D01*
X240079Y385602D01*
X240147Y385674D01*
X240218Y385743D01*
X240291Y385809D01*
X240367Y385873D01*
X240445Y385933D01*
X240526Y385990D01*
X240608Y386044D01*
X240693Y386094D01*
X240780Y386141D01*
X240869Y386185D01*
X240959Y386225D01*
X241051Y386262D01*
X241144Y386294D01*
X241238Y386323D01*
X241334Y386349D01*
X241430Y386370D01*
X241528Y386388D01*
X241625Y386401D01*
X241724Y386411D01*
X241822Y386417D01*
X241921Y386419D01*
X243163Y386419D01*
X243163Y381452D01*
X242542Y393457D02*
X242542Y396251D01*
X242542Y393457D02*
X242544Y393365D01*
X242550Y393273D01*
X242560Y393181D01*
X242573Y393090D01*
X242591Y392999D01*
X242612Y392909D01*
X242637Y392821D01*
X242666Y392733D01*
X242699Y392647D01*
X242735Y392562D01*
X242775Y392479D01*
X242818Y392397D01*
X242865Y392318D01*
X242915Y392240D01*
X242968Y392165D01*
X243024Y392092D01*
X243084Y392021D01*
X243146Y391953D01*
X243211Y391888D01*
X243279Y391826D01*
X243350Y391766D01*
X243423Y391710D01*
X243498Y391657D01*
X243576Y391607D01*
X243655Y391560D01*
X243737Y391517D01*
X243820Y391477D01*
X243905Y391441D01*
X243991Y391408D01*
X244079Y391379D01*
X244167Y391354D01*
X244257Y391333D01*
X244348Y391315D01*
X244439Y391302D01*
X244531Y391292D01*
X244623Y391286D01*
X244715Y391284D01*
X244807Y391286D01*
X244899Y391292D01*
X244991Y391302D01*
X245082Y391315D01*
X245173Y391333D01*
X245263Y391354D01*
X245351Y391379D01*
X245439Y391408D01*
X245525Y391441D01*
X245610Y391477D01*
X245693Y391517D01*
X245775Y391560D01*
X245854Y391607D01*
X245932Y391657D01*
X246007Y391710D01*
X246080Y391766D01*
X246151Y391826D01*
X246219Y391888D01*
X246284Y391953D01*
X246346Y392021D01*
X246406Y392092D01*
X246462Y392165D01*
X246515Y392240D01*
X246565Y392318D01*
X246612Y392397D01*
X246655Y392479D01*
X246695Y392562D01*
X246731Y392647D01*
X246764Y392733D01*
X246793Y392821D01*
X246818Y392909D01*
X246839Y392999D01*
X246857Y393090D01*
X246870Y393181D01*
X246880Y393273D01*
X246886Y393365D01*
X246888Y393457D01*
X246888Y396251D01*
X241300Y396251D01*
X241214Y396249D01*
X241128Y396243D01*
X241043Y396233D01*
X240958Y396219D01*
X240873Y396202D01*
X240790Y396180D01*
X240708Y396154D01*
X240627Y396125D01*
X240548Y396092D01*
X240470Y396056D01*
X240393Y396016D01*
X240319Y395972D01*
X240247Y395925D01*
X240177Y395875D01*
X240110Y395821D01*
X240045Y395765D01*
X239983Y395705D01*
X239923Y395643D01*
X239867Y395578D01*
X239813Y395511D01*
X239763Y395441D01*
X239716Y395369D01*
X239672Y395295D01*
X239632Y395218D01*
X239596Y395141D01*
X239563Y395061D01*
X239534Y394980D01*
X239508Y394898D01*
X239486Y394815D01*
X239469Y394730D01*
X239455Y394645D01*
X239445Y394560D01*
X239439Y394474D01*
X239437Y394388D01*
X239437Y391905D01*
X246888Y403433D02*
X246888Y406538D01*
X246888Y403433D02*
X246886Y403347D01*
X246880Y403261D01*
X246870Y403176D01*
X246856Y403091D01*
X246839Y403006D01*
X246817Y402923D01*
X246791Y402841D01*
X246762Y402760D01*
X246729Y402681D01*
X246693Y402603D01*
X246653Y402526D01*
X246609Y402452D01*
X246562Y402380D01*
X246512Y402310D01*
X246458Y402243D01*
X246402Y402178D01*
X246342Y402116D01*
X246280Y402056D01*
X246215Y402000D01*
X246148Y401946D01*
X246078Y401896D01*
X246006Y401849D01*
X245932Y401805D01*
X245855Y401765D01*
X245778Y401729D01*
X245698Y401696D01*
X245617Y401667D01*
X245535Y401641D01*
X245452Y401619D01*
X245367Y401602D01*
X245282Y401588D01*
X245197Y401578D01*
X245111Y401572D01*
X245025Y401570D01*
X245025Y401571D02*
X241300Y401571D01*
X241300Y401570D02*
X241216Y401572D01*
X241133Y401577D01*
X241050Y401587D01*
X240967Y401600D01*
X240885Y401617D01*
X240804Y401637D01*
X240724Y401661D01*
X240645Y401689D01*
X240568Y401720D01*
X240492Y401754D01*
X240417Y401792D01*
X240344Y401834D01*
X240274Y401878D01*
X240205Y401926D01*
X240138Y401976D01*
X240074Y402030D01*
X240013Y402086D01*
X239953Y402146D01*
X239897Y402207D01*
X239843Y402271D01*
X239793Y402338D01*
X239745Y402407D01*
X239701Y402477D01*
X239659Y402550D01*
X239621Y402625D01*
X239587Y402701D01*
X239556Y402778D01*
X239528Y402857D01*
X239504Y402937D01*
X239484Y403018D01*
X239467Y403100D01*
X239454Y403183D01*
X239444Y403266D01*
X239439Y403349D01*
X239437Y403433D01*
X239437Y406538D01*
X248751Y406538D01*
X248835Y406536D01*
X248918Y406531D01*
X249001Y406521D01*
X249084Y406508D01*
X249166Y406491D01*
X249247Y406471D01*
X249327Y406447D01*
X249406Y406419D01*
X249483Y406388D01*
X249559Y406354D01*
X249634Y406316D01*
X249707Y406274D01*
X249777Y406230D01*
X249846Y406182D01*
X249913Y406132D01*
X249977Y406078D01*
X250038Y406022D01*
X250098Y405962D01*
X250154Y405901D01*
X250208Y405837D01*
X250258Y405770D01*
X250306Y405701D01*
X250350Y405631D01*
X250392Y405558D01*
X250430Y405483D01*
X250464Y405407D01*
X250495Y405330D01*
X250523Y405251D01*
X250547Y405171D01*
X250567Y405090D01*
X250584Y405008D01*
X250597Y404925D01*
X250607Y404842D01*
X250612Y404759D01*
X250614Y404675D01*
X250613Y404675D02*
X250613Y402192D01*
X245025Y412023D02*
X235712Y412023D01*
X245025Y412023D02*
X245109Y412025D01*
X245192Y412031D01*
X245275Y412040D01*
X245358Y412053D01*
X245440Y412070D01*
X245521Y412090D01*
X245601Y412114D01*
X245680Y412142D01*
X245757Y412173D01*
X245833Y412207D01*
X245908Y412245D01*
X245981Y412287D01*
X246051Y412331D01*
X246120Y412379D01*
X246187Y412429D01*
X246251Y412483D01*
X246312Y412539D01*
X246372Y412599D01*
X246428Y412660D01*
X246482Y412724D01*
X246532Y412791D01*
X246580Y412860D01*
X246624Y412930D01*
X246666Y413003D01*
X246704Y413078D01*
X246738Y413154D01*
X246769Y413231D01*
X246797Y413310D01*
X246821Y413390D01*
X246841Y413471D01*
X246858Y413553D01*
X246871Y413636D01*
X246881Y413719D01*
X246886Y413802D01*
X246888Y413886D01*
X246888Y419890D02*
X246888Y422994D01*
X246888Y419890D02*
X246886Y419804D01*
X246880Y419718D01*
X246870Y419633D01*
X246856Y419548D01*
X246839Y419463D01*
X246817Y419380D01*
X246791Y419298D01*
X246762Y419217D01*
X246729Y419138D01*
X246693Y419060D01*
X246653Y418983D01*
X246609Y418909D01*
X246562Y418837D01*
X246512Y418767D01*
X246458Y418700D01*
X246402Y418635D01*
X246342Y418573D01*
X246280Y418513D01*
X246215Y418457D01*
X246148Y418403D01*
X246078Y418353D01*
X246006Y418306D01*
X245932Y418262D01*
X245855Y418222D01*
X245778Y418186D01*
X245698Y418153D01*
X245617Y418124D01*
X245535Y418098D01*
X245452Y418076D01*
X245367Y418059D01*
X245282Y418045D01*
X245197Y418035D01*
X245111Y418029D01*
X245025Y418027D01*
X241921Y418027D01*
X241822Y418029D01*
X241724Y418035D01*
X241625Y418045D01*
X241528Y418058D01*
X241430Y418076D01*
X241334Y418097D01*
X241238Y418123D01*
X241144Y418152D01*
X241051Y418184D01*
X240959Y418221D01*
X240869Y418261D01*
X240780Y418305D01*
X240693Y418352D01*
X240608Y418402D01*
X240526Y418456D01*
X240445Y418513D01*
X240367Y418573D01*
X240291Y418637D01*
X240218Y418703D01*
X240147Y418772D01*
X240079Y418844D01*
X240015Y418919D01*
X239953Y418996D01*
X239894Y419075D01*
X239839Y419157D01*
X239786Y419241D01*
X239738Y419326D01*
X239692Y419414D01*
X239650Y419504D01*
X239612Y419595D01*
X239578Y419687D01*
X239547Y419781D01*
X239520Y419876D01*
X239496Y419972D01*
X239477Y420069D01*
X239461Y420166D01*
X239449Y420264D01*
X239441Y420363D01*
X239437Y420462D01*
X239437Y420560D01*
X239441Y420659D01*
X239449Y420758D01*
X239461Y420856D01*
X239477Y420953D01*
X239496Y421050D01*
X239520Y421146D01*
X239547Y421241D01*
X239578Y421335D01*
X239612Y421427D01*
X239650Y421518D01*
X239692Y421608D01*
X239738Y421696D01*
X239786Y421781D01*
X239839Y421865D01*
X239894Y421947D01*
X239953Y422026D01*
X240015Y422103D01*
X240079Y422178D01*
X240147Y422250D01*
X240218Y422319D01*
X240291Y422385D01*
X240367Y422449D01*
X240445Y422509D01*
X240526Y422566D01*
X240608Y422620D01*
X240693Y422670D01*
X240780Y422717D01*
X240869Y422761D01*
X240959Y422801D01*
X241051Y422838D01*
X241144Y422870D01*
X241238Y422899D01*
X241334Y422925D01*
X241430Y422946D01*
X241528Y422964D01*
X241625Y422977D01*
X241724Y422987D01*
X241822Y422993D01*
X241921Y422995D01*
X241921Y422994D02*
X243163Y422994D01*
X243163Y418027D01*
X226660Y619816D02*
X226660Y627888D01*
X226660Y619816D02*
X226662Y619705D01*
X226668Y619595D01*
X226678Y619484D01*
X226692Y619374D01*
X226709Y619265D01*
X226731Y619156D01*
X226756Y619048D01*
X226786Y618942D01*
X226819Y618836D01*
X226856Y618731D01*
X226896Y618628D01*
X226941Y618527D01*
X226988Y618427D01*
X227040Y618328D01*
X227095Y618232D01*
X227153Y618138D01*
X227214Y618046D01*
X227279Y617956D01*
X227347Y617868D01*
X227418Y617783D01*
X227492Y617701D01*
X227569Y617621D01*
X227649Y617544D01*
X227731Y617470D01*
X227816Y617399D01*
X227904Y617331D01*
X227994Y617266D01*
X228086Y617205D01*
X228180Y617147D01*
X228276Y617092D01*
X228375Y617040D01*
X228475Y616993D01*
X228576Y616948D01*
X228679Y616908D01*
X228784Y616871D01*
X228890Y616838D01*
X228996Y616808D01*
X229104Y616783D01*
X229213Y616761D01*
X229322Y616744D01*
X229432Y616730D01*
X229543Y616720D01*
X229653Y616714D01*
X229764Y616712D01*
X229875Y616714D01*
X229985Y616720D01*
X230096Y616730D01*
X230206Y616744D01*
X230315Y616761D01*
X230424Y616783D01*
X230532Y616808D01*
X230638Y616838D01*
X230744Y616871D01*
X230849Y616908D01*
X230952Y616948D01*
X231053Y616993D01*
X231153Y617040D01*
X231252Y617092D01*
X231348Y617147D01*
X231442Y617205D01*
X231534Y617266D01*
X231624Y617331D01*
X231712Y617399D01*
X231797Y617470D01*
X231879Y617544D01*
X231959Y617621D01*
X232036Y617701D01*
X232110Y617783D01*
X232181Y617868D01*
X232249Y617956D01*
X232314Y618046D01*
X232375Y618138D01*
X232433Y618232D01*
X232488Y618328D01*
X232540Y618427D01*
X232587Y618527D01*
X232632Y618628D01*
X232672Y618731D01*
X232709Y618836D01*
X232742Y618942D01*
X232772Y619048D01*
X232797Y619156D01*
X232819Y619265D01*
X232836Y619374D01*
X232850Y619484D01*
X232860Y619595D01*
X232866Y619705D01*
X232868Y619816D01*
X232869Y619816D02*
X232869Y627888D01*
X241815Y616712D02*
X241912Y616714D01*
X242010Y616720D01*
X242107Y616729D01*
X242204Y616743D01*
X242300Y616760D01*
X242395Y616781D01*
X242489Y616805D01*
X242583Y616834D01*
X242675Y616866D01*
X242766Y616901D01*
X242855Y616940D01*
X242943Y616983D01*
X243029Y617029D01*
X243113Y617078D01*
X243195Y617131D01*
X243275Y617186D01*
X243353Y617245D01*
X243428Y617307D01*
X243501Y617372D01*
X243571Y617440D01*
X243639Y617510D01*
X243704Y617583D01*
X243766Y617658D01*
X243825Y617736D01*
X243880Y617816D01*
X243933Y617898D01*
X243982Y617982D01*
X244028Y618068D01*
X244071Y618156D01*
X244110Y618245D01*
X244145Y618336D01*
X244177Y618428D01*
X244206Y618522D01*
X244230Y618616D01*
X244251Y618711D01*
X244268Y618807D01*
X244282Y618904D01*
X244291Y619001D01*
X244297Y619098D01*
X244299Y619196D01*
X241815Y616712D02*
X241672Y616714D01*
X241529Y616720D01*
X241387Y616729D01*
X241245Y616743D01*
X241103Y616761D01*
X240962Y616782D01*
X240821Y616807D01*
X240681Y616836D01*
X240542Y616869D01*
X240404Y616905D01*
X240267Y616946D01*
X240131Y616990D01*
X239996Y617037D01*
X239863Y617089D01*
X239731Y617144D01*
X239601Y617202D01*
X239472Y617264D01*
X239345Y617330D01*
X239220Y617399D01*
X239097Y617471D01*
X238976Y617547D01*
X238857Y617625D01*
X238740Y617708D01*
X238625Y617793D01*
X238513Y617881D01*
X238403Y617973D01*
X238296Y618067D01*
X238191Y618164D01*
X238089Y618264D01*
X238400Y625404D02*
X238402Y625502D01*
X238408Y625599D01*
X238417Y625696D01*
X238431Y625793D01*
X238448Y625889D01*
X238469Y625984D01*
X238493Y626078D01*
X238522Y626172D01*
X238554Y626264D01*
X238589Y626355D01*
X238628Y626444D01*
X238671Y626532D01*
X238717Y626618D01*
X238766Y626702D01*
X238819Y626784D01*
X238874Y626864D01*
X238933Y626942D01*
X238995Y627017D01*
X239060Y627090D01*
X239128Y627160D01*
X239198Y627228D01*
X239271Y627293D01*
X239346Y627355D01*
X239424Y627414D01*
X239504Y627469D01*
X239586Y627522D01*
X239670Y627571D01*
X239756Y627617D01*
X239844Y627660D01*
X239933Y627699D01*
X240024Y627734D01*
X240116Y627766D01*
X240210Y627795D01*
X240304Y627819D01*
X240399Y627840D01*
X240495Y627857D01*
X240592Y627871D01*
X240689Y627880D01*
X240786Y627886D01*
X240884Y627888D01*
X241014Y627886D01*
X241144Y627881D01*
X241274Y627872D01*
X241404Y627859D01*
X241533Y627843D01*
X241662Y627823D01*
X241790Y627799D01*
X241918Y627772D01*
X242044Y627741D01*
X242170Y627707D01*
X242295Y627669D01*
X242418Y627628D01*
X242541Y627583D01*
X242662Y627535D01*
X242782Y627484D01*
X242900Y627429D01*
X243016Y627371D01*
X243131Y627310D01*
X243245Y627245D01*
X243356Y627178D01*
X243465Y627107D01*
X243573Y627033D01*
X243678Y626957D01*
X239643Y623231D02*
X239560Y623282D01*
X239479Y623336D01*
X239401Y623393D01*
X239325Y623453D01*
X239251Y623516D01*
X239180Y623582D01*
X239111Y623650D01*
X239045Y623721D01*
X238981Y623794D01*
X238921Y623870D01*
X238864Y623948D01*
X238809Y624029D01*
X238758Y624111D01*
X238710Y624195D01*
X238665Y624281D01*
X238623Y624369D01*
X238585Y624458D01*
X238551Y624548D01*
X238519Y624640D01*
X238492Y624733D01*
X238468Y624827D01*
X238447Y624922D01*
X238431Y625018D01*
X238418Y625114D01*
X238408Y625210D01*
X238403Y625307D01*
X238401Y625404D01*
X243056Y621369D02*
X243139Y621318D01*
X243220Y621264D01*
X243298Y621207D01*
X243374Y621147D01*
X243448Y621084D01*
X243519Y621018D01*
X243588Y620950D01*
X243654Y620879D01*
X243718Y620806D01*
X243778Y620730D01*
X243835Y620652D01*
X243890Y620571D01*
X243941Y620489D01*
X243989Y620405D01*
X244034Y620319D01*
X244076Y620231D01*
X244114Y620142D01*
X244148Y620052D01*
X244180Y619960D01*
X244207Y619867D01*
X244231Y619773D01*
X244252Y619678D01*
X244268Y619582D01*
X244281Y619486D01*
X244291Y619390D01*
X244296Y619293D01*
X244298Y619196D01*
X243057Y621369D02*
X239642Y623231D01*
X249731Y622921D02*
X252836Y622921D01*
X252836Y622920D02*
X252947Y622918D01*
X253057Y622912D01*
X253168Y622902D01*
X253278Y622888D01*
X253387Y622871D01*
X253496Y622849D01*
X253604Y622824D01*
X253710Y622794D01*
X253816Y622761D01*
X253921Y622724D01*
X254024Y622684D01*
X254125Y622639D01*
X254225Y622592D01*
X254324Y622540D01*
X254420Y622485D01*
X254514Y622427D01*
X254606Y622366D01*
X254696Y622301D01*
X254784Y622233D01*
X254869Y622162D01*
X254951Y622088D01*
X255031Y622011D01*
X255108Y621931D01*
X255182Y621849D01*
X255253Y621764D01*
X255321Y621676D01*
X255386Y621586D01*
X255447Y621494D01*
X255505Y621400D01*
X255560Y621304D01*
X255612Y621205D01*
X255659Y621105D01*
X255704Y621004D01*
X255744Y620901D01*
X255781Y620796D01*
X255814Y620690D01*
X255844Y620584D01*
X255869Y620476D01*
X255891Y620367D01*
X255908Y620258D01*
X255922Y620148D01*
X255932Y620037D01*
X255938Y619927D01*
X255940Y619816D01*
X255938Y619705D01*
X255932Y619595D01*
X255922Y619484D01*
X255908Y619374D01*
X255891Y619265D01*
X255869Y619156D01*
X255844Y619048D01*
X255814Y618942D01*
X255781Y618836D01*
X255744Y618731D01*
X255704Y618628D01*
X255659Y618527D01*
X255612Y618427D01*
X255560Y618328D01*
X255505Y618232D01*
X255447Y618138D01*
X255386Y618046D01*
X255321Y617956D01*
X255253Y617868D01*
X255182Y617783D01*
X255108Y617701D01*
X255031Y617621D01*
X254951Y617544D01*
X254869Y617470D01*
X254784Y617399D01*
X254696Y617331D01*
X254606Y617266D01*
X254514Y617205D01*
X254420Y617147D01*
X254324Y617092D01*
X254225Y617040D01*
X254125Y616993D01*
X254024Y616948D01*
X253921Y616908D01*
X253816Y616871D01*
X253710Y616838D01*
X253604Y616808D01*
X253496Y616783D01*
X253387Y616761D01*
X253278Y616744D01*
X253168Y616730D01*
X253057Y616720D01*
X252947Y616714D01*
X252836Y616712D01*
X249731Y616712D01*
X249731Y627888D01*
X252836Y627888D01*
X252935Y627886D01*
X253033Y627880D01*
X253132Y627870D01*
X253229Y627857D01*
X253327Y627839D01*
X253423Y627818D01*
X253519Y627792D01*
X253613Y627763D01*
X253706Y627731D01*
X253798Y627694D01*
X253888Y627654D01*
X253977Y627610D01*
X254064Y627563D01*
X254149Y627513D01*
X254231Y627459D01*
X254312Y627402D01*
X254390Y627342D01*
X254466Y627278D01*
X254539Y627212D01*
X254610Y627143D01*
X254678Y627071D01*
X254742Y626996D01*
X254804Y626919D01*
X254863Y626840D01*
X254918Y626758D01*
X254971Y626674D01*
X255019Y626589D01*
X255065Y626501D01*
X255107Y626411D01*
X255145Y626320D01*
X255179Y626228D01*
X255210Y626134D01*
X255237Y626039D01*
X255261Y625943D01*
X255280Y625846D01*
X255296Y625749D01*
X255308Y625651D01*
X255316Y625552D01*
X255320Y625453D01*
X255320Y625355D01*
X255316Y625256D01*
X255308Y625157D01*
X255296Y625059D01*
X255280Y624962D01*
X255261Y624865D01*
X255237Y624769D01*
X255210Y624674D01*
X255179Y624580D01*
X255145Y624488D01*
X255107Y624397D01*
X255065Y624307D01*
X255019Y624219D01*
X254971Y624134D01*
X254918Y624050D01*
X254863Y623968D01*
X254804Y623889D01*
X254742Y623812D01*
X254678Y623737D01*
X254610Y623665D01*
X254539Y623596D01*
X254466Y623530D01*
X254390Y623466D01*
X254312Y623406D01*
X254231Y623349D01*
X254149Y623295D01*
X254064Y623245D01*
X253977Y623198D01*
X253888Y623154D01*
X253798Y623114D01*
X253706Y623077D01*
X253613Y623045D01*
X253519Y623016D01*
X253423Y622990D01*
X253327Y622969D01*
X253229Y622951D01*
X253132Y622938D01*
X253033Y622928D01*
X252935Y622922D01*
X252836Y622920D01*
X210453Y116163D02*
X210453Y108712D01*
X210453Y116163D02*
X216041Y116163D01*
X216125Y116161D01*
X216208Y116156D01*
X216291Y116146D01*
X216374Y116133D01*
X216456Y116116D01*
X216537Y116096D01*
X216617Y116072D01*
X216696Y116044D01*
X216773Y116013D01*
X216849Y115979D01*
X216924Y115941D01*
X216997Y115899D01*
X217067Y115855D01*
X217136Y115807D01*
X217203Y115757D01*
X217267Y115703D01*
X217328Y115647D01*
X217388Y115587D01*
X217444Y115526D01*
X217498Y115462D01*
X217548Y115395D01*
X217596Y115326D01*
X217640Y115256D01*
X217682Y115183D01*
X217720Y115108D01*
X217754Y115032D01*
X217785Y114955D01*
X217813Y114876D01*
X217837Y114796D01*
X217857Y114715D01*
X217874Y114633D01*
X217887Y114550D01*
X217897Y114467D01*
X217902Y114384D01*
X217904Y114300D01*
X217904Y108712D01*
X214179Y108712D02*
X214179Y116163D01*
X223323Y116163D02*
X223323Y108712D01*
X223012Y119267D02*
X223012Y119888D01*
X223633Y119888D01*
X223633Y119267D01*
X223012Y119267D01*
X229957Y108712D02*
X232441Y108712D01*
X229957Y108712D02*
X229873Y108714D01*
X229790Y108719D01*
X229707Y108729D01*
X229624Y108742D01*
X229542Y108759D01*
X229461Y108779D01*
X229381Y108803D01*
X229302Y108831D01*
X229225Y108862D01*
X229149Y108896D01*
X229074Y108934D01*
X229001Y108976D01*
X228931Y109020D01*
X228862Y109068D01*
X228795Y109118D01*
X228731Y109172D01*
X228670Y109228D01*
X228610Y109288D01*
X228554Y109349D01*
X228500Y109413D01*
X228450Y109480D01*
X228402Y109549D01*
X228358Y109619D01*
X228316Y109692D01*
X228278Y109767D01*
X228244Y109843D01*
X228213Y109920D01*
X228185Y109999D01*
X228161Y110079D01*
X228141Y110160D01*
X228124Y110242D01*
X228111Y110325D01*
X228101Y110408D01*
X228096Y110491D01*
X228094Y110575D01*
X228095Y110575D02*
X228095Y114300D01*
X228094Y114300D02*
X228096Y114384D01*
X228102Y114467D01*
X228111Y114550D01*
X228124Y114633D01*
X228141Y114715D01*
X228161Y114796D01*
X228185Y114876D01*
X228213Y114955D01*
X228244Y115032D01*
X228278Y115108D01*
X228316Y115183D01*
X228358Y115256D01*
X228402Y115326D01*
X228450Y115395D01*
X228500Y115462D01*
X228554Y115526D01*
X228610Y115587D01*
X228670Y115647D01*
X228731Y115703D01*
X228795Y115757D01*
X228862Y115807D01*
X228931Y115855D01*
X229001Y115899D01*
X229074Y115941D01*
X229149Y115979D01*
X229225Y116013D01*
X229302Y116044D01*
X229381Y116072D01*
X229461Y116096D01*
X229542Y116116D01*
X229624Y116133D01*
X229707Y116146D01*
X229790Y116156D01*
X229873Y116161D01*
X229957Y116163D01*
X232441Y116163D01*
X237305Y116163D02*
X237305Y108712D01*
X237305Y116163D02*
X241030Y116163D01*
X241030Y114921D01*
X244842Y113679D02*
X244842Y111196D01*
X244841Y113679D02*
X244843Y113778D01*
X244849Y113876D01*
X244859Y113975D01*
X244872Y114072D01*
X244890Y114170D01*
X244911Y114266D01*
X244937Y114362D01*
X244966Y114456D01*
X244998Y114549D01*
X245035Y114641D01*
X245075Y114731D01*
X245119Y114820D01*
X245166Y114907D01*
X245216Y114992D01*
X245270Y115074D01*
X245327Y115155D01*
X245387Y115233D01*
X245451Y115309D01*
X245517Y115382D01*
X245586Y115453D01*
X245658Y115521D01*
X245733Y115585D01*
X245810Y115647D01*
X245889Y115706D01*
X245971Y115761D01*
X246055Y115814D01*
X246140Y115862D01*
X246228Y115908D01*
X246318Y115950D01*
X246409Y115988D01*
X246501Y116022D01*
X246595Y116053D01*
X246690Y116080D01*
X246786Y116104D01*
X246883Y116123D01*
X246980Y116139D01*
X247078Y116151D01*
X247177Y116159D01*
X247276Y116163D01*
X247374Y116163D01*
X247473Y116159D01*
X247572Y116151D01*
X247670Y116139D01*
X247767Y116123D01*
X247864Y116104D01*
X247960Y116080D01*
X248055Y116053D01*
X248149Y116022D01*
X248241Y115988D01*
X248332Y115950D01*
X248422Y115908D01*
X248510Y115862D01*
X248595Y115814D01*
X248679Y115761D01*
X248761Y115706D01*
X248840Y115647D01*
X248917Y115585D01*
X248992Y115521D01*
X249064Y115453D01*
X249133Y115382D01*
X249199Y115309D01*
X249263Y115233D01*
X249323Y115155D01*
X249380Y115074D01*
X249434Y114992D01*
X249484Y114907D01*
X249531Y114820D01*
X249575Y114731D01*
X249615Y114641D01*
X249652Y114549D01*
X249684Y114456D01*
X249713Y114362D01*
X249739Y114266D01*
X249760Y114170D01*
X249778Y114072D01*
X249791Y113975D01*
X249801Y113876D01*
X249807Y113778D01*
X249809Y113679D01*
X249809Y111196D01*
X249807Y111097D01*
X249801Y110999D01*
X249791Y110900D01*
X249778Y110803D01*
X249760Y110705D01*
X249739Y110609D01*
X249713Y110513D01*
X249684Y110419D01*
X249652Y110326D01*
X249615Y110234D01*
X249575Y110144D01*
X249531Y110055D01*
X249484Y109968D01*
X249434Y109883D01*
X249380Y109801D01*
X249323Y109720D01*
X249263Y109642D01*
X249199Y109566D01*
X249133Y109493D01*
X249064Y109422D01*
X248992Y109354D01*
X248917Y109290D01*
X248840Y109228D01*
X248761Y109169D01*
X248679Y109114D01*
X248595Y109061D01*
X248510Y109013D01*
X248422Y108967D01*
X248332Y108925D01*
X248241Y108887D01*
X248149Y108853D01*
X248055Y108822D01*
X247960Y108795D01*
X247864Y108771D01*
X247767Y108752D01*
X247670Y108736D01*
X247572Y108724D01*
X247473Y108716D01*
X247374Y108712D01*
X247276Y108712D01*
X247177Y108716D01*
X247078Y108724D01*
X246980Y108736D01*
X246883Y108752D01*
X246786Y108771D01*
X246690Y108795D01*
X246595Y108822D01*
X246501Y108853D01*
X246409Y108887D01*
X246318Y108925D01*
X246228Y108967D01*
X246140Y109013D01*
X246055Y109061D01*
X245971Y109114D01*
X245889Y109169D01*
X245810Y109228D01*
X245733Y109290D01*
X245658Y109354D01*
X245586Y109422D01*
X245517Y109493D01*
X245451Y109566D01*
X245387Y109642D01*
X245327Y109720D01*
X245270Y109801D01*
X245216Y109883D01*
X245166Y109968D01*
X245119Y110055D01*
X245075Y110144D01*
X245035Y110234D01*
X244998Y110326D01*
X244966Y110419D01*
X244937Y110513D01*
X244911Y110609D01*
X244890Y110705D01*
X244872Y110803D01*
X244859Y110900D01*
X244849Y110999D01*
X244843Y111097D01*
X244841Y111196D01*
X258233Y108712D02*
X258330Y108714D01*
X258428Y108720D01*
X258525Y108729D01*
X258622Y108743D01*
X258718Y108760D01*
X258813Y108781D01*
X258907Y108805D01*
X259001Y108834D01*
X259093Y108866D01*
X259184Y108901D01*
X259273Y108940D01*
X259361Y108983D01*
X259447Y109029D01*
X259531Y109078D01*
X259613Y109131D01*
X259693Y109186D01*
X259771Y109245D01*
X259846Y109307D01*
X259919Y109372D01*
X259989Y109440D01*
X260057Y109510D01*
X260122Y109583D01*
X260184Y109658D01*
X260243Y109736D01*
X260298Y109816D01*
X260351Y109898D01*
X260400Y109982D01*
X260446Y110068D01*
X260489Y110156D01*
X260528Y110245D01*
X260563Y110336D01*
X260595Y110428D01*
X260624Y110522D01*
X260648Y110616D01*
X260669Y110711D01*
X260686Y110807D01*
X260700Y110904D01*
X260709Y111001D01*
X260715Y111098D01*
X260717Y111196D01*
X258233Y108712D02*
X258090Y108714D01*
X257947Y108720D01*
X257805Y108729D01*
X257663Y108743D01*
X257521Y108761D01*
X257380Y108782D01*
X257239Y108807D01*
X257099Y108836D01*
X256960Y108869D01*
X256822Y108905D01*
X256685Y108946D01*
X256549Y108990D01*
X256414Y109037D01*
X256281Y109089D01*
X256149Y109144D01*
X256019Y109202D01*
X255890Y109264D01*
X255763Y109330D01*
X255638Y109399D01*
X255515Y109471D01*
X255394Y109547D01*
X255275Y109625D01*
X255158Y109708D01*
X255043Y109793D01*
X254931Y109881D01*
X254821Y109973D01*
X254714Y110067D01*
X254609Y110164D01*
X254507Y110264D01*
X254818Y117404D02*
X254820Y117502D01*
X254826Y117599D01*
X254835Y117696D01*
X254849Y117793D01*
X254866Y117889D01*
X254887Y117984D01*
X254911Y118078D01*
X254940Y118172D01*
X254972Y118264D01*
X255007Y118355D01*
X255046Y118444D01*
X255089Y118532D01*
X255135Y118618D01*
X255184Y118702D01*
X255237Y118784D01*
X255292Y118864D01*
X255351Y118942D01*
X255413Y119017D01*
X255478Y119090D01*
X255546Y119160D01*
X255616Y119228D01*
X255689Y119293D01*
X255764Y119355D01*
X255842Y119414D01*
X255922Y119469D01*
X256004Y119522D01*
X256088Y119571D01*
X256174Y119617D01*
X256262Y119660D01*
X256351Y119699D01*
X256442Y119734D01*
X256534Y119766D01*
X256628Y119795D01*
X256722Y119819D01*
X256817Y119840D01*
X256913Y119857D01*
X257010Y119871D01*
X257107Y119880D01*
X257204Y119886D01*
X257302Y119888D01*
X257432Y119886D01*
X257562Y119881D01*
X257692Y119872D01*
X257822Y119859D01*
X257951Y119843D01*
X258080Y119823D01*
X258208Y119799D01*
X258336Y119772D01*
X258462Y119741D01*
X258588Y119707D01*
X258713Y119669D01*
X258836Y119628D01*
X258959Y119583D01*
X259080Y119535D01*
X259200Y119484D01*
X259318Y119429D01*
X259434Y119371D01*
X259549Y119310D01*
X259663Y119245D01*
X259774Y119178D01*
X259883Y119107D01*
X259991Y119033D01*
X260096Y118957D01*
X256061Y115231D02*
X255978Y115282D01*
X255897Y115336D01*
X255819Y115393D01*
X255743Y115453D01*
X255669Y115516D01*
X255598Y115582D01*
X255529Y115650D01*
X255463Y115721D01*
X255399Y115794D01*
X255339Y115870D01*
X255282Y115948D01*
X255227Y116029D01*
X255176Y116111D01*
X255128Y116195D01*
X255083Y116281D01*
X255041Y116369D01*
X255003Y116458D01*
X254969Y116548D01*
X254937Y116640D01*
X254910Y116733D01*
X254886Y116827D01*
X254865Y116922D01*
X254849Y117018D01*
X254836Y117114D01*
X254826Y117210D01*
X254821Y117307D01*
X254819Y117404D01*
X259474Y113369D02*
X259557Y113318D01*
X259638Y113264D01*
X259716Y113207D01*
X259792Y113147D01*
X259866Y113084D01*
X259937Y113018D01*
X260006Y112950D01*
X260072Y112879D01*
X260136Y112806D01*
X260196Y112730D01*
X260253Y112652D01*
X260308Y112571D01*
X260359Y112489D01*
X260407Y112405D01*
X260452Y112319D01*
X260494Y112231D01*
X260532Y112142D01*
X260566Y112052D01*
X260598Y111960D01*
X260625Y111867D01*
X260649Y111773D01*
X260670Y111678D01*
X260686Y111582D01*
X260699Y111486D01*
X260709Y111390D01*
X260714Y111293D01*
X260716Y111196D01*
X259475Y113369D02*
X256060Y115231D01*
X265938Y119888D02*
X265938Y108712D01*
X265938Y119888D02*
X269042Y119888D01*
X269153Y119886D01*
X269263Y119880D01*
X269374Y119870D01*
X269484Y119856D01*
X269593Y119839D01*
X269702Y119817D01*
X269810Y119792D01*
X269916Y119762D01*
X270022Y119729D01*
X270127Y119692D01*
X270230Y119652D01*
X270331Y119607D01*
X270431Y119560D01*
X270530Y119508D01*
X270626Y119453D01*
X270720Y119395D01*
X270812Y119334D01*
X270902Y119269D01*
X270990Y119201D01*
X271075Y119130D01*
X271157Y119056D01*
X271237Y118979D01*
X271314Y118899D01*
X271388Y118817D01*
X271459Y118732D01*
X271527Y118644D01*
X271592Y118554D01*
X271653Y118462D01*
X271711Y118368D01*
X271766Y118272D01*
X271818Y118173D01*
X271865Y118073D01*
X271910Y117972D01*
X271950Y117869D01*
X271987Y117764D01*
X272020Y117658D01*
X272050Y117552D01*
X272075Y117444D01*
X272097Y117335D01*
X272114Y117226D01*
X272128Y117116D01*
X272138Y117005D01*
X272144Y116895D01*
X272146Y116784D01*
X272147Y116784D02*
X272147Y111816D01*
X272146Y111816D02*
X272144Y111705D01*
X272138Y111595D01*
X272128Y111484D01*
X272114Y111374D01*
X272097Y111265D01*
X272075Y111156D01*
X272050Y111048D01*
X272020Y110942D01*
X271987Y110836D01*
X271950Y110731D01*
X271910Y110628D01*
X271865Y110527D01*
X271818Y110427D01*
X271766Y110328D01*
X271711Y110232D01*
X271653Y110138D01*
X271592Y110046D01*
X271527Y109956D01*
X271459Y109868D01*
X271388Y109783D01*
X271314Y109701D01*
X271237Y109621D01*
X271157Y109544D01*
X271075Y109470D01*
X270990Y109399D01*
X270902Y109331D01*
X270812Y109266D01*
X270720Y109205D01*
X270626Y109147D01*
X270530Y109092D01*
X270431Y109040D01*
X270331Y108993D01*
X270230Y108948D01*
X270127Y108908D01*
X270022Y108871D01*
X269916Y108838D01*
X269810Y108808D01*
X269702Y108783D01*
X269593Y108761D01*
X269484Y108744D01*
X269374Y108730D01*
X269263Y108720D01*
X269153Y108714D01*
X269042Y108712D01*
X265938Y108712D01*
D10*
X98800Y588600D03*
X124200Y588600D03*
X124200Y563200D03*
X98800Y563200D03*
X124200Y537800D03*
X98800Y537800D03*
X124200Y512400D03*
X124200Y487000D03*
X124200Y461600D03*
X98800Y512400D03*
X98800Y487000D03*
X98800Y461600D03*
X124200Y436200D03*
X98800Y436200D03*
X124200Y410800D03*
X98800Y410800D03*
X124200Y385400D03*
X98800Y385400D03*
X124200Y360000D03*
X98800Y360000D03*
X124200Y334600D03*
X98800Y334600D03*
X124200Y309200D03*
X98800Y309200D03*
X124200Y283800D03*
X98800Y283800D03*
X124200Y258400D03*
X98800Y258400D03*
X124200Y233000D03*
X98800Y233000D03*
X124200Y207600D03*
X98800Y207600D03*
X124200Y182200D03*
X98800Y182200D03*
X124200Y156800D03*
X98800Y156800D03*
X352800Y588600D03*
X378200Y588600D03*
X378200Y563200D03*
X352800Y563200D03*
X378200Y537800D03*
X352800Y537800D03*
X378200Y512400D03*
X378200Y487000D03*
X378200Y461600D03*
X352800Y512400D03*
X352800Y487000D03*
X352800Y461600D03*
X378200Y436200D03*
X352800Y436200D03*
X378200Y410800D03*
X352800Y410800D03*
X378200Y385400D03*
X352800Y385400D03*
X378200Y360000D03*
X352800Y360000D03*
X378200Y334600D03*
X352800Y334600D03*
X378200Y309200D03*
X352800Y309200D03*
X378200Y283800D03*
X352800Y283800D03*
X378200Y258400D03*
X352800Y258400D03*
X378200Y233000D03*
X352800Y233000D03*
X378200Y207600D03*
X352800Y207600D03*
X378200Y182200D03*
X352800Y182200D03*
X378200Y156800D03*
X352800Y156800D03*
D11*
X413500Y197700D02*
X413500Y547700D01*
X413471Y550116D01*
X413383Y552531D01*
X413237Y554943D01*
X413033Y557351D01*
X412771Y559754D01*
X412451Y562149D01*
X412073Y564536D01*
X411637Y566913D01*
X411144Y569278D01*
X410594Y571632D01*
X409988Y573971D01*
X409325Y576295D01*
X408606Y578602D01*
X407831Y580891D01*
X407002Y583160D01*
X406117Y585409D01*
X405179Y587636D01*
X404187Y589840D01*
X403143Y592019D01*
X402046Y594172D01*
X400897Y596298D01*
X399697Y598396D01*
X398447Y600464D01*
X397147Y602501D01*
X395798Y604506D01*
X394402Y606479D01*
X392958Y608416D01*
X391467Y610319D01*
X389932Y612184D01*
X388351Y614012D01*
X386727Y615802D01*
X385060Y617551D01*
X383351Y619260D01*
X381602Y620927D01*
X379812Y622551D01*
X377984Y624132D01*
X376119Y625667D01*
X374216Y627158D01*
X372279Y628602D01*
X370306Y629998D01*
X368301Y631347D01*
X366264Y632647D01*
X364196Y633897D01*
X362098Y635097D01*
X359972Y636246D01*
X357819Y637343D01*
X355640Y638387D01*
X353436Y639379D01*
X351209Y640317D01*
X348960Y641202D01*
X346691Y642031D01*
X344402Y642806D01*
X342095Y643525D01*
X339771Y644188D01*
X337432Y644794D01*
X335078Y645344D01*
X332713Y645837D01*
X330336Y646273D01*
X327949Y646651D01*
X325554Y646971D01*
X323151Y647233D01*
X320743Y647437D01*
X318331Y647583D01*
X315916Y647671D01*
X313500Y647700D01*
X163500Y647700D01*
X161084Y647671D01*
X158669Y647583D01*
X156257Y647437D01*
X153849Y647233D01*
X151446Y646971D01*
X149051Y646651D01*
X146664Y646273D01*
X144287Y645837D01*
X141922Y645344D01*
X139568Y644794D01*
X137229Y644188D01*
X134905Y643525D01*
X132598Y642806D01*
X130309Y642031D01*
X128040Y641202D01*
X125791Y640317D01*
X123564Y639379D01*
X121360Y638387D01*
X119181Y637343D01*
X117028Y636246D01*
X114902Y635097D01*
X112804Y633897D01*
X110736Y632647D01*
X108699Y631347D01*
X106694Y629998D01*
X104721Y628602D01*
X102784Y627158D01*
X100881Y625667D01*
X99016Y624132D01*
X97188Y622551D01*
X95398Y620927D01*
X93649Y619260D01*
X91940Y617551D01*
X90273Y615802D01*
X88649Y614012D01*
X87068Y612184D01*
X85533Y610319D01*
X84042Y608416D01*
X82598Y606479D01*
X81202Y604506D01*
X79853Y602501D01*
X78553Y600464D01*
X77303Y598396D01*
X76103Y596298D01*
X74954Y594172D01*
X73857Y592019D01*
X72813Y589840D01*
X71821Y587636D01*
X70883Y585409D01*
X69998Y583160D01*
X69169Y580891D01*
X68394Y578602D01*
X67675Y576295D01*
X67012Y573971D01*
X66406Y571632D01*
X65856Y569278D01*
X65363Y566913D01*
X64927Y564536D01*
X64549Y562149D01*
X64229Y559754D01*
X63967Y557351D01*
X63763Y554943D01*
X63617Y552531D01*
X63529Y550116D01*
X63500Y547700D01*
X63500Y197700D01*
X63529Y195284D01*
X63617Y192869D01*
X63763Y190457D01*
X63967Y188049D01*
X64229Y185646D01*
X64549Y183251D01*
X64927Y180864D01*
X65363Y178487D01*
X65856Y176122D01*
X66406Y173768D01*
X67012Y171429D01*
X67675Y169105D01*
X68394Y166798D01*
X69169Y164509D01*
X69998Y162240D01*
X70883Y159991D01*
X71821Y157764D01*
X72813Y155560D01*
X73857Y153381D01*
X74954Y151228D01*
X76103Y149102D01*
X77303Y147004D01*
X78553Y144936D01*
X79853Y142899D01*
X81202Y140894D01*
X82598Y138921D01*
X84042Y136984D01*
X85533Y135081D01*
X87068Y133216D01*
X88649Y131388D01*
X90273Y129598D01*
X91940Y127849D01*
X93649Y126140D01*
X95398Y124473D01*
X97188Y122849D01*
X99016Y121268D01*
X100881Y119733D01*
X102784Y118242D01*
X104721Y116798D01*
X106694Y115402D01*
X108699Y114053D01*
X110736Y112753D01*
X112804Y111503D01*
X114902Y110303D01*
X117028Y109154D01*
X119181Y108057D01*
X121360Y107013D01*
X123564Y106021D01*
X125791Y105083D01*
X128040Y104198D01*
X130309Y103369D01*
X132598Y102594D01*
X134905Y101875D01*
X137229Y101212D01*
X139568Y100606D01*
X141922Y100056D01*
X144287Y99563D01*
X146664Y99127D01*
X149051Y98749D01*
X151446Y98429D01*
X153849Y98167D01*
X156257Y97963D01*
X158669Y97817D01*
X161084Y97729D01*
X163500Y97700D01*
X313500Y97700D01*
X315916Y97729D01*
X318331Y97817D01*
X320743Y97963D01*
X323151Y98167D01*
X325554Y98429D01*
X327949Y98749D01*
X330336Y99127D01*
X332713Y99563D01*
X335078Y100056D01*
X337432Y100606D01*
X339771Y101212D01*
X342095Y101875D01*
X344402Y102594D01*
X346691Y103369D01*
X348960Y104198D01*
X351209Y105083D01*
X353436Y106021D01*
X355640Y107013D01*
X357819Y108057D01*
X359972Y109154D01*
X362098Y110303D01*
X364196Y111503D01*
X366264Y112753D01*
X368301Y114053D01*
X370306Y115402D01*
X372279Y116798D01*
X374216Y118242D01*
X376119Y119733D01*
X377984Y121268D01*
X379812Y122849D01*
X381602Y124473D01*
X383351Y126140D01*
X385060Y127849D01*
X386727Y129598D01*
X388351Y131388D01*
X389932Y133216D01*
X391467Y135081D01*
X392958Y136984D01*
X394402Y138921D01*
X395798Y140894D01*
X397147Y142899D01*
X398447Y144936D01*
X399697Y147004D01*
X400897Y149102D01*
X402046Y151228D01*
X403143Y153381D01*
X404187Y155560D01*
X405179Y157764D01*
X406117Y159991D01*
X407002Y162240D01*
X407831Y164509D01*
X408606Y166798D01*
X409325Y169105D01*
X409988Y171429D01*
X410594Y173768D01*
X411144Y176122D01*
X411637Y178487D01*
X412073Y180864D01*
X412451Y183251D01*
X412771Y185646D01*
X413033Y188049D01*
X413237Y190457D01*
X413383Y192869D01*
X413471Y195284D01*
X413500Y197700D01*
D12*
X367538Y604492D02*
X356362Y604492D01*
X356362Y607596D01*
X356364Y607707D01*
X356370Y607817D01*
X356380Y607928D01*
X356394Y608038D01*
X356411Y608147D01*
X356433Y608256D01*
X356458Y608364D01*
X356488Y608470D01*
X356521Y608576D01*
X356558Y608681D01*
X356598Y608784D01*
X356643Y608885D01*
X356690Y608985D01*
X356742Y609084D01*
X356797Y609180D01*
X356855Y609274D01*
X356916Y609366D01*
X356981Y609456D01*
X357049Y609544D01*
X357120Y609629D01*
X357194Y609711D01*
X357271Y609791D01*
X357351Y609868D01*
X357433Y609942D01*
X357518Y610013D01*
X357606Y610081D01*
X357696Y610146D01*
X357788Y610207D01*
X357882Y610265D01*
X357978Y610320D01*
X358077Y610372D01*
X358177Y610419D01*
X358278Y610464D01*
X358381Y610504D01*
X358486Y610541D01*
X358592Y610574D01*
X358698Y610604D01*
X358806Y610629D01*
X358915Y610651D01*
X359024Y610668D01*
X359134Y610682D01*
X359245Y610692D01*
X359355Y610698D01*
X359466Y610700D01*
X359577Y610698D01*
X359687Y610692D01*
X359798Y610682D01*
X359908Y610668D01*
X360017Y610651D01*
X360126Y610629D01*
X360234Y610604D01*
X360340Y610574D01*
X360446Y610541D01*
X360551Y610504D01*
X360654Y610464D01*
X360755Y610419D01*
X360855Y610372D01*
X360954Y610320D01*
X361050Y610265D01*
X361144Y610207D01*
X361236Y610146D01*
X361326Y610081D01*
X361414Y610013D01*
X361499Y609942D01*
X361581Y609868D01*
X361661Y609791D01*
X361738Y609711D01*
X361812Y609629D01*
X361883Y609544D01*
X361951Y609456D01*
X362016Y609366D01*
X362077Y609274D01*
X362135Y609180D01*
X362190Y609084D01*
X362242Y608985D01*
X362289Y608885D01*
X362334Y608784D01*
X362374Y608681D01*
X362411Y608576D01*
X362444Y608470D01*
X362474Y608364D01*
X362499Y608256D01*
X362521Y608147D01*
X362538Y608038D01*
X362552Y607928D01*
X362562Y607817D01*
X362568Y607707D01*
X362570Y607596D01*
X362571Y607596D02*
X362571Y604492D01*
X356362Y618744D02*
X356364Y618848D01*
X356370Y618953D01*
X356380Y619057D01*
X356393Y619160D01*
X356411Y619263D01*
X356432Y619366D01*
X356457Y619467D01*
X356486Y619568D01*
X356519Y619667D01*
X356555Y619765D01*
X356595Y619861D01*
X356639Y619956D01*
X356686Y620050D01*
X356736Y620141D01*
X356790Y620230D01*
X356847Y620318D01*
X356908Y620403D01*
X356972Y620486D01*
X357038Y620566D01*
X357108Y620644D01*
X357180Y620720D01*
X357256Y620792D01*
X357334Y620862D01*
X357414Y620928D01*
X357497Y620992D01*
X357582Y621053D01*
X357670Y621110D01*
X357759Y621164D01*
X357850Y621214D01*
X357944Y621261D01*
X358039Y621305D01*
X358135Y621345D01*
X358233Y621381D01*
X358332Y621414D01*
X358433Y621443D01*
X358534Y621468D01*
X358637Y621489D01*
X358740Y621507D01*
X358843Y621520D01*
X358947Y621530D01*
X359052Y621536D01*
X359156Y621538D01*
X356362Y618744D02*
X356364Y618625D01*
X356370Y618507D01*
X356380Y618388D01*
X356393Y618270D01*
X356411Y618153D01*
X356433Y618036D01*
X356458Y617920D01*
X356487Y617805D01*
X356520Y617690D01*
X356557Y617577D01*
X356597Y617466D01*
X356641Y617355D01*
X356689Y617247D01*
X356740Y617140D01*
X356795Y617034D01*
X356854Y616931D01*
X356915Y616829D01*
X356980Y616730D01*
X357049Y616632D01*
X357120Y616538D01*
X357195Y616445D01*
X357272Y616355D01*
X357353Y616268D01*
X357436Y616183D01*
X357522Y616101D01*
X357611Y616022D01*
X357702Y615946D01*
X357796Y615873D01*
X357892Y615804D01*
X357991Y615737D01*
X358091Y615674D01*
X358194Y615614D01*
X358298Y615557D01*
X358405Y615505D01*
X358513Y615455D01*
X358622Y615409D01*
X358734Y615367D01*
X358846Y615329D01*
X361329Y620607D02*
X361255Y620682D01*
X361178Y620754D01*
X361099Y620824D01*
X361017Y620891D01*
X360933Y620955D01*
X360847Y621016D01*
X360759Y621074D01*
X360668Y621129D01*
X360576Y621181D01*
X360482Y621229D01*
X360387Y621274D01*
X360289Y621316D01*
X360191Y621354D01*
X360091Y621389D01*
X359990Y621420D01*
X359888Y621447D01*
X359785Y621471D01*
X359682Y621492D01*
X359577Y621508D01*
X359472Y621521D01*
X359367Y621531D01*
X359262Y621536D01*
X359156Y621538D01*
X361329Y620607D02*
X367538Y615329D01*
X367538Y621538D01*
X126238Y604492D02*
X115062Y604492D01*
X115062Y607596D01*
X115064Y607707D01*
X115070Y607817D01*
X115080Y607928D01*
X115094Y608038D01*
X115111Y608147D01*
X115133Y608256D01*
X115158Y608364D01*
X115188Y608470D01*
X115221Y608576D01*
X115258Y608681D01*
X115298Y608784D01*
X115343Y608885D01*
X115390Y608985D01*
X115442Y609084D01*
X115497Y609180D01*
X115555Y609274D01*
X115616Y609366D01*
X115681Y609456D01*
X115749Y609544D01*
X115820Y609629D01*
X115894Y609711D01*
X115971Y609791D01*
X116051Y609868D01*
X116133Y609942D01*
X116218Y610013D01*
X116306Y610081D01*
X116396Y610146D01*
X116488Y610207D01*
X116582Y610265D01*
X116678Y610320D01*
X116777Y610372D01*
X116877Y610419D01*
X116978Y610464D01*
X117081Y610504D01*
X117186Y610541D01*
X117292Y610574D01*
X117398Y610604D01*
X117506Y610629D01*
X117615Y610651D01*
X117724Y610668D01*
X117834Y610682D01*
X117945Y610692D01*
X118055Y610698D01*
X118166Y610700D01*
X118277Y610698D01*
X118387Y610692D01*
X118498Y610682D01*
X118608Y610668D01*
X118717Y610651D01*
X118826Y610629D01*
X118934Y610604D01*
X119040Y610574D01*
X119146Y610541D01*
X119251Y610504D01*
X119354Y610464D01*
X119455Y610419D01*
X119555Y610372D01*
X119654Y610320D01*
X119750Y610265D01*
X119844Y610207D01*
X119936Y610146D01*
X120026Y610081D01*
X120114Y610013D01*
X120199Y609942D01*
X120281Y609868D01*
X120361Y609791D01*
X120438Y609711D01*
X120512Y609629D01*
X120583Y609544D01*
X120651Y609456D01*
X120716Y609366D01*
X120777Y609274D01*
X120835Y609180D01*
X120890Y609084D01*
X120942Y608985D01*
X120989Y608885D01*
X121034Y608784D01*
X121074Y608681D01*
X121111Y608576D01*
X121144Y608470D01*
X121174Y608364D01*
X121199Y608256D01*
X121221Y608147D01*
X121238Y608038D01*
X121252Y607928D01*
X121262Y607817D01*
X121268Y607707D01*
X121270Y607596D01*
X121271Y607596D02*
X121271Y604492D01*
X117546Y615329D02*
X115062Y618434D01*
X126238Y618434D01*
X126238Y621538D02*
X126238Y615329D01*
D11*
X304800Y101600D02*
X304800Y88900D01*
X165100Y88900D01*
X165100Y101600D01*
D13*
X56444Y146742D02*
X51308Y146742D01*
X56444Y146742D02*
X56531Y146744D01*
X56619Y146750D01*
X56706Y146759D01*
X56792Y146773D01*
X56878Y146790D01*
X56962Y146811D01*
X57046Y146836D01*
X57129Y146865D01*
X57210Y146897D01*
X57290Y146932D01*
X57368Y146971D01*
X57445Y147014D01*
X57519Y147060D01*
X57591Y147109D01*
X57661Y147161D01*
X57729Y147217D01*
X57794Y147275D01*
X57857Y147336D01*
X57916Y147400D01*
X57973Y147467D01*
X58027Y147535D01*
X58078Y147607D01*
X58125Y147680D01*
X58170Y147755D01*
X58211Y147833D01*
X58248Y147912D01*
X58282Y147992D01*
X58312Y148074D01*
X58339Y148157D01*
X58362Y148242D01*
X58381Y148327D01*
X58396Y148413D01*
X58408Y148500D01*
X58416Y148587D01*
X58420Y148674D01*
X58420Y148762D01*
X58416Y148849D01*
X58408Y148936D01*
X58396Y149023D01*
X58381Y149109D01*
X58362Y149194D01*
X58339Y149279D01*
X58312Y149362D01*
X58282Y149444D01*
X58248Y149524D01*
X58211Y149603D01*
X58170Y149681D01*
X58125Y149756D01*
X58078Y149829D01*
X58027Y149901D01*
X57973Y149969D01*
X57916Y150036D01*
X57857Y150100D01*
X57794Y150161D01*
X57729Y150219D01*
X57661Y150275D01*
X57591Y150327D01*
X57519Y150376D01*
X57445Y150422D01*
X57368Y150465D01*
X57290Y150504D01*
X57210Y150539D01*
X57129Y150571D01*
X57046Y150600D01*
X56962Y150625D01*
X56878Y150646D01*
X56792Y150663D01*
X56706Y150677D01*
X56619Y150686D01*
X56531Y150692D01*
X56444Y150694D01*
X56444Y150693D02*
X51308Y150693D01*
X51308Y155789D02*
X58420Y155789D01*
X54864Y155789D02*
X54271Y154801D01*
X54234Y154744D01*
X54194Y154689D01*
X54151Y154636D01*
X54105Y154586D01*
X54057Y154538D01*
X54005Y154494D01*
X53951Y154452D01*
X53895Y154414D01*
X53837Y154379D01*
X53777Y154348D01*
X53715Y154320D01*
X53651Y154295D01*
X53586Y154274D01*
X53521Y154257D01*
X53454Y154244D01*
X53387Y154235D01*
X53319Y154230D01*
X53251Y154228D01*
X53183Y154230D01*
X53115Y154237D01*
X53048Y154247D01*
X52981Y154261D01*
X52916Y154279D01*
X52851Y154301D01*
X52788Y154326D01*
X52727Y154355D01*
X52667Y154387D01*
X52609Y154423D01*
X52553Y154462D01*
X52500Y154504D01*
X52449Y154550D01*
X52401Y154598D01*
X52356Y154648D01*
X52314Y154702D01*
X52275Y154757D01*
X52239Y154815D01*
X52206Y154875D01*
X52177Y154936D01*
X52152Y154999D01*
X52130Y155064D01*
X52112Y155129D01*
X52098Y155196D01*
X52099Y155196D02*
X52081Y155302D01*
X52068Y155409D01*
X52057Y155516D01*
X52051Y155623D01*
X52048Y155731D01*
X52049Y155838D01*
X52054Y155946D01*
X52062Y156053D01*
X52074Y156160D01*
X52089Y156266D01*
X52109Y156372D01*
X52131Y156477D01*
X52158Y156581D01*
X52188Y156684D01*
X52221Y156786D01*
X52258Y156887D01*
X52299Y156987D01*
X52343Y157085D01*
X52390Y157181D01*
X52440Y157276D01*
X52494Y157369D01*
X54864Y155789D02*
X55457Y156777D01*
X55457Y156776D02*
X55494Y156833D01*
X55534Y156888D01*
X55577Y156941D01*
X55623Y156991D01*
X55671Y157039D01*
X55723Y157083D01*
X55777Y157125D01*
X55833Y157163D01*
X55891Y157198D01*
X55951Y157229D01*
X56013Y157257D01*
X56077Y157282D01*
X56142Y157303D01*
X56207Y157320D01*
X56274Y157333D01*
X56341Y157342D01*
X56409Y157347D01*
X56477Y157349D01*
X56545Y157347D01*
X56613Y157340D01*
X56680Y157330D01*
X56747Y157316D01*
X56812Y157298D01*
X56877Y157276D01*
X56940Y157251D01*
X57001Y157222D01*
X57061Y157190D01*
X57119Y157154D01*
X57175Y157115D01*
X57228Y157073D01*
X57279Y157027D01*
X57327Y156979D01*
X57372Y156929D01*
X57414Y156875D01*
X57453Y156820D01*
X57489Y156762D01*
X57522Y156702D01*
X57551Y156641D01*
X57576Y156578D01*
X57598Y156513D01*
X57616Y156448D01*
X57630Y156381D01*
X57629Y156382D02*
X57647Y156275D01*
X57660Y156169D01*
X57671Y156062D01*
X57677Y155955D01*
X57680Y155847D01*
X57679Y155740D01*
X57674Y155632D01*
X57666Y155525D01*
X57654Y155418D01*
X57639Y155312D01*
X57619Y155206D01*
X57597Y155101D01*
X57570Y154997D01*
X57540Y154894D01*
X57507Y154792D01*
X57470Y154691D01*
X57429Y154591D01*
X57385Y154493D01*
X57338Y154397D01*
X57288Y154302D01*
X57234Y154209D01*
X52888Y160641D02*
X51308Y162616D01*
X58420Y162616D01*
X58420Y160641D02*
X58420Y164592D01*
D14*
X564200Y342900D02*
X564206Y343391D01*
X564224Y343881D01*
X564254Y344371D01*
X564296Y344860D01*
X564350Y345348D01*
X564416Y345835D01*
X564494Y346319D01*
X564584Y346802D01*
X564686Y347282D01*
X564799Y347760D01*
X564924Y348234D01*
X565061Y348706D01*
X565209Y349174D01*
X565369Y349638D01*
X565540Y350098D01*
X565722Y350554D01*
X565916Y351005D01*
X566120Y351451D01*
X566336Y351892D01*
X566562Y352328D01*
X566798Y352758D01*
X567045Y353182D01*
X567303Y353600D01*
X567571Y354011D01*
X567848Y354416D01*
X568136Y354814D01*
X568433Y355205D01*
X568740Y355588D01*
X569056Y355963D01*
X569381Y356331D01*
X569715Y356691D01*
X570058Y357042D01*
X570409Y357385D01*
X570769Y357719D01*
X571137Y358044D01*
X571512Y358360D01*
X571895Y358667D01*
X572286Y358964D01*
X572684Y359252D01*
X573089Y359529D01*
X573500Y359797D01*
X573918Y360055D01*
X574342Y360302D01*
X574772Y360538D01*
X575208Y360764D01*
X575649Y360980D01*
X576095Y361184D01*
X576546Y361378D01*
X577002Y361560D01*
X577462Y361731D01*
X577926Y361891D01*
X578394Y362039D01*
X578866Y362176D01*
X579340Y362301D01*
X579818Y362414D01*
X580298Y362516D01*
X580781Y362606D01*
X581265Y362684D01*
X581752Y362750D01*
X582240Y362804D01*
X582729Y362846D01*
X583219Y362876D01*
X583709Y362894D01*
X584200Y362900D01*
X584691Y362894D01*
X585181Y362876D01*
X585671Y362846D01*
X586160Y362804D01*
X586648Y362750D01*
X587135Y362684D01*
X587619Y362606D01*
X588102Y362516D01*
X588582Y362414D01*
X589060Y362301D01*
X589534Y362176D01*
X590006Y362039D01*
X590474Y361891D01*
X590938Y361731D01*
X591398Y361560D01*
X591854Y361378D01*
X592305Y361184D01*
X592751Y360980D01*
X593192Y360764D01*
X593628Y360538D01*
X594058Y360302D01*
X594482Y360055D01*
X594900Y359797D01*
X595311Y359529D01*
X595716Y359252D01*
X596114Y358964D01*
X596505Y358667D01*
X596888Y358360D01*
X597263Y358044D01*
X597631Y357719D01*
X597991Y357385D01*
X598342Y357042D01*
X598685Y356691D01*
X599019Y356331D01*
X599344Y355963D01*
X599660Y355588D01*
X599967Y355205D01*
X600264Y354814D01*
X600552Y354416D01*
X600829Y354011D01*
X601097Y353600D01*
X601355Y353182D01*
X601602Y352758D01*
X601838Y352328D01*
X602064Y351892D01*
X602280Y351451D01*
X602484Y351005D01*
X602678Y350554D01*
X602860Y350098D01*
X603031Y349638D01*
X603191Y349174D01*
X603339Y348706D01*
X603476Y348234D01*
X603601Y347760D01*
X603714Y347282D01*
X603816Y346802D01*
X603906Y346319D01*
X603984Y345835D01*
X604050Y345348D01*
X604104Y344860D01*
X604146Y344371D01*
X604176Y343881D01*
X604194Y343391D01*
X604200Y342900D01*
X604194Y342409D01*
X604176Y341919D01*
X604146Y341429D01*
X604104Y340940D01*
X604050Y340452D01*
X603984Y339965D01*
X603906Y339481D01*
X603816Y338998D01*
X603714Y338518D01*
X603601Y338040D01*
X603476Y337566D01*
X603339Y337094D01*
X603191Y336626D01*
X603031Y336162D01*
X602860Y335702D01*
X602678Y335246D01*
X602484Y334795D01*
X602280Y334349D01*
X602064Y333908D01*
X601838Y333472D01*
X601602Y333042D01*
X601355Y332618D01*
X601097Y332200D01*
X600829Y331789D01*
X600552Y331384D01*
X600264Y330986D01*
X599967Y330595D01*
X599660Y330212D01*
X599344Y329837D01*
X599019Y329469D01*
X598685Y329109D01*
X598342Y328758D01*
X597991Y328415D01*
X597631Y328081D01*
X597263Y327756D01*
X596888Y327440D01*
X596505Y327133D01*
X596114Y326836D01*
X595716Y326548D01*
X595311Y326271D01*
X594900Y326003D01*
X594482Y325745D01*
X594058Y325498D01*
X593628Y325262D01*
X593192Y325036D01*
X592751Y324820D01*
X592305Y324616D01*
X591854Y324422D01*
X591398Y324240D01*
X590938Y324069D01*
X590474Y323909D01*
X590006Y323761D01*
X589534Y323624D01*
X589060Y323499D01*
X588582Y323386D01*
X588102Y323284D01*
X587619Y323194D01*
X587135Y323116D01*
X586648Y323050D01*
X586160Y322996D01*
X585671Y322954D01*
X585181Y322924D01*
X584691Y322906D01*
X584200Y322900D01*
X583709Y322906D01*
X583219Y322924D01*
X582729Y322954D01*
X582240Y322996D01*
X581752Y323050D01*
X581265Y323116D01*
X580781Y323194D01*
X580298Y323284D01*
X579818Y323386D01*
X579340Y323499D01*
X578866Y323624D01*
X578394Y323761D01*
X577926Y323909D01*
X577462Y324069D01*
X577002Y324240D01*
X576546Y324422D01*
X576095Y324616D01*
X575649Y324820D01*
X575208Y325036D01*
X574772Y325262D01*
X574342Y325498D01*
X573918Y325745D01*
X573500Y326003D01*
X573089Y326271D01*
X572684Y326548D01*
X572286Y326836D01*
X571895Y327133D01*
X571512Y327440D01*
X571137Y327756D01*
X570769Y328081D01*
X570409Y328415D01*
X570058Y328758D01*
X569715Y329109D01*
X569381Y329469D01*
X569056Y329837D01*
X568740Y330212D01*
X568433Y330595D01*
X568136Y330986D01*
X567848Y331384D01*
X567571Y331789D01*
X567303Y332200D01*
X567045Y332618D01*
X566798Y333042D01*
X566562Y333472D01*
X566336Y333908D01*
X566120Y334349D01*
X565916Y334795D01*
X565722Y335246D01*
X565540Y335702D01*
X565369Y336162D01*
X565209Y336626D01*
X565061Y337094D01*
X564924Y337566D01*
X564799Y338040D01*
X564686Y338518D01*
X564584Y338998D01*
X564494Y339481D01*
X564416Y339965D01*
X564350Y340452D01*
X564296Y340940D01*
X564254Y341429D01*
X564224Y341919D01*
X564206Y342409D01*
X564200Y342900D01*
X564200Y546100D02*
X564206Y546591D01*
X564224Y547081D01*
X564254Y547571D01*
X564296Y548060D01*
X564350Y548548D01*
X564416Y549035D01*
X564494Y549519D01*
X564584Y550002D01*
X564686Y550482D01*
X564799Y550960D01*
X564924Y551434D01*
X565061Y551906D01*
X565209Y552374D01*
X565369Y552838D01*
X565540Y553298D01*
X565722Y553754D01*
X565916Y554205D01*
X566120Y554651D01*
X566336Y555092D01*
X566562Y555528D01*
X566798Y555958D01*
X567045Y556382D01*
X567303Y556800D01*
X567571Y557211D01*
X567848Y557616D01*
X568136Y558014D01*
X568433Y558405D01*
X568740Y558788D01*
X569056Y559163D01*
X569381Y559531D01*
X569715Y559891D01*
X570058Y560242D01*
X570409Y560585D01*
X570769Y560919D01*
X571137Y561244D01*
X571512Y561560D01*
X571895Y561867D01*
X572286Y562164D01*
X572684Y562452D01*
X573089Y562729D01*
X573500Y562997D01*
X573918Y563255D01*
X574342Y563502D01*
X574772Y563738D01*
X575208Y563964D01*
X575649Y564180D01*
X576095Y564384D01*
X576546Y564578D01*
X577002Y564760D01*
X577462Y564931D01*
X577926Y565091D01*
X578394Y565239D01*
X578866Y565376D01*
X579340Y565501D01*
X579818Y565614D01*
X580298Y565716D01*
X580781Y565806D01*
X581265Y565884D01*
X581752Y565950D01*
X582240Y566004D01*
X582729Y566046D01*
X583219Y566076D01*
X583709Y566094D01*
X584200Y566100D01*
X584691Y566094D01*
X585181Y566076D01*
X585671Y566046D01*
X586160Y566004D01*
X586648Y565950D01*
X587135Y565884D01*
X587619Y565806D01*
X588102Y565716D01*
X588582Y565614D01*
X589060Y565501D01*
X589534Y565376D01*
X590006Y565239D01*
X590474Y565091D01*
X590938Y564931D01*
X591398Y564760D01*
X591854Y564578D01*
X592305Y564384D01*
X592751Y564180D01*
X593192Y563964D01*
X593628Y563738D01*
X594058Y563502D01*
X594482Y563255D01*
X594900Y562997D01*
X595311Y562729D01*
X595716Y562452D01*
X596114Y562164D01*
X596505Y561867D01*
X596888Y561560D01*
X597263Y561244D01*
X597631Y560919D01*
X597991Y560585D01*
X598342Y560242D01*
X598685Y559891D01*
X599019Y559531D01*
X599344Y559163D01*
X599660Y558788D01*
X599967Y558405D01*
X600264Y558014D01*
X600552Y557616D01*
X600829Y557211D01*
X601097Y556800D01*
X601355Y556382D01*
X601602Y555958D01*
X601838Y555528D01*
X602064Y555092D01*
X602280Y554651D01*
X602484Y554205D01*
X602678Y553754D01*
X602860Y553298D01*
X603031Y552838D01*
X603191Y552374D01*
X603339Y551906D01*
X603476Y551434D01*
X603601Y550960D01*
X603714Y550482D01*
X603816Y550002D01*
X603906Y549519D01*
X603984Y549035D01*
X604050Y548548D01*
X604104Y548060D01*
X604146Y547571D01*
X604176Y547081D01*
X604194Y546591D01*
X604200Y546100D01*
X604194Y545609D01*
X604176Y545119D01*
X604146Y544629D01*
X604104Y544140D01*
X604050Y543652D01*
X603984Y543165D01*
X603906Y542681D01*
X603816Y542198D01*
X603714Y541718D01*
X603601Y541240D01*
X603476Y540766D01*
X603339Y540294D01*
X603191Y539826D01*
X603031Y539362D01*
X602860Y538902D01*
X602678Y538446D01*
X602484Y537995D01*
X602280Y537549D01*
X602064Y537108D01*
X601838Y536672D01*
X601602Y536242D01*
X601355Y535818D01*
X601097Y535400D01*
X600829Y534989D01*
X600552Y534584D01*
X600264Y534186D01*
X599967Y533795D01*
X599660Y533412D01*
X599344Y533037D01*
X599019Y532669D01*
X598685Y532309D01*
X598342Y531958D01*
X597991Y531615D01*
X597631Y531281D01*
X597263Y530956D01*
X596888Y530640D01*
X596505Y530333D01*
X596114Y530036D01*
X595716Y529748D01*
X595311Y529471D01*
X594900Y529203D01*
X594482Y528945D01*
X594058Y528698D01*
X593628Y528462D01*
X593192Y528236D01*
X592751Y528020D01*
X592305Y527816D01*
X591854Y527622D01*
X591398Y527440D01*
X590938Y527269D01*
X590474Y527109D01*
X590006Y526961D01*
X589534Y526824D01*
X589060Y526699D01*
X588582Y526586D01*
X588102Y526484D01*
X587619Y526394D01*
X587135Y526316D01*
X586648Y526250D01*
X586160Y526196D01*
X585671Y526154D01*
X585181Y526124D01*
X584691Y526106D01*
X584200Y526100D01*
X583709Y526106D01*
X583219Y526124D01*
X582729Y526154D01*
X582240Y526196D01*
X581752Y526250D01*
X581265Y526316D01*
X580781Y526394D01*
X580298Y526484D01*
X579818Y526586D01*
X579340Y526699D01*
X578866Y526824D01*
X578394Y526961D01*
X577926Y527109D01*
X577462Y527269D01*
X577002Y527440D01*
X576546Y527622D01*
X576095Y527816D01*
X575649Y528020D01*
X575208Y528236D01*
X574772Y528462D01*
X574342Y528698D01*
X573918Y528945D01*
X573500Y529203D01*
X573089Y529471D01*
X572684Y529748D01*
X572286Y530036D01*
X571895Y530333D01*
X571512Y530640D01*
X571137Y530956D01*
X570769Y531281D01*
X570409Y531615D01*
X570058Y531958D01*
X569715Y532309D01*
X569381Y532669D01*
X569056Y533037D01*
X568740Y533412D01*
X568433Y533795D01*
X568136Y534186D01*
X567848Y534584D01*
X567571Y534989D01*
X567303Y535400D01*
X567045Y535818D01*
X566798Y536242D01*
X566562Y536672D01*
X566336Y537108D01*
X566120Y537549D01*
X565916Y537995D01*
X565722Y538446D01*
X565540Y538902D01*
X565369Y539362D01*
X565209Y539826D01*
X565061Y540294D01*
X564924Y540766D01*
X564799Y541240D01*
X564686Y541718D01*
X564584Y542198D01*
X564494Y542681D01*
X564416Y543165D01*
X564350Y543652D01*
X564296Y544140D01*
X564254Y544629D01*
X564224Y545119D01*
X564206Y545609D01*
X564200Y546100D01*
X703900Y342900D02*
X703906Y343391D01*
X703924Y343881D01*
X703954Y344371D01*
X703996Y344860D01*
X704050Y345348D01*
X704116Y345835D01*
X704194Y346319D01*
X704284Y346802D01*
X704386Y347282D01*
X704499Y347760D01*
X704624Y348234D01*
X704761Y348706D01*
X704909Y349174D01*
X705069Y349638D01*
X705240Y350098D01*
X705422Y350554D01*
X705616Y351005D01*
X705820Y351451D01*
X706036Y351892D01*
X706262Y352328D01*
X706498Y352758D01*
X706745Y353182D01*
X707003Y353600D01*
X707271Y354011D01*
X707548Y354416D01*
X707836Y354814D01*
X708133Y355205D01*
X708440Y355588D01*
X708756Y355963D01*
X709081Y356331D01*
X709415Y356691D01*
X709758Y357042D01*
X710109Y357385D01*
X710469Y357719D01*
X710837Y358044D01*
X711212Y358360D01*
X711595Y358667D01*
X711986Y358964D01*
X712384Y359252D01*
X712789Y359529D01*
X713200Y359797D01*
X713618Y360055D01*
X714042Y360302D01*
X714472Y360538D01*
X714908Y360764D01*
X715349Y360980D01*
X715795Y361184D01*
X716246Y361378D01*
X716702Y361560D01*
X717162Y361731D01*
X717626Y361891D01*
X718094Y362039D01*
X718566Y362176D01*
X719040Y362301D01*
X719518Y362414D01*
X719998Y362516D01*
X720481Y362606D01*
X720965Y362684D01*
X721452Y362750D01*
X721940Y362804D01*
X722429Y362846D01*
X722919Y362876D01*
X723409Y362894D01*
X723900Y362900D01*
X724391Y362894D01*
X724881Y362876D01*
X725371Y362846D01*
X725860Y362804D01*
X726348Y362750D01*
X726835Y362684D01*
X727319Y362606D01*
X727802Y362516D01*
X728282Y362414D01*
X728760Y362301D01*
X729234Y362176D01*
X729706Y362039D01*
X730174Y361891D01*
X730638Y361731D01*
X731098Y361560D01*
X731554Y361378D01*
X732005Y361184D01*
X732451Y360980D01*
X732892Y360764D01*
X733328Y360538D01*
X733758Y360302D01*
X734182Y360055D01*
X734600Y359797D01*
X735011Y359529D01*
X735416Y359252D01*
X735814Y358964D01*
X736205Y358667D01*
X736588Y358360D01*
X736963Y358044D01*
X737331Y357719D01*
X737691Y357385D01*
X738042Y357042D01*
X738385Y356691D01*
X738719Y356331D01*
X739044Y355963D01*
X739360Y355588D01*
X739667Y355205D01*
X739964Y354814D01*
X740252Y354416D01*
X740529Y354011D01*
X740797Y353600D01*
X741055Y353182D01*
X741302Y352758D01*
X741538Y352328D01*
X741764Y351892D01*
X741980Y351451D01*
X742184Y351005D01*
X742378Y350554D01*
X742560Y350098D01*
X742731Y349638D01*
X742891Y349174D01*
X743039Y348706D01*
X743176Y348234D01*
X743301Y347760D01*
X743414Y347282D01*
X743516Y346802D01*
X743606Y346319D01*
X743684Y345835D01*
X743750Y345348D01*
X743804Y344860D01*
X743846Y344371D01*
X743876Y343881D01*
X743894Y343391D01*
X743900Y342900D01*
X743894Y342409D01*
X743876Y341919D01*
X743846Y341429D01*
X743804Y340940D01*
X743750Y340452D01*
X743684Y339965D01*
X743606Y339481D01*
X743516Y338998D01*
X743414Y338518D01*
X743301Y338040D01*
X743176Y337566D01*
X743039Y337094D01*
X742891Y336626D01*
X742731Y336162D01*
X742560Y335702D01*
X742378Y335246D01*
X742184Y334795D01*
X741980Y334349D01*
X741764Y333908D01*
X741538Y333472D01*
X741302Y333042D01*
X741055Y332618D01*
X740797Y332200D01*
X740529Y331789D01*
X740252Y331384D01*
X739964Y330986D01*
X739667Y330595D01*
X739360Y330212D01*
X739044Y329837D01*
X738719Y329469D01*
X738385Y329109D01*
X738042Y328758D01*
X737691Y328415D01*
X737331Y328081D01*
X736963Y327756D01*
X736588Y327440D01*
X736205Y327133D01*
X735814Y326836D01*
X735416Y326548D01*
X735011Y326271D01*
X734600Y326003D01*
X734182Y325745D01*
X733758Y325498D01*
X733328Y325262D01*
X732892Y325036D01*
X732451Y324820D01*
X732005Y324616D01*
X731554Y324422D01*
X731098Y324240D01*
X730638Y324069D01*
X730174Y323909D01*
X729706Y323761D01*
X729234Y323624D01*
X728760Y323499D01*
X728282Y323386D01*
X727802Y323284D01*
X727319Y323194D01*
X726835Y323116D01*
X726348Y323050D01*
X725860Y322996D01*
X725371Y322954D01*
X724881Y322924D01*
X724391Y322906D01*
X723900Y322900D01*
X723409Y322906D01*
X722919Y322924D01*
X722429Y322954D01*
X721940Y322996D01*
X721452Y323050D01*
X720965Y323116D01*
X720481Y323194D01*
X719998Y323284D01*
X719518Y323386D01*
X719040Y323499D01*
X718566Y323624D01*
X718094Y323761D01*
X717626Y323909D01*
X717162Y324069D01*
X716702Y324240D01*
X716246Y324422D01*
X715795Y324616D01*
X715349Y324820D01*
X714908Y325036D01*
X714472Y325262D01*
X714042Y325498D01*
X713618Y325745D01*
X713200Y326003D01*
X712789Y326271D01*
X712384Y326548D01*
X711986Y326836D01*
X711595Y327133D01*
X711212Y327440D01*
X710837Y327756D01*
X710469Y328081D01*
X710109Y328415D01*
X709758Y328758D01*
X709415Y329109D01*
X709081Y329469D01*
X708756Y329837D01*
X708440Y330212D01*
X708133Y330595D01*
X707836Y330986D01*
X707548Y331384D01*
X707271Y331789D01*
X707003Y332200D01*
X706745Y332618D01*
X706498Y333042D01*
X706262Y333472D01*
X706036Y333908D01*
X705820Y334349D01*
X705616Y334795D01*
X705422Y335246D01*
X705240Y335702D01*
X705069Y336162D01*
X704909Y336626D01*
X704761Y337094D01*
X704624Y337566D01*
X704499Y338040D01*
X704386Y338518D01*
X704284Y338998D01*
X704194Y339481D01*
X704116Y339965D01*
X704050Y340452D01*
X703996Y340940D01*
X703954Y341429D01*
X703924Y341919D01*
X703906Y342409D01*
X703900Y342900D01*
X703900Y546100D02*
X703906Y546591D01*
X703924Y547081D01*
X703954Y547571D01*
X703996Y548060D01*
X704050Y548548D01*
X704116Y549035D01*
X704194Y549519D01*
X704284Y550002D01*
X704386Y550482D01*
X704499Y550960D01*
X704624Y551434D01*
X704761Y551906D01*
X704909Y552374D01*
X705069Y552838D01*
X705240Y553298D01*
X705422Y553754D01*
X705616Y554205D01*
X705820Y554651D01*
X706036Y555092D01*
X706262Y555528D01*
X706498Y555958D01*
X706745Y556382D01*
X707003Y556800D01*
X707271Y557211D01*
X707548Y557616D01*
X707836Y558014D01*
X708133Y558405D01*
X708440Y558788D01*
X708756Y559163D01*
X709081Y559531D01*
X709415Y559891D01*
X709758Y560242D01*
X710109Y560585D01*
X710469Y560919D01*
X710837Y561244D01*
X711212Y561560D01*
X711595Y561867D01*
X711986Y562164D01*
X712384Y562452D01*
X712789Y562729D01*
X713200Y562997D01*
X713618Y563255D01*
X714042Y563502D01*
X714472Y563738D01*
X714908Y563964D01*
X715349Y564180D01*
X715795Y564384D01*
X716246Y564578D01*
X716702Y564760D01*
X717162Y564931D01*
X717626Y565091D01*
X718094Y565239D01*
X718566Y565376D01*
X719040Y565501D01*
X719518Y565614D01*
X719998Y565716D01*
X720481Y565806D01*
X720965Y565884D01*
X721452Y565950D01*
X721940Y566004D01*
X722429Y566046D01*
X722919Y566076D01*
X723409Y566094D01*
X723900Y566100D01*
X724391Y566094D01*
X724881Y566076D01*
X725371Y566046D01*
X725860Y566004D01*
X726348Y565950D01*
X726835Y565884D01*
X727319Y565806D01*
X727802Y565716D01*
X728282Y565614D01*
X728760Y565501D01*
X729234Y565376D01*
X729706Y565239D01*
X730174Y565091D01*
X730638Y564931D01*
X731098Y564760D01*
X731554Y564578D01*
X732005Y564384D01*
X732451Y564180D01*
X732892Y563964D01*
X733328Y563738D01*
X733758Y563502D01*
X734182Y563255D01*
X734600Y562997D01*
X735011Y562729D01*
X735416Y562452D01*
X735814Y562164D01*
X736205Y561867D01*
X736588Y561560D01*
X736963Y561244D01*
X737331Y560919D01*
X737691Y560585D01*
X738042Y560242D01*
X738385Y559891D01*
X738719Y559531D01*
X739044Y559163D01*
X739360Y558788D01*
X739667Y558405D01*
X739964Y558014D01*
X740252Y557616D01*
X740529Y557211D01*
X740797Y556800D01*
X741055Y556382D01*
X741302Y555958D01*
X741538Y555528D01*
X741764Y555092D01*
X741980Y554651D01*
X742184Y554205D01*
X742378Y553754D01*
X742560Y553298D01*
X742731Y552838D01*
X742891Y552374D01*
X743039Y551906D01*
X743176Y551434D01*
X743301Y550960D01*
X743414Y550482D01*
X743516Y550002D01*
X743606Y549519D01*
X743684Y549035D01*
X743750Y548548D01*
X743804Y548060D01*
X743846Y547571D01*
X743876Y547081D01*
X743894Y546591D01*
X743900Y546100D01*
X743894Y545609D01*
X743876Y545119D01*
X743846Y544629D01*
X743804Y544140D01*
X743750Y543652D01*
X743684Y543165D01*
X743606Y542681D01*
X743516Y542198D01*
X743414Y541718D01*
X743301Y541240D01*
X743176Y540766D01*
X743039Y540294D01*
X742891Y539826D01*
X742731Y539362D01*
X742560Y538902D01*
X742378Y538446D01*
X742184Y537995D01*
X741980Y537549D01*
X741764Y537108D01*
X741538Y536672D01*
X741302Y536242D01*
X741055Y535818D01*
X740797Y535400D01*
X740529Y534989D01*
X740252Y534584D01*
X739964Y534186D01*
X739667Y533795D01*
X739360Y533412D01*
X739044Y533037D01*
X738719Y532669D01*
X738385Y532309D01*
X738042Y531958D01*
X737691Y531615D01*
X737331Y531281D01*
X736963Y530956D01*
X736588Y530640D01*
X736205Y530333D01*
X735814Y530036D01*
X735416Y529748D01*
X735011Y529471D01*
X734600Y529203D01*
X734182Y528945D01*
X733758Y528698D01*
X733328Y528462D01*
X732892Y528236D01*
X732451Y528020D01*
X732005Y527816D01*
X731554Y527622D01*
X731098Y527440D01*
X730638Y527269D01*
X730174Y527109D01*
X729706Y526961D01*
X729234Y526824D01*
X728760Y526699D01*
X728282Y526586D01*
X727802Y526484D01*
X727319Y526394D01*
X726835Y526316D01*
X726348Y526250D01*
X725860Y526196D01*
X725371Y526154D01*
X724881Y526124D01*
X724391Y526106D01*
X723900Y526100D01*
X723409Y526106D01*
X722919Y526124D01*
X722429Y526154D01*
X721940Y526196D01*
X721452Y526250D01*
X720965Y526316D01*
X720481Y526394D01*
X719998Y526484D01*
X719518Y526586D01*
X719040Y526699D01*
X718566Y526824D01*
X718094Y526961D01*
X717626Y527109D01*
X717162Y527269D01*
X716702Y527440D01*
X716246Y527622D01*
X715795Y527816D01*
X715349Y528020D01*
X714908Y528236D01*
X714472Y528462D01*
X714042Y528698D01*
X713618Y528945D01*
X713200Y529203D01*
X712789Y529471D01*
X712384Y529748D01*
X711986Y530036D01*
X711595Y530333D01*
X711212Y530640D01*
X710837Y530956D01*
X710469Y531281D01*
X710109Y531615D01*
X709758Y531958D01*
X709415Y532309D01*
X709081Y532669D01*
X708756Y533037D01*
X708440Y533412D01*
X708133Y533795D01*
X707836Y534186D01*
X707548Y534584D01*
X707271Y534989D01*
X707003Y535400D01*
X706745Y535818D01*
X706498Y536242D01*
X706262Y536672D01*
X706036Y537108D01*
X705820Y537549D01*
X705616Y537995D01*
X705422Y538446D01*
X705240Y538902D01*
X705069Y539362D01*
X704909Y539826D01*
X704761Y540294D01*
X704624Y540766D01*
X704499Y541240D01*
X704386Y541718D01*
X704284Y542198D01*
X704194Y542681D01*
X704116Y543165D01*
X704050Y543652D01*
X703996Y544140D01*
X703954Y544629D01*
X703924Y545119D01*
X703906Y545609D01*
X703900Y546100D01*
D11*
X723900Y317500D02*
X584200Y317500D01*
X723900Y317500D02*
X724514Y317507D01*
X725127Y317530D01*
X725740Y317567D01*
X726351Y317619D01*
X726962Y317685D01*
X727570Y317767D01*
X728176Y317863D01*
X728780Y317973D01*
X729381Y318098D01*
X729979Y318238D01*
X730573Y318392D01*
X731163Y318561D01*
X731749Y318743D01*
X732330Y318940D01*
X732907Y319151D01*
X733478Y319375D01*
X734044Y319613D01*
X734604Y319865D01*
X735157Y320131D01*
X735704Y320409D01*
X736244Y320701D01*
X736777Y321006D01*
X737302Y321324D01*
X737820Y321654D01*
X738329Y321996D01*
X738830Y322351D01*
X739322Y322718D01*
X739805Y323096D01*
X740279Y323486D01*
X740743Y323888D01*
X741198Y324300D01*
X741642Y324724D01*
X742076Y325158D01*
X742500Y325602D01*
X742912Y326057D01*
X743314Y326521D01*
X743704Y326995D01*
X744082Y327478D01*
X744449Y327970D01*
X744804Y328471D01*
X745146Y328980D01*
X745476Y329498D01*
X745794Y330023D01*
X746099Y330556D01*
X746391Y331096D01*
X746669Y331643D01*
X746935Y332196D01*
X747187Y332756D01*
X747425Y333322D01*
X747649Y333893D01*
X747860Y334470D01*
X748057Y335051D01*
X748239Y335637D01*
X748408Y336227D01*
X748562Y336821D01*
X748702Y337419D01*
X748827Y338020D01*
X748937Y338624D01*
X749033Y339230D01*
X749115Y339838D01*
X749181Y340449D01*
X749233Y341060D01*
X749270Y341673D01*
X749293Y342286D01*
X749300Y342900D01*
X749300Y546100D01*
X749293Y546714D01*
X749270Y547327D01*
X749233Y547940D01*
X749181Y548551D01*
X749115Y549162D01*
X749033Y549770D01*
X748937Y550376D01*
X748827Y550980D01*
X748702Y551581D01*
X748562Y552179D01*
X748408Y552773D01*
X748239Y553363D01*
X748057Y553949D01*
X747860Y554530D01*
X747649Y555107D01*
X747425Y555678D01*
X747187Y556244D01*
X746935Y556804D01*
X746669Y557357D01*
X746391Y557904D01*
X746099Y558444D01*
X745794Y558977D01*
X745476Y559502D01*
X745146Y560020D01*
X744804Y560529D01*
X744449Y561030D01*
X744082Y561522D01*
X743704Y562005D01*
X743314Y562479D01*
X742912Y562943D01*
X742500Y563398D01*
X742076Y563842D01*
X741642Y564276D01*
X741198Y564700D01*
X740743Y565112D01*
X740279Y565514D01*
X739805Y565904D01*
X739322Y566282D01*
X738830Y566649D01*
X738329Y567004D01*
X737820Y567346D01*
X737302Y567676D01*
X736777Y567994D01*
X736244Y568299D01*
X735704Y568591D01*
X735157Y568869D01*
X734604Y569135D01*
X734044Y569387D01*
X733478Y569625D01*
X732907Y569849D01*
X732330Y570060D01*
X731749Y570257D01*
X731163Y570439D01*
X730573Y570608D01*
X729979Y570762D01*
X729381Y570902D01*
X728780Y571027D01*
X728176Y571137D01*
X727570Y571233D01*
X726962Y571315D01*
X726351Y571381D01*
X725740Y571433D01*
X725127Y571470D01*
X724514Y571493D01*
X723900Y571500D01*
X584200Y571500D01*
X583586Y571493D01*
X582973Y571470D01*
X582360Y571433D01*
X581749Y571381D01*
X581138Y571315D01*
X580530Y571233D01*
X579924Y571137D01*
X579320Y571027D01*
X578719Y570902D01*
X578121Y570762D01*
X577527Y570608D01*
X576937Y570439D01*
X576351Y570257D01*
X575770Y570060D01*
X575193Y569849D01*
X574622Y569625D01*
X574056Y569387D01*
X573496Y569135D01*
X572943Y568869D01*
X572396Y568591D01*
X571856Y568299D01*
X571323Y567994D01*
X570798Y567676D01*
X570280Y567346D01*
X569771Y567004D01*
X569270Y566649D01*
X568778Y566282D01*
X568295Y565904D01*
X567821Y565514D01*
X567357Y565112D01*
X566902Y564700D01*
X566458Y564276D01*
X566024Y563842D01*
X565600Y563398D01*
X565188Y562943D01*
X564786Y562479D01*
X564396Y562005D01*
X564018Y561522D01*
X563651Y561030D01*
X563296Y560529D01*
X562954Y560020D01*
X562624Y559502D01*
X562306Y558977D01*
X562001Y558444D01*
X561709Y557904D01*
X561431Y557357D01*
X561165Y556804D01*
X560913Y556244D01*
X560675Y555678D01*
X560451Y555107D01*
X560240Y554530D01*
X560043Y553949D01*
X559861Y553363D01*
X559692Y552773D01*
X559538Y552179D01*
X559398Y551581D01*
X559273Y550980D01*
X559163Y550376D01*
X559067Y549770D01*
X558985Y549162D01*
X558919Y548551D01*
X558867Y547940D01*
X558830Y547327D01*
X558807Y546714D01*
X558800Y546100D01*
X558800Y342900D01*
X558807Y342286D01*
X558830Y341673D01*
X558867Y341060D01*
X558919Y340449D01*
X558985Y339838D01*
X559067Y339230D01*
X559163Y338624D01*
X559273Y338020D01*
X559398Y337419D01*
X559538Y336821D01*
X559692Y336227D01*
X559861Y335637D01*
X560043Y335051D01*
X560240Y334470D01*
X560451Y333893D01*
X560675Y333322D01*
X560913Y332756D01*
X561165Y332196D01*
X561431Y331643D01*
X561709Y331096D01*
X562001Y330556D01*
X562306Y330023D01*
X562624Y329498D01*
X562954Y328980D01*
X563296Y328471D01*
X563651Y327970D01*
X564018Y327478D01*
X564396Y326995D01*
X564786Y326521D01*
X565188Y326057D01*
X565600Y325602D01*
X566024Y325158D01*
X566458Y324724D01*
X566902Y324300D01*
X567357Y323888D01*
X567821Y323486D01*
X568295Y323096D01*
X568778Y322718D01*
X569270Y322351D01*
X569771Y321996D01*
X570280Y321654D01*
X570798Y321324D01*
X571323Y321006D01*
X571856Y320701D01*
X572396Y320409D01*
X572943Y320131D01*
X573496Y319865D01*
X574056Y319613D01*
X574622Y319375D01*
X575193Y319151D01*
X575770Y318940D01*
X576351Y318743D01*
X576937Y318561D01*
X577527Y318392D01*
X578121Y318238D01*
X578719Y318098D01*
X579320Y317973D01*
X579924Y317863D01*
X580530Y317767D01*
X581138Y317685D01*
X581749Y317619D01*
X582360Y317567D01*
X582973Y317530D01*
X583586Y317507D01*
X584200Y317500D01*
D12*
X635762Y410266D02*
X646938Y410266D01*
X635762Y407162D02*
X635762Y413371D01*
X644454Y423658D02*
X644552Y423656D01*
X644649Y423650D01*
X644746Y423641D01*
X644843Y423627D01*
X644939Y423610D01*
X645034Y423589D01*
X645128Y423565D01*
X645222Y423536D01*
X645314Y423504D01*
X645405Y423469D01*
X645494Y423430D01*
X645582Y423387D01*
X645668Y423341D01*
X645752Y423292D01*
X645834Y423239D01*
X645914Y423184D01*
X645992Y423125D01*
X646067Y423063D01*
X646140Y422998D01*
X646210Y422930D01*
X646278Y422860D01*
X646343Y422787D01*
X646405Y422712D01*
X646464Y422634D01*
X646519Y422554D01*
X646572Y422472D01*
X646621Y422388D01*
X646667Y422302D01*
X646710Y422214D01*
X646749Y422125D01*
X646784Y422034D01*
X646816Y421942D01*
X646845Y421848D01*
X646869Y421754D01*
X646890Y421659D01*
X646907Y421563D01*
X646921Y421466D01*
X646930Y421369D01*
X646936Y421271D01*
X646938Y421174D01*
X646936Y421031D01*
X646930Y420888D01*
X646921Y420746D01*
X646907Y420604D01*
X646889Y420462D01*
X646868Y420321D01*
X646843Y420180D01*
X646814Y420040D01*
X646781Y419901D01*
X646745Y419763D01*
X646704Y419626D01*
X646660Y419490D01*
X646613Y419355D01*
X646561Y419222D01*
X646506Y419090D01*
X646448Y418960D01*
X646386Y418831D01*
X646320Y418704D01*
X646251Y418579D01*
X646179Y418456D01*
X646103Y418335D01*
X646025Y418216D01*
X645942Y418099D01*
X645857Y417984D01*
X645769Y417872D01*
X645677Y417762D01*
X645583Y417655D01*
X645486Y417550D01*
X645386Y417448D01*
X638246Y417759D02*
X638148Y417761D01*
X638051Y417767D01*
X637954Y417776D01*
X637857Y417790D01*
X637761Y417807D01*
X637666Y417828D01*
X637572Y417852D01*
X637478Y417881D01*
X637386Y417913D01*
X637295Y417948D01*
X637206Y417987D01*
X637118Y418030D01*
X637032Y418076D01*
X636948Y418125D01*
X636866Y418178D01*
X636786Y418233D01*
X636708Y418292D01*
X636633Y418354D01*
X636560Y418419D01*
X636490Y418487D01*
X636422Y418557D01*
X636357Y418630D01*
X636295Y418705D01*
X636236Y418783D01*
X636181Y418863D01*
X636128Y418945D01*
X636079Y419029D01*
X636033Y419115D01*
X635990Y419203D01*
X635951Y419292D01*
X635916Y419383D01*
X635884Y419475D01*
X635855Y419569D01*
X635831Y419663D01*
X635810Y419758D01*
X635793Y419854D01*
X635779Y419951D01*
X635770Y420048D01*
X635764Y420145D01*
X635762Y420243D01*
X635764Y420373D01*
X635769Y420503D01*
X635778Y420633D01*
X635791Y420763D01*
X635807Y420892D01*
X635827Y421021D01*
X635851Y421149D01*
X635878Y421277D01*
X635909Y421403D01*
X635943Y421529D01*
X635981Y421654D01*
X636022Y421777D01*
X636067Y421900D01*
X636115Y422021D01*
X636166Y422141D01*
X636221Y422259D01*
X636279Y422375D01*
X636340Y422490D01*
X636405Y422604D01*
X636472Y422715D01*
X636543Y422824D01*
X636617Y422932D01*
X636693Y423037D01*
X640419Y419002D02*
X640368Y418919D01*
X640314Y418838D01*
X640257Y418760D01*
X640197Y418684D01*
X640134Y418610D01*
X640068Y418539D01*
X640000Y418470D01*
X639929Y418404D01*
X639856Y418340D01*
X639780Y418280D01*
X639702Y418223D01*
X639621Y418168D01*
X639539Y418117D01*
X639455Y418069D01*
X639369Y418024D01*
X639281Y417982D01*
X639192Y417944D01*
X639102Y417910D01*
X639010Y417878D01*
X638917Y417851D01*
X638823Y417827D01*
X638728Y417806D01*
X638632Y417790D01*
X638536Y417777D01*
X638440Y417767D01*
X638343Y417762D01*
X638246Y417760D01*
X642281Y422415D02*
X642332Y422498D01*
X642386Y422579D01*
X642443Y422657D01*
X642503Y422733D01*
X642566Y422807D01*
X642632Y422878D01*
X642700Y422947D01*
X642771Y423013D01*
X642844Y423077D01*
X642920Y423137D01*
X642998Y423194D01*
X643079Y423249D01*
X643161Y423300D01*
X643245Y423348D01*
X643331Y423393D01*
X643419Y423435D01*
X643508Y423473D01*
X643598Y423507D01*
X643690Y423539D01*
X643783Y423566D01*
X643877Y423590D01*
X643972Y423611D01*
X644068Y423627D01*
X644164Y423640D01*
X644260Y423650D01*
X644357Y423655D01*
X644454Y423657D01*
X642281Y422416D02*
X640419Y419001D01*
X646938Y430940D02*
X646938Y433424D01*
X646938Y430940D02*
X646936Y430842D01*
X646930Y430745D01*
X646921Y430648D01*
X646907Y430551D01*
X646890Y430455D01*
X646869Y430360D01*
X646845Y430266D01*
X646816Y430172D01*
X646784Y430080D01*
X646749Y429989D01*
X646710Y429900D01*
X646667Y429812D01*
X646621Y429726D01*
X646572Y429642D01*
X646519Y429560D01*
X646464Y429480D01*
X646405Y429402D01*
X646343Y429327D01*
X646278Y429254D01*
X646210Y429184D01*
X646140Y429116D01*
X646067Y429051D01*
X645992Y428989D01*
X645914Y428930D01*
X645834Y428875D01*
X645752Y428822D01*
X645668Y428773D01*
X645582Y428727D01*
X645494Y428684D01*
X645405Y428645D01*
X645314Y428610D01*
X645222Y428578D01*
X645128Y428549D01*
X645034Y428525D01*
X644939Y428504D01*
X644843Y428487D01*
X644746Y428473D01*
X644649Y428464D01*
X644552Y428458D01*
X644454Y428456D01*
X644454Y428457D02*
X638246Y428457D01*
X638246Y428456D02*
X638148Y428458D01*
X638051Y428464D01*
X637954Y428473D01*
X637857Y428487D01*
X637761Y428504D01*
X637666Y428525D01*
X637572Y428549D01*
X637478Y428578D01*
X637386Y428610D01*
X637295Y428645D01*
X637206Y428684D01*
X637118Y428727D01*
X637032Y428773D01*
X636948Y428822D01*
X636866Y428875D01*
X636786Y428930D01*
X636708Y428989D01*
X636633Y429051D01*
X636560Y429116D01*
X636490Y429184D01*
X636422Y429254D01*
X636357Y429327D01*
X636295Y429402D01*
X636236Y429480D01*
X636181Y429560D01*
X636128Y429642D01*
X636079Y429726D01*
X636033Y429812D01*
X635990Y429900D01*
X635951Y429989D01*
X635916Y430080D01*
X635884Y430172D01*
X635855Y430266D01*
X635831Y430360D01*
X635810Y430455D01*
X635793Y430551D01*
X635779Y430648D01*
X635770Y430745D01*
X635764Y430842D01*
X635762Y430940D01*
X635762Y433424D01*
X635762Y441438D02*
X635764Y441542D01*
X635770Y441647D01*
X635780Y441751D01*
X635793Y441854D01*
X635811Y441957D01*
X635832Y442060D01*
X635857Y442161D01*
X635886Y442262D01*
X635919Y442361D01*
X635955Y442459D01*
X635995Y442555D01*
X636039Y442650D01*
X636086Y442744D01*
X636136Y442835D01*
X636190Y442924D01*
X636247Y443012D01*
X636308Y443097D01*
X636372Y443180D01*
X636438Y443260D01*
X636508Y443338D01*
X636580Y443414D01*
X636656Y443486D01*
X636734Y443556D01*
X636814Y443622D01*
X636897Y443686D01*
X636982Y443747D01*
X637070Y443804D01*
X637159Y443858D01*
X637250Y443908D01*
X637344Y443955D01*
X637439Y443999D01*
X637535Y444039D01*
X637633Y444075D01*
X637732Y444108D01*
X637833Y444137D01*
X637934Y444162D01*
X638037Y444183D01*
X638140Y444201D01*
X638243Y444214D01*
X638347Y444224D01*
X638452Y444230D01*
X638556Y444232D01*
X635762Y441438D02*
X635764Y441319D01*
X635770Y441201D01*
X635780Y441082D01*
X635793Y440964D01*
X635811Y440847D01*
X635833Y440730D01*
X635858Y440614D01*
X635887Y440499D01*
X635920Y440384D01*
X635957Y440271D01*
X635997Y440160D01*
X636041Y440049D01*
X636089Y439941D01*
X636140Y439834D01*
X636195Y439728D01*
X636254Y439625D01*
X636315Y439523D01*
X636380Y439424D01*
X636449Y439326D01*
X636520Y439232D01*
X636595Y439139D01*
X636672Y439049D01*
X636753Y438962D01*
X636836Y438877D01*
X636922Y438795D01*
X637011Y438716D01*
X637102Y438640D01*
X637196Y438567D01*
X637292Y438498D01*
X637391Y438431D01*
X637491Y438368D01*
X637594Y438308D01*
X637698Y438251D01*
X637805Y438199D01*
X637913Y438149D01*
X638022Y438103D01*
X638134Y438061D01*
X638246Y438023D01*
X640729Y443301D02*
X640655Y443376D01*
X640578Y443448D01*
X640499Y443518D01*
X640417Y443585D01*
X640333Y443649D01*
X640247Y443710D01*
X640159Y443768D01*
X640068Y443823D01*
X639976Y443875D01*
X639882Y443923D01*
X639787Y443968D01*
X639689Y444010D01*
X639591Y444048D01*
X639491Y444083D01*
X639390Y444114D01*
X639288Y444141D01*
X639185Y444165D01*
X639082Y444186D01*
X638977Y444202D01*
X638872Y444215D01*
X638767Y444225D01*
X638662Y444230D01*
X638556Y444232D01*
X640729Y443301D02*
X646938Y438023D01*
X646938Y444232D01*
X641350Y449453D02*
X641130Y449456D01*
X640910Y449463D01*
X640691Y449477D01*
X640472Y449495D01*
X640253Y449519D01*
X640035Y449547D01*
X639818Y449581D01*
X639602Y449620D01*
X639386Y449665D01*
X639172Y449714D01*
X638959Y449769D01*
X638747Y449828D01*
X638537Y449893D01*
X638329Y449963D01*
X638122Y450037D01*
X637917Y450117D01*
X637714Y450201D01*
X637513Y450290D01*
X637314Y450384D01*
X637225Y450417D01*
X637137Y450453D01*
X637051Y450493D01*
X636966Y450536D01*
X636884Y450583D01*
X636803Y450634D01*
X636725Y450687D01*
X636649Y450744D01*
X636575Y450804D01*
X636504Y450867D01*
X636435Y450932D01*
X636369Y451001D01*
X636307Y451072D01*
X636247Y451146D01*
X636190Y451222D01*
X636136Y451300D01*
X636086Y451381D01*
X636039Y451463D01*
X635996Y451548D01*
X635956Y451634D01*
X635919Y451722D01*
X635887Y451811D01*
X635858Y451901D01*
X635832Y451993D01*
X635811Y452085D01*
X635793Y452179D01*
X635780Y452273D01*
X635770Y452367D01*
X635764Y452462D01*
X635762Y452557D01*
X635764Y452652D01*
X635770Y452747D01*
X635780Y452841D01*
X635793Y452935D01*
X635811Y453029D01*
X635832Y453121D01*
X635858Y453213D01*
X635887Y453303D01*
X635919Y453392D01*
X635956Y453480D01*
X635996Y453566D01*
X636039Y453651D01*
X636086Y453733D01*
X636136Y453814D01*
X636190Y453892D01*
X636247Y453968D01*
X636307Y454042D01*
X636369Y454113D01*
X636435Y454182D01*
X636504Y454247D01*
X636575Y454310D01*
X636649Y454370D01*
X636725Y454427D01*
X636803Y454480D01*
X636884Y454531D01*
X636967Y454578D01*
X637051Y454621D01*
X637137Y454661D01*
X637225Y454697D01*
X637314Y454730D01*
X637314Y454731D02*
X637513Y454825D01*
X637714Y454914D01*
X637917Y454998D01*
X638122Y455078D01*
X638329Y455152D01*
X638537Y455222D01*
X638747Y455287D01*
X638959Y455346D01*
X639172Y455401D01*
X639386Y455450D01*
X639602Y455495D01*
X639818Y455534D01*
X640035Y455568D01*
X640253Y455596D01*
X640472Y455620D01*
X640691Y455638D01*
X640910Y455652D01*
X641130Y455659D01*
X641350Y455662D01*
X641350Y449453D02*
X641570Y449456D01*
X641790Y449463D01*
X642009Y449477D01*
X642228Y449495D01*
X642447Y449519D01*
X642665Y449547D01*
X642882Y449581D01*
X643098Y449620D01*
X643314Y449665D01*
X643528Y449714D01*
X643741Y449769D01*
X643953Y449828D01*
X644163Y449893D01*
X644371Y449963D01*
X644578Y450037D01*
X644783Y450117D01*
X644986Y450201D01*
X645187Y450290D01*
X645386Y450384D01*
X645475Y450417D01*
X645563Y450453D01*
X645649Y450493D01*
X645734Y450536D01*
X645816Y450583D01*
X645897Y450634D01*
X645975Y450687D01*
X646051Y450744D01*
X646125Y450804D01*
X646196Y450867D01*
X646265Y450932D01*
X646331Y451001D01*
X646393Y451072D01*
X646453Y451146D01*
X646510Y451222D01*
X646564Y451300D01*
X646614Y451381D01*
X646661Y451463D01*
X646704Y451548D01*
X646744Y451634D01*
X646781Y451722D01*
X646813Y451811D01*
X646842Y451901D01*
X646868Y451993D01*
X646889Y452085D01*
X646907Y452179D01*
X646920Y452273D01*
X646930Y452367D01*
X646936Y452462D01*
X646938Y452557D01*
X645386Y454731D02*
X645187Y454825D01*
X644986Y454914D01*
X644783Y454998D01*
X644578Y455078D01*
X644371Y455152D01*
X644163Y455222D01*
X643953Y455287D01*
X643741Y455346D01*
X643528Y455401D01*
X643314Y455450D01*
X643098Y455495D01*
X642882Y455534D01*
X642665Y455568D01*
X642447Y455596D01*
X642228Y455620D01*
X642009Y455638D01*
X641790Y455652D01*
X641570Y455659D01*
X641350Y455662D01*
X645386Y454730D02*
X645475Y454697D01*
X645563Y454661D01*
X645649Y454621D01*
X645734Y454578D01*
X645816Y454531D01*
X645897Y454480D01*
X645975Y454427D01*
X646051Y454370D01*
X646125Y454310D01*
X646196Y454247D01*
X646265Y454182D01*
X646331Y454113D01*
X646393Y454042D01*
X646453Y453968D01*
X646510Y453892D01*
X646564Y453814D01*
X646614Y453733D01*
X646661Y453651D01*
X646704Y453566D01*
X646744Y453480D01*
X646781Y453392D01*
X646813Y453303D01*
X646842Y453213D01*
X646868Y453121D01*
X646889Y453029D01*
X646907Y452935D01*
X646920Y452841D01*
X646930Y452747D01*
X646936Y452652D01*
X646938Y452557D01*
X644454Y450074D02*
X638246Y455041D01*
X641350Y460883D02*
X641130Y460886D01*
X640910Y460893D01*
X640691Y460907D01*
X640472Y460925D01*
X640253Y460949D01*
X640035Y460977D01*
X639818Y461011D01*
X639602Y461050D01*
X639386Y461095D01*
X639172Y461144D01*
X638959Y461199D01*
X638747Y461258D01*
X638537Y461323D01*
X638329Y461393D01*
X638122Y461467D01*
X637917Y461547D01*
X637714Y461631D01*
X637513Y461720D01*
X637314Y461814D01*
X637225Y461847D01*
X637137Y461883D01*
X637051Y461923D01*
X636966Y461966D01*
X636884Y462013D01*
X636803Y462064D01*
X636725Y462117D01*
X636649Y462174D01*
X636575Y462234D01*
X636504Y462297D01*
X636435Y462362D01*
X636369Y462431D01*
X636307Y462502D01*
X636247Y462576D01*
X636190Y462652D01*
X636136Y462730D01*
X636086Y462811D01*
X636039Y462893D01*
X635996Y462978D01*
X635956Y463064D01*
X635919Y463152D01*
X635887Y463241D01*
X635858Y463331D01*
X635832Y463423D01*
X635811Y463515D01*
X635793Y463609D01*
X635780Y463703D01*
X635770Y463797D01*
X635764Y463892D01*
X635762Y463987D01*
X635764Y464082D01*
X635770Y464177D01*
X635780Y464271D01*
X635793Y464365D01*
X635811Y464459D01*
X635832Y464551D01*
X635858Y464643D01*
X635887Y464733D01*
X635919Y464822D01*
X635956Y464910D01*
X635996Y464996D01*
X636039Y465081D01*
X636086Y465163D01*
X636136Y465244D01*
X636190Y465322D01*
X636247Y465398D01*
X636307Y465472D01*
X636369Y465543D01*
X636435Y465612D01*
X636504Y465677D01*
X636575Y465740D01*
X636649Y465800D01*
X636725Y465857D01*
X636803Y465910D01*
X636884Y465961D01*
X636967Y466008D01*
X637051Y466051D01*
X637137Y466091D01*
X637225Y466127D01*
X637314Y466160D01*
X637314Y466161D02*
X637513Y466255D01*
X637714Y466344D01*
X637917Y466428D01*
X638122Y466508D01*
X638329Y466582D01*
X638537Y466652D01*
X638747Y466717D01*
X638959Y466776D01*
X639172Y466831D01*
X639386Y466880D01*
X639602Y466925D01*
X639818Y466964D01*
X640035Y466998D01*
X640253Y467026D01*
X640472Y467050D01*
X640691Y467068D01*
X640910Y467082D01*
X641130Y467089D01*
X641350Y467092D01*
X641350Y460883D02*
X641570Y460886D01*
X641790Y460893D01*
X642009Y460907D01*
X642228Y460925D01*
X642447Y460949D01*
X642665Y460977D01*
X642882Y461011D01*
X643098Y461050D01*
X643314Y461095D01*
X643528Y461144D01*
X643741Y461199D01*
X643953Y461258D01*
X644163Y461323D01*
X644371Y461393D01*
X644578Y461467D01*
X644783Y461547D01*
X644986Y461631D01*
X645187Y461720D01*
X645386Y461814D01*
X645475Y461847D01*
X645563Y461883D01*
X645649Y461923D01*
X645734Y461966D01*
X645816Y462013D01*
X645897Y462064D01*
X645975Y462117D01*
X646051Y462174D01*
X646125Y462234D01*
X646196Y462297D01*
X646265Y462362D01*
X646331Y462431D01*
X646393Y462502D01*
X646453Y462576D01*
X646510Y462652D01*
X646564Y462730D01*
X646614Y462811D01*
X646661Y462893D01*
X646704Y462978D01*
X646744Y463064D01*
X646781Y463152D01*
X646813Y463241D01*
X646842Y463331D01*
X646868Y463423D01*
X646889Y463515D01*
X646907Y463609D01*
X646920Y463703D01*
X646930Y463797D01*
X646936Y463892D01*
X646938Y463987D01*
X645386Y466161D02*
X645187Y466255D01*
X644986Y466344D01*
X644783Y466428D01*
X644578Y466508D01*
X644371Y466582D01*
X644163Y466652D01*
X643953Y466717D01*
X643741Y466776D01*
X643528Y466831D01*
X643314Y466880D01*
X643098Y466925D01*
X642882Y466964D01*
X642665Y466998D01*
X642447Y467026D01*
X642228Y467050D01*
X642009Y467068D01*
X641790Y467082D01*
X641570Y467089D01*
X641350Y467092D01*
X645386Y466160D02*
X645475Y466127D01*
X645563Y466091D01*
X645649Y466051D01*
X645734Y466008D01*
X645816Y465961D01*
X645897Y465910D01*
X645975Y465857D01*
X646051Y465800D01*
X646125Y465740D01*
X646196Y465677D01*
X646265Y465612D01*
X646331Y465543D01*
X646393Y465472D01*
X646453Y465398D01*
X646510Y465322D01*
X646564Y465244D01*
X646614Y465163D01*
X646661Y465081D01*
X646704Y464996D01*
X646744Y464910D01*
X646781Y464822D01*
X646813Y464733D01*
X646842Y464643D01*
X646868Y464551D01*
X646889Y464459D01*
X646907Y464365D01*
X646920Y464271D01*
X646930Y464177D01*
X646936Y464082D01*
X646938Y463987D01*
X644454Y461504D02*
X638246Y466471D01*
X637004Y472313D02*
X635762Y472313D01*
X635762Y478522D01*
X646938Y475417D01*
X540822Y305562D02*
X529082Y305562D01*
X540822Y305562D02*
X540955Y305564D01*
X541087Y305570D01*
X541219Y305580D01*
X541351Y305593D01*
X541483Y305611D01*
X541613Y305632D01*
X541744Y305657D01*
X541873Y305686D01*
X542001Y305719D01*
X542129Y305755D01*
X542255Y305795D01*
X542380Y305839D01*
X542504Y305887D01*
X542626Y305938D01*
X542747Y305993D01*
X542866Y306051D01*
X542984Y306113D01*
X543099Y306178D01*
X543213Y306247D01*
X543324Y306318D01*
X543433Y306394D01*
X543540Y306472D01*
X543645Y306553D01*
X543747Y306638D01*
X543847Y306725D01*
X543944Y306815D01*
X544039Y306908D01*
X544130Y307004D01*
X544219Y307102D01*
X544305Y307203D01*
X544388Y307307D01*
X544468Y307413D01*
X544544Y307521D01*
X544618Y307631D01*
X544688Y307744D01*
X544755Y307858D01*
X544818Y307975D01*
X544878Y308093D01*
X544935Y308213D01*
X544988Y308335D01*
X545037Y308458D01*
X545083Y308582D01*
X545125Y308708D01*
X545163Y308835D01*
X545198Y308963D01*
X545229Y309092D01*
X545256Y309221D01*
X545279Y309352D01*
X545299Y309483D01*
X545314Y309615D01*
X545326Y309747D01*
X545334Y309879D01*
X545338Y310012D01*
X545338Y310144D01*
X545334Y310277D01*
X545326Y310409D01*
X545314Y310541D01*
X545299Y310673D01*
X545279Y310804D01*
X545256Y310935D01*
X545229Y311064D01*
X545198Y311193D01*
X545163Y311321D01*
X545125Y311448D01*
X545083Y311574D01*
X545037Y311698D01*
X544988Y311821D01*
X544935Y311943D01*
X544878Y312063D01*
X544818Y312181D01*
X544755Y312298D01*
X544688Y312412D01*
X544618Y312525D01*
X544544Y312635D01*
X544468Y312743D01*
X544388Y312849D01*
X544305Y312953D01*
X544219Y313054D01*
X544130Y313152D01*
X544039Y313248D01*
X543944Y313341D01*
X543847Y313431D01*
X543747Y313518D01*
X543645Y313603D01*
X543540Y313684D01*
X543433Y313762D01*
X543324Y313838D01*
X543213Y313909D01*
X543099Y313978D01*
X542984Y314043D01*
X542866Y314105D01*
X542747Y314163D01*
X542626Y314218D01*
X542504Y314269D01*
X542380Y314317D01*
X542255Y314361D01*
X542129Y314401D01*
X542001Y314437D01*
X541873Y314470D01*
X541744Y314499D01*
X541613Y314524D01*
X541483Y314545D01*
X541351Y314563D01*
X541219Y314576D01*
X541087Y314586D01*
X540955Y314592D01*
X540822Y314594D01*
X540822Y314593D02*
X529082Y314593D01*
X529082Y325188D02*
X545338Y325188D01*
X537210Y325188D02*
X535855Y322930D01*
X535856Y322930D02*
X535801Y322843D01*
X535744Y322759D01*
X535683Y322677D01*
X535620Y322597D01*
X535553Y322520D01*
X535484Y322445D01*
X535412Y322373D01*
X535337Y322304D01*
X535259Y322237D01*
X535179Y322174D01*
X535097Y322113D01*
X535013Y322056D01*
X534926Y322002D01*
X534838Y321951D01*
X534747Y321904D01*
X534655Y321860D01*
X534561Y321820D01*
X534466Y321783D01*
X534370Y321750D01*
X534272Y321721D01*
X534173Y321695D01*
X534074Y321673D01*
X533973Y321655D01*
X533872Y321640D01*
X533771Y321630D01*
X533669Y321623D01*
X533567Y321620D01*
X533465Y321621D01*
X533363Y321626D01*
X533261Y321635D01*
X533160Y321647D01*
X533059Y321664D01*
X532959Y321684D01*
X532860Y321708D01*
X532762Y321735D01*
X532665Y321767D01*
X532569Y321802D01*
X532475Y321840D01*
X532382Y321882D01*
X532290Y321928D01*
X532201Y321977D01*
X532113Y322029D01*
X532028Y322085D01*
X531944Y322144D01*
X531863Y322206D01*
X531785Y322271D01*
X531709Y322339D01*
X531635Y322409D01*
X531564Y322483D01*
X531496Y322559D01*
X531431Y322638D01*
X531369Y322719D01*
X531310Y322802D01*
X531255Y322887D01*
X531202Y322975D01*
X531153Y323064D01*
X531107Y323156D01*
X531065Y323248D01*
X531026Y323343D01*
X530991Y323439D01*
X530960Y323536D01*
X530932Y323634D01*
X530908Y323733D01*
X530888Y323833D01*
X530889Y323833D02*
X530860Y324003D01*
X530835Y324173D01*
X530814Y324343D01*
X530798Y324515D01*
X530785Y324686D01*
X530777Y324858D01*
X530773Y325030D01*
X530772Y325202D01*
X530777Y325374D01*
X530785Y325546D01*
X530797Y325717D01*
X530813Y325888D01*
X530834Y326059D01*
X530859Y326229D01*
X530887Y326399D01*
X530920Y326568D01*
X530957Y326736D01*
X530998Y326903D01*
X531043Y327069D01*
X531092Y327234D01*
X531144Y327397D01*
X531201Y327560D01*
X531262Y327721D01*
X531326Y327880D01*
X531395Y328038D01*
X531467Y328194D01*
X531542Y328349D01*
X531622Y328501D01*
X531705Y328652D01*
X531792Y328800D01*
X537210Y325188D02*
X538565Y327446D01*
X538564Y327446D02*
X538619Y327533D01*
X538676Y327617D01*
X538737Y327699D01*
X538800Y327779D01*
X538867Y327856D01*
X538936Y327931D01*
X539008Y328003D01*
X539083Y328072D01*
X539161Y328139D01*
X539241Y328202D01*
X539323Y328263D01*
X539407Y328320D01*
X539494Y328374D01*
X539582Y328425D01*
X539673Y328472D01*
X539765Y328516D01*
X539859Y328556D01*
X539954Y328593D01*
X540050Y328626D01*
X540148Y328655D01*
X540247Y328681D01*
X540346Y328703D01*
X540447Y328721D01*
X540548Y328736D01*
X540649Y328746D01*
X540751Y328753D01*
X540853Y328756D01*
X540955Y328755D01*
X541057Y328750D01*
X541159Y328741D01*
X541260Y328729D01*
X541361Y328712D01*
X541461Y328692D01*
X541560Y328668D01*
X541658Y328641D01*
X541755Y328609D01*
X541851Y328574D01*
X541945Y328536D01*
X542038Y328494D01*
X542130Y328448D01*
X542219Y328399D01*
X542307Y328347D01*
X542392Y328291D01*
X542476Y328232D01*
X542557Y328170D01*
X542635Y328105D01*
X542711Y328037D01*
X542785Y327967D01*
X542856Y327893D01*
X542924Y327817D01*
X542989Y327738D01*
X543051Y327657D01*
X543110Y327574D01*
X543165Y327489D01*
X543218Y327401D01*
X543267Y327312D01*
X543313Y327220D01*
X543355Y327128D01*
X543394Y327033D01*
X543429Y326937D01*
X543460Y326840D01*
X543488Y326742D01*
X543512Y326643D01*
X543532Y326543D01*
X543531Y326542D02*
X543560Y326372D01*
X543585Y326202D01*
X543606Y326031D01*
X543622Y325860D01*
X543635Y325689D01*
X543643Y325517D01*
X543647Y325345D01*
X543648Y325173D01*
X543643Y325001D01*
X543635Y324829D01*
X543623Y324658D01*
X543607Y324487D01*
X543586Y324316D01*
X543561Y324146D01*
X543533Y323976D01*
X543500Y323807D01*
X543463Y323639D01*
X543422Y323472D01*
X543377Y323306D01*
X543328Y323141D01*
X543276Y322978D01*
X543219Y322815D01*
X543158Y322654D01*
X543094Y322495D01*
X543026Y322337D01*
X542953Y322181D01*
X542878Y322027D01*
X542798Y321874D01*
X542715Y321723D01*
X542628Y321575D01*
X545338Y335261D02*
X545338Y339777D01*
X545336Y339910D01*
X545330Y340042D01*
X545320Y340174D01*
X545307Y340306D01*
X545289Y340438D01*
X545268Y340568D01*
X545243Y340699D01*
X545214Y340828D01*
X545181Y340956D01*
X545145Y341084D01*
X545105Y341210D01*
X545061Y341335D01*
X545013Y341459D01*
X544962Y341581D01*
X544907Y341702D01*
X544849Y341821D01*
X544787Y341939D01*
X544722Y342054D01*
X544653Y342168D01*
X544582Y342279D01*
X544506Y342388D01*
X544428Y342495D01*
X544347Y342600D01*
X544262Y342702D01*
X544175Y342802D01*
X544085Y342899D01*
X543992Y342994D01*
X543896Y343085D01*
X543798Y343174D01*
X543697Y343260D01*
X543593Y343343D01*
X543487Y343423D01*
X543379Y343499D01*
X543269Y343573D01*
X543156Y343643D01*
X543042Y343710D01*
X542925Y343773D01*
X542807Y343833D01*
X542687Y343890D01*
X542565Y343943D01*
X542442Y343992D01*
X542318Y344038D01*
X542192Y344080D01*
X542065Y344118D01*
X541937Y344153D01*
X541808Y344184D01*
X541679Y344211D01*
X541548Y344234D01*
X541417Y344254D01*
X541285Y344269D01*
X541153Y344281D01*
X541021Y344289D01*
X540888Y344293D01*
X540756Y344293D01*
X540623Y344289D01*
X540491Y344281D01*
X540359Y344269D01*
X540227Y344254D01*
X540096Y344234D01*
X539965Y344211D01*
X539836Y344184D01*
X539707Y344153D01*
X539579Y344118D01*
X539452Y344080D01*
X539326Y344038D01*
X539202Y343992D01*
X539079Y343943D01*
X538957Y343890D01*
X538837Y343833D01*
X538719Y343773D01*
X538602Y343710D01*
X538488Y343643D01*
X538375Y343573D01*
X538265Y343499D01*
X538157Y343423D01*
X538051Y343343D01*
X537947Y343260D01*
X537846Y343174D01*
X537748Y343085D01*
X537652Y342994D01*
X537559Y342899D01*
X537469Y342802D01*
X537382Y342702D01*
X537297Y342600D01*
X537216Y342495D01*
X537138Y342388D01*
X537062Y342279D01*
X536991Y342168D01*
X536922Y342054D01*
X536857Y341939D01*
X536795Y341821D01*
X536737Y341702D01*
X536682Y341581D01*
X536631Y341459D01*
X536583Y341335D01*
X536539Y341210D01*
X536499Y341084D01*
X536463Y340956D01*
X536430Y340828D01*
X536401Y340699D01*
X536376Y340568D01*
X536355Y340438D01*
X536337Y340306D01*
X536324Y340174D01*
X536314Y340042D01*
X536308Y339910D01*
X536306Y339777D01*
X529082Y340680D02*
X529082Y335261D01*
X529082Y340680D02*
X529084Y340799D01*
X529090Y340919D01*
X529100Y341038D01*
X529114Y341156D01*
X529131Y341275D01*
X529153Y341392D01*
X529178Y341509D01*
X529208Y341624D01*
X529241Y341739D01*
X529278Y341853D01*
X529318Y341965D01*
X529363Y342076D01*
X529411Y342185D01*
X529462Y342293D01*
X529517Y342399D01*
X529576Y342503D01*
X529638Y342605D01*
X529703Y342705D01*
X529772Y342803D01*
X529844Y342899D01*
X529919Y342992D01*
X529996Y343082D01*
X530077Y343170D01*
X530161Y343255D01*
X530248Y343337D01*
X530337Y343417D01*
X530429Y343493D01*
X530523Y343567D01*
X530620Y343637D01*
X530718Y343704D01*
X530819Y343768D01*
X530923Y343828D01*
X531028Y343885D01*
X531135Y343938D01*
X531243Y343988D01*
X531353Y344034D01*
X531465Y344076D01*
X531578Y344115D01*
X531692Y344150D01*
X531807Y344181D01*
X531924Y344209D01*
X532041Y344232D01*
X532158Y344252D01*
X532277Y344268D01*
X532396Y344280D01*
X532515Y344288D01*
X532634Y344292D01*
X532754Y344292D01*
X532873Y344288D01*
X532992Y344280D01*
X533111Y344268D01*
X533230Y344252D01*
X533347Y344232D01*
X533464Y344209D01*
X533581Y344181D01*
X533696Y344150D01*
X533810Y344115D01*
X533923Y344076D01*
X534035Y344034D01*
X534145Y343988D01*
X534253Y343938D01*
X534360Y343885D01*
X534465Y343828D01*
X534569Y343768D01*
X534670Y343704D01*
X534768Y343637D01*
X534865Y343567D01*
X534959Y343493D01*
X535051Y343417D01*
X535140Y343337D01*
X535227Y343255D01*
X535311Y343170D01*
X535392Y343082D01*
X535469Y342992D01*
X535544Y342899D01*
X535616Y342803D01*
X535685Y342705D01*
X535750Y342605D01*
X535812Y342503D01*
X535871Y342399D01*
X535926Y342293D01*
X535977Y342185D01*
X536025Y342076D01*
X536070Y341965D01*
X536110Y341853D01*
X536147Y341739D01*
X536180Y341624D01*
X536210Y341509D01*
X536235Y341392D01*
X536257Y341275D01*
X536274Y341156D01*
X536288Y341038D01*
X536298Y340919D01*
X536304Y340799D01*
X536306Y340680D01*
X536307Y340680D02*
X536307Y337068D01*
D15*
X800100Y388620D02*
X800100Y398780D01*
D16*
X787781Y406781D02*
X787781Y414147D01*
X789827Y414147D01*
X789916Y414145D01*
X790005Y414139D01*
X790094Y414129D01*
X790182Y414116D01*
X790270Y414099D01*
X790357Y414077D01*
X790442Y414052D01*
X790527Y414024D01*
X790610Y413991D01*
X790692Y413955D01*
X790772Y413916D01*
X790850Y413873D01*
X790926Y413827D01*
X791001Y413777D01*
X791073Y413724D01*
X791142Y413668D01*
X791209Y413609D01*
X791274Y413548D01*
X791335Y413483D01*
X791394Y413416D01*
X791450Y413347D01*
X791503Y413275D01*
X791553Y413200D01*
X791599Y413124D01*
X791642Y413046D01*
X791681Y412966D01*
X791717Y412884D01*
X791750Y412801D01*
X791778Y412716D01*
X791803Y412631D01*
X791825Y412544D01*
X791842Y412456D01*
X791855Y412368D01*
X791865Y412279D01*
X791871Y412190D01*
X791873Y412101D01*
X791871Y412012D01*
X791865Y411923D01*
X791855Y411834D01*
X791842Y411746D01*
X791825Y411658D01*
X791803Y411571D01*
X791778Y411486D01*
X791750Y411401D01*
X791717Y411318D01*
X791681Y411236D01*
X791642Y411156D01*
X791599Y411078D01*
X791553Y411002D01*
X791503Y410927D01*
X791450Y410855D01*
X791394Y410786D01*
X791335Y410719D01*
X791274Y410654D01*
X791209Y410593D01*
X791142Y410534D01*
X791073Y410478D01*
X791001Y410425D01*
X790926Y410375D01*
X790850Y410329D01*
X790772Y410286D01*
X790692Y410247D01*
X790610Y410211D01*
X790527Y410178D01*
X790442Y410150D01*
X790357Y410125D01*
X790270Y410103D01*
X790182Y410086D01*
X790094Y410073D01*
X790005Y410063D01*
X789916Y410057D01*
X789827Y410055D01*
X787781Y410055D01*
X790236Y410055D02*
X791873Y406781D01*
X795045Y412510D02*
X797091Y414147D01*
X797091Y406781D01*
X795045Y406781D02*
X799137Y406781D01*
D15*
X800100Y477520D02*
X800100Y487680D01*
D16*
X825881Y312547D02*
X825881Y305181D01*
X825881Y312547D02*
X827927Y312547D01*
X828016Y312545D01*
X828105Y312539D01*
X828194Y312529D01*
X828282Y312516D01*
X828370Y312499D01*
X828457Y312477D01*
X828542Y312452D01*
X828627Y312424D01*
X828710Y312391D01*
X828792Y312355D01*
X828872Y312316D01*
X828950Y312273D01*
X829026Y312227D01*
X829101Y312177D01*
X829173Y312124D01*
X829242Y312068D01*
X829309Y312009D01*
X829374Y311948D01*
X829435Y311883D01*
X829494Y311816D01*
X829550Y311747D01*
X829603Y311675D01*
X829653Y311600D01*
X829699Y311524D01*
X829742Y311446D01*
X829781Y311366D01*
X829817Y311284D01*
X829850Y311201D01*
X829878Y311116D01*
X829903Y311031D01*
X829925Y310944D01*
X829942Y310856D01*
X829955Y310768D01*
X829965Y310679D01*
X829971Y310590D01*
X829973Y310501D01*
X829971Y310412D01*
X829965Y310323D01*
X829955Y310234D01*
X829942Y310146D01*
X829925Y310058D01*
X829903Y309971D01*
X829878Y309886D01*
X829850Y309801D01*
X829817Y309718D01*
X829781Y309636D01*
X829742Y309556D01*
X829699Y309478D01*
X829653Y309402D01*
X829603Y309327D01*
X829550Y309255D01*
X829494Y309186D01*
X829435Y309119D01*
X829374Y309054D01*
X829309Y308993D01*
X829242Y308934D01*
X829173Y308878D01*
X829101Y308825D01*
X829026Y308775D01*
X828950Y308729D01*
X828872Y308686D01*
X828792Y308647D01*
X828710Y308611D01*
X828627Y308578D01*
X828542Y308550D01*
X828457Y308525D01*
X828370Y308503D01*
X828282Y308486D01*
X828194Y308473D01*
X828105Y308463D01*
X828016Y308457D01*
X827927Y308455D01*
X825881Y308455D01*
X828336Y308455D02*
X829973Y305181D01*
X837238Y310706D02*
X837236Y310791D01*
X837230Y310876D01*
X837220Y310960D01*
X837207Y311044D01*
X837189Y311128D01*
X837168Y311210D01*
X837143Y311291D01*
X837114Y311371D01*
X837081Y311450D01*
X837045Y311527D01*
X837005Y311602D01*
X836962Y311676D01*
X836916Y311747D01*
X836866Y311816D01*
X836813Y311883D01*
X836757Y311947D01*
X836698Y312008D01*
X836637Y312067D01*
X836573Y312123D01*
X836506Y312176D01*
X836437Y312226D01*
X836366Y312272D01*
X836292Y312315D01*
X836217Y312355D01*
X836140Y312391D01*
X836061Y312424D01*
X835981Y312453D01*
X835900Y312478D01*
X835818Y312499D01*
X835734Y312517D01*
X835650Y312530D01*
X835566Y312540D01*
X835481Y312546D01*
X835396Y312548D01*
X835396Y312547D02*
X835300Y312545D01*
X835204Y312539D01*
X835109Y312529D01*
X835014Y312516D01*
X834919Y312498D01*
X834826Y312477D01*
X834733Y312452D01*
X834642Y312423D01*
X834551Y312391D01*
X834462Y312355D01*
X834375Y312315D01*
X834289Y312272D01*
X834205Y312226D01*
X834123Y312176D01*
X834043Y312122D01*
X833966Y312066D01*
X833891Y312006D01*
X833818Y311944D01*
X833748Y311878D01*
X833680Y311810D01*
X833615Y311739D01*
X833554Y311666D01*
X833495Y311590D01*
X833439Y311511D01*
X833387Y311431D01*
X833338Y311348D01*
X833292Y311264D01*
X833250Y311178D01*
X833212Y311090D01*
X833177Y311001D01*
X833145Y310910D01*
X836623Y309274D02*
X836683Y309333D01*
X836740Y309395D01*
X836795Y309459D01*
X836846Y309526D01*
X836895Y309595D01*
X836941Y309665D01*
X836984Y309738D01*
X837024Y309812D01*
X837060Y309888D01*
X837093Y309966D01*
X837123Y310045D01*
X837150Y310125D01*
X837173Y310206D01*
X837192Y310288D01*
X837208Y310370D01*
X837221Y310454D01*
X837230Y310538D01*
X837235Y310622D01*
X837237Y310706D01*
X836623Y309273D02*
X833145Y305181D01*
X837237Y305181D01*
D15*
X735650Y137100D02*
X604350Y137100D01*
X735650Y137100D02*
X735650Y122000D01*
X735650Y76200D02*
X735650Y-2900D01*
X604350Y-2900D01*
X604350Y76200D01*
X604350Y122000D02*
X604350Y137100D01*
D17*
X633500Y144000D02*
X633502Y144077D01*
X633508Y144154D01*
X633518Y144231D01*
X633532Y144307D01*
X633549Y144382D01*
X633571Y144456D01*
X633596Y144529D01*
X633626Y144601D01*
X633658Y144671D01*
X633695Y144739D01*
X633734Y144805D01*
X633777Y144869D01*
X633824Y144931D01*
X633873Y144990D01*
X633926Y145047D01*
X633981Y145101D01*
X634039Y145152D01*
X634100Y145200D01*
X634163Y145245D01*
X634228Y145286D01*
X634295Y145324D01*
X634364Y145359D01*
X634435Y145389D01*
X634507Y145417D01*
X634581Y145440D01*
X634655Y145460D01*
X634731Y145476D01*
X634807Y145488D01*
X634884Y145496D01*
X634961Y145500D01*
X635039Y145500D01*
X635116Y145496D01*
X635193Y145488D01*
X635269Y145476D01*
X635345Y145460D01*
X635419Y145440D01*
X635493Y145417D01*
X635565Y145389D01*
X635636Y145359D01*
X635705Y145324D01*
X635772Y145286D01*
X635837Y145245D01*
X635900Y145200D01*
X635961Y145152D01*
X636019Y145101D01*
X636074Y145047D01*
X636127Y144990D01*
X636176Y144931D01*
X636223Y144869D01*
X636266Y144805D01*
X636305Y144739D01*
X636342Y144671D01*
X636374Y144601D01*
X636404Y144529D01*
X636429Y144456D01*
X636451Y144382D01*
X636468Y144307D01*
X636482Y144231D01*
X636492Y144154D01*
X636498Y144077D01*
X636500Y144000D01*
X636498Y143923D01*
X636492Y143846D01*
X636482Y143769D01*
X636468Y143693D01*
X636451Y143618D01*
X636429Y143544D01*
X636404Y143471D01*
X636374Y143399D01*
X636342Y143329D01*
X636305Y143261D01*
X636266Y143195D01*
X636223Y143131D01*
X636176Y143069D01*
X636127Y143010D01*
X636074Y142953D01*
X636019Y142899D01*
X635961Y142848D01*
X635900Y142800D01*
X635837Y142755D01*
X635772Y142714D01*
X635705Y142676D01*
X635636Y142641D01*
X635565Y142611D01*
X635493Y142583D01*
X635419Y142560D01*
X635345Y142540D01*
X635269Y142524D01*
X635193Y142512D01*
X635116Y142504D01*
X635039Y142500D01*
X634961Y142500D01*
X634884Y142504D01*
X634807Y142512D01*
X634731Y142524D01*
X634655Y142540D01*
X634581Y142560D01*
X634507Y142583D01*
X634435Y142611D01*
X634364Y142641D01*
X634295Y142676D01*
X634228Y142714D01*
X634163Y142755D01*
X634100Y142800D01*
X634039Y142848D01*
X633981Y142899D01*
X633926Y142953D01*
X633873Y143010D01*
X633824Y143069D01*
X633777Y143131D01*
X633734Y143195D01*
X633695Y143261D01*
X633658Y143329D01*
X633626Y143399D01*
X633596Y143471D01*
X633571Y143544D01*
X633549Y143618D01*
X633532Y143693D01*
X633518Y143769D01*
X633508Y143846D01*
X633502Y143923D01*
X633500Y144000D01*
D13*
X582599Y152180D02*
X582599Y161277D01*
X582599Y152180D02*
X582597Y152080D01*
X582591Y151981D01*
X582582Y151882D01*
X582569Y151783D01*
X582551Y151685D01*
X582531Y151588D01*
X582506Y151491D01*
X582478Y151396D01*
X582446Y151301D01*
X582411Y151208D01*
X582372Y151117D01*
X582329Y151027D01*
X582283Y150938D01*
X582234Y150852D01*
X582182Y150767D01*
X582126Y150685D01*
X582067Y150604D01*
X582005Y150526D01*
X581940Y150451D01*
X581873Y150378D01*
X581802Y150307D01*
X581729Y150240D01*
X581654Y150175D01*
X581576Y150113D01*
X581495Y150054D01*
X581413Y149998D01*
X581328Y149946D01*
X581242Y149897D01*
X581153Y149851D01*
X581063Y149808D01*
X580972Y149769D01*
X580879Y149734D01*
X580784Y149702D01*
X580689Y149674D01*
X580592Y149649D01*
X580495Y149629D01*
X580397Y149611D01*
X580298Y149598D01*
X580199Y149589D01*
X580100Y149583D01*
X580000Y149581D01*
X580000Y149580D02*
X578700Y149580D01*
X587878Y158678D02*
X591127Y161277D01*
X591127Y149580D01*
X587878Y149580D02*
X594376Y149580D01*
D15*
X711200Y160020D02*
X711200Y170180D01*
D16*
X698881Y178181D02*
X698881Y185547D01*
X700927Y185547D01*
X701016Y185545D01*
X701105Y185539D01*
X701194Y185529D01*
X701282Y185516D01*
X701370Y185499D01*
X701457Y185477D01*
X701542Y185452D01*
X701627Y185424D01*
X701710Y185391D01*
X701792Y185355D01*
X701872Y185316D01*
X701950Y185273D01*
X702026Y185227D01*
X702101Y185177D01*
X702173Y185124D01*
X702242Y185068D01*
X702309Y185009D01*
X702374Y184948D01*
X702435Y184883D01*
X702494Y184816D01*
X702550Y184747D01*
X702603Y184675D01*
X702653Y184600D01*
X702699Y184524D01*
X702742Y184446D01*
X702781Y184366D01*
X702817Y184284D01*
X702850Y184201D01*
X702878Y184116D01*
X702903Y184031D01*
X702925Y183944D01*
X702942Y183856D01*
X702955Y183768D01*
X702965Y183679D01*
X702971Y183590D01*
X702973Y183501D01*
X702971Y183412D01*
X702965Y183323D01*
X702955Y183234D01*
X702942Y183146D01*
X702925Y183058D01*
X702903Y182971D01*
X702878Y182886D01*
X702850Y182801D01*
X702817Y182718D01*
X702781Y182636D01*
X702742Y182556D01*
X702699Y182478D01*
X702653Y182402D01*
X702603Y182327D01*
X702550Y182255D01*
X702494Y182186D01*
X702435Y182119D01*
X702374Y182054D01*
X702309Y181993D01*
X702242Y181934D01*
X702173Y181878D01*
X702101Y181825D01*
X702026Y181775D01*
X701950Y181729D01*
X701872Y181686D01*
X701792Y181647D01*
X701710Y181611D01*
X701627Y181578D01*
X701542Y181550D01*
X701457Y181525D01*
X701370Y181503D01*
X701282Y181486D01*
X701194Y181473D01*
X701105Y181463D01*
X701016Y181457D01*
X700927Y181455D01*
X698881Y181455D01*
X701336Y181455D02*
X702973Y178181D01*
X706145Y178181D02*
X708191Y178181D01*
X708280Y178183D01*
X708369Y178189D01*
X708458Y178199D01*
X708546Y178212D01*
X708634Y178229D01*
X708721Y178251D01*
X708806Y178276D01*
X708891Y178304D01*
X708974Y178337D01*
X709056Y178373D01*
X709136Y178412D01*
X709214Y178455D01*
X709290Y178501D01*
X709365Y178551D01*
X709437Y178604D01*
X709506Y178660D01*
X709573Y178719D01*
X709638Y178780D01*
X709699Y178845D01*
X709758Y178912D01*
X709814Y178981D01*
X709867Y179053D01*
X709917Y179128D01*
X709963Y179204D01*
X710006Y179282D01*
X710045Y179362D01*
X710081Y179444D01*
X710114Y179527D01*
X710142Y179612D01*
X710167Y179697D01*
X710189Y179784D01*
X710206Y179872D01*
X710219Y179960D01*
X710229Y180049D01*
X710235Y180138D01*
X710237Y180227D01*
X710235Y180316D01*
X710229Y180405D01*
X710219Y180494D01*
X710206Y180582D01*
X710189Y180670D01*
X710167Y180757D01*
X710142Y180842D01*
X710114Y180927D01*
X710081Y181010D01*
X710045Y181092D01*
X710006Y181172D01*
X709963Y181250D01*
X709917Y181326D01*
X709867Y181401D01*
X709814Y181473D01*
X709758Y181542D01*
X709699Y181609D01*
X709638Y181674D01*
X709573Y181735D01*
X709506Y181794D01*
X709437Y181850D01*
X709365Y181903D01*
X709290Y181953D01*
X709214Y181999D01*
X709136Y182042D01*
X709056Y182081D01*
X708974Y182117D01*
X708891Y182150D01*
X708806Y182178D01*
X708721Y182203D01*
X708634Y182225D01*
X708546Y182242D01*
X708458Y182255D01*
X708369Y182265D01*
X708280Y182271D01*
X708191Y182273D01*
X708600Y185547D02*
X706145Y185547D01*
X708600Y185547D02*
X708679Y185545D01*
X708758Y185539D01*
X708837Y185530D01*
X708915Y185517D01*
X708992Y185499D01*
X709068Y185479D01*
X709143Y185454D01*
X709217Y185426D01*
X709290Y185395D01*
X709361Y185359D01*
X709430Y185321D01*
X709497Y185279D01*
X709562Y185234D01*
X709625Y185186D01*
X709686Y185135D01*
X709743Y185081D01*
X709799Y185025D01*
X709851Y184966D01*
X709901Y184904D01*
X709947Y184840D01*
X709991Y184774D01*
X710031Y184706D01*
X710067Y184636D01*
X710101Y184564D01*
X710131Y184490D01*
X710157Y184416D01*
X710180Y184340D01*
X710198Y184263D01*
X710214Y184186D01*
X710225Y184107D01*
X710233Y184029D01*
X710237Y183950D01*
X710237Y183870D01*
X710233Y183791D01*
X710225Y183713D01*
X710214Y183634D01*
X710198Y183557D01*
X710180Y183480D01*
X710157Y183404D01*
X710131Y183330D01*
X710101Y183256D01*
X710067Y183184D01*
X710031Y183114D01*
X709991Y183046D01*
X709947Y182980D01*
X709901Y182916D01*
X709851Y182854D01*
X709799Y182795D01*
X709743Y182739D01*
X709686Y182685D01*
X709625Y182634D01*
X709562Y182586D01*
X709497Y182541D01*
X709430Y182499D01*
X709361Y182461D01*
X709290Y182425D01*
X709217Y182394D01*
X709143Y182366D01*
X709068Y182341D01*
X708992Y182321D01*
X708915Y182303D01*
X708837Y182290D01*
X708758Y182281D01*
X708679Y182275D01*
X708600Y182273D01*
X706963Y182273D01*
M02*
