G04 EAGLE Gerber RS-274X export*
G75*
%MOMM*%
%FSLAX34Y34*%
%LPD*%
%INSoldermask Bottom*%
%IPPOS*%
%AMOC8*
5,1,8,0,0,1.08239X$1,22.5*%
G01*
%ADD10R,1.676400X1.676400*%
%ADD11P,1.814519X8X292.500000*%
%ADD12R,1.828800X1.828800*%
%ADD13C,1.828800*%
%ADD14C,4.168400*%
%ADD15C,1.930400*%
%ADD16C,3.652400*%
%ADD17R,1.440400X1.440400*%
%ADD18C,1.440400*%
%ADD19C,3.372400*%
%ADD20C,4.597400*%
%ADD21C,0.609600*%
%ADD22C,1.168400*%


D10*
X98800Y588600D03*
D11*
X124200Y588600D03*
X98800Y563200D03*
X124200Y563200D03*
X98800Y537800D03*
X124200Y537800D03*
X98800Y512400D03*
X124200Y512400D03*
X98800Y487000D03*
X124200Y487000D03*
X98800Y461600D03*
X124200Y461600D03*
X98800Y436200D03*
X124200Y436200D03*
X98800Y410800D03*
X124200Y410800D03*
X98800Y385400D03*
X124200Y385400D03*
X98800Y360000D03*
X124200Y360000D03*
X98800Y334600D03*
X124200Y334600D03*
X98800Y309200D03*
X124200Y309200D03*
X98800Y283800D03*
X124200Y283800D03*
X98800Y258400D03*
X124200Y258400D03*
X98800Y233000D03*
X124200Y233000D03*
X98800Y207600D03*
X124200Y207600D03*
X98800Y182200D03*
X124200Y182200D03*
X98800Y156800D03*
X124200Y156800D03*
D10*
X352800Y588600D03*
D11*
X378200Y588600D03*
X352800Y563200D03*
X378200Y563200D03*
X352800Y537800D03*
X378200Y537800D03*
X352800Y512400D03*
X378200Y512400D03*
X352800Y487000D03*
X378200Y487000D03*
X352800Y461600D03*
X378200Y461600D03*
X352800Y436200D03*
X378200Y436200D03*
X352800Y410800D03*
X378200Y410800D03*
X352800Y385400D03*
X378200Y385400D03*
X352800Y360000D03*
X378200Y360000D03*
X352800Y334600D03*
X378200Y334600D03*
X352800Y309200D03*
X378200Y309200D03*
X352800Y283800D03*
X378200Y283800D03*
X352800Y258400D03*
X378200Y258400D03*
X352800Y233000D03*
X378200Y233000D03*
X352800Y207600D03*
X378200Y207600D03*
X352800Y182200D03*
X378200Y182200D03*
X352800Y156800D03*
X378200Y156800D03*
D12*
X927100Y76200D03*
D13*
X927100Y533400D03*
X927100Y508000D03*
X927100Y482600D03*
X927100Y457200D03*
X927100Y431800D03*
X927100Y406400D03*
X927100Y381000D03*
X927100Y355600D03*
X927100Y330200D03*
X927100Y304800D03*
X927100Y279400D03*
X927100Y254000D03*
X927100Y228600D03*
X927100Y203200D03*
X927100Y177800D03*
X927100Y152400D03*
X927100Y127000D03*
X927100Y101600D03*
X927100Y558800D03*
D12*
X165100Y76200D03*
D13*
X165100Y127000D03*
X165100Y152400D03*
X165100Y177800D03*
X165100Y203200D03*
X165100Y228600D03*
X165100Y254000D03*
X165100Y279400D03*
X165100Y304800D03*
X165100Y330200D03*
X165100Y355600D03*
X165100Y381000D03*
X165100Y406400D03*
X165100Y431800D03*
X165100Y457200D03*
X165100Y482600D03*
X165100Y508000D03*
X165100Y533400D03*
X165100Y101600D03*
X165100Y558800D03*
D14*
X165100Y31750D03*
X165100Y603250D03*
X927100Y31750D03*
X927100Y603250D03*
D15*
X723900Y381000D03*
X723900Y406400D03*
X723900Y431800D03*
X723900Y457200D03*
X723900Y482600D03*
X723900Y508000D03*
X571500Y508000D03*
X571500Y482600D03*
X571500Y381000D03*
X571500Y406400D03*
D16*
X584200Y342900D03*
X584200Y546100D03*
X723900Y342900D03*
X723900Y546100D03*
D17*
X635000Y127000D03*
D18*
X660000Y127000D03*
X680000Y127000D03*
X705000Y127000D03*
D19*
X604300Y99900D03*
X735700Y99900D03*
D20*
X38100Y25400D03*
X38100Y609600D03*
X977900Y609600D03*
X977900Y25400D03*
D21*
X68580Y622300D02*
X68582Y622487D01*
X68589Y622674D01*
X68601Y622861D01*
X68617Y623047D01*
X68637Y623233D01*
X68662Y623418D01*
X68692Y623603D01*
X68726Y623787D01*
X68765Y623970D01*
X68808Y624152D01*
X68856Y624332D01*
X68908Y624512D01*
X68965Y624690D01*
X69025Y624867D01*
X69091Y625042D01*
X69160Y625216D01*
X69234Y625388D01*
X69312Y625558D01*
X69394Y625726D01*
X69480Y625892D01*
X69570Y626056D01*
X69664Y626217D01*
X69762Y626377D01*
X69864Y626533D01*
X69970Y626688D01*
X70080Y626839D01*
X70193Y626988D01*
X70310Y627134D01*
X70430Y627277D01*
X70554Y627417D01*
X70681Y627554D01*
X70812Y627688D01*
X70946Y627819D01*
X71083Y627946D01*
X71223Y628070D01*
X71366Y628190D01*
X71512Y628307D01*
X71661Y628420D01*
X71812Y628530D01*
X71967Y628636D01*
X72123Y628738D01*
X72283Y628836D01*
X72444Y628930D01*
X72608Y629020D01*
X72774Y629106D01*
X72942Y629188D01*
X73112Y629266D01*
X73284Y629340D01*
X73458Y629409D01*
X73633Y629475D01*
X73810Y629535D01*
X73988Y629592D01*
X74168Y629644D01*
X74348Y629692D01*
X74530Y629735D01*
X74713Y629774D01*
X74897Y629808D01*
X75082Y629838D01*
X75267Y629863D01*
X75453Y629883D01*
X75639Y629899D01*
X75826Y629911D01*
X76013Y629918D01*
X76200Y629920D01*
X76387Y629918D01*
X76574Y629911D01*
X76761Y629899D01*
X76947Y629883D01*
X77133Y629863D01*
X77318Y629838D01*
X77503Y629808D01*
X77687Y629774D01*
X77870Y629735D01*
X78052Y629692D01*
X78232Y629644D01*
X78412Y629592D01*
X78590Y629535D01*
X78767Y629475D01*
X78942Y629409D01*
X79116Y629340D01*
X79288Y629266D01*
X79458Y629188D01*
X79626Y629106D01*
X79792Y629020D01*
X79956Y628930D01*
X80117Y628836D01*
X80277Y628738D01*
X80433Y628636D01*
X80588Y628530D01*
X80739Y628420D01*
X80888Y628307D01*
X81034Y628190D01*
X81177Y628070D01*
X81317Y627946D01*
X81454Y627819D01*
X81588Y627688D01*
X81719Y627554D01*
X81846Y627417D01*
X81970Y627277D01*
X82090Y627134D01*
X82207Y626988D01*
X82320Y626839D01*
X82430Y626688D01*
X82536Y626533D01*
X82638Y626377D01*
X82736Y626217D01*
X82830Y626056D01*
X82920Y625892D01*
X83006Y625726D01*
X83088Y625558D01*
X83166Y625388D01*
X83240Y625216D01*
X83309Y625042D01*
X83375Y624867D01*
X83435Y624690D01*
X83492Y624512D01*
X83544Y624332D01*
X83592Y624152D01*
X83635Y623970D01*
X83674Y623787D01*
X83708Y623603D01*
X83738Y623418D01*
X83763Y623233D01*
X83783Y623047D01*
X83799Y622861D01*
X83811Y622674D01*
X83818Y622487D01*
X83820Y622300D01*
X83818Y622113D01*
X83811Y621926D01*
X83799Y621739D01*
X83783Y621553D01*
X83763Y621367D01*
X83738Y621182D01*
X83708Y620997D01*
X83674Y620813D01*
X83635Y620630D01*
X83592Y620448D01*
X83544Y620268D01*
X83492Y620088D01*
X83435Y619910D01*
X83375Y619733D01*
X83309Y619558D01*
X83240Y619384D01*
X83166Y619212D01*
X83088Y619042D01*
X83006Y618874D01*
X82920Y618708D01*
X82830Y618544D01*
X82736Y618383D01*
X82638Y618223D01*
X82536Y618067D01*
X82430Y617912D01*
X82320Y617761D01*
X82207Y617612D01*
X82090Y617466D01*
X81970Y617323D01*
X81846Y617183D01*
X81719Y617046D01*
X81588Y616912D01*
X81454Y616781D01*
X81317Y616654D01*
X81177Y616530D01*
X81034Y616410D01*
X80888Y616293D01*
X80739Y616180D01*
X80588Y616070D01*
X80433Y615964D01*
X80277Y615862D01*
X80117Y615764D01*
X79956Y615670D01*
X79792Y615580D01*
X79626Y615494D01*
X79458Y615412D01*
X79288Y615334D01*
X79116Y615260D01*
X78942Y615191D01*
X78767Y615125D01*
X78590Y615065D01*
X78412Y615008D01*
X78232Y614956D01*
X78052Y614908D01*
X77870Y614865D01*
X77687Y614826D01*
X77503Y614792D01*
X77318Y614762D01*
X77133Y614737D01*
X76947Y614717D01*
X76761Y614701D01*
X76574Y614689D01*
X76387Y614682D01*
X76200Y614680D01*
X76013Y614682D01*
X75826Y614689D01*
X75639Y614701D01*
X75453Y614717D01*
X75267Y614737D01*
X75082Y614762D01*
X74897Y614792D01*
X74713Y614826D01*
X74530Y614865D01*
X74348Y614908D01*
X74168Y614956D01*
X73988Y615008D01*
X73810Y615065D01*
X73633Y615125D01*
X73458Y615191D01*
X73284Y615260D01*
X73112Y615334D01*
X72942Y615412D01*
X72774Y615494D01*
X72608Y615580D01*
X72444Y615670D01*
X72283Y615764D01*
X72123Y615862D01*
X71967Y615964D01*
X71812Y616070D01*
X71661Y616180D01*
X71512Y616293D01*
X71366Y616410D01*
X71223Y616530D01*
X71083Y616654D01*
X70946Y616781D01*
X70812Y616912D01*
X70681Y617046D01*
X70554Y617183D01*
X70430Y617323D01*
X70310Y617466D01*
X70193Y617612D01*
X70080Y617761D01*
X69970Y617912D01*
X69864Y618067D01*
X69762Y618223D01*
X69664Y618383D01*
X69570Y618544D01*
X69480Y618708D01*
X69394Y618874D01*
X69312Y619042D01*
X69234Y619212D01*
X69160Y619384D01*
X69091Y619558D01*
X69025Y619733D01*
X68965Y619910D01*
X68908Y620088D01*
X68856Y620268D01*
X68808Y620448D01*
X68765Y620630D01*
X68726Y620813D01*
X68692Y620997D01*
X68662Y621182D01*
X68637Y621367D01*
X68617Y621553D01*
X68601Y621739D01*
X68589Y621926D01*
X68582Y622113D01*
X68580Y622300D01*
D22*
X76200Y622300D03*
D21*
X81280Y63500D02*
X81282Y63687D01*
X81289Y63874D01*
X81301Y64061D01*
X81317Y64247D01*
X81337Y64433D01*
X81362Y64618D01*
X81392Y64803D01*
X81426Y64987D01*
X81465Y65170D01*
X81508Y65352D01*
X81556Y65532D01*
X81608Y65712D01*
X81665Y65890D01*
X81725Y66067D01*
X81791Y66242D01*
X81860Y66416D01*
X81934Y66588D01*
X82012Y66758D01*
X82094Y66926D01*
X82180Y67092D01*
X82270Y67256D01*
X82364Y67417D01*
X82462Y67577D01*
X82564Y67733D01*
X82670Y67888D01*
X82780Y68039D01*
X82893Y68188D01*
X83010Y68334D01*
X83130Y68477D01*
X83254Y68617D01*
X83381Y68754D01*
X83512Y68888D01*
X83646Y69019D01*
X83783Y69146D01*
X83923Y69270D01*
X84066Y69390D01*
X84212Y69507D01*
X84361Y69620D01*
X84512Y69730D01*
X84667Y69836D01*
X84823Y69938D01*
X84983Y70036D01*
X85144Y70130D01*
X85308Y70220D01*
X85474Y70306D01*
X85642Y70388D01*
X85812Y70466D01*
X85984Y70540D01*
X86158Y70609D01*
X86333Y70675D01*
X86510Y70735D01*
X86688Y70792D01*
X86868Y70844D01*
X87048Y70892D01*
X87230Y70935D01*
X87413Y70974D01*
X87597Y71008D01*
X87782Y71038D01*
X87967Y71063D01*
X88153Y71083D01*
X88339Y71099D01*
X88526Y71111D01*
X88713Y71118D01*
X88900Y71120D01*
X89087Y71118D01*
X89274Y71111D01*
X89461Y71099D01*
X89647Y71083D01*
X89833Y71063D01*
X90018Y71038D01*
X90203Y71008D01*
X90387Y70974D01*
X90570Y70935D01*
X90752Y70892D01*
X90932Y70844D01*
X91112Y70792D01*
X91290Y70735D01*
X91467Y70675D01*
X91642Y70609D01*
X91816Y70540D01*
X91988Y70466D01*
X92158Y70388D01*
X92326Y70306D01*
X92492Y70220D01*
X92656Y70130D01*
X92817Y70036D01*
X92977Y69938D01*
X93133Y69836D01*
X93288Y69730D01*
X93439Y69620D01*
X93588Y69507D01*
X93734Y69390D01*
X93877Y69270D01*
X94017Y69146D01*
X94154Y69019D01*
X94288Y68888D01*
X94419Y68754D01*
X94546Y68617D01*
X94670Y68477D01*
X94790Y68334D01*
X94907Y68188D01*
X95020Y68039D01*
X95130Y67888D01*
X95236Y67733D01*
X95338Y67577D01*
X95436Y67417D01*
X95530Y67256D01*
X95620Y67092D01*
X95706Y66926D01*
X95788Y66758D01*
X95866Y66588D01*
X95940Y66416D01*
X96009Y66242D01*
X96075Y66067D01*
X96135Y65890D01*
X96192Y65712D01*
X96244Y65532D01*
X96292Y65352D01*
X96335Y65170D01*
X96374Y64987D01*
X96408Y64803D01*
X96438Y64618D01*
X96463Y64433D01*
X96483Y64247D01*
X96499Y64061D01*
X96511Y63874D01*
X96518Y63687D01*
X96520Y63500D01*
X96518Y63313D01*
X96511Y63126D01*
X96499Y62939D01*
X96483Y62753D01*
X96463Y62567D01*
X96438Y62382D01*
X96408Y62197D01*
X96374Y62013D01*
X96335Y61830D01*
X96292Y61648D01*
X96244Y61468D01*
X96192Y61288D01*
X96135Y61110D01*
X96075Y60933D01*
X96009Y60758D01*
X95940Y60584D01*
X95866Y60412D01*
X95788Y60242D01*
X95706Y60074D01*
X95620Y59908D01*
X95530Y59744D01*
X95436Y59583D01*
X95338Y59423D01*
X95236Y59267D01*
X95130Y59112D01*
X95020Y58961D01*
X94907Y58812D01*
X94790Y58666D01*
X94670Y58523D01*
X94546Y58383D01*
X94419Y58246D01*
X94288Y58112D01*
X94154Y57981D01*
X94017Y57854D01*
X93877Y57730D01*
X93734Y57610D01*
X93588Y57493D01*
X93439Y57380D01*
X93288Y57270D01*
X93133Y57164D01*
X92977Y57062D01*
X92817Y56964D01*
X92656Y56870D01*
X92492Y56780D01*
X92326Y56694D01*
X92158Y56612D01*
X91988Y56534D01*
X91816Y56460D01*
X91642Y56391D01*
X91467Y56325D01*
X91290Y56265D01*
X91112Y56208D01*
X90932Y56156D01*
X90752Y56108D01*
X90570Y56065D01*
X90387Y56026D01*
X90203Y55992D01*
X90018Y55962D01*
X89833Y55937D01*
X89647Y55917D01*
X89461Y55901D01*
X89274Y55889D01*
X89087Y55882D01*
X88900Y55880D01*
X88713Y55882D01*
X88526Y55889D01*
X88339Y55901D01*
X88153Y55917D01*
X87967Y55937D01*
X87782Y55962D01*
X87597Y55992D01*
X87413Y56026D01*
X87230Y56065D01*
X87048Y56108D01*
X86868Y56156D01*
X86688Y56208D01*
X86510Y56265D01*
X86333Y56325D01*
X86158Y56391D01*
X85984Y56460D01*
X85812Y56534D01*
X85642Y56612D01*
X85474Y56694D01*
X85308Y56780D01*
X85144Y56870D01*
X84983Y56964D01*
X84823Y57062D01*
X84667Y57164D01*
X84512Y57270D01*
X84361Y57380D01*
X84212Y57493D01*
X84066Y57610D01*
X83923Y57730D01*
X83783Y57854D01*
X83646Y57981D01*
X83512Y58112D01*
X83381Y58246D01*
X83254Y58383D01*
X83130Y58523D01*
X83010Y58666D01*
X82893Y58812D01*
X82780Y58961D01*
X82670Y59112D01*
X82564Y59267D01*
X82462Y59423D01*
X82364Y59583D01*
X82270Y59744D01*
X82180Y59908D01*
X82094Y60074D01*
X82012Y60242D01*
X81934Y60412D01*
X81860Y60584D01*
X81791Y60758D01*
X81725Y60933D01*
X81665Y61110D01*
X81608Y61288D01*
X81556Y61468D01*
X81508Y61648D01*
X81465Y61830D01*
X81426Y62013D01*
X81392Y62197D01*
X81362Y62382D01*
X81337Y62567D01*
X81317Y62753D01*
X81301Y62939D01*
X81289Y63126D01*
X81282Y63313D01*
X81280Y63500D01*
D22*
X88900Y63500D03*
D21*
X970280Y76200D02*
X970282Y76387D01*
X970289Y76574D01*
X970301Y76761D01*
X970317Y76947D01*
X970337Y77133D01*
X970362Y77318D01*
X970392Y77503D01*
X970426Y77687D01*
X970465Y77870D01*
X970508Y78052D01*
X970556Y78232D01*
X970608Y78412D01*
X970665Y78590D01*
X970725Y78767D01*
X970791Y78942D01*
X970860Y79116D01*
X970934Y79288D01*
X971012Y79458D01*
X971094Y79626D01*
X971180Y79792D01*
X971270Y79956D01*
X971364Y80117D01*
X971462Y80277D01*
X971564Y80433D01*
X971670Y80588D01*
X971780Y80739D01*
X971893Y80888D01*
X972010Y81034D01*
X972130Y81177D01*
X972254Y81317D01*
X972381Y81454D01*
X972512Y81588D01*
X972646Y81719D01*
X972783Y81846D01*
X972923Y81970D01*
X973066Y82090D01*
X973212Y82207D01*
X973361Y82320D01*
X973512Y82430D01*
X973667Y82536D01*
X973823Y82638D01*
X973983Y82736D01*
X974144Y82830D01*
X974308Y82920D01*
X974474Y83006D01*
X974642Y83088D01*
X974812Y83166D01*
X974984Y83240D01*
X975158Y83309D01*
X975333Y83375D01*
X975510Y83435D01*
X975688Y83492D01*
X975868Y83544D01*
X976048Y83592D01*
X976230Y83635D01*
X976413Y83674D01*
X976597Y83708D01*
X976782Y83738D01*
X976967Y83763D01*
X977153Y83783D01*
X977339Y83799D01*
X977526Y83811D01*
X977713Y83818D01*
X977900Y83820D01*
X978087Y83818D01*
X978274Y83811D01*
X978461Y83799D01*
X978647Y83783D01*
X978833Y83763D01*
X979018Y83738D01*
X979203Y83708D01*
X979387Y83674D01*
X979570Y83635D01*
X979752Y83592D01*
X979932Y83544D01*
X980112Y83492D01*
X980290Y83435D01*
X980467Y83375D01*
X980642Y83309D01*
X980816Y83240D01*
X980988Y83166D01*
X981158Y83088D01*
X981326Y83006D01*
X981492Y82920D01*
X981656Y82830D01*
X981817Y82736D01*
X981977Y82638D01*
X982133Y82536D01*
X982288Y82430D01*
X982439Y82320D01*
X982588Y82207D01*
X982734Y82090D01*
X982877Y81970D01*
X983017Y81846D01*
X983154Y81719D01*
X983288Y81588D01*
X983419Y81454D01*
X983546Y81317D01*
X983670Y81177D01*
X983790Y81034D01*
X983907Y80888D01*
X984020Y80739D01*
X984130Y80588D01*
X984236Y80433D01*
X984338Y80277D01*
X984436Y80117D01*
X984530Y79956D01*
X984620Y79792D01*
X984706Y79626D01*
X984788Y79458D01*
X984866Y79288D01*
X984940Y79116D01*
X985009Y78942D01*
X985075Y78767D01*
X985135Y78590D01*
X985192Y78412D01*
X985244Y78232D01*
X985292Y78052D01*
X985335Y77870D01*
X985374Y77687D01*
X985408Y77503D01*
X985438Y77318D01*
X985463Y77133D01*
X985483Y76947D01*
X985499Y76761D01*
X985511Y76574D01*
X985518Y76387D01*
X985520Y76200D01*
X985518Y76013D01*
X985511Y75826D01*
X985499Y75639D01*
X985483Y75453D01*
X985463Y75267D01*
X985438Y75082D01*
X985408Y74897D01*
X985374Y74713D01*
X985335Y74530D01*
X985292Y74348D01*
X985244Y74168D01*
X985192Y73988D01*
X985135Y73810D01*
X985075Y73633D01*
X985009Y73458D01*
X984940Y73284D01*
X984866Y73112D01*
X984788Y72942D01*
X984706Y72774D01*
X984620Y72608D01*
X984530Y72444D01*
X984436Y72283D01*
X984338Y72123D01*
X984236Y71967D01*
X984130Y71812D01*
X984020Y71661D01*
X983907Y71512D01*
X983790Y71366D01*
X983670Y71223D01*
X983546Y71083D01*
X983419Y70946D01*
X983288Y70812D01*
X983154Y70681D01*
X983017Y70554D01*
X982877Y70430D01*
X982734Y70310D01*
X982588Y70193D01*
X982439Y70080D01*
X982288Y69970D01*
X982133Y69864D01*
X981977Y69762D01*
X981817Y69664D01*
X981656Y69570D01*
X981492Y69480D01*
X981326Y69394D01*
X981158Y69312D01*
X980988Y69234D01*
X980816Y69160D01*
X980642Y69091D01*
X980467Y69025D01*
X980290Y68965D01*
X980112Y68908D01*
X979932Y68856D01*
X979752Y68808D01*
X979570Y68765D01*
X979387Y68726D01*
X979203Y68692D01*
X979018Y68662D01*
X978833Y68637D01*
X978647Y68617D01*
X978461Y68601D01*
X978274Y68589D01*
X978087Y68582D01*
X977900Y68580D01*
X977713Y68582D01*
X977526Y68589D01*
X977339Y68601D01*
X977153Y68617D01*
X976967Y68637D01*
X976782Y68662D01*
X976597Y68692D01*
X976413Y68726D01*
X976230Y68765D01*
X976048Y68808D01*
X975868Y68856D01*
X975688Y68908D01*
X975510Y68965D01*
X975333Y69025D01*
X975158Y69091D01*
X974984Y69160D01*
X974812Y69234D01*
X974642Y69312D01*
X974474Y69394D01*
X974308Y69480D01*
X974144Y69570D01*
X973983Y69664D01*
X973823Y69762D01*
X973667Y69864D01*
X973512Y69970D01*
X973361Y70080D01*
X973212Y70193D01*
X973066Y70310D01*
X972923Y70430D01*
X972783Y70554D01*
X972646Y70681D01*
X972512Y70812D01*
X972381Y70946D01*
X972254Y71083D01*
X972130Y71223D01*
X972010Y71366D01*
X971893Y71512D01*
X971780Y71661D01*
X971670Y71812D01*
X971564Y71967D01*
X971462Y72123D01*
X971364Y72283D01*
X971270Y72444D01*
X971180Y72608D01*
X971094Y72774D01*
X971012Y72942D01*
X970934Y73112D01*
X970860Y73284D01*
X970791Y73458D01*
X970725Y73633D01*
X970665Y73810D01*
X970608Y73988D01*
X970556Y74168D01*
X970508Y74348D01*
X970465Y74530D01*
X970426Y74713D01*
X970392Y74897D01*
X970362Y75082D01*
X970337Y75267D01*
X970317Y75453D01*
X970301Y75639D01*
X970289Y75826D01*
X970282Y76013D01*
X970280Y76200D01*
D22*
X977900Y76200D03*
M02*
